<svg width="512" height="1065" viewBox="0 0 512 1065" fill="none" xmlns="http://www.w3.org/2000/svg">
<g clip-path="url(#clip0_556_846)">
<path d="M206.056 690.879C154.657 691.318 103.258 691.758 51.4377 694.086C51.4377 705.799 51.4377 717.513 52.2747 730.311C43.3212 730.681 25.4022 729.55 14.5932 732.265C14.5932 860.103 10.1187 923.583 10.1187 1047.7C199.87 1047.7 344.887 1058.49 502.5 1054.87L509.502 727.159L483.87 726.745L480.976 689.952L206.056 690.88V690.879Z" fill="white"/>
<path d="M201.584 690.267C199.463 544.184 197.342 398.1 195.221 252.015C282.155 169.727 362.4 86.8338 449.147 4.87378L448.361 693.906L201.584 690.267Z" fill="white"/>
<path d="M446.549 1.46446C444.863 0.445961 442.512 0.757961 441.138 2.16196C431.879 9.23596 423.272 17.1005 414.293 24.518C400.418 35.792 386.504 47.0435 373.596 59.4365C346.905 85.001 322.67 113.009 295.37 137.952C279.473 152.436 264.794 168.12 250.218 183.908C232.742 201.227 216.731 219.972 198.864 236.901C195.005 240.54 191.084 244.121 187.017 247.529C185.417 248.918 183.423 250.07 182.876 252.254C180.236 272.358 184.364 292.619 184.635 312.773C186.095 364.788 185.009 416.843 185.435 468.873C186.294 503.612 188.102 538.335 188.585 573.086C188.6 590.282 188.574 607.484 189.549 624.659C190.122 635.61 189.806 646.583 190.286 657.536C190.85 669.132 191.91 680.709 193.535 692.205C194.057 694.169 195.833 695.801 197.87 695.94C200.378 696.426 202.916 694.622 203.591 692.205C204.056 688.727 202.865 686.198 202.461 680.127C201.536 671.196 200.828 662.237 200.558 653.261C200.553 631.182 198.93 609.15 199.043 587.07C199.103 548.798 197.007 510.557 195.917 472.308C195.495 422.678 196.263 373.037 195.411 323.409C195.206 306.672 193.565 290.015 192.636 273.317C192.414 267.507 192.288 261.671 192.827 255.875C205.542 246.863 225.78 224.495 239.619 209.817C246.633 202.239 254.106 195.105 261.167 187.571C272.268 175.418 283.461 163.34 295.559 152.16C305.654 142.467 315.993 133.025 325.884 123.123C340.911 107.526 355.79 91.787 371.067 76.433C389.277 57.911 409.494 41.558 428.826 24.2555C433.7 19.931 438.591 15.623 443.66 11.5265C445.197 9.99046 447.521 9.10696 448.373 7.03996C449.351 5.10346 448.409 2.53546 446.546 1.46446H446.549Z" fill="#C1C1C1"/>
<path d="M52.5891 698.027C52.7316 696.011 52.7796 693.745 51.1821 692.257C48.1836 689.135 42.3801 691.438 42.5196 695.845C41.8191 703.496 41.6496 718.631 41.7426 723.877C35.7126 725.365 30.6846 724.99 22.0146 725.584C18.1176 725.861 14.1921 725.881 10.3161 726.37C7.70007 726.995 6.03657 729.449 5.76957 732.038C3.76857 750.265 4.92207 768.713 4.57107 787.022C4.29357 806.243 3.66657 825.454 3.79707 844.681C3.63807 861.073 2.41257 877.426 1.88307 893.806C1.34607 913.745 1.13907 933.706 1.70007 953.647C2.39907 977.51 3.30957 1001.4 2.04807 1025.26C1.80807 1030.9 1.50957 1036.54 1.23057 1042.18C1.16457 1047.1 -1.10043 1054.36 6.01857 1054.87C12.5046 1054.56 11.1726 1047.37 11.6496 1042.79C11.9121 1037.84 12.1416 1032.88 12.3876 1027.92C13.6056 1006.4 13.0716 984.854 12.4551 963.32C10.9446 926.918 12.3276 890.509 14.0496 854.143C14.4306 843.014 14.2161 831.88 14.3241 820.747C14.5821 807.418 15.1191 794.093 15.0306 780.758C15.2391 765.98 14.6496 751.138 15.7686 736.394C21.0561 736.087 26.3421 735.781 31.6311 735.524C37.0311 735.166 42.7356 735.089 47.7126 732.748C51.1116 731.006 52.6086 727.193 52.1676 723.518C52.0956 718.009 52.0776 712.496 52.2321 706.988C52.2921 704 52.4586 701.015 52.5891 698.029V698.027Z" fill="#C1C1C1"/>
<path d="M506.315 1057.77C505.231 1053.47 500.977 1053.6 497.366 1053.7C491.648 1053.66 485.929 1053.7 480.209 1053.75C461.092 1054.05 441.977 1054.62 422.855 1054.48C385.858 1053.9 348.859 1053.17 311.864 1052.48C286.876 1053.05 261.941 1051.68 236.986 1050.68C213.463 1049.77 189.959 1051.35 166.438 1051.2C157.58 1051.12 148.745 1050.34 139.888 1050.34C127.468 1050.32 115.039 1050.58 102.661 1049.35C89.684 1048.49 76.715 1047.39 63.7145 1047C47.732 1046.49 31.7195 1046.64 15.7685 1045.41C13.1255 1045.2 10.478 1045.06 7.82903 1044.96C5.89403 1044.82 3.75502 1044.56 2.26252 1046.07C-0.668475 1048.67 1.21702 1054.03 5.23102 1054.04C15.5915 1055.13 25.922 1056.62 36.3605 1056.71C55.523 1057.17 74.681 1057.66 93.794 1059.2C108.037 1060.43 122.288 1061.06 136.586 1060.77C146.324 1060.67 156.035 1061.52 165.769 1061.64C188.5 1061.86 211.211 1060.25 233.942 1061.07C252.788 1061.42 271.597 1063.09 290.453 1063.01C317.465 1062.6 344.452 1063.79 371.459 1064.07C404.593 1064.6 437.723 1065.46 470.857 1064.34C477.865 1064.19 484.876 1064.14 491.885 1064.13C495.587 1063.87 499.49 1064.74 503.071 1063.83C505.516 1063.08 506.902 1060.23 506.318 1057.78L506.315 1057.77Z" fill="#C1C1C1"/>
<path d="M26.2025 848.026C26.3525 831.703 27.7115 815.422 27.914 799.102C28.2965 778.835 28.04 758.563 28.1105 738.293C27.905 728.513 13.4015 728.342 13.1105 738.293C13.034 761.209 13.3625 784.132 12.731 807.041C12.1295 824.47 10.916 841.882 11.162 859.331C11.216 886.31 12.9305 913.255 12.935 940.237C13.028 967.186 11.795 994.121 11.234 1021.06C11.126 1025.68 11.0285 1030.3 10.9505 1034.92C11.138 1037.95 10.223 1041.25 11.504 1044.08C12.446 1046.87 15.467 1048.7 18.359 1048.69C22.388 1048.67 25.9235 1045.27 25.859 1041.19C25.9775 1031.95 26.1785 1022.72 26.426 1013.48C27.128 984.02 28.424 954.557 27.7505 925.085C27.374 899.393 25.769 873.727 26.2025 848.024V848.026Z" fill="#DBDBDB"/>
<path d="M442.279 685.068C441.643 685.145 440.96 685.227 440.262 685.311C440.018 685.35 439.773 685.391 439.532 685.437C440.448 685.314 441.362 685.191 442.279 685.068Z" fill="#DBDBDB"/>
<path d="M446.2 663.845C436.703 665.054 427.282 666.761 417.796 668.048C380.612 673.318 354.469 679.309 314.999 677.723C295.91 676.501 276.911 673.81 257.755 673.685C245.21 673.184 232.781 675.598 220.255 675.413C219.304 675.433 218.35 675.418 217.397 675.388C218.035 649.814 217.97 624.214 217.214 598.645C216.514 572.875 216.437 547.094 215.078 521.345C214.244 490.622 214.684 459.88 213.556 429.161C212.854 382.594 210.362 347.585 209.24 299.986C208.786 288.068 207.955 268.517 207.419 263.431C206.726 256.891 207.029 259.66 206.363 253.361C206.369 251.5 205.618 249.736 204.317 248.422C200.179 244.172 192.241 247.187 192.394 253.361C193.193 278.525 193.139 303.727 193.045 328.907C193.517 346.409 193.688 363.913 194.008 381.416C194.662 407.273 195.734 433.117 196.603 458.966C196.834 487.15 198.109 515.303 199.648 543.443C200.369 557.891 200.347 572.362 200.765 586.819C201.169 601.369 201.905 615.914 201.745 630.475C201.685 641.942 201.584 653.41 201.533 664.877C201.488 669.04 201.379 673.199 201.241 677.359C200.893 681.233 201.823 685.175 204.574 688.037C208.72 691.775 214.604 691.909 219.889 692.395C219.137 692.294 218.386 692.192 217.634 692.092C223.864 693.044 230.221 692.042 236.467 691.622C242.137 691.019 247.844 691.103 253.535 691.274C282.391 692.698 303.505 698.36 340.462 696.988C359.276 696.308 377.912 693.502 396.518 690.797C406.735 689.254 427.987 686.791 440.26 685.315C444.853 684.584 450.076 685.124 453.524 681.532C459.976 675.203 455.291 663.749 446.198 663.847L446.2 663.845Z" fill="#DBDBDB"/>
<path d="M492.098 1041.63C488.366 1041.54 478.532 1040.76 468.071 1041.39C455.004 1042.02 442.014 1043.86 428.928 1044.17C412.398 1044.41 396.068 1041.26 379.592 1040.32C367.92 1039.13 356.189 1039.15 344.487 1038.47C335.186 1037.95 325.947 1036.38 316.623 1036.33C305.777 1036.45 295.062 1038.5 284.232 1038.98C263.978 1039.63 243.708 1039.86 223.457 1040.69C190.065 1040.4 156.687 1038.63 123.315 1037.48C100.659 1036.77 77.996 1035.19 55.3415 1036.61C44.111 1037.19 32.819 1036.33 21.6365 1037.74C18.359 1038.31 14.2355 1037.8 12.3725 1041.13C10.205 1044.76 12.9785 1049.81 17.291 1049.7C29.2535 1047.74 41.303 1049.06 53.321 1049.55C75.0245 1049.81 96.683 1051.42 118.388 1051.58C134.427 1051.49 150.429 1052.32 166.439 1053.21C178.38 1053.71 190.338 1053.62 202.284 1054.02C217.847 1054.61 233.4 1053.66 248.963 1053.5C270.153 1053.6 291.321 1053.12 312.447 1051.41C322.287 1050.78 331.953 1053.17 341.741 1053.71C358.038 1054.5 374.349 1054.83 390.591 1056.57C401.511 1057.65 413.919 1060.05 421.008 1060.67C430.995 1061.29 441.005 1060.35 450.899 1059.02C457.703 1058.16 464.504 1057.28 471.339 1056.72C475.271 1056.27 479.426 1056.38 483.275 1055.39C484.541 1055.27 490.121 1054.15 492.076 1053.74C492.316 1053.69 492.558 1053.64 492.798 1053.59C493.361 1053.52 493.91 1053.4 494.411 1053.11C500.295 1050.85 498.618 1041.56 492.099 1041.63H492.098Z" fill="#DBDBDB"/>
<path d="M317.27 385.368C316.232 381.321 312.078 379.628 308.216 379.897C304.854 379.768 301.49 379.747 298.125 379.793C276.257 380.579 254.174 378.866 232.424 381.494C232.41 380.882 232.337 380.273 232.232 379.67C232.223 379.609 232.214 379.538 232.205 379.469C232.128 378.745 232.052 378.02 231.975 377.297C231.44 372.682 230.81 363.668 230.531 354.37C230.433 351.979 230.57 349.297 228.654 347.537C225.153 343.789 218.286 346.612 218.46 351.76C219.077 373.09 217.751 374.649 218.025 388.62C217.625 392.96 221.18 396.961 225.566 396.934C227.716 396.964 229.841 396.349 231.974 396.104C232.068 396.089 232.134 396.08 232.218 396.067C235.614 395.653 239.022 395.366 242.436 395.141C261.909 394.228 281.423 394.887 300.911 394.406C303.453 394.4 305.997 394.442 308.538 394.546C310.059 394.642 311.669 394.795 313.032 394.003C316.467 392.825 318.171 388.778 317.268 385.37L317.27 385.368Z" fill="#DBDBDB"/>
<path d="M420.857 378.018C418.592 376.677 415.849 377.022 413.326 376.712C408.767 376.43 404.197 376.319 399.632 376.454C385.492 377.151 371.363 378.105 357.21 378.564C351.885 378.71 346.562 379.208 341.238 379.419C341.24 379.031 341.261 378.644 341.255 378.257C341.199 370.607 341.072 371.15 340.331 362.127C339.824 356.603 339.875 357.807 339.525 354.672C339.177 352.926 339.447 351.003 338.652 349.388C336.306 343.23 326.796 345.186 326.877 351.758C327.579 358.004 327.524 364.281 327.153 370.548C327.114 371.315 327.072 372.08 327.03 372.846C327.032 372.84 327.033 372.833 327.036 372.827C326.915 374.319 327.01 375.843 326.881 377.384C326.9 380.963 326.128 384.615 326.816 388.146C328.541 393.722 334.086 394.433 339.167 394.064C345.47 393.818 351.767 393.419 358.07 393.161C373.186 392.763 388.262 391.404 403.373 391.029C406.869 391.029 410.367 391.148 413.856 391.382C416.828 391.766 420.136 391.916 422.339 389.508C425.708 386.285 424.9 380.315 420.859 378.017L420.857 378.018Z" fill="#DBDBDB"/>
<path d="M422.033 437.456C418.534 435.617 414.311 436.736 410.506 436.422C405.257 436.416 400.006 436.367 394.762 436.643C376.64 437.643 358.523 439.476 340.354 438.84C340.006 431.25 340.313 423.63 339.683 416.051C339.494 413.727 339.209 411.413 338.912 409.1C338.92 407.666 338.327 406.259 337.318 405.248C334.124 401.829 327.86 404.403 328.019 409.1C328.921 418.874 328.762 428.763 327.773 438.524C327.746 438.71 327.718 438.912 327.691 439.121C327.214 441.972 326.188 445.019 327.532 447.756C330.635 454.704 339.976 452.99 346.226 453.507C357.352 453.647 368.476 453.117 379.565 452.24C392.465 451.122 405.401 450.897 418.342 451.094C425.683 451.139 428.408 441.194 422.035 437.459L422.033 437.456Z" fill="#DBDBDB"/>
<path d="M315.476 438.251C312.036 436.334 307.901 437.762 304.166 437.696C296.843 438.161 289.523 438.679 282.191 439.013C265.574 439.438 248.928 439.081 232.308 438.88C231.752 435.77 231.677 434.911 230.768 425.471C230.453 421.529 230.129 417.587 229.757 413.65C229.49 411.331 229.766 408.67 227.894 406.94C224.663 403.48 218.322 406.087 218.483 410.839C218.807 419.014 219.383 427.188 219.299 435.372C219.363 438.315 218.922 441.247 218.993 444.181C219.336 450.728 225.753 453.31 231.518 453.349C248.787 453.701 266.099 454.152 283.367 453.591C290.169 453.27 296.963 452.789 303.759 452.357C307.329 451.866 311.219 452.522 314.603 451.257C320.126 449.333 320.547 441.019 315.476 438.253V438.251Z" fill="#DBDBDB"/>
<path d="M310.191 493.018C292.641 493.051 275.093 493.512 257.546 493.046C249.426 492.968 241.32 493.678 233.205 493.784C232.89 491.342 232.508 488.333 232.173 484.942C231.657 479.569 231.239 474.188 230.84 468.806C230.447 466.196 230.976 463.07 228.942 461.059C225.921 457.825 219.998 460.261 220.148 464.702C220.794 472.952 220.379 487.301 220.085 490.019C219.66 496.02 219.777 494.521 219.498 497.84C219.267 499.126 219.383 500.488 219.633 501.727C221.019 507.311 226.763 508.529 231.788 508.341C236.598 508.316 241.407 508.09 246.216 507.937C258.741 507.311 271.272 508.193 283.802 507.851C291.959 507.761 300.117 507.687 308.276 507.657C309.873 507.627 311.576 507.842 313.01 507.02C320.327 504.163 318.056 492.988 310.19 493.016L310.191 493.018Z" fill="#DBDBDB"/>
<path d="M425.834 496.82C422.85 493.813 418.451 494.851 414.633 494.444C407.147 493.871 399.644 493.897 392.144 494.143C376.215 494.708 360.303 493.652 344.382 493.346C343.589 493.325 342.795 493.331 342 493.343C342.15 487.087 342.551 480.838 342.78 474.584C342.639 471.437 343.821 467.986 342.516 465.023C339.768 457.958 328.977 460.172 329.015 467.741C328.403 478.904 326.609 490.235 327.74 501.382C330.306 509.965 340.299 507.583 347.159 507.971C361.274 508.364 375.386 509.195 389.511 508.813C399.008 508.442 408.494 508.585 417.974 509.225C420.755 509.468 423.804 509.354 425.832 507.166C428.655 504.463 428.642 499.531 425.832 496.817L425.834 496.82Z" fill="#DBDBDB"/>
<path d="M327.296 552.302C327.243 552.631 327.194 552.967 327.188 553.171C327.21 552.974 327.237 552.781 327.26 552.584C327.263 552.559 327.267 552.533 327.269 552.507C327.276 552.438 327.288 552.371 327.296 552.302Z" fill="#DBDBDB"/>
<path d="M421.799 553.171C418.346 549.854 413.193 551.284 408.858 550.771C403.698 550.576 398.543 550.274 393.384 550.015C379.107 549.284 352.214 549.233 341.099 549.001C340.955 548.131 340.739 547.114 339.95 540.865C340.008 541.295 340.079 541.772 340.094 541.871C340.083 541.73 340.061 541.591 340.044 541.45C340.061 541.43 339.803 539.161 339.708 538.196C339.24 533.881 339.077 529.535 338.39 525.244C338.069 523.613 338.117 521.723 336.912 520.45C333.452 515.645 325.668 519.562 327.296 525.241C327.656 526.253 328.277 537.808 327.891 543.841C327.867 545.468 327.275 552.185 327.425 551.26C327.381 551.608 327.336 551.954 327.296 552.302C327.302 552.26 327.309 552.218 327.315 552.176C327.302 552.286 327.281 552.4 327.27 552.508C327.267 552.533 327.264 552.559 327.261 552.584C325.995 564.644 338.306 563.398 347.247 563.723C358.19 563.902 369.134 563.957 380.075 564.187C391.604 564.374 403.103 565.307 414.629 565.606C421.914 566.947 427.064 558.746 421.8 553.174L421.799 553.171Z" fill="#DBDBDB"/>
<path d="M314.915 551.489C313.773 550.827 312.543 550.494 311.222 550.49C307.224 550.367 303.227 550.305 299.228 550.307C287.046 550.287 274.865 550.034 262.682 550.106C252.269 550.146 241.83 550.427 231.426 549.918C230.997 547.545 230.934 547.518 230.364 539.354C230.181 534.713 230.045 530.07 229.803 525.431C229.602 523.788 229.943 521.984 229.199 520.467C227.21 515.249 219.146 516.902 219.213 522.477C219.369 531.54 219.296 540.624 218.571 549.663C218.171 553.392 218.057 553.23 217.968 554.754C217.914 556.517 218.274 558.279 219.129 559.827C221.952 564.413 227.906 564.184 232.668 564.506C239.744 564.788 246.824 564.865 253.905 564.791C269.553 564.565 285.201 564.894 300.849 564.942C303.666 564.945 306.482 564.996 309.296 565.071C311.843 565.319 314.564 564.924 316.395 562.982C319.764 559.758 318.957 553.788 314.915 551.49V551.489Z" fill="#DBDBDB"/>
<path d="M307.365 607.047C295.796 607.415 284.306 605.594 272.751 605.686C259.404 606.095 246.129 608.108 232.796 608.69C233.102 601.239 232.977 593.766 231.5 586.433C230.603 582.372 229.787 577.773 226.392 575.024C221.31 570.83 214.052 577.259 217.424 582.897C217.439 582.926 217.448 582.944 217.461 582.971C218.412 589.469 218.868 604.716 217.842 615.195C218.433 623.001 225.461 624.071 231.93 623.375C237.549 623.054 243.158 622.575 248.765 622.091C257.138 621.404 265.5 620.457 273.905 620.282C280.073 620.253 286.217 620.892 292.365 621.311C296.457 621.567 300.558 621.672 304.659 621.689C307.446 621.798 310.506 621.738 312.537 619.538C317.114 615.155 313.73 606.909 307.362 607.047H307.365Z" fill="#DBDBDB"/>
<path d="M422.451 613.712C421.041 608.787 416.357 607.872 411.864 608.486C408.132 608.663 404.396 608.754 400.659 608.651C381.968 607.797 363.264 608.567 344.567 608.286C343.598 608.25 342.627 608.198 341.658 608.133C341.906 603.018 341.649 597.888 341.361 592.773C341.165 588.551 340.866 584.334 340.73 580.109C340.746 577.908 340.679 575.504 338.943 573.905C335.481 570.198 328.689 572.99 328.86 578.081C328.602 587.007 327.953 595.917 327.444 604.832C327.393 608.19 326.384 611.567 327.069 614.9C328.197 619.34 332.55 621.929 336.933 622.191C341.181 622.833 345.485 622.919 349.775 622.935C361.911 623.033 374.048 622.74 386.183 622.874C394.586 623.031 402.99 623.606 411.392 623.144C413.652 622.878 416.13 623.393 418.214 622.347C421.65 621.17 423.353 617.123 422.45 613.715L422.451 613.712Z" fill="#DBDBDB"/>
<path d="M424.125 666.087C421.149 664.455 417.539 665.165 414.272 664.812C405.449 664.416 396.635 665.127 387.822 665.451C372.323 666.009 356.819 666.575 341.313 666.938C341.865 656.208 342.186 645.398 340.536 634.772C337.743 625.538 324.095 629.283 326.393 638.67C326.444 638.9 326.481 639.132 326.525 639.363C326.543 639.543 326.565 639.725 326.58 639.905C326.963 647.202 327.323 654.53 326.928 661.833C326.735 665.252 326.54 668.669 326.357 672.087C326.253 674.466 327.099 676.767 328.823 678.488C331.082 680.687 334.104 681.288 337.146 681.483C342.26 681.876 347.397 681.419 352.515 681.294C367.308 680.817 382.107 680.442 396.891 679.715C402.843 679.409 408.803 679.226 414.759 679.497C417.564 679.388 420.632 680.387 423.249 679.121C428.786 677.192 429.207 668.861 424.125 666.087Z" fill="#DBDBDB"/>
<path d="M313.387 671.766C311.854 666.506 307.003 666.102 302.33 666.36C299.536 666.336 296.74 666.299 293.947 666.224C274.298 665.042 254.758 667.407 235.226 669.264C235.174 669.269 235.123 669.275 235.07 669.279C235.211 664.463 235.291 659.645 235.169 654.825C234.935 649.191 234.814 643.536 233.926 637.958C234.287 640.602 234.025 638.585 233.879 637.157C233.887 635.586 233.239 634.041 232.13 632.934C228.629 629.184 221.762 632.01 221.935 637.157C222.071 652.241 220.774 658.496 220.361 674.295C220.172 676.437 220.13 678.95 221.279 680.79C222.791 683.123 225.214 684.557 228.155 684.513C234.991 684.042 241.802 683.204 248.632 682.635C261.151 681.483 273.68 680.126 286.27 680.67C292.145 680.831 298.019 681.023 303.898 681.036C309.691 681.842 314.813 677.925 313.387 671.766Z" fill="#DBDBDB"/>
<path d="M444.218 7.66249C439.283 13.325 433.953 18.6155 428.75 24.0245C422.631 30.554 416.784 37.346 410.366 43.5875C404.055 49.8575 397.292 55.634 390.75 61.6565C385.08 67.0535 379.7 72.743 374.148 78.2615C364.926 87.2735 355.343 95.9165 345.659 104.427C336.335 112.382 326.852 120.189 318.258 128.948C304.319 143.081 291.068 157.85 277.805 172.607C258.503 191.593 239.108 210.491 219.837 229.513C213.704 235.597 207.62 241.739 201.732 248.063C200.022 250.241 197.519 251.95 196.469 254.545C195.138 257.134 195.959 260.533 197.982 262.538C205.283 268.544 209.523 260.92 214.224 256.108C220.451 249.604 226.76 243.178 233.21 236.893C251.406 218.921 269.726 201.076 287.966 183.152C304.034 165.509 319.682 147.387 337.161 131.099C357.93 113.027 378.839 95.09 397.809 75.086C407.99 65.2055 419.214 56.3735 428.325 45.425C433.884 38.0435 446.718 21.989 451.946 15.392C456.855 10.289 449.531 2.67049 444.219 7.66549L444.218 7.66249Z" fill="#DBDBDB"/>
<path d="M134.244 767.548C130.91 765.721 126.926 766.852 123.326 767.017C118.293 767.455 113.261 767.885 108.221 768.239C99.0935 769.106 89.9285 769.342 80.7845 769.937C73.112 770.234 65.4515 771.398 57.7685 771.07C54.362 770.785 54.383 770.958 53.5715 770.738C54.1475 766.94 54.623 762.32 54.4055 755.923C54.299 753.623 54.071 751.333 53.852 749.044C53.7545 746.992 53.546 744.803 51.9425 743.327C48.3755 739.504 41.3735 742.387 41.552 747.631C42.896 758.564 40.091 768.242 41.576 775.007C45.1805 786.838 66.6875 782.086 76.0835 781.454C83.7935 780.427 91.5665 780.647 99.32 780.709C105.641 780.688 111.96 780.322 118.28 780.448C122.421 780.448 126.566 780.901 130.701 780.632C137.75 780.676 140.357 771.13 134.244 767.548Z" fill="#DBDBDB"/>
<path d="M255.597 784.179C256.869 784.061 258.086 783.512 258.99 782.611C261.123 780.569 261.114 776.842 258.99 774.791C258.237 774.119 257.373 773.615 256.427 773.359C256.445 773.362 256.464 773.363 256.482 773.366C256.431 773.342 256.377 773.327 256.322 773.32C256.304 773.315 256.284 773.312 256.266 773.308C256.179 773.287 256.092 773.267 256.004 773.252C254.81 772.996 253.614 772.74 252.42 772.488C246.263 770.702 240.951 771.101 230.973 771.346C224.046 771.49 217.119 771.088 210.192 771.251C200.783 771.616 191.382 772.154 181.962 772.346C176.997 772.453 172.025 772.871 167.058 772.829C167.145 767.752 167.397 762.676 167.564 757.6C167.423 755.131 168.347 752.432 167.409 750.093C165.572 745.239 158.043 746.774 158.115 751.964C157.608 758.086 157.278 764.221 156.878 770.35C156.474 775.634 155.621 781.154 161.889 783.137C166.349 783.896 170.879 783.089 175.373 783.326C188.832 783.919 202.335 783.561 215.766 784.683C215.169 784.604 214.572 784.523 213.975 784.444C225.111 785.501 236.448 786.194 247.608 785.291C247.866 785.233 248.133 785.207 248.39 785.143C249.722 784.961 251.789 784.678 252.999 784.51C253.701 784.432 254.891 784.277 255.597 784.179Z" fill="#DBDBDB"/>
<path d="M368.774 771.853C367.386 770.623 365.729 769.755 363.831 769.805C363.843 769.808 363.867 769.811 363.882 769.812C361.241 769.524 358.581 769.661 355.925 769.877C350.486 770.263 345.036 770.514 339.594 770.886C324.755 771.809 309.876 770.306 295.061 771.913C291.047 772.126 287.039 772.636 283.02 772.744C282.816 770.726 282.626 768.707 282.495 766.685C282.179 759.963 281.937 757.946 281.654 753.47C281.582 751.38 281.846 749.012 280.143 747.461C277.244 744.35 271.538 746.695 271.685 750.965C271.695 759.661 272.804 768.325 272.585 777.029C272.499 779.744 274.164 782.291 276.446 783.658C279.563 785.281 283.19 784.85 286.583 784.727C293.898 784.421 301.193 783.707 308.513 783.534C315.522 783.378 322.523 783.913 329.529 784.021C337.529 784.079 345.519 783.645 353.516 783.507C357.659 783.236 362.681 784.664 366.524 783.182C371.066 781.634 372.216 775.081 368.772 771.853H368.774Z" fill="#DBDBDB"/>
<path d="M484.445 770.44C482.41 769.153 479.992 769.481 477.701 769.442C474.508 769.409 471.314 769.307 468.122 769.195C458.501 768.706 448.873 768.526 439.241 768.455C430.921 768.407 422.596 768.017 414.277 768.305C409.108 768.463 403.982 769.224 398.848 769.73C398.819 769.616 398.794 769.501 398.77 769.385C398.765 769.321 398.764 769.284 398.758 769.203C398.344 763.721 398.269 758.212 398.725 752.729C398.764 752.246 398.818 751.765 398.872 751.283C398.942 750.794 399.028 750.22 399.1 749.806C399.5 748.351 399.293 746.744 398.53 745.444C396.233 741.193 389.32 742.084 388.184 746.795C386.546 756.788 386.872 761.634 385.907 768.941C385.952 768.528 385.927 768.548 385.855 769.135C385.742 769.813 385.51 771.453 385.477 772.254C385.54 773.688 385.967 781.067 391.921 783.878C395.597 785.405 399.709 783.922 403.523 783.701C413.882 782.573 424.298 782.815 434.698 783.025C447.866 783.076 461.02 783.506 474.176 784.011C478.13 783.881 482.86 785.09 485.926 781.929C489.295 778.706 488.488 772.736 484.445 770.438V770.44Z" fill="#DBDBDB"/>
<path d="M474.05 818.859C466.983 818.444 459.902 818.404 452.829 818.116C435.095 818.029 417.353 818.048 399.672 816.517C399.579 812.296 399.516 808.073 399.546 803.85C399.369 801.516 399.765 798.953 398.861 796.764C396.684 791.049 387.857 792.867 387.933 798.963C388.077 805.175 387.474 811.378 386.762 817.544C386.633 817.646 385.92 820.73 385.931 821.791C385.856 827.783 392.097 830.693 397.334 830.831C398.412 831.014 415.836 832.332 423.857 832.476C434.129 832.743 444.407 832.475 454.677 832.78C461.192 833.078 467.718 833.072 474.225 833.498C477.05 833.467 480.128 834.653 482.774 833.338C485.499 832.418 487.286 829.471 487.272 826.651C486.786 818.927 479.993 819.229 474.05 818.857V818.859Z" fill="#DBDBDB"/>
<path d="M277.307 793.05C270.387 793.221 270.405 803.36 277.307 803.55C284.228 803.379 284.208 793.241 277.307 793.05Z" fill="#DBDBDB"/>
<path d="M364.593 819.434C363.452 818.772 362.222 818.439 360.9 818.435C351.48 818.555 342.059 818.805 332.637 818.595C322.548 818.399 312.461 818.096 302.379 817.634C296.354 817.379 290.324 816.812 284.291 816.93C284.127 815.28 283.955 812.961 283.712 807.104C283.515 804.05 283.242 800.999 282.815 797.967C282.822 796.431 282.188 794.919 281.105 793.838C277.68 790.169 270.965 792.935 271.134 797.967C271.749 805.161 271.173 812.414 270.704 819.602C270.666 819.897 270.627 820.209 270.59 820.517C270.519 820.95 270.465 821.388 270.429 821.832C270.429 821.837 270.429 821.843 270.428 821.847C270.428 821.844 270.428 821.84 270.428 821.837C270.203 824.567 270.678 827.439 272.678 829.407C276.867 833.234 283.337 830.913 288.509 831.545C298.64 831.992 308.765 832.613 318.905 832.883C332.901 833.376 346.902 833.36 360.902 833.069C368.244 833.114 370.965 823.169 364.593 819.434Z" fill="#DBDBDB"/>
<path d="M251.898 818.83C248.412 815.561 243.209 816.821 238.847 816.207C233.19 815.826 227.528 815.505 221.858 815.495C206.751 815.522 191.651 814.32 176.549 815.264C174.548 815.315 172.553 815.478 170.561 815.655C169.977 810.915 169.302 808.266 168.864 802.968C168.254 799.578 168.744 795.145 165.278 793.213C161.526 790.921 156.3 793.874 156.416 798.299C157.449 806.439 156.575 814.628 156.731 822.788C156.623 826.182 158.921 829.4 162.218 830.295C165.461 831.036 168.786 830.172 172.067 830.105C178.845 829.722 185.637 829.443 192.428 829.506C206.208 829.898 220.001 829.955 233.774 830.514C237.266 830.735 240.758 830.966 244.253 831.144C246.029 831.213 247.949 831.506 249.56 830.607C254.283 828.998 255.48 822.183 251.898 818.826V818.83Z" fill="#DBDBDB"/>
<path d="M137.934 816.284C136.239 815.217 134.243 815.292 132.318 815.129C128.867 814.91 125.403 814.94 121.946 814.956C109.142 814.934 96.3664 815.901 83.5669 816.104C73.0414 816.296 62.4724 816.68 51.9679 815.928C51.6754 809.78 51.5539 803.265 50.2864 797.34C48.3484 792.251 40.4839 793.868 40.5514 799.299C40.8754 805.734 40.3669 812.178 40.5334 818.619C40.5139 818.699 40.5034 818.78 40.4869 818.861C40.4629 818.814 40.3819 819.032 40.1944 819.736C38.8219 827.165 45.2929 830.039 51.6274 830.283C71.6509 831.644 91.7479 830.45 111.776 829.727C117.924 829.619 124.077 829.491 130.224 829.655C133.419 829.878 137.018 830.424 139.415 827.775C142.784 824.552 141.975 818.582 137.934 816.284Z" fill="#DBDBDB"/>
<path d="M135.985 867.84C133.915 866.576 131.417 866.847 129.091 866.757C124.765 866.771 120.44 866.564 116.134 866.144C97.3716 863.573 78.4761 865.7 59.6811 866.722C56.0301 866.863 52.3656 867.08 48.7071 867.137C48.6906 867.014 48.6366 866.761 48.5586 866.401C48.0576 859.603 48.0306 852.779 48.3171 845.968C48.1626 838.94 37.8096 838.921 37.6206 845.968C36.9606 851.734 36.9981 857.551 36.3501 863.315C36.2466 864.142 36.1431 865.086 36.0741 865.754C35.7696 866.727 35.5881 867.284 35.6346 867.224C35.3121 868.205 35.1786 869.24 35.1081 870.28C34.8456 872.011 34.6551 873.759 35.1261 875.472C37.1421 882.417 45.2541 881.816 51.0651 881.612C61.1886 881.527 71.2686 880.544 81.3711 880.019C89.3421 879.665 97.3341 879.301 105.308 879.763C112.595 880.318 119.846 881.422 127.171 881.413C129.797 881.3 132.679 881.768 135.122 880.671C140.573 878.772 140.986 870.57 135.985 867.84Z" fill="#DBDBDB"/>
<path d="M236.494 867.017C232.43 866.832 228.371 866.493 224.302 866.477C209.629 866.702 194.987 865.787 180.335 865.169C175.79 865.07 171.227 865.212 166.681 865.083C166.495 860.234 166.334 855.384 166.301 850.532C166 846.899 167.149 842.494 164.291 839.65C160.42 835.565 152.866 838.616 153.061 844.301C152.98 852.501 152.84 860.699 152.458 868.892C152.398 871.163 152.159 873.093 153.409 875.234C156.281 880.455 163.913 879.227 169.058 879.699C188.354 879.788 207.599 881.481 226.906 881.187C231.902 881.403 236.891 881.745 241.889 881.921C246.962 882.746 251.927 880.35 252.047 874.703C251.491 865.892 242.855 867.474 236.495 867.017H236.494Z" fill="#DBDBDB"/>
<path d="M364.418 866.051C362.172 864.714 359.454 865.048 356.946 864.814C351.662 864.577 346.371 864.718 341.085 864.83C326.238 865.151 311.387 864.842 296.538 864.879C291.339 864.921 286.117 864.98 280.927 865.382C280.82 859.619 281.066 853.843 280.866 848.08C280.79 845.662 281.155 842.885 279.194 841.078C275.972 837.626 269.651 840.227 269.811 844.964C269.652 855.245 268.893 858.11 267.998 866.545C266.987 870.635 265.92 875.656 269.993 878.45C273.693 881.332 278.808 879.821 283.13 879.784C290.328 879.35 297.543 879.433 304.752 879.463C319.769 879.578 334.786 879.631 349.801 879.304C352.781 879.307 355.763 879.35 358.737 879.538C361.299 879.934 364.051 879.493 365.9 877.541C369.269 874.318 368.461 868.348 364.42 866.05L364.418 866.051Z" fill="#DBDBDB"/>
<path d="M484.658 869.547C480.71 866.51 480.306 867.779 478.706 867.321C474.93 866.993 471.155 866.651 467.378 866.337C446.826 864.882 426.198 866.435 405.615 865.887C402.438 865.826 399.251 865.79 396.092 865.424C395.819 862.758 395.549 860.06 395.52 854.342C395.486 852.257 395.451 850.172 395.453 848.087C395.541 845.69 395.567 843.039 393.657 841.284C390.053 837.419 382.974 840.333 383.154 845.634C382.724 851.133 382.703 856.658 382.268 862.152C381.575 867.531 381.378 874.278 386.586 877.502C392.738 880.751 400.082 880.178 406.845 880.481C419.064 880.688 431.282 880.512 443.501 880.389C453.716 880.185 463.929 880.481 474.093 881.555C476.805 881.619 479.777 882.587 482.318 881.327C487.041 879.717 488.238 872.903 484.656 869.546L484.658 869.547Z" fill="#DBDBDB"/>
<path d="M382.58 913.175C382.551 913.389 382.529 913.575 382.526 913.652C382.544 913.493 382.562 913.334 382.58 913.175Z" fill="#DBDBDB"/>
<path d="M483.363 916.783C480.296 914.995 471.89 915.413 463.598 914.564C452.798 913.96 442.007 913.031 431.189 912.821C419.868 912.542 408.503 913.185 397.22 911.999C397.095 911.976 396.971 911.952 396.845 911.928C397.008 905.705 397.461 899.498 398.061 893.3C397.998 886.304 388.053 884.932 386.105 891.682C384.714 900.781 384.444 903.523 383.163 909.818C382.943 910.891 382.856 911.349 382.923 911.309C382.745 911.912 382.649 912.538 382.578 913.174C382.682 912.389 382.871 911.196 382.565 913.32C381.681 917.667 383.969 922.175 387.783 924.334C391.989 926.309 396.738 926.464 401.294 926.908C408.83 927.475 416.399 927.318 423.951 927.374C438.969 927.354 453.948 928.612 468.927 929.545C473.331 929.527 478.329 931.076 482.505 929.526C487.917 927.639 488.33 919.494 483.362 916.784L483.363 916.783Z" fill="#DBDBDB"/>
<path d="M364.433 915.173C361.271 913.58 357.153 913.931 349.617 913.151C339.788 912.251 329.943 913.376 320.1 913.229C306.771 913.013 293.463 911.524 280.136 912.1C279.665 908.17 279.284 904.231 278.879 900.295C278.337 897.566 278.616 894.32 276.893 892.021C273.504 887.309 265.89 891.114 267.407 896.667C267.419 896.754 267.438 896.886 267.467 897.078L267.479 897.171C268.046 902.15 267.882 907.187 267.696 912.185C267.677 912.623 267.651 913.061 267.629 913.498C267.537 913.924 267.446 914.348 267.365 914.774C267.365 914.78 267.362 914.791 267.36 914.798C267.318 915.017 267.282 915.236 267.255 915.456C267.191 915.879 267.113 916.42 267.044 916.901C266.208 921.067 268.308 925.319 272.577 926.495C277.911 927.274 283.334 926.159 288.71 926.534C298.932 926.639 309.116 927.695 319.34 927.833C327.555 928.045 335.763 927.221 343.974 927.451C348.896 927.695 353.811 928.061 358.713 928.565C360.339 928.742 362.094 928.927 363.566 928.093C369.054 926.18 369.47 917.921 364.433 915.173Z" fill="#DBDBDB"/>
<path d="M255.666 914.043C251.946 910.479 246.415 912.363 241.795 912.173C235.492 912.44 229.193 912.803 222.89 913.049C204.236 913.62 185.576 913.167 166.926 912.657C166.701 912.654 166.477 912.671 166.252 912.671C166.115 909.948 165.962 907.592 165.924 901.713C165.714 898.518 166.559 895.026 165.444 891.993C163.16 885.999 153.904 887.906 153.983 894.3C153.77 898.218 153.539 902.133 153.1 906.033C153.043 906.41 152.996 906.788 152.977 907.167C153.055 906.591 153.131 906.015 153.209 905.439C152.537 911.997 149.026 923.114 156.752 926.576C159.199 927.767 161.987 927.291 164.609 927.234C168.97 927.086 173.33 927.306 177.691 927.389C196.105 927.902 214.547 928.185 232.949 927.222C237.989 926.979 243.029 926.72 248.073 926.589C249.83 926.478 251.721 926.795 253.31 925.904C258.063 924.284 259.272 917.423 255.666 914.043Z" fill="#DBDBDB"/>
<path d="M137.738 915.463C135.242 912.875 131.751 913.265 128.492 913.61C122.834 914.015 117.173 914.437 111.498 914.446C92.5475 913.855 73.5965 913.285 54.635 912.997C51.863 912.952 50.009 912.91 48.572 912.842C48.398 909.046 48.497 905.231 48.3065 901.433C48.2375 898.945 48.122 896.458 48.0245 893.969C48.0305 892.64 47.483 891.334 46.544 890.396C43.583 887.224 37.769 889.615 37.9175 893.969C37.6565 900.269 37.4 906.571 36.962 912.862C36.776 913.973 36.368 916.675 36.2705 917.533C36.11 919.774 37.019 921.97 38.522 923.611C40.394 925.537 43.304 926.138 45.887 926.438C48.794 926.804 51.713 927.082 54.635 927.304C66.095 927.937 77.57 927.937 89.0375 928.292C103.557 929.047 118.071 929.42 132.564 927.956C138.912 928.118 142.337 919.868 137.738 915.465V915.463Z" fill="#DBDBDB"/>
<path d="M135.618 967.17C134.15 962.019 129.251 961.425 124.649 961.823C120.711 961.865 116.772 961.896 112.836 961.799C94.5918 960.669 76.3323 961.512 58.0743 961.148C55.3878 961.098 52.6953 961.158 50.0088 961.097C49.9038 960.422 49.8903 960.14 49.5393 958.291C49.5168 958.15 49.4988 958.007 49.4778 957.865C49.1688 954.115 49.1823 950.339 49.0143 946.58C48.7953 944.595 49.1898 942.413 48.3033 940.578C45.9378 934.37 36.3513 936.345 36.4338 942.968C36.5478 947.804 36.2703 952.638 36.0738 957.468C35.7408 960.219 35.7033 962.986 36.1983 965.72C36.5013 969.019 37.7658 972.282 40.7403 974.033C45.6333 976.4 51.4188 975.48 56.7063 975.797C66.6153 976.053 76.5228 975.935 86.4303 975.789C97.9293 975.548 109.401 976.664 120.897 976.523C124.346 976.223 128.118 977.118 131.37 975.822C134.813 974.642 136.521 970.586 135.617 967.17H135.618Z" fill="#DBDBDB"/>
<path d="M249.762 963.209C246.303 961.324 242.138 962.608 238.377 962.428C232.671 962.585 226.958 962.681 221.256 962.33C204.738 961.031 175.265 961.343 165.33 960.458C165.212 959.9 165.116 959.422 165.057 959.152C164.988 958.72 164.9 958.331 164.834 958.117C164.624 953.861 164.78 949.591 164.898 945.334C164.825 943.361 165.812 941.23 164.864 939.38C163.287 935.051 156.593 935.521 155.496 939.976C154.706 943.832 153.735 953.902 153.363 957.893C153.33 958.006 153.288 958.175 153.221 958.48C152.931 959.264 152.979 960.13 152.894 960.967C152.781 961.406 152.717 961.856 152.745 962.328C152.708 962.874 152.643 963.422 152.609 963.971C152.174 966.623 154.25 973.469 161.924 974.495C175.19 976.276 188.654 975.455 201.999 976.042C214.676 976.459 227.334 977.647 240.026 977.009C242.948 976.678 246.155 977.409 248.888 976.211C254.411 974.285 254.832 965.972 249.761 963.206L249.762 963.209Z" fill="#DBDBDB"/>
<path d="M363.831 962.679C361.308 961.211 358.244 961.692 355.443 961.604C348.935 961.77 342.431 962.207 335.916 962.03C327.794 961.913 319.692 961.178 311.567 961.16C302.526 961.082 293.478 961.187 284.451 960.578C283.52 960.498 282.5 960.456 281.447 960.459C281.004 958.173 280.5 955.373 280.701 956.825C280.055 952.078 279.303 947.346 278.585 942.609C278.385 940.538 278.436 938.313 276.801 936.807C273.629 933.408 267.401 935.97 267.558 940.635C268.073 949.211 269.447 957.779 268.898 966.388C268.889 966.604 268.88 966.789 268.872 966.963C268.749 967.491 268.659 968.045 268.643 968.655C268.721 971.82 270.842 974.633 273.887 975.534C273.902 975.539 275.766 975.786 275.778 975.788C276.696 975.714 277.655 975.533 278.541 975.192C278.748 975.146 278.955 975.099 279.162 975.051C284.207 974.744 289.263 975.612 294.317 975.612C303.024 975.816 311.739 975.579 320.442 975.98C331.791 976.719 343.154 976.811 354.51 976.194C358.187 975.95 362.487 977.169 365.307 974.121C368.661 970.913 367.857 964.968 363.833 962.681L363.831 962.679Z" fill="#DBDBDB"/>
<path d="M480.415 961.203C480.661 961.274 481.808 961.376 482.282 961.46C470.607 960.326 458.795 961.574 447.074 960.873C431.309 960.509 415.548 959.495 399.776 959.964C399.456 959.967 399.137 959.978 398.818 959.985C397.852 954.558 397.093 949.095 396.166 943.662C396.239 944.208 396.313 944.756 396.386 945.302C395.975 942.989 395.789 940.266 394.294 938.379C390.568 933.201 382.175 937.425 383.932 943.542C383.936 943.569 383.938 943.583 383.942 943.608C383.953 943.763 383.969 943.967 383.996 944.279C384.049 946.065 384.61 953.214 384.848 959.538C384.868 960.755 384.886 961.973 384.881 963.189C384.983 962.358 385.265 960.314 385.003 962.271C384.736 964.41 385.056 966.372 385.311 968.496C386.342 972.044 389.627 974.427 393.301 974.469C415.067 974.22 436.818 975.32 458.585 975.717C463.734 975.786 468.884 975.617 474.035 975.63C477.061 975.456 480.362 976.278 483.2 975.018C490.419 972.198 488.177 961.173 480.419 961.202L480.415 961.203Z" fill="#DBDBDB"/>
<path d="M479.729 1015.4C477.424 1014.08 474.626 1014.35 472.058 1014.17C465.203 1013.96 458.353 1013.56 451.523 1012.92C432.851 1011.14 418.906 1007.46 397.226 1009.78C396.379 1009.84 395.531 1009.92 394.684 1009.99C394.384 1005.8 394.579 1001.58 394.271 997.379C394.024 995.256 394.468 992.922 393.551 990.951C391.228 984.843 381.788 986.784 381.871 993.303C381.965 998.888 381.962 1004.51 381.475 1010.07C381.277 1010.94 381.199 1011.29 381.38 1010.92C380.801 1012.62 380.786 1014.54 381.065 1016.31C381.178 1019.34 382.43 1022.26 385.189 1023.75C390.044 1026.06 395.845 1024.03 401.033 1024.04C420.343 1022.49 429.595 1025.26 447.578 1027.14C455.207 1028 462.878 1028.45 470.549 1028.73C474.908 1028.93 480.902 1029.36 482.654 1024.33C484.216 1021.18 482.69 1017.15 479.728 1015.4H479.729Z" fill="#DBDBDB"/>
<path d="M364.556 1016.97C362.384 1010.51 356.052 1011.56 348.482 1011.33C332.076 1010.62 315.659 1010.6 299.243 1011.09C291.399 1011.33 283.55 1010.59 275.714 1011.03C275.33 1011.05 274.949 1011.1 274.566 1011.14C274.488 1006.76 274.415 1002.38 274.359 997.995C274.146 995.84 274.911 993.479 274.034 991.452C272.207 986.645 264.767 988.169 264.833 993.305C263.411 1005.74 263.817 1007.11 262.931 1012.04C262.727 1013.12 262.619 1014.22 262.49 1015.32C260.9 1018.81 262.272 1023.37 266.082 1024.75C269.622 1026.39 273.579 1024.83 277.313 1025.04C294.426 1025.83 311.537 1025.38 328.659 1025.34C340.295 1025.51 360.324 1026.66 360.527 1025.18C363.792 1024.06 365.414 1020.21 364.556 1016.97Z" fill="#DBDBDB"/>
<path d="M246.846 1012.96C243.881 1011.2 240.321 1012.35 237.066 1012.19C230.915 1012.28 224.763 1012.11 218.612 1012.16C205.889 1012.24 193.161 1012.53 180.44 1012.35C173.685 1012.16 166.95 1011.63 160.196 1011.52C160.208 1005.1 160.994 998.673 161.696 992.304C161.693 986.898 153.876 985.815 152.415 991.049C151.203 997.41 150.443 1003.85 149.696 1010.28C148.593 1015.13 147.923 1019.95 153.237 1022.53C156.536 1024.33 160.328 1024.43 163.991 1024.88C164.039 1024.89 164.087 1024.9 164.133 1024.9C164.117 1024.9 164.099 1024.9 164.082 1024.9C164.387 1024.93 164.693 1024.97 164.996 1025.01C164.948 1025.01 164.885 1025.01 164.819 1025C176.391 1026.64 188.066 1027.16 199.752 1026.88C208.707 1026.92 217.659 1026.71 226.614 1026.79C231.53 1026.83 236.448 1026.93 241.361 1026.69C242.916 1026.57 244.577 1026.77 245.973 1025.97C251.498 1024.04 251.918 1015.73 246.846 1012.96V1012.96Z" fill="#DBDBDB"/>
<path d="M164.819 1025C164.591 1024.96 164.363 1024.93 164.135 1024.9C164.378 1024.94 164.628 1024.97 164.819 1025Z" fill="#DBDBDB"/>
<path d="M133.597 1014.5C131.108 1011.95 127.534 1012.34 124.268 1012.18C120.017 1012.02 115.765 1011.89 111.515 1011.69C90.9951 1010.39 70.4601 1012.28 49.9281 1011.66C47.9136 1011.62 45.8976 1011.67 43.8831 1011.7C43.9416 1009.43 44.0736 1007.16 44.0631 1004.9C44.0766 1001.84 44.1636 998.785 44.0721 995.731C44.0046 993.649 44.1981 991.294 42.5196 989.753C39.5781 986.6 33.8031 988.976 33.9501 993.304C33.7446 1000.34 32.7696 1007.33 32.4996 1014.36C32.2566 1015.64 32.2536 1016.92 32.5131 1018.2C33.7236 1023.32 39.5166 1024.19 43.9971 1024.18C55.5276 1024.93 67.0611 1025.63 78.6216 1025.73C90.9306 1025.63 103.229 1025.78 115.522 1026.48C119.113 1026.63 122.705 1026.73 126.296 1026.89C127.961 1026.96 129.74 1027.23 131.243 1026.36C135.997 1024.74 137.204 1017.88 133.598 1014.5L133.597 1014.5Z" fill="#DBDBDB"/>
<path d="M206.055 690.879C154.656 691.319 103.257 691.758 51.4369 694.086C51.4369 705.8 51.4369 717.513 52.2739 730.311C43.3204 730.682 25.4014 729.551 14.5924 732.266C14.5924 860.103 10.1179 923.583 10.1179 1047.7C199.869 1047.7 344.886 1058.49 502.499 1054.87L509.501 727.16L483.869 726.746L480.975 689.952L206.055 690.881V690.879Z" stroke="#151515" stroke-width="6" stroke-linecap="round" stroke-linejoin="round"/>
<path d="M201.584 690.268C199.463 544.184 197.342 398.101 195.221 252.016C282.155 169.727 362.4 86.834 449.147 4.87402L448.361 693.907L201.584 690.268Z" stroke="#151515" stroke-width="6" stroke-linecap="round" stroke-linejoin="round"/>
<path d="M219.59 392.31C251.762 392.426 283.934 392.541 316.106 392.657C316.394 377.361 316.682 364.794 316.968 349.499C304.748 349.499 234.723 348.366 220.148 349.055C220.232 363.716 219.588 373.383 219.588 392.312L219.59 392.31Z" stroke="#151515" stroke-width="6" stroke-linecap="round" stroke-linejoin="round"/>
<path d="M328.304 392.31C360.476 392.426 392.648 392.541 424.82 392.657C425.108 377.361 425.396 364.794 425.682 349.499C413.462 349.499 343.437 348.366 328.862 349.055C328.946 363.716 328.302 373.383 328.302 392.312L328.304 392.31Z" stroke="#151515" stroke-width="6" stroke-linecap="round" stroke-linejoin="round"/>
<path d="M218.684 449.135C250.856 449.251 283.028 449.366 315.2 449.482C315.488 434.186 315.776 421.619 316.062 406.323C303.842 406.323 233.817 405.191 219.242 405.88C219.326 420.541 218.682 430.208 218.682 449.136L218.684 449.135Z" stroke="#151515" stroke-width="6" stroke-linecap="round" stroke-linejoin="round"/>
<path d="M327.397 449.135C359.569 449.251 391.741 449.366 423.913 449.482C424.201 434.186 424.489 421.619 424.775 406.323C412.555 406.323 342.53 405.191 327.955 405.88C328.039 420.541 327.395 430.208 327.395 449.136L327.397 449.135Z" stroke="#151515" stroke-width="6" stroke-linecap="round" stroke-linejoin="round"/>
<path d="M219.59 505.959C251.762 506.075 283.934 506.19 316.106 506.306C316.394 491.01 316.682 478.443 316.968 463.148C304.748 463.148 234.723 462.015 220.148 462.704C220.232 477.365 219.588 487.032 219.588 505.961L219.59 505.959Z" stroke="#151515" stroke-width="6" stroke-linecap="round" stroke-linejoin="round"/>
<path d="M328.304 505.959C360.476 506.075 392.648 506.19 424.82 506.306C425.108 491.01 425.396 478.443 425.682 463.148C413.462 463.148 343.437 462.015 328.862 462.704C328.946 477.365 328.302 487.032 328.302 505.961L328.304 505.959Z" stroke="#151515" stroke-width="6" stroke-linecap="round" stroke-linejoin="round"/>
<path d="M219.59 562.784C251.762 562.899 283.934 563.015 316.106 563.13C316.394 547.835 316.682 535.268 316.968 519.972C304.748 519.972 234.723 518.84 220.148 519.528C220.232 534.189 219.588 543.857 219.588 562.785L219.59 562.784Z" stroke="#151515" stroke-width="6" stroke-linecap="round" stroke-linejoin="round"/>
<path d="M328.304 562.784C360.476 562.899 392.648 563.015 424.82 563.13C425.108 547.835 425.396 535.268 425.682 519.972C413.462 519.972 343.437 518.84 328.862 519.528C328.946 534.189 328.302 543.857 328.302 562.785L328.304 562.784Z" stroke="#151515" stroke-width="6" stroke-linecap="round" stroke-linejoin="round"/>
<path d="M218.684 619.609C250.856 619.724 283.028 619.84 315.2 619.955C315.488 604.66 315.776 592.093 316.062 576.797C303.842 576.797 233.817 575.665 219.242 576.353C219.326 591.014 218.682 600.682 218.682 619.61L218.684 619.609Z" stroke="#151515" stroke-width="6" stroke-linecap="round" stroke-linejoin="round"/>
<path d="M327.397 619.609C359.569 619.724 391.741 619.84 423.913 619.955C424.201 604.66 424.489 592.093 424.775 576.797C412.555 576.797 342.53 575.665 327.955 576.353C328.039 591.014 327.395 600.682 327.395 619.61L327.397 619.609Z" stroke="#151515" stroke-width="6" stroke-linecap="round" stroke-linejoin="round"/>
<path d="M219.59 676.433C251.762 676.548 283.934 676.664 316.106 676.779C316.394 661.484 316.682 648.917 316.968 633.621C304.748 633.621 234.723 632.489 220.148 633.177C220.232 647.838 219.588 657.506 219.588 676.434L219.59 676.433Z" stroke="#151515" stroke-width="6" stroke-linecap="round" stroke-linejoin="round"/>
<path d="M328.304 676.433C360.476 676.548 392.648 676.664 424.82 676.779C425.108 661.484 425.396 648.917 425.682 633.621C413.462 633.621 343.437 632.489 328.862 633.177C328.946 647.838 328.302 657.506 328.302 676.434L328.304 676.433Z" stroke="#151515" stroke-width="6" stroke-linecap="round" stroke-linejoin="round"/>
<path d="M40.5259 780.833C73.9414 780.925 107.355 781.014 140.771 781.106C141.069 769.065 141.368 759.172 141.668 747.131C128.975 747.131 56.2459 746.24 41.1079 746.782C41.1949 758.323 40.5274 765.934 40.5274 780.835L40.5259 780.833Z" stroke="#151515" stroke-width="6" stroke-linecap="round" stroke-linejoin="round"/>
<path d="M157.031 780.833C190.447 780.925 223.861 781.014 257.276 781.106C257.575 769.065 257.873 759.172 258.173 747.131C245.48 747.131 172.751 746.24 157.613 746.782C157.7 758.323 157.033 765.934 157.033 780.835L157.031 780.833Z" stroke="#151515" stroke-width="6" stroke-linecap="round" stroke-linejoin="round"/>
<path d="M270.976 780.833C304.391 780.925 337.805 781.014 371.221 781.106C371.519 769.065 371.818 759.172 372.118 747.131C359.425 747.131 286.696 746.24 271.558 746.782C271.645 758.323 270.977 765.934 270.977 780.835L270.976 780.833Z" stroke="#151515" stroke-width="6" stroke-linecap="round" stroke-linejoin="round"/>
<path d="M387.885 780.833C421.301 780.925 454.715 781.014 488.13 781.106C488.429 769.065 488.727 759.172 489.027 747.131C476.334 747.131 403.605 746.24 388.467 746.782C388.554 758.323 387.887 765.934 387.887 780.835L387.885 780.833Z" stroke="#151515" stroke-width="6" stroke-linecap="round" stroke-linejoin="round"/>
<path d="M40.5259 828.651C73.9414 828.743 107.355 828.833 140.771 828.925C141.069 816.884 141.368 806.99 141.668 794.949C128.975 794.949 56.2459 794.059 41.1079 794.6C41.1949 806.141 40.5274 813.752 40.5274 828.653L40.5259 828.651Z" stroke="#151515" stroke-width="6" stroke-linecap="round" stroke-linejoin="round"/>
<path d="M157.031 828.651C190.447 828.743 223.861 828.833 257.276 828.925C257.575 816.884 257.873 806.99 258.173 794.949C245.48 794.949 172.751 794.059 157.613 794.6C157.7 806.141 157.033 813.752 157.033 828.653L157.031 828.651Z" stroke="#151515" stroke-width="6" stroke-linecap="round" stroke-linejoin="round"/>
<path d="M270.976 828.651C304.391 828.743 337.805 828.833 371.221 828.925C371.519 816.884 371.818 806.99 372.118 794.949C359.425 794.949 286.696 794.059 271.558 794.6C271.645 806.141 270.977 813.752 270.977 828.653L270.976 828.651Z" stroke="#151515" stroke-width="6" stroke-linecap="round" stroke-linejoin="round"/>
<path d="M387.885 828.651C421.301 828.743 454.715 828.833 488.13 828.925C488.429 816.884 488.727 806.99 489.027 794.949C476.334 794.949 403.605 794.059 388.467 794.6C388.554 806.141 387.887 813.752 387.887 828.653L387.885 828.651Z" stroke="#151515" stroke-width="6" stroke-linecap="round" stroke-linejoin="round"/>
<path d="M37.5259 876.47C70.9414 876.562 104.355 876.652 137.771 876.743C138.069 864.703 138.368 854.809 138.668 842.768C125.975 842.768 53.2459 841.877 38.1079 842.418C38.1949 853.959 37.5274 861.571 37.5274 876.472L37.5259 876.47Z" stroke="#151515" stroke-width="6" stroke-linecap="round" stroke-linejoin="round"/>
<path d="M154.031 876.47C187.447 876.562 220.861 876.652 254.276 876.743C254.575 864.703 254.873 854.809 255.173 842.768C242.48 842.768 169.751 841.877 154.613 842.418C154.7 853.959 154.033 861.571 154.033 876.472L154.031 876.47Z" stroke="#151515" stroke-width="6" stroke-linecap="round" stroke-linejoin="round"/>
<path d="M267.976 876.47C301.391 876.562 334.805 876.652 368.221 876.743C368.519 864.703 368.818 854.809 369.118 842.768C356.425 842.768 283.696 841.877 268.558 842.418C268.645 853.959 267.977 861.571 267.977 876.472L267.976 876.47Z" stroke="#151515" stroke-width="6" stroke-linecap="round" stroke-linejoin="round"/>
<path d="M384.885 876.47C418.301 876.562 451.715 876.652 485.13 876.743C485.429 864.703 485.727 854.809 486.027 842.768C473.334 842.768 400.605 841.877 385.467 842.418C385.554 853.959 384.887 861.571 384.887 876.472L384.885 876.47Z" stroke="#151515" stroke-width="6" stroke-linecap="round" stroke-linejoin="round"/>
<path d="M37.5259 924.288C70.9414 924.38 104.355 924.47 137.771 924.561C138.069 912.521 138.368 902.627 138.668 890.586C125.975 890.586 53.2459 889.695 38.1079 890.237C38.1949 901.778 37.5274 909.389 37.5274 924.29L37.5259 924.288Z" stroke="#151515" stroke-width="6" stroke-linecap="round" stroke-linejoin="round"/>
<path d="M154.031 924.288C187.447 924.38 220.861 924.47 254.276 924.561C254.575 912.521 254.873 902.627 255.173 890.586C242.48 890.586 169.751 889.695 154.613 890.237C154.7 901.778 154.033 909.389 154.033 924.29L154.031 924.288Z" stroke="#151515" stroke-width="6" stroke-linecap="round" stroke-linejoin="round"/>
<path d="M267.976 924.288C301.391 924.38 334.805 924.47 368.221 924.561C368.519 912.521 368.818 902.627 369.118 890.586C356.425 890.586 283.696 889.695 268.558 890.237C268.645 901.778 267.977 909.389 267.977 924.29L267.976 924.288Z" stroke="#151515" stroke-width="6" stroke-linecap="round" stroke-linejoin="round"/>
<path d="M384.885 924.288C418.301 924.38 451.715 924.47 485.13 924.561C485.429 912.521 485.727 902.627 486.027 890.586C473.334 890.586 400.605 889.695 385.467 890.237C385.554 901.778 384.887 909.389 384.887 924.29L384.885 924.288Z" stroke="#151515" stroke-width="6" stroke-linecap="round" stroke-linejoin="round"/>
<path d="M37.5259 972.107C70.9414 972.199 104.355 972.289 137.771 972.38C138.069 960.34 138.368 950.445 138.668 938.405C125.975 938.405 53.2459 937.514 38.1079 938.056C38.1949 949.597 37.5274 957.207 37.5274 972.108L37.5259 972.107Z" stroke="#151515" stroke-width="6" stroke-linecap="round" stroke-linejoin="round"/>
<path d="M154.031 972.107C187.447 972.199 220.861 972.289 254.276 972.38C254.575 960.34 254.873 950.445 255.173 938.405C242.48 938.405 169.751 937.514 154.613 938.056C154.7 949.597 154.033 957.207 154.033 972.108L154.031 972.107Z" stroke="#151515" stroke-width="6" stroke-linecap="round" stroke-linejoin="round"/>
<path d="M267.976 972.107C301.391 972.199 334.805 972.289 368.221 972.38C368.519 960.34 368.818 950.445 369.118 938.405C356.425 938.405 283.696 937.514 268.558 938.056C268.645 949.597 267.977 957.207 267.977 972.108L267.976 972.107Z" stroke="#151515" stroke-width="6" stroke-linecap="round" stroke-linejoin="round"/>
<path d="M384.885 972.107C418.301 972.199 451.715 972.289 485.13 972.38C485.429 960.34 485.727 950.445 486.027 938.405C473.334 938.405 400.605 937.514 385.467 938.056C385.554 949.597 384.887 957.207 384.887 972.108L384.885 972.107Z" stroke="#151515" stroke-width="6" stroke-linecap="round" stroke-linejoin="round"/>
<path d="M33.9229 1023.11C67.3384 1023.2 100.752 1023.29 134.168 1023.38C134.466 1011.34 134.765 1001.45 135.065 989.405C122.372 989.405 49.6428 988.514 34.5048 989.056C34.5918 1000.6 33.9244 1008.21 33.9244 1023.11L33.9229 1023.11Z" stroke="#151515" stroke-width="6" stroke-linecap="round" stroke-linejoin="round"/>
<path d="M150.428 1023.11C183.843 1023.2 217.257 1023.29 250.673 1023.38C250.971 1011.34 251.27 1001.45 251.57 989.405C238.877 989.405 166.148 988.514 151.01 989.056C151.097 1000.6 150.429 1008.21 150.429 1023.11L150.428 1023.11Z" stroke="#151515" stroke-width="6" stroke-linecap="round" stroke-linejoin="round"/>
<path d="M264.373 1023.11C297.788 1023.2 331.202 1023.29 364.618 1023.38C364.916 1011.34 365.215 1001.45 365.515 989.405C352.822 989.405 280.093 988.514 264.955 989.056C265.042 1000.6 264.374 1008.21 264.374 1023.11L264.373 1023.11Z" stroke="#151515" stroke-width="6" stroke-linecap="round" stroke-linejoin="round"/>
<path d="M381.281 1023.11C414.697 1023.2 448.11 1023.29 481.526 1023.38C481.824 1011.34 482.123 1001.45 482.423 989.405C469.73 989.405 397.001 988.514 381.863 989.056C381.95 1000.6 381.282 1008.21 381.282 1023.11L381.281 1023.11Z" stroke="#151515" stroke-width="6" stroke-linecap="round" stroke-linejoin="round"/>
</g>
<defs>
<clipPath id="clip0_556_846">
<rect width="510.917" height="1064.02" fill="white" transform="translate(0.835938 0.865967)"/>
</clipPath>
</defs>
</svg>
