<svg width="1579" height="544" viewBox="0 0 1579 544" fill="none" xmlns="http://www.w3.org/2000/svg">
<g clip-path="url(#clip0_556_472)">
<path d="M66.1733 303.235C564.971 303.675 1063.8 304.113 1562.53 296.31V267.417C1063.8 275.22 564.971 274.782 66.1733 274.343V303.235Z" fill="white"/>
<path d="M771.263 3.41902C770.791 1.62052 769.017 0.275019 767.16 0.296019C756.132 0.782019 745.091 0.167019 734.059 0.435519C716.887 1.17952 699.728 2.45152 682.628 4.19602C658.805 6.75652 635.267 11.36 611.584 14.915C577.571 21.149 543.106 25.544 509.81 35.1245C476.113 45.0875 441.768 53.12 409.256 66.677C377.157 78.4835 345.753 91.988 314.525 105.91C301.295 111.808 288.168 117.961 275.382 124.778C262.188 132.224 249.158 139.97 236.185 147.797C220.579 157.16 205.293 167.054 189.582 176.24C170.807 186.529 152.192 197.135 135.182 210.215C117.638 222.905 100.355 235.985 83.999 250.187C64.7405 267.229 46.397 285.277 28.166 303.4C23.2655 308.695 17.3105 316.333 15.164 319.751C13.7435 322.649 16.82 326.21 19.9475 325.223C22.373 324.305 24.011 321.503 26.003 319.846C30.041 315.844 34.2455 312.022 38.2295 307.966C55.3985 291.239 72.383 274.301 90.3575 258.43C107.97 243.155 121.064 233.291 139.668 219.769C149.162 212.776 158.786 205.945 168.906 199.88C178.725 194.006 188.931 188.809 198.762 182.951C223.074 168.149 247.175 152.999 271.845 138.791C301.038 121.859 332.594 109.538 363.389 95.9C375.749 90.386 393.593 83.849 409.823 77.588C426.963 70.817 444.224 64.322 462.053 59.5745C484.682 53.375 507.099 46.379 529.85 40.637C548.789 36.0755 568.049 33.0785 587.227 29.729C605.47 26.3615 623.798 23.5115 642.11 20.552C664.275 16.805 680.143 14.4515 703.355 12.722C719.435 11.471 735.508 10.0685 751.627 9.42652C755.921 9.24052 760.214 9.08002 764.51 8.92852C766.497 8.76052 768.674 9.13252 770.168 7.55602C771.249 6.49852 771.633 4.88002 771.261 3.41752L771.263 3.41902Z" fill="#C1C1C1"/>
<path d="M1280.56 303.407C1266.22 301.04 1251.65 301.37 1237.17 301.404C1222.32 301.484 1207.48 301.529 1192.63 301.541C1165.83 301.706 1139.02 301.244 1112.22 301.823C1085.38 302.714 1058.57 304.784 1031.7 304.416C980.966 303.531 930.23 302.729 879.494 303.843C859.51 304.038 839.554 305.213 819.572 305.54C799.187 305.187 778.817 304.032 758.42 304.128C709.837 304.397 661.246 305.511 612.661 304.536C571.945 303.77 531.264 301.425 490.53 301.629C440.618 301.748 390.691 301.028 340.787 302.031C285.314 304.164 229.801 303.938 174.301 304.683C156.134 304.809 137.966 304.836 119.8 304.86C115.004 304.866 110.207 304.871 105.412 304.877C102.623 304.814 100.099 307.311 100.174 310.115C100.16 312.909 102.592 315.411 105.412 315.353C110.207 315.348 115.004 315.342 119.8 315.336C137.966 315.312 156.134 315.285 174.301 315.159C209.231 314.679 244.161 314.525 279.092 314.15C303.585 313.883 328.054 312.716 352.541 312.227C402.847 311.811 453.161 312.065 503.469 312.165C533.781 312.258 564.066 313.71 594.362 314.606C631.115 315.66 667.887 315.372 704.651 315.2C740.668 314.498 776.692 314.216 812.686 315.935C831.806 316.245 850.904 314.759 870.018 314.499C908.157 313.737 946.305 313.508 984.449 314.093C1007.8 314.441 1031.16 315.344 1054.52 314.72C1083.55 313.805 1112.55 311.609 1141.61 312.042C1182.4 312.329 1223.22 311.412 1264 312.17C1265.73 312.245 1267.46 312.374 1269.18 312.504C1270.85 312.638 1272.51 312.8 1274.17 313.001C1274.54 313.052 1274.91 313.101 1275.28 313.154C1277.48 313.392 1279.78 314.265 1281.81 312.983C1283.41 312.068 1284.37 310.295 1284.41 308.46C1284.44 306.168 1282.77 303.998 1280.56 303.41L1280.56 303.407Z" fill="#C1C1C1"/>
<path d="M1468.63 527.994C1466.61 524.03 1464.45 520.134 1462.25 516.272C1450.58 496.263 1436.82 477.558 1423.25 458.819C1408.1 438.425 1391.3 419.364 1374.68 400.179C1356.2 378.359 1336.58 357.548 1315.28 338.453C1295.02 319.398 1273.69 301.59 1252.14 284.034C1229.33 265.205 1206.72 245.996 1181.84 229.91C1152.72 211.025 1121.29 196.076 1089.13 183.131C1069.79 175.248 1045.41 163.937 1022.56 154.23C1007.99 148.727 992.98 144.459 978.098 139.877C957.895 133.644 932.703 127.431 916.47 123.731C912.281 122.807 908.126 121.725 903.905 120.96C901.925 120.681 899.87 119.778 898.019 120.9C894.954 122.655 895.466 127.689 899.021 128.568C905.391 130.127 916.952 134.106 919.056 134.756C929.021 137.408 939.048 139.82 949.029 142.407C973.571 149.295 998.204 156.203 1022.08 165.171C1037.29 171.947 1062.8 183.335 1082.49 191.561C1108.62 202.145 1136.53 214.545 1163.52 230.831C1193.94 248.813 1215.67 267.404 1242.38 289.424C1253.23 298.605 1264.4 307.394 1275.26 316.566C1291.5 330.675 1307.4 345.174 1323.01 359.97C1342.87 378.666 1360.37 399.626 1378.23 420.183C1404.64 450.188 1425.22 477.576 1447.43 511.91C1451.29 518.094 1454.95 524.409 1458.36 530.856C1459.93 533.274 1460.52 536.46 1462.76 538.331C1465.4 540.687 1470.16 539.075 1470.97 535.616C1471.71 532.767 1469.75 530.453 1468.63 527.994Z" fill="#C1C1C1"/>
<path d="M147.804 505.934C148.008 507.425 147.972 507.215 147.786 505.668C147.324 501.285 146.973 496.89 146.645 492.494C145.532 476.598 145.538 460.656 145.209 444.732C144.791 428.571 144.065 412.401 144.632 396.236C146.237 367.368 147.077 338.457 145.4 309.572C145.263 302.757 135.128 302.609 134.924 309.572C135.683 325.943 136.133 342.348 135.776 358.736C135.456 373.446 134.27 388.124 134.019 402.834C133.778 417.5 134.477 432.153 134.81 446.811C135.135 465.249 135.2 483.72 137.009 502.089C137.328 504.555 137.664 507.02 138.135 509.46C138.413 510.734 138.485 512.165 139.433 513.146C140.816 515.208 143.807 515.646 145.902 514.437C150.275 511.328 147.53 507.269 147.804 505.934Z" fill="#C1C1C1"/>
<path d="M230.06 379.074C228.869 365.04 225.905 353.46 224.963 342.584C223.901 333.185 222.702 323.757 222.906 314.279C222.779 311.372 223.898 307.901 221.529 305.631C219.227 303.224 214.962 303.803 213.321 306.689C212.015 309.326 212.69 312.497 212.439 315.356C212.369 321.465 212.861 327.563 213.512 333.632C214.454 342.278 215.376 350.931 216.818 359.511C216.969 360.488 217.115 361.382 217.256 362.238C216.042 360.063 214.836 357.882 213.647 355.694C205.953 341.046 197.604 326.709 187.688 313.44C185.579 310.874 183.365 307.182 180.434 305.645C175.653 303.443 171.335 309.881 175.095 313.566C180.65 319.56 187.785 331.563 194 341.628C202.83 356.841 210.485 372.798 219.848 387.675C221.906 390.227 225.978 390.476 228.305 388.104C230.531 385.752 230.162 382.079 230.061 379.071L230.06 379.074Z" fill="#C1C1C1"/>
<path d="M432.611 241.553C430.604 236.305 422.521 237.98 422.585 243.572C421.945 251.795 421.697 260.063 421.85 268.309C422.005 270.611 421.709 273.275 423.551 274.997C427.805 278.914 433.645 274.792 432.371 269.375C432.095 262.607 432.416 255.829 432.677 249.064C432.557 246.59 433.628 243.889 432.61 241.553H432.611Z" fill="#C1C1C1"/>
<path d="M502.472 258.777C501.901 239.85 502.57 220.905 502.864 201.978C502.702 195.096 492.581 195.072 492.388 201.978C492.089 221.409 491.405 240.858 492.062 260.289C492.4 263.562 491.731 267.096 492.757 270.227C493.592 272.667 496.465 273.872 498.881 273.233C504.886 271.385 502.091 263.472 502.472 258.777Z" fill="#C1C1C1"/>
<path d="M572.067 262.708C571.553 240.046 571.329 217.382 571.757 194.716C571.845 188.305 571.857 181.892 571.8 175.48C571.403 171.95 572.775 167.26 570.24 164.444C567.303 161.359 561.594 163.657 561.738 167.966C561.419 201.122 560.732 234.268 561.692 267.422C561.611 270.785 565.074 273.379 568.293 272.45C572.799 271.222 572.165 266.377 572.067 262.708Z" fill="#C1C1C1"/>
<path d="M640.446 143.845C638.946 138.271 630.413 139.382 630.455 145.196C629.111 159.382 629.412 173.651 629.141 187.882C628.616 215.287 628.673 242.695 628.653 270.103C628.802 276.934 638.906 277.024 639.107 270.103C639.084 241.742 639.05 213.382 639.555 185.024C639.542 171.298 640.032 157.517 640.446 143.845Z" fill="#C1C1C1"/>
<path d="M711.045 264.467C709.781 234.312 707.588 204.156 708.002 173.963C707.958 158.966 708.498 143.99 708.983 129.006C708.825 122.258 698.801 122.213 698.646 129.006C697.379 160.284 696.831 191.616 698.709 222.885C699.174 234.48 699.642 246.077 700.248 257.666C700.733 262.529 700.277 268.523 701.408 273.098C702.782 277.034 708.723 277.35 710.697 273.722C712.158 270.897 710.925 267.512 711.045 264.467Z" fill="#C1C1C1"/>
<path d="M781.323 264.269C780.138 247.06 779.656 229.828 779.279 212.585C778.589 196.447 778.083 180.304 777.863 164.152C777.677 152.783 777.605 141.412 777.441 130.042C777.399 127.052 777.356 124.063 777.371 121.073C777.317 119.788 777.613 118.399 776.971 117.227C775.159 112.49 767.807 113.954 767.864 119.06C767.591 149.017 767.309 178.99 768.722 208.924C769.22 229.745 769.781 250.559 771.323 271.337C771.282 276.562 778.395 278.54 781.062 273.976C782.562 271.009 781.217 267.46 781.322 264.271L781.323 264.269Z" fill="#C1C1C1"/>
<path d="M848.31 120.474C847.647 112.968 836.547 114.642 838.197 122.046C839.826 137.205 840.528 166.491 839.861 186.801C839.295 208.479 837.644 230.136 838.269 251.835C838.349 256.547 838.481 261.257 838.664 265.964C838.865 267.764 838.476 269.73 839.261 271.4C839.918 273.351 842.028 274.629 844.047 274.62C849.138 274.287 849.642 270.014 849.134 265.847C848.9 259.892 848.754 253.932 848.679 247.974C848.237 227.958 849.753 207.983 850.278 187.986C850.832 165.485 850.692 142.874 848.31 120.474Z" fill="#C1C1C1"/>
<path d="M921.95 130.585C919.95 125.362 911.861 126.988 911.924 132.602C911.264 158.689 910.082 184.759 909.38 210.844C908.733 230.981 909.156 251.143 907.833 271.259C907.716 275.783 913.61 278.246 916.755 274.955C919.22 272.257 918.132 268.219 918.617 264.874C919.85 235.538 919.431 206.152 920.991 176.821C921.428 166.604 921.671 156.383 921.962 146.162C922.076 142.711 922.218 139.261 922.316 135.808C922.25 134.075 922.766 132.187 921.948 130.585H921.95Z" fill="#C1C1C1"/>
<path d="M991.154 152.898C990.777 149.78 991.653 145.98 989.307 143.517C986.231 140.238 980.216 142.7 980.364 147.221C981.257 167.184 980.391 187.22 979.605 207.179C978.879 229.35 977.61 251.499 975.894 273.617C974.919 277.446 978.477 281.255 982.38 280.127C986.078 279.159 986.34 275.397 986.475 272.202C988.922 239.084 990.54 205.896 991.097 172.691C991.163 166.094 991.239 159.495 991.154 152.898Z" fill="#C1C1C1"/>
<path d="M1057.21 170.564C1057.09 168.747 1056.97 166.788 1055.54 165.474C1052.46 162.189 1046.45 164.66 1046.6 169.178C1047.85 180.272 1046.59 191.423 1046.44 202.542C1046.59 226.253 1044.64 249.89 1043.69 273.563C1043.57 278.099 1049.48 280.563 1052.63 277.266C1055.27 274.322 1053.86 269.802 1054.43 266.169C1055.3 250.979 1056.21 235.788 1056.71 220.58C1056.77 207.276 1057.17 193.988 1057.64 180.695C1057.68 177.314 1057.52 173.93 1057.21 170.564H1057.21Z" fill="#C1C1C1"/>
<path d="M1128.05 198.624C1127.88 191.741 1117.76 191.72 1117.57 198.624C1117.37 217.352 1116.59 236.069 1116.49 254.8C1116.43 259.355 1116.21 263.906 1115.9 268.449C1115.42 270.977 1116.38 273.98 1119 274.862C1123.42 276.698 1126.77 272.707 1126.38 268.403C1126.68 263.861 1126.91 259.313 1126.97 254.76C1127.07 236.042 1127.84 217.338 1128.05 198.624Z" fill="#C1C1C1"/>
<path d="M1195.63 238.955C1192.55 235.661 1186.54 238.148 1186.68 242.659C1186.66 248.059 1186.52 253.457 1186.38 258.856C1186.44 261.569 1185.59 264.794 1187.81 266.887C1190.88 270.179 1196.9 267.695 1196.75 263.182C1196.87 257.96 1197.04 252.739 1197.11 247.517C1196.96 244.645 1197.94 241.189 1195.62 238.954L1195.63 238.955Z" fill="#C1C1C1"/>
<path d="M1338.88 305.283C1337.73 303.312 1335.33 302.361 1333.17 302.85C1332.99 301.329 1332.7 299.852 1331.8 298.643C1328.49 294.057 1321.09 297.804 1322.64 303.209C1323.32 308.372 1323.75 315.278 1330.7 314.73C1335.38 314.288 1341.85 310.781 1338.88 305.283H1338.88Z" fill="#C1C1C1"/>
<path d="M1446.13 291.185C1440.86 289.786 1439.12 296.011 1436.48 299.227C1431.03 306.968 1426.31 315.185 1422.08 323.65C1415.18 337.082 1408.2 350.479 1401.65 364.085C1402.31 347.966 1402.41 331.829 1402.1 315.7C1401.95 310.916 1401.8 306.131 1401.48 301.355C1401.36 299.278 1401.48 296.957 1399.81 295.429C1396.74 292.147 1390.72 294.613 1390.87 299.132C1392.08 318.719 1391.98 338.38 1391.43 357.991C1391.19 363.965 1390.85 369.941 1390.97 375.923C1391.28 380.153 1390 386.419 1394.86 388.397C1402.06 391.255 1404.56 381.854 1407.06 377.036C1411.52 367.552 1416.06 358.1 1420.9 348.806C1426.97 337.388 1432.41 325.619 1439.01 314.491C1441.56 310.3 1444.32 306.244 1447.12 302.209C1448.09 300.505 1449.7 298.954 1449.88 296.93C1450.41 294.398 1448.54 291.869 1446.13 291.182L1446.13 291.185Z" fill="#C1C1C1"/>
<path d="M1481.35 475.369C1481.08 468.253 1480.74 461.14 1480.35 454.028C1479.72 439.714 1478.64 425.42 1478.17 411.099C1477.81 397.251 1478.23 383.404 1478.44 369.557C1478.67 355.099 1479.1 340.643 1479.06 326.182C1478.83 317.725 1479.35 308.986 1477.62 300.707C1475.63 295.487 1467.53 297.109 1467.6 302.726C1468.91 314.373 1468.54 326.125 1468.52 337.823C1468.31 356.387 1467.78 374.945 1467.57 393.509C1467.26 418.069 1469.57 442.552 1470.52 467.075C1470.72 471.185 1470.86 475.295 1471.03 479.407C1470.95 482.776 1474.43 485.396 1477.66 484.457C1481.96 483.216 1481.63 478.981 1481.35 475.369Z" fill="#C1C1C1"/>
<path d="M165.015 264.356C160.449 258.217 153.135 243.314 144.017 245.725C139.064 247.148 139.088 252.91 138.327 257.107C137.861 261.313 136.485 265.535 136.466 269.738C137.009 275.206 145.065 275.704 146.457 270.421C147.084 266.504 147.62 262.564 148.344 258.662C149.943 260.521 151.619 263.059 154.466 267.311C155.723 269.143 156.747 271.48 159.113 272.033C163.437 273.38 167.427 268.198 165.015 264.356Z" fill="#C1C1C1"/>
<path d="M265.101 261.947C260.708 255.343 256.559 248.578 252.51 241.757C244.175 227.971 238.629 212.711 230.343 198.908C228.869 196.702 227.324 194.39 224.955 193.066C221.709 191.18 217.311 193.228 216.459 196.832C215.157 209.09 214.259 221.396 214.184 233.729C214.109 243.395 214.277 253.075 215.009 262.717C215.198 265.28 215.465 267.838 215.699 270.398C215.688 271.778 216.263 273.13 217.233 274.102C220.311 277.385 226.323 274.916 226.176 270.398C224.219 250.96 224.222 231.368 225.603 211.889C230.322 220.979 234.339 230.419 239.22 239.428C243.971 248.344 249.362 256.909 254.837 265.394C256.617 268.114 258.453 270.796 260.309 273.464C260.994 274.636 262.133 275.512 263.439 275.872C266.123 276.67 269.184 274.924 269.883 272.213C270.857 268.123 266.832 265.255 265.101 261.947Z" fill="#C1C1C1"/>
<path d="M570.748 134.164C569.63 131.026 566.216 129.386 564.117 126.922C549.999 113.258 536.367 99.08 523.641 84.1085C517.86 77.8985 508.024 66.371 498.701 68.1185C492.707 69.8705 494.007 77.3375 493.434 82.217C493.092 89.8175 493.436 97.427 493.582 105.028C493.924 121.453 494.709 137.921 493.983 154.342C489.419 149.968 484.942 145.502 480.787 140.734C471.022 129.676 461.688 118.148 450.666 108.29C447.266 105.232 443.828 102.209 440.3 99.299C438.425 97.619 435.926 95.804 433.349 94.898C432.844 93.848 432.038 92.99 430.757 92.5295C428.457 91.4015 425.402 92.501 424.142 94.694C423.301 96.3935 423.122 98.297 422.682 100.123C421.181 106.798 420.197 113.578 419.525 120.385C418.339 137.327 419.077 154.379 419.791 171.331C420.253 177.931 421.118 184.49 421.901 191.059C417.209 185.501 413.456 180.452 408.272 172.951C400.806 162.517 392.814 152.47 384.666 142.562C381.194 138.328 377.738 134.08 374.312 129.808C371.724 126.394 367.483 122.11 363.076 122.114C363.04 121.955 363.011 121.793 362.972 121.634C362.048 117.668 356.939 115.898 354.014 118.931C352.403 120.53 352.457 122.848 352.18 124.955C351.725 128.764 351.41 132.589 351.167 136.417C350.269 157.129 351.197 177.89 352.616 198.559C353.547 210.064 354.033 221.645 355.623 233.084C344.82 219.784 335.42 208.468 326.354 195.203C320.171 186.757 302.755 150.956 291.368 154.252C287.791 155.209 286.418 158.866 286.418 162.274C285.782 168.323 285.053 174.365 284.686 180.439C283.481 200.204 282.92 220.042 284.293 239.813C284.707 247.321 285.199 254.822 285.585 262.331C285.983 265.796 285.439 269.509 286.46 272.833C288.515 278.053 296.513 276.445 296.486 270.814C295.77 254.54 294.455 238.295 293.969 222.011C293.809 210.283 294.265 198.55 294.778 186.833C295.052 180.703 295.601 174.593 296.23 168.493C298.673 171.145 299.979 173.209 302.676 176.971C308.273 185.176 312.833 194.038 318.475 202.213C326.638 214.103 335.99 225.112 344.858 236.473C349.413 242.084 354.05 247.628 358.522 253.307C360.805 255.842 362.519 258.973 365.177 261.119C368.2 263.005 372.727 260.9 372.982 257.285C373.336 255.973 372.731 254.741 372.21 253.562C370.403 249.689 370.784 250.415 370.036 248.627C366.836 239.843 366.179 234.062 365.408 227.632C363.299 201.739 360.926 175.66 361.322 149.645C361.826 149.401 362.297 149.074 362.706 148.631C364.145 147.088 364.401 145.048 364.436 142.964C364.446 142.876 364.456 142.787 364.466 142.699C364.79 140.363 365.197 138.04 365.647 135.725C367.376 137.722 368.966 139.853 370.658 141.874C376.188 148.697 381.818 155.44 387.257 162.338C392.909 169.199 401.326 181.414 408.973 191.671C413.035 197.104 417.629 202.097 422.19 207.106C423.669 208.697 424.736 210.916 427.006 211.469C429.716 212.266 432.832 210.467 433.523 207.733C434.12 203.983 433.223 200.147 432.99 196.385C431.148 181.835 429.587 167.257 429.605 152.569C429.589 151.003 429.565 149.437 429.539 147.869C430.427 147.307 431.149 146.497 431.5 145.46C432.515 142.139 431.774 138.475 432.125 135.026C432.346 128.107 432.74 121.195 433.194 114.287C433.353 111.943 433.514 109.597 433.666 107.251C436.109 109.232 438.611 111.778 442.202 114.742C455.984 126.781 466.934 141.563 479.501 154.78C483.195 158.558 487.025 162.203 490.866 165.83C492.395 167.21 493.763 168.878 495.785 169.517C504.128 171.128 504.452 160.156 504.475 154.382C505.117 137.537 504.432 120.691 504.032 103.849C503.852 95.888 503.57 87.908 504.027 79.955C511.029 84.5075 517.874 93.7475 525.133 101.71C536.551 114.415 548.546 126.623 560.975 138.34C564.662 143.048 572.067 140.353 570.749 134.156L570.748 134.164Z" fill="#C1C1C1"/>
<path d="M840.286 85.7855C828.935 76.421 817.815 66.68 808.076 55.616C801.656 47.744 797.951 42.9695 790.562 32.165C789.032 30.047 787.49 27.935 786.138 25.697C785.757 24.7055 784.451 23.459 783.714 22.9625C780.828 21.293 776.844 22.817 776.012 26.093C774.161 41.087 774.477 56.2385 773.222 71.2775C772.743 76.094 772.771 76.9055 771.962 80.699C766.277 77.345 760.613 73.9565 755.145 70.256C739.046 59.6555 726.633 53.891 714.795 40.3115C713.78 38.936 712.91 37.4585 712.124 35.942C711.269 34.283 710.469 32.453 708.791 31.472C706.626 30.1625 703.452 30.698 702.006 32.8295C700.968 33.902 700.887 35.456 700.782 36.869C700.388 41.396 700.292 45.9455 700.337 50.4875C700.628 62.7965 701.742 75.0875 701.936 87.3965C701.889 88.592 701.847 89.327 701.804 89.8505C699.527 88.61 697.286 87.3035 695.123 85.8725C688.721 81.6845 679.268 71.9525 671.07 63.893C663.933 56.921 656.193 50.597 649.074 43.607C645.212 39.8225 639.794 32.3915 634.073 37.4165C632.513 38.9675 632.352 41.1515 632.22 43.2305C631.766 48.4625 631.394 53.7095 631.407 58.964C631.806 73.841 632.444 88.724 632.178 103.61C625.965 99.146 620.892 93.203 613.58 86.411C605.075 78.221 595.673 71.045 586.922 63.1295C583.71 60.407 580.793 57.374 577.756 54.467C574.864 51.977 571.032 48.6755 567.083 50.837C564.417 52.2155 564.062 55.496 564.576 58.175C564.83 61.0355 565.007 63.905 565.094 66.776C565.461 75.215 565.115 83.6585 564.928 92.0975C564.625 102.534 563.642 112.938 563.283 123.374C563.45 126.509 562.105 130.089 563.195 133.035C565.198 138.269 573.308 136.592 573.221 131.018C574.197 115.272 575.298 99.5165 575.601 83.7395C575.766 78.1325 575.765 72.515 575.556 66.908C583.704 74.4395 592.321 81.455 600.683 88.751C609.125 96.014 616.299 104.7 625.197 111.423C629.307 113.958 634.563 119.655 639.525 116.061C641.936 114.423 642.204 111.462 642.497 108.807C642.786 104.585 642.675 100.346 642.678 96.116C643.049 81.2195 641.456 66.3305 642.129 51.4505C649.82 58.9415 658.175 65.7305 665.748 73.349C675.449 82.928 685.013 93.1055 697.322 99.347C704.207 103.793 709.557 103.127 711.659 94.475C712.869 88.4585 712.31 82.331 711.989 76.2575C711.69 67.9955 711.02 59.72 710.852 51.449C713.55 54.164 716.481 56.6735 719.426 59.087C726.632 65.0045 734.678 69.746 742.598 74.6225C749.117 78.665 755.364 83.1305 762.008 86.975C765.368 88.838 768.522 91.1495 772.037 92.696C780.237 94.67 782.165 85.229 782.802 79.0925C784.517 67.028 784.49 54.8225 785.135 42.6725C795.057 56.819 805.361 69.596 820.307 82.499C824.231 85.937 828.197 89.3315 832.221 92.6525C834.138 94.0775 835.778 96.308 838.385 96.2225C844.295 95.9375 845.423 88.6325 840.286 85.7855Z" fill="#C1C1C1"/>
<path d="M1192.59 99.2481C1189.66 97.4496 1186.68 99.4131 1184.37 101.276C1181.97 103.034 1179.55 104.762 1177.13 106.504C1163.53 116.257 1149.77 125.831 1136.74 136.358C1131.79 140.215 1127.3 144.629 1123.49 149.576C1123.38 143.011 1123.56 136.435 1123.6 129.869C1123.52 119.363 1123.17 108.86 1122.93 98.3571C1122.81 93.8196 1122.66 89.2821 1122.48 84.7476C1122.24 81.5151 1122.64 78.0606 1121.21 75.0621C1119.28 71.5686 1113.87 71.4861 1111.92 75.0021C1109.69 79.4181 1101.89 85.3761 1095.64 91.1346C1083.51 102.019 1071.03 112.508 1058.83 123.316C1057.94 124.042 1057.26 124.61 1056.71 125.083C1056.32 115.151 1055.53 105.227 1056.05 95.2881C1056.68 85.1856 1056.72 75.0771 1056.49 64.9611C1056.4 62.6616 1056.85 60.3276 1056.41 58.0566C1055.66 55.3116 1052.7 53.5176 1049.94 54.3351C1048.54 54.6726 1047.57 55.7031 1046.63 56.7186C1044.76 58.6266 1042.83 60.4746 1040.78 62.1936C1028.13 73.0131 1020.27 78.7326 1007.56 88.7796C1001.04 93.9741 993.902 100.012 988.113 103.772C988.011 102.026 987.914 100.28 987.788 98.5371C986.889 86.6406 987.126 74.6616 988.796 62.8416C989.105 59.4486 989.493 58.3761 990.236 52.5591C990.512 49.6236 991.365 46.5741 990.755 43.6491C989 38.6211 983.712 38.8506 980.553 42.6186C977.165 45.3861 977.88 44.9556 973.107 47.9976C958.514 57.5886 943.889 67.2276 930.288 78.2031C926.855 80.9571 923.684 83.9961 920.601 87.1236C920.07 79.3761 918.927 71.6796 918.003 63.9696C917.136 56.8821 916.41 49.7781 915.563 42.6891C915.005 39.3336 915.05 35.7546 913.494 32.6631C911.037 28.8351 907.016 29.5836 903.747 32.0796C891.836 39.1281 881.102 47.9076 870.701 56.9901C863.364 63.0111 856.686 69.7236 850.539 76.9176C850.146 73.4781 849.722 70.0416 849.273 66.6081C848.199 58.1421 847.067 49.6806 846.188 41.1921C845.621 37.3761 845.913 33.3141 844.862 29.6256C842.982 24.4371 834.707 26.0181 834.836 31.6431C835.961 45.4251 837.855 59.1261 839.585 72.8421C840.035 76.4766 840.434 80.1171 840.794 83.7621C841.16 86.5026 840.824 89.6391 842.888 91.7781C846.114 94.8621 850.518 93.4836 853.082 90.3246C860.46 80.6976 868.946 71.9721 878.292 64.2396C888.546 55.4001 894.804 50.0916 905.178 43.5156C905.954 49.2501 906.555 56.3541 907.437 63.2121C908.265 70.6011 909.455 77.9496 910.008 85.3671C910.676 90.2421 909.83 96.0501 911.081 100.625C912.68 104.738 917.943 104.876 920.817 102.008C924.369 98.4531 927.621 94.5846 931.355 91.1991C942.23 81.0216 954.452 73.1676 968.937 63.2616C972.278 60.9501 975.755 58.8231 979.151 56.5836C976.307 73.4601 976.409 90.5511 977.879 107.557C977.835 112.097 979.248 116.786 984.609 116.795C988.139 116.551 991.035 114.257 993.92 112.421C1001.06 107.636 1007.64 102.083 1014.33 96.7026C1024.65 88.2831 1035.26 80.8611 1046.1 71.3811C1046.12 72.3546 1046.13 73.3266 1046.16 74.2986C1046.36 82.8921 1045.63 91.4691 1045.42 100.055C1045.26 107.513 1045.85 114.955 1046.14 122.402C1046.27 125.404 1046.35 128.407 1046.4 131.411C1046.48 133.27 1046.25 135.311 1047.29 136.951C1049.52 140.758 1054.64 139.771 1057.67 137.509C1065.86 131.701 1072.95 124.538 1080.65 118.13C1091.21 108.907 1101.93 99.8271 1112.18 90.2631C1112.87 109.552 1113.23 128.849 1112.99 148.15C1113.07 154.61 1113.47 161.074 1114.28 167.485C1115.19 171.238 1120.41 172.673 1123.07 169.808C1126 165.842 1128.28 161.213 1130.26 157.949C1131.43 159.898 1133.87 161.068 1136.17 160.402C1138.23 159.863 1139.42 157.958 1140.87 156.548C1144.36 152.819 1147.71 148.963 1151.26 145.298C1160.82 135.88 1171.37 127.508 1181.28 118.454C1185.6 114.368 1190.94 111.223 1194.54 106.45C1196.01 104.041 1195.08 100.597 1192.59 99.2481Z" fill="#C1C1C1"/>
<path d="M1333.05 157.406C1329.96 156.834 1327.97 159.584 1325.97 161.457C1322.12 165.206 1318.23 168.929 1314.3 172.592C1306.69 179.751 1299.06 186.938 1292.18 194.819C1286.06 202.196 1280.84 210.254 1275.56 218.238C1272.15 223.094 1269.26 228.259 1266.41 233.444C1266.27 226.201 1265.82 218.961 1265.29 211.725C1264.86 197.109 1264.71 182.484 1264.05 167.874C1263.68 158.811 1263.41 149.718 1263.99 140.66C1264.21 137.754 1264.58 134.862 1264.91 131.969C1265.16 129.987 1265.36 127.874 1264.31 126.08C1262.15 122.483 1257.57 122.916 1255.01 125.877C1252.2 128.295 1249.49 130.812 1246.8 133.367C1238.3 141.663 1229.6 149.829 1221.99 158.973C1216.68 165.138 1212.09 171.863 1207.23 178.368C1204.53 182.076 1201.83 185.81 1199.32 189.657C1196.72 174.345 1195.31 161.718 1195.5 144.152C1195.51 134.051 1195.51 123.942 1194.7 113.867C1194.51 110.765 1194.25 107.666 1193.78 104.592C1193.48 103.077 1193.55 101.345 1192.42 100.17C1189.17 95.6315 1181.68 99.287 1183.25 104.736C1185.54 117.615 1184.7 141.822 1185.28 159.602C1185.6 169.322 1187.26 178.916 1188.6 188.531C1189.23 192.971 1190.04 197.384 1190.87 201.789C1191.29 204.819 1192.03 208.352 1195.42 209.255C1201.64 210.864 1202.93 203 1205.71 199.208C1208.97 193.685 1212.75 188.498 1216.52 183.324C1226.76 168.303 1239 155.126 1253.55 141.396C1253.19 146.973 1253.08 152.565 1253.26 158.162C1253.9 175.938 1254.41 193.718 1254.81 211.502C1255.68 224.322 1256.57 237.159 1255.58 250.004C1254.94 255.78 1261.19 259.236 1265.52 255.12C1272.15 246.755 1275.89 236.468 1281.91 227.664C1292.14 211.797 1298.73 201.635 1312.2 189.065C1316.47 184.883 1320.84 180.795 1325.2 176.691C1324.09 187.682 1324.67 198.78 1324.02 209.813C1323.11 227.981 1320.44 246.043 1320.13 264.236C1320.03 267.029 1320.37 270.343 1323.05 271.859C1325.62 273.407 1329.23 272.558 1330.77 269.952C1333.47 264.03 1333.58 256.56 1334.65 250.133C1334.7 247.932 1333.36 246.249 1331.62 245.442C1332.7 231.917 1334.24 218.418 1334.72 204.852C1334.9 195.384 1334.94 178.658 1335.99 174.165C1336.46 170.657 1337.2 167.192 1337.63 163.679C1338.15 160.79 1336.07 157.599 1333.04 157.401L1333.05 157.406Z" fill="#C1C1C1"/>
<path d="M1405.88 267.121C1405.73 264.262 1405.48 261.407 1405.25 258.553C1404.74 252.766 1404.6 246.953 1404.23 241.156C1403.27 227.908 1403.2 214.414 1400.27 201.418C1398.68 195.512 1391.67 193.157 1388.18 198.917C1379.91 211.498 1372.61 224.668 1364.73 237.488C1360.49 244.346 1356.07 251.092 1351.79 257.93C1350.32 260.932 1347.02 263.732 1347.97 267.341C1349.03 271.687 1355.4 272.54 1357.54 268.592C1363.42 258.868 1369.75 249.427 1375.66 239.717C1381.02 230.803 1386.21 221.785 1391.68 212.935C1393.02 224.705 1393.76 242.411 1394.56 255.929C1394.86 259.751 1395.22 263.569 1395.42 267.397C1395.51 268.531 1395.35 269.744 1395.93 270.763C1397.09 274.168 1402.01 275.03 1404.42 272.449C1405.85 271.007 1406.14 269.062 1405.88 267.121Z" fill="#C1C1C1"/>
<path d="M1481.34 256.631C1480.48 254.466 1479.68 252.206 1478.1 250.443C1476 248.391 1472.72 247.551 1470 248.834C1467.21 249.843 1466.12 252.833 1465.03 255.335C1463.84 258.495 1461.68 261.378 1460.91 264.642C1459.96 270.198 1467.8 272.849 1470.58 267.983C1471.43 266.391 1472.17 264.741 1472.91 263.09C1477.31 268.142 1484.58 262.524 1481.34 256.631Z" fill="#C1C1C1"/>
<path d="M848.901 88.8395C848.264 86.4215 845.885 84.614 843.387 84.641C839.937 84.1145 834.36 83.6525 826.68 82.958C811.371 81.4415 796.014 82.502 780.722 83.693C767.313 84.8075 753.852 85.49 740.517 87.341C724.448 89.372 708.786 93.6065 693.021 97.1975C676.442 100.944 659.87 104.747 643.485 109.284C584.795 126.522 528.093 150.463 474.501 179.92C460.008 187.826 446.382 197.167 432.456 206.006C414.837 217.319 397.259 228.71 380.321 241.029C363.527 253.478 348.063 267.602 331.937 280.884C307.187 301.37 283.574 323.219 262.464 347.481C242.045 369.837 220.122 395.739 205.167 415.376C195.356 428.451 195.026 428.205 185.189 442.07C178.991 451.193 173.76 460.919 168.261 470.466C163.349 479.127 158.196 487.656 153.573 496.479C148.86 505.416 144.476 514.606 138.249 522.622C135.506 525.29 135.656 530.303 139.223 532.239C141.936 533.847 145.751 532.892 147.303 530.12C155.318 519.308 160.67 506.867 167.423 495.281C175.815 480.77 184.923 466.676 193.806 452.465C205.038 435.685 221.433 417.849 237.755 399.683C262.944 370.983 289.058 343.08 317.043 317.075C335.895 300.045 356.244 284.757 375.684 268.413C389.726 256.419 409.68 243.751 429.848 229.823C451.724 215.216 473.195 199.91 496.418 187.47C544.641 161.865 585.486 141.463 636.441 126.371C655.853 120.901 675.632 116.869 695.358 112.73C709.776 109.675 724.136 106.322 738.69 103.965C753.743 101.303 782.301 99.8615 804.389 98.0795C814.247 97.472 824.091 96.6095 833.952 96.0935C836.538 96.134 839.126 96.017 841.713 96.059C843.764 96.1565 845.948 96.014 847.433 94.4015C848.898 92.9795 849.393 90.8045 848.903 88.838L848.901 88.8395Z" fill="#DBDBDB"/>
<path d="M1516.11 285.26C1515.06 281.267 1510.94 278.378 1506.82 278.827C1506.49 278.785 1506.17 278.726 1505.85 278.69C1498.69 278.261 1491.54 278.243 1484.45 279.32C1459.22 282.001 1455.92 281.983 1433.25 285.397C1419.48 287.381 1417.28 288.145 1401.96 289.096C1381.98 289.847 1361.95 289.399 1341.98 288.646C1326.08 287.95 1310.27 285.875 1294.36 285.359C1264.46 284.26 1234.53 285.769 1204.62 284.575C1182.15 284.285 1159.74 282.134 1137.27 281.962C1114.32 282.539 1091.42 284.708 1068.45 284.732C1034.81 285.014 1001.17 284.672 967.539 285.28C955.994 285.487 944.51 286.876 932.985 287.467C914.858 288.25 896.715 288.529 878.582 289.117C846.878 290.591 815.399 286.852 783.768 285.94C765.198 285.628 746.649 286.805 728.09 287.261C707.339 288.031 686.562 288.047 665.835 289.424C651.545 290.404 637.242 289.561 622.961 288.874C603.603 288.269 584.235 287.735 564.867 287.779C545.459 287.975 526.043 288.158 506.651 289.03C486.18 290.026 465.72 291.304 445.214 291.13C427.74 291.332 410.259 291.412 392.801 290.54C371.361 289.486 349.956 287.714 328.491 287.182C310.88 286.67 293.265 287.609 275.675 288.359C256.037 289.166 236.403 290.083 216.804 291.571C181.482 294.101 146.064 294.235 110.678 293.378C102.324 293.3 93.9709 293.191 85.6159 293.254L77.0554 293.296C76.1974 293.263 75.3964 293.443 74.6539 293.833C71.7979 294.833 70.2229 298.289 71.0449 301.187C71.7349 303.821 74.3359 305.797 77.0569 305.764C111.015 305.521 144.956 308.089 178.905 306.739C198.35 306.257 217.721 304.499 237.12 303.226C270.473 301.811 303.9 300.928 337.254 302.759C375.246 305.332 413.264 307.741 451.365 306.764C484.034 306.184 516.587 302.77 549.284 302.761C582.386 302.125 615.462 303.796 648.54 304.711C660.803 304.606 673.05 303.775 685.314 303.644C694.845 303.467 704.376 303.827 713.906 303.625C737.685 303.295 761.465 301.798 785.247 302.407C807.761 303.187 830.156 306.106 852.699 306.341C889.578 307.021 926.454 305.164 963.327 305.248C1016.11 304.217 1068.96 307.316 1121.64 303.014C1146.53 301.156 1171.41 303.718 1196.29 304.469C1225.32 305.6 1254.36 304.256 1283.4 304.472C1300.31 304.468 1317.01 307.442 1333.86 308.459C1356.02 309.613 1378.24 309.908 1400.42 309.211C1412.88 308.681 1425.2 306.587 1437.54 304.907C1450.5 302.738 1471.16 301.843 1491.47 299.408C1496.85 298.979 1502.04 297.449 1507.36 296.59C1507.66 296.552 1507.95 296.498 1508.24 296.429C1509.21 296.378 1510.13 296.137 1511 295.684C1515.05 294.263 1517.27 289.373 1516.11 285.26Z" fill="#DBDBDB"/>
<path d="M643.282 42.3979C638.93 120.26 638.378 198.335 641.632 276.252" stroke="#151515" stroke-width="6" stroke-linecap="round" stroke-linejoin="round"/>
<path d="M712.457 31.217C708.105 112.802 707.553 194.611 710.807 276.251" stroke="#151515" stroke-width="6" stroke-linecap="round" stroke-linejoin="round"/>
<path d="M781.634 31.217C777.283 112.802 776.73 194.611 779.984 276.251" stroke="#151515" stroke-width="6" stroke-linecap="round" stroke-linejoin="round"/>
<path d="M847.074 28.328C851.426 110.876 851.978 193.647 848.724 276.252" stroke="#151515" stroke-width="6" stroke-linecap="round" stroke-linejoin="round"/>
<path d="M916.251 36.155C920.603 116.096 921.155 196.256 917.901 276.253" stroke="#151515" stroke-width="6" stroke-linecap="round" stroke-linejoin="round"/>
<path d="M985.427 44.1066C989.779 121.4 990.33 198.905 987.077 276.253" stroke="#151515" stroke-width="6" stroke-linecap="round" stroke-linejoin="round"/>
<path d="M1054.6 60.0544C1058.96 132.038 1059.51 204.218 1056.25 276.252" stroke="#151515" stroke-width="6" stroke-linecap="round" stroke-linejoin="round"/>
<path d="M1123.78 75.485C1128.13 139.389 1128.68 203.468 1125.43 267.416" stroke="#151515" stroke-width="6" stroke-linecap="round" stroke-linejoin="round"/>
<path d="M1192.96 105.609C1197.31 160.917 1197.86 216.375 1194.61 271.721" stroke="#151515" stroke-width="6" stroke-linecap="round" stroke-linejoin="round"/>
<path d="M1262.14 131.357C1266.49 176.659 1267.04 222.082 1263.78 267.415" stroke="#151515" stroke-width="6" stroke-linecap="round" stroke-linejoin="round"/>
<path d="M1331.31 163.007C1335.66 215.018 1336.21 267.17 1332.96 319.217" stroke="#151515" stroke-width="6" stroke-linecap="round" stroke-linejoin="round"/>
<path d="M1400.49 196.603C1404.84 261.401 1405.39 326.377 1402.14 391.22" stroke="#151515" stroke-width="6" stroke-linecap="round" stroke-linejoin="round"/>
<path d="M1477.29 248.269C1481.64 330.01 1482.19 411.973 1478.94 493.771" stroke="#151515" stroke-width="6" stroke-linecap="round" stroke-linejoin="round"/>
<path d="M574.104 49.7631C569.753 125.174 569.201 200.789 572.454 276.251" stroke="#151515" stroke-width="6" stroke-linecap="round" stroke-linejoin="round"/>
<path d="M504.928 65.3075C500.576 135.542 500.024 205.968 503.278 276.251" stroke="#151515" stroke-width="6" stroke-linecap="round" stroke-linejoin="round"/>
<path d="M435.751 91.313C431.399 152.889 430.847 214.632 434.101 276.252" stroke="#151515" stroke-width="6" stroke-linecap="round" stroke-linejoin="round"/>
<path d="M366.573 116.954C362.222 169.992 361.67 223.176 364.923 276.251" stroke="#151515" stroke-width="6" stroke-linecap="round" stroke-linejoin="round"/>
<path d="M297.398 152.29C293.047 207.869 292.495 263.6 295.748 319.217" stroke="#151515" stroke-width="6" stroke-linecap="round" stroke-linejoin="round"/>
<path d="M228.221 195.453C223.87 260.634 223.318 325.994 226.571 391.22" stroke="#151515" stroke-width="6" stroke-linecap="round" stroke-linejoin="round"/>
<path d="M147.816 247.696C143.465 334.597 142.913 421.735 146.166 508.696" stroke="#151515" stroke-width="6" stroke-linecap="round" stroke-linejoin="round"/>
<path d="M66.1744 303.234C564.972 303.674 1063.8 304.112 1562.54 296.309" stroke="#151515" stroke-width="6" stroke-linecap="round" stroke-linejoin="round"/>
<path d="M66.1744 274.342C564.972 274.781 1063.8 275.219 1562.54 267.416" stroke="#151515" stroke-width="6" stroke-linecap="round" stroke-linejoin="round"/>
<path d="M300.986 157.319C322.577 188.512 344.166 219.704 365.757 250.897" stroke="#151515" stroke-width="6" stroke-linecap="round" stroke-linejoin="round"/>
<path d="M371.186 120.425C391.429 149.546 411.671 178.667 431.914 207.788" stroke="#151515" stroke-width="6" stroke-linecap="round" stroke-linejoin="round"/>
<path d="M439.258 95.738C460.022 120.031 480.787 144.325 501.55 168.617" stroke="#151515" stroke-width="6" stroke-linecap="round" stroke-linejoin="round"/>
<path d="M506.6 66.8705C527.286 89.33 547.973 111.789 568.659 134.247" stroke="#151515" stroke-width="6" stroke-linecap="round" stroke-linejoin="round"/>
<path d="M574.46 52.754L639.137 114.197" stroke="#151515" stroke-width="6" stroke-linecap="round" stroke-linejoin="round"/>
<path d="M645.512 36.9426C665.574 58.3401 685.635 79.7391 705.698 101.137" stroke="#151515" stroke-width="6" stroke-linecap="round" stroke-linejoin="round"/>
<path d="M710.437 33.7476C733.096 53.6406 755.755 73.5336 778.412 93.4251" stroke="#151515" stroke-width="6" stroke-linecap="round" stroke-linejoin="round"/>
<path d="M785.099 31.7345C804.767 53.5355 825.389 74.4755 847.551 93.968C868.908 73.427 891.134 53.789 914.145 35.123" stroke="#151515" stroke-width="6" stroke-linecap="round" stroke-linejoin="round"/>
<path d="M922.167 97.778C944.111 81.8435 965.612 65.3015 986.639 48.176" stroke="#151515" stroke-width="6" stroke-linecap="round" stroke-linejoin="round"/>
<path d="M990.093 114.635C1012.19 96.8825 1034.29 79.1315 1056.39 61.379" stroke="#151515" stroke-width="6" stroke-linecap="round" stroke-linejoin="round"/>
<path d="M1058.55 136.745C1079.85 117.417 1101.15 98.09 1122.45 78.7625" stroke="#151515" stroke-width="6" stroke-linecap="round" stroke-linejoin="round"/>
<path d="M1127.11 167.819C1147.6 144.127 1170.48 122.503 1195.28 103.381" stroke="#151515" stroke-width="6" stroke-linecap="round" stroke-linejoin="round"/>
<path d="M1199.42 206.385C1217.6 178.02 1239.88 152.291 1265.36 130.245" stroke="#151515" stroke-width="6" stroke-linecap="round" stroke-linejoin="round"/>
<path d="M1264.2 257.559C1281.52 222.092 1304.85 189.563 1332.88 161.774" stroke="#151515" stroke-width="6" stroke-linecap="round" stroke-linejoin="round"/>
<path d="M1332.57 317.32C1354.04 277.052 1377 237.577 1401.38 199.003" stroke="#151515" stroke-width="6" stroke-linecap="round" stroke-linejoin="round"/>
<path d="M1477.67 251.894C1450.93 298.519 1424.2 345.145 1397.46 391.769" stroke="#151515" stroke-width="6" stroke-linecap="round" stroke-linejoin="round"/>
<path d="M229.002 197.793C252.453 238.041 275.903 278.289 299.354 318.537" stroke="#151515" stroke-width="6" stroke-linecap="round" stroke-linejoin="round"/>
<path d="M151.205 245.437C176.834 291.764 202.464 338.092 228.093 384.421" stroke="#151515" stroke-width="6" stroke-linecap="round" stroke-linejoin="round"/>
<path d="M1479.16 541.202C1442.87 491.096 1214.74 108.293 789.116 117.103C460.599 123.902 209.942 421.234 161.238 540.173L145.948 514.533C195.782 395.593 452.255 98.2618 788.395 91.4623C1223.9 82.6528 1457.32 465.456 1494.45 515.562L1479.16 541.202Z" fill="white"/>
<path d="M1477.25 526.159C1477.23 526.093 1477.22 526.052 1477.2 525.964C1474.85 518.324 1475.13 519.859 1473.53 516.098C1457.68 482.573 1437.12 455.711 1421.32 435.605C1412.28 423.967 1402.94 412.543 1393.07 401.596C1383.11 390.89 1372.58 380.714 1363.15 369.527C1355.27 360.472 1347.62 351.166 1338.72 343.072C1331.52 336.328 1323.21 330.892 1316.19 323.948C1302.48 310.666 1290.09 296.033 1275.41 283.76C1256.98 267.362 1242.7 256.916 1225.44 244.492C1201.79 227.537 1187.18 217.49 1163.63 202.73C1152.2 195.635 1140.84 188.336 1128.7 182.515C1105.51 171.881 1093.05 166.471 1070.77 157.144C1052 149.656 1033.24 142.012 1013.88 136.154C999.992 131.896 985.885 128.429 971.84 124.757C960.059 121.669 948.314 118.396 936.37 115.985C920.326 112.321 901.738 111.139 880.48 110.858C876.572 110.758 872.669 110.521 868.766 110.294C866.693 110.291 864.476 109.678 862.565 110.684C856.087 113.333 857.816 123.316 865.121 123.379C887.017 125.027 904.822 125.219 922.136 128.873C935.78 131.482 949.181 135.161 962.558 138.88C981.698 143.977 1000.74 149.551 1019.29 156.526C1045.8 167.255 1072.04 176.113 1100.8 190.501C1147.22 213.158 1191.29 240.355 1233.58 269.951C1248.34 280.45 1262.52 292.219 1278.55 307.822C1288.88 317.968 1297.67 329.59 1308.47 339.268C1316.01 345.866 1324.22 351.692 1331.17 358.967C1340.44 368.222 1348.42 378.664 1357.14 388.417C1365.23 397.598 1374.08 406.073 1382.24 415.183C1390.93 424.955 1400.26 437.029 1404.36 442.468C1419.33 462.325 1434.29 482.263 1446.4 504.041C1450.17 510.548 1453.69 517.201 1457.31 523.793C1458.7 526.552 1460.46 529.087 1462.12 531.688C1462.98 532.985 1463.65 534.482 1465.04 535.301C1469.08 538.906 1476.28 536.417 1477.51 531.173C1477.88 529.492 1477.84 527.752 1477.25 526.162L1477.25 526.159Z" fill="#DBDBDB"/>
<path d="M1479.16 541.202C1442.87 491.096 1214.74 108.293 789.116 117.103C460.599 123.902 209.942 421.234 161.238 540.173" stroke="#151515" stroke-width="6" stroke-linecap="round" stroke-linejoin="round"/>
<path d="M1494.45 515.562C1457.32 465.456 1223.9 82.6528 788.395 91.4623C452.255 98.2618 195.782 395.593 145.948 514.533" stroke="#151515" stroke-width="6" stroke-linecap="round" stroke-linejoin="round"/>
<path d="M4.03394 329.079C220.631 135 481.545 10.3706 772.34 5.96212C1063.13 1.55362 1354.33 105.405 1576.71 292.828L1562.53 315.328C1345.34 127.905 1060.94 24.0536 776.922 28.4621C492.909 32.8706 238.08 151.5 26.5339 345.579L4.03394 329.079Z" fill="white"/>
<path d="M755.724 9.27227C753.199 6.79577 749.581 7.65227 746.377 7.41977C741.138 7.31177 735.897 7.20977 730.656 7.12127C681.916 5.57777 642.912 11.4158 598.06 19.6373C554.583 27.6953 511.545 37.9133 469.08 50.2403C442.416 57.0323 417.142 67.9388 391.918 78.7478C365.826 89.3648 314.931 111.623 277.803 131.327C251.545 145.07 226.54 161.044 200.851 175.796C173.202 191.704 147.003 209.948 121.141 228.58C110.028 236.102 89.0339 251.317 78.6644 259.528C64.9394 270.134 51.4049 281.002 38.3684 292.447C24.7529 304.253 11.7104 316.868 1.07391 331.477C-2.40159 337.732 5.47791 344.653 11.1974 339.287C26.6864 318.904 45.7124 304.969 61.8629 291.746C76.5974 279.791 94.0694 266.551 113.829 253.73C136.134 239.845 158.241 225.655 180.451 211.616C212.32 191.846 243.669 171.188 276.208 152.524C308.064 135.127 340.941 119.638 374.031 104.747C400.696 93.2363 422.838 82.3928 446.071 74.0138C462.003 68.4368 478.425 64.4348 494.712 60.0548C512.238 55.5218 529.677 50.5628 547.455 47.0993C580.36 41.1818 612.958 33.5978 646.017 28.5368C666.82 25.2548 693.757 23.4263 715.566 21.8858C725.185 21.2018 734.812 20.5238 744.438 19.8953C747.543 19.4678 750.861 19.9658 753.81 18.9218C757.624 17.6228 758.698 12.0068 755.725 9.27227H755.724Z" fill="#DBDBDB"/>
<path d="M1530.18 268.083C1528.8 265.685 1526.1 264.597 1523.99 262.946C1520.3 260.366 1516.65 257.732 1513 255.084C1502.74 247.127 1480.99 232.31 1464.06 221.061C1435.58 202.17 1405.91 185.136 1376.22 168.222C1359.88 159.074 1344.08 148.935 1327.38 140.433C1294.48 123.981 1259.84 111.402 1225.81 97.553C1217.06 93.947 1186.55 79.547 1160.09 71.7275C1147.84 68.0495 1135.2 65.9435 1122.73 63.1715C1108.43 60.122 1094.32 56.2895 1080.19 52.5275C1063.41 48.0035 1046.72 43.058 1029.61 39.9005C1011.22 36.7685 979.64 30.551 968.219 29.075C936.471 25.406 904.466 24.536 872.616 22.046C858.341 21.2165 844.073 20.2745 829.799 19.4315C823.736 19.16 817.662 19.169 811.596 19.28C808.544 19.562 805.295 19.01 802.389 19.9745C797.439 22.013 798.441 29.9255 804.413 30.023C831.995 29.4695 859.344 33.845 886.779 36.0575C908.985 38.5265 946.551 40.055 966.539 42.6755C976.742 44.351 986.772 46.907 996.92 48.8675C1016.5 52.394 1036.04 56.183 1055.34 61.0385C1073.6 65.6465 1091.7 70.8965 1109.97 75.5105C1124.59 79.328 1139.53 81.8975 1154.01 86.294C1176.05 93.0395 1190.31 101.504 1213.57 112.188C1242.4 124.458 1260.1 131.079 1288.48 143.946C1312.35 154.353 1334.69 167.75 1356.96 181.13C1375.13 191.769 1393.56 201.971 1411.59 212.856C1431.78 224.75 1451.38 237.582 1470.83 250.635C1482.56 258.434 1494.67 265.586 1507.14 272.115C1510.76 274.068 1514.4 276.002 1518.06 277.881C1519.5 278.552 1520.84 279.575 1522.48 279.581C1528.52 280.791 1533.52 273.339 1530.18 268.08L1530.18 268.083Z" fill="#DBDBDB"/>
<path d="M4.03394 329.079C220.631 135 481.545 10.3706 772.34 5.96212C1063.13 1.55362 1354.33 105.405 1576.71 292.828" stroke="#151515" stroke-width="6" stroke-linecap="round" stroke-linejoin="round"/>
<path d="M26.5339 345.579C238.08 151.5 492.909 32.8706 776.922 28.4621C1060.94 24.0536 1345.34 127.905 1562.53 315.328" stroke="#151515" stroke-width="6" stroke-linecap="round" stroke-linejoin="round"/>
</g>
<defs>
<clipPath id="clip0_556_472">
<rect width="1578.74" height="543.158" fill="white" transform="translate(0.220947 0.296021)"/>
</clipPath>
</defs>
</svg>
