<svg width="260" height="981" viewBox="0 0 260 981" fill="none" xmlns="http://www.w3.org/2000/svg">
<g clip-path="url(#clip0_556_597)">
<path d="M91.8224 565.298C91.8224 565.298 41.3144 563.371 33.7004 563.371V970.249H228.615L227.11 287.195C204.442 287.306 175.774 287.417 153.106 287.528C151.542 310.042 150.895 402.917 151.174 425.246C141.369 424.354 102.358 425.053 92.7599 427.159C90.6764 450.241 91.8224 565.298 91.8224 565.298Z" fill="white"/>
<path d="M9.87981 556.855L226.657 67.3409C226.657 67.3409 225.478 31.0124 225.685 12.5699C225.685 2.9834 246.743 3.0404 246.743 14.7524C246.605 15.0269 255.743 970.141 255.743 970.141L229.483 969.729L225.691 122.109L32.8538 555.975L32.3243 970.141L9.53931 970.968L9.87981 556.854V556.855Z" fill="white"/>
<path d="M230.686 0.8525C225.48 2.0915 220.647 5.306 218.47 10.334C213.816 20.9195 214.935 32.8295 214.891 44.111C215.016 50.84 215.226 57.569 215.517 64.2935C215.795 66.572 215.415 69.059 216.27 71.2055C217.112 73.6595 220.002 74.876 222.436 74.231C227.874 72.671 225.844 66.404 225.876 62.219C225.61 54.9905 225.377 47.759 225.251 40.526C224.894 30.6395 225.621 19.2725 226.476 16.511C227.448 12.6875 226.863 13.9835 228.238 11.6795C228.462 11.4065 228.681 11.1275 228.922 10.8695C230.753 9.2735 229.933 9.9305 231.715 9.119C237.825 8.0825 236.8 -0.2065 230.686 0.854V0.8525Z" fill="#C1C1C1"/>
<path d="M217.272 67.742C202.791 95.168 192.725 124.793 177.609 151.91C173.127 159.617 169.379 167.691 165.756 175.829C161.483 185.211 157.029 194.519 153.075 204.042C145.07 223.244 138.467 242.985 130.563 262.223C124.53 277.353 116.825 293.567 109.101 311.205C97.866 338.154 89.1585 359.136 77.1555 386.13C65.8095 410.408 53.7885 434.364 42.285 458.567C32.922 477.278 23.4315 495.929 14.862 515.024C10.701 524.048 7.36351 533.414 3.80701 542.685C2.94901 544.949 2.12401 547.224 1.32151 549.507C0.517511 551.523 -0.184489 553.806 1.07701 555.791C2.71351 558.66 6.95401 559.256 9.28501 556.848C10.854 555.219 11.0625 552.767 11.943 550.752C14.376 544.032 16.9785 537.374 19.5 530.687C26.817 512.42 39.411 487.571 50.1615 466.184C61.8525 441.764 73.8825 417.504 85.4175 393.012C96.219 369.107 107.667 340.779 116.06 320.16C126.452 296.075 137.366 272.205 146.426 247.569C155.351 223.292 159.585 212.873 169.086 191.783C176.199 175.941 180.155 165.957 185.993 153.875C196.313 132.95 205.634 109.748 212.853 93.086C215.342 87.5045 217.941 81.971 220.772 76.553C221.712 74.333 223.53 72.4325 224.061 70.0895C224.69 66.404 219.299 64.1675 217.269 67.7435L217.272 67.742Z" fill="#C1C1C1"/>
<path d="M249.426 967.71C243.687 967.869 237.947 968.005 232.205 968.078C213.462 968.51 194.726 968.204 175.983 968.053C146.865 968.671 117.747 969.389 88.62 969.478C71.1855 969.44 53.76 968.675 36.3225 968.993C27.7905 969.257 19.1265 968.921 10.7205 970.579C3.852 972.334 6.1215 982.424 13.149 980.818C16.4775 979.735 25.095 979.729 32.436 979.541C54.1155 978.989 75.786 980.198 97.4655 979.909C123.893 979.718 150.312 979.061 176.735 978.521C196.409 978.754 216.078 978.944 235.752 978.499C241.261 978.412 246.769 978.268 252.277 978.098C253.695 977.974 255.222 978.253 256.513 977.567C258.465 976.91 259.743 974.799 259.734 972.78C259.227 966.722 253.978 967.488 249.426 967.71Z" fill="#C1C1C1"/>
<path d="M230.658 3.62455C231.185 4.81855 231.431 6.18955 231.219 7.71505C228.812 25.124 225.197 42.3875 220.766 59.4485C220.692 65.5805 220.542 70.805 220.113 74.252C216.354 89.135 211.092 98.7636 204.536 112.379C185.094 168.341 159.452 221.921 133.218 274.955C127.901 285.706 122.471 296.435 117.015 307.171C113.414 315.533 109.551 323.525 103.835 334.103C102.374 336.583 100.956 339.086 99.558 341.599C93.585 353.467 87.678 365.372 81.9555 377.354C82.068 377.549 82.1625 377.755 82.245 377.966C84.6555 379.387 86.2515 382.468 84.7365 385.751C79.326 397.492 74.262 409.397 68.8335 421.13C67.7685 423.431 65.8395 424.408 63.8085 424.456C63.456 425.096 63.105 425.737 62.751 426.376C64.653 428.144 65.652 430.999 64.1655 433.577C60.774 439.457 57.471 445.403 54.21 451.375C54.213 452.227 54.0195 453.125 53.5125 454.048C47.8185 464.398 42.363 474.875 36.9405 485.372C30.8625 507.382 25.7565 529.579 21.204 552.077C13.2525 591.374 7.26752 630.872 3.92102 670.676C3.92552 670.733 3.92852 670.79 3.93302 670.847C5.89952 699.278 8.55902 727.676 9.09602 756.187C10.065 791.306 11.004 826.426 10.026 861.554C9.97652 863.788 9.94352 866.021 9.91352 868.255C11.8455 880.729 14.2935 893.279 15.051 905.828C15.2565 909.232 13.071 911.191 10.4685 911.695C10.6995 917.423 10.9905 923.149 11.349 928.87C11.886 935.872 12.531 942.865 13.131 949.861C13.092 950.893 13.308 951.857 13.7775 952.751C15.45 957.554 22.4625 958.912 25.935 955.165C27.249 953.692 28.1895 951.881 28.131 949.862C27.723 945.173 27.3135 940.484 26.91 935.795C26.0115 926.132 25.626 916.432 25.3335 906.733C24.153 879.88 25.3665 853.007 25.536 826.145C24.8865 783.827 24.4755 741.443 21.0135 699.241C19.611 679.357 17.679 659.465 17.7105 639.515C17.859 618.395 19.608 597.326 20.5545 576.233C21.237 567.257 21.2925 561.014 22.1865 556.912C26.3595 541.964 29.9205 535.642 34.962 523.798C45.624 499.721 56.628 475.795 67.092 451.631C74.907 433.594 82.3605 410.11 88.0575 397.729C94.1775 384.817 100.497 371.989 106.943 359.236C113.406 347.659 120.069 336.187 125.718 324.176C134.46 305.975 143.049 280.939 148.704 268.228C153.26 258.085 158.819 248.432 163.778 238.487C169.671 226.631 175.314 214.643 180.699 202.549C189.176 182.897 193.907 167.267 202.059 151.382C208.865 138.095 215.333 124.646 221.736 111.161C226.647 100.952 231.393 90.575 234.26 79.58C236.063 72.1145 235.47 64.3385 235.811 56.7215C235.961 41.4725 235.652 26.1545 237.762 11.012C237.653 6.40105 234.218 3.85255 230.661 3.62305L230.658 3.62455Z" fill="#DBDBDB"/>
<path d="M51.6915 563.453C51.861 563.428 52.0335 563.402 52.218 563.374C51.9105 563.381 51.339 563.429 50.8905 563.543C51.102 563.518 51.312 563.495 51.5205 563.464C51.585 563.461 51.6345 563.458 51.69 563.455L51.6915 563.453Z" fill="#DBDBDB"/>
<path d="M233.585 954.632C231.693 952.937 229.442 951.791 226.856 951.845C226.788 951.85 226.739 951.853 226.686 951.856C224.388 951.523 222.059 951.361 219.759 951.038C210.825 950.486 201.438 949.478 200.352 949.235C186.102 946.706 171.675 946.562 157.257 947.06C150.365 947.042 143.468 946.669 136.586 947.213C128.283 947.75 120.053 949.04 111.764 949.733C102.849 950.776 93.8835 950.309 84.9375 950.473C76.0815 951.065 67.185 952.331 58.305 951.416C56.166 951.029 54.0705 950.429 51.948 949.979C51.5355 937.975 51.7395 925.948 51.2265 913.943C50.6955 890.38 48.4425 866.908 47.5515 843.364C47.358 807.622 48.6585 771.881 49.398 736.151C50.25 697.69 45.2865 659.419 44.913 620.989C44.835 607.666 45.3225 585.302 46.8375 578.66C57.9855 577.342 68.955 574.847 79.872 572.273C92.118 570.071 104.856 568.226 103.484 552.494C103.343 541.69 103.151 530.881 103.313 520.075C104.04 499.034 103.967 468.59 105.972 454.24C106.566 449.131 107.973 442.504 109.116 439.876C122.021 439.381 135.128 439.354 147.663 435.868C152.985 434.468 159.438 432.524 160.508 426.29C161.982 417.718 162.131 408.974 162.935 400.322C164.486 383.593 164.7 366.785 163.889 350.008C163.599 336.49 163.526 322.966 163.055 309.452C162.935 305.189 162.738 300.929 162.513 296.671C162.33 294.973 162.699 293.137 161.903 291.575C159.723 286.192 151.04 287.206 150.912 293.788C151.916 319.618 152.337 345.496 152.057 371.342C151.257 387.134 149.466 412.015 148.436 422.92C147.126 423.409 145.799 423.856 144.425 424.126C137.246 425.794 130.725 426.077 120.093 425.977C114.81 426.038 109.328 425.02 104.189 426.586C94.6066 429.941 93.8775 441.911 92.4285 450.506C89.898 469.123 89.9925 487.972 89.3535 506.717C88.9725 520.472 87.9375 534.224 88.494 547.99C88.611 551.8 88.731 554.074 88.686 555.364C88.341 555.55 87.99 555.73 87.675 555.886C76.7055 558.958 59.28 562.282 52.215 563.371C52.557 563.362 52.5555 563.401 51.6885 563.45C51.3375 563.503 50.9925 563.554 50.7075 563.591C50.7645 563.573 50.8245 563.555 50.8875 563.539C46.191 564.094 40.92 563.171 37.296 566.824C33.258 569.753 32.1195 574.79 31.7535 579.502C31.383 583.394 31.1445 587.302 31.05 591.212C29.4345 632.302 34.1145 673.229 34.7985 714.28C35.187 733.157 34.08 752.005 33.1155 770.848C32.31 787.981 32.1405 805.135 31.6725 822.278C30.483 851.377 33.6555 880.393 34.5255 909.457C34.9275 920.681 35.1885 931.912 35.3805 943.142C35.67 948.583 34.2345 954.428 36.747 959.483C38.751 963.187 42.8085 965.209 46.6395 966.574C46.602 966.557 46.5765 966.547 46.5405 966.532C49.0125 967.417 51.5325 967.762 53.9745 968.203C65.061 970.319 76.2465 967.636 87.39 968.188C95.259 968.758 103.13 969.265 111.02 968.704C121.265 968.296 131.469 966.914 141.738 967.214C154.973 967.787 168.24 967.072 181.46 967.931C194.205 968.701 199.503 970.738 216.356 971.617C219.686 971.554 223.067 971.336 226.382 970.87C227.822 970.912 229.262 970.757 230.522 970.054C236.699 967.906 238.278 959.054 233.585 954.629V954.632Z" fill="#DBDBDB"/>
<path d="M243.757 822.958C243.588 799.606 242.434 776.287 241.75 752.95C241.476 729.508 240.747 706.067 240.696 682.624C240.562 642.775 243.313 602.902 240.427 563.093C239.598 547.759 238.596 532.412 238.651 517.049C238.866 492.469 240.741 467.919 240.663 443.34C240.436 427.452 238.732 411.601 239.07 395.701C239.838 371.06 241.095 346.427 239.233 321.8C238.63 306.976 237.735 292.126 238.557 277.294C239.79 255.413 242.062 233.534 240.679 211.601C238.872 185.351 238.072 158.932 234.165 132.889C232.276 126.514 222.204 128.327 223.768 135.755C227.133 161.684 228.568 199.777 228.508 230.917C228.105 250.163 225.202 269.272 225.054 288.529C225.018 308.515 226.569 328.465 226.942 348.442C226.897 365.066 225.675 381.665 225.352 398.285C225.246 411.346 226.59 424.367 226.728 437.423C227.04 450.752 226.072 464.051 225.334 477.35C224.692 493.2 223.782 509.056 223.819 524.921C224.182 544.691 225.486 564.436 225.751 584.209C226.717 611.416 225.076 638.608 225.195 665.818C224.827 718.777 225.39 771.739 227.103 824.672C228.408 857.783 226.56 890.881 226.204 923.989C226.189 929.467 226.177 934.944 226.348 940.419C226.291 943.355 226.492 946.496 228.778 948.618C233.661 953.484 242.667 950.151 242.581 942.9C242.595 926.309 242.391 909.716 242.928 893.129C243.88 869.747 244.407 846.353 243.756 822.955L243.757 822.958Z" fill="#DBDBDB"/>
<path d="M86.9475 950.182C85.8735 946.144 81.9105 943.112 77.727 943.162C73.9875 943.126 70.2465 942.952 66.525 942.569C66.456 942.562 66.4065 942.556 66.3495 942.55C66.189 942.526 66.0285 942.505 65.868 942.479C64.2075 942.26 62.5785 941.876 60.9435 941.54C60.9465 941.516 60.9465 941.494 60.9495 941.47C64.242 915.74 61.0845 889.882 60.048 864.113C59.8605 860.015 59.8545 855.908 59.973 851.807C59.874 849.358 60.762 846.685 59.658 844.399C57.2355 838.063 47.4225 840.041 47.502 846.845C47.337 865.043 48.849 883.214 49.035 901.406C49.29 916.321 47.688 936.202 46.2855 945.605C46.4505 944.393 46.416 944.044 46.179 945.875C45.357 949.786 47.4495 953.533 50.274 956.105C54.507 959.881 60.4635 960.628 65.883 961.357C69.153 961.792 72.444 962.065 75.738 962.218C77.6625 962.317 79.6935 962.449 81.411 961.462C85.9125 959.918 88.119 954.638 86.9475 950.182Z" fill="#DBDBDB"/>
<path d="M141.397 948.152C138.096 948.203 134.79 948.134 131.499 947.832C131.118 947.787 130.77 947.747 130.474 947.711C129.385 947.522 128.29 947.366 127.215 947.109C125.049 946.572 122.872 946.071 120.7 945.561C120.303 940.547 120.097 935.516 119.953 930.488C118.749 903.803 120.048 877.097 119.257 850.406C120.123 840.164 105.457 838.839 104.833 849.173C105.202 861.348 105.988 873.506 106.392 885.68C106.432 900.144 106.48 914.604 107.448 929.045C107.722 934.364 108.042 939.68 108.072 945.008C108.126 947.313 107.827 949.653 108.385 951.915C109.15 954.239 110.712 956.214 112.746 957.564C120.189 963.002 130.2 962.964 139.032 962.237C142.384 961.811 147.507 962.319 148.311 955.065C148.303 951.35 145.149 948.092 141.397 948.152Z" fill="#DBDBDB"/>
<path d="M205.971 947.119C204.53 945.836 202.773 944.932 200.796 945.032C205.023 945.547 198.677 944.782 197.057 944.759C190.131 944.021 183.927 944.11 180.003 943.735C180.518 918.98 178.722 894.239 178.224 869.492C177.996 863.72 177.644 857.953 177.395 852.182C177.135 848.933 178.07 845.113 175.425 842.623C171.573 838.598 164.297 841.567 164.423 847.18C164.273 859.643 165.941 872.03 166.821 884.444C167.681 900.413 168.036 916.457 166.713 932.409C165.809 948.956 160.62 958.291 182.016 960.833C190.883 961.204 192.689 960.701 197.687 959.956C198.927 959.746 200.171 959.54 201.41 959.314C202.205 959.266 202.964 959.089 203.669 958.708C205.391 958.133 206.87 956.646 207.447 954.929C208.713 952.416 207.936 949.07 205.97 947.12L205.971 947.119Z" fill="#DBDBDB"/>
<path d="M192.875 818.727C188.489 818.213 184.076 818.192 179.67 818.037C179.513 814.251 179.274 810.461 178.786 806.72C178.869 807.338 178.953 807.956 179.035 808.574C176.383 785.263 176.852 761.777 176.61 738.354C176.549 732.713 176.491 727.071 176.115 721.439C175.972 718.724 176.295 715.652 174.097 713.636C170.245 709.613 162.969 712.578 163.095 718.193C164.701 744.989 165.087 771.828 165.309 798.663C165.01 808.212 165.202 809.088 164.907 819.596C164.707 822.758 164.364 826.154 166.102 828.971C171.156 836.279 183.86 834.759 192.444 833.729C197.27 832.733 202.895 833.793 203.766 826.032C202.584 818.099 197.655 819.393 192.876 818.724L192.875 818.727Z" fill="#DBDBDB"/>
<path d="M125.812 818.729C123.655 818.509 122.928 818.501 122.46 818.479C122.755 811.798 123.051 805.112 122.724 798.428C120.994 771.811 121.356 745.085 118.707 718.526C118.512 709.775 105.597 709.699 105.348 718.526C107.337 743.959 108.981 769.441 108.813 794.966C108.81 802.072 108.346 809.168 108.079 816.266C107.49 823.096 107.068 829.514 115.087 831.716C122.199 833.332 129.493 833.947 136.77 833.407C138.21 833.254 139.744 833.405 141.036 832.666C143.698 831.769 145.444 828.889 145.431 826.133C144.706 815.953 132.925 819.601 125.812 818.729Z" fill="#DBDBDB"/>
<path d="M97.7385 818.565C96.42 817.385 94.854 816.541 93.096 816.41C92.2695 816.268 91.053 816.084 90.336 816.03C90.468 816.051 90.6375 816.075 90.819 816.101C82.4805 815.057 83.1465 815.192 73.6755 814.314C72.3465 814.095 71.0355 813.791 69.7245 813.479C68.5995 813.195 67.4565 812.961 66.342 812.636C67.548 798.252 65.439 783.653 64.4265 769.296C63.1815 755.249 62.4165 741.164 61.4145 727.099C61.1925 724.054 61.0185 721.004 60.9435 717.951C60.897 716.547 61.0215 715.065 60.2985 713.814C57.5565 706.772 46.7655 708.94 46.797 716.533C47.6955 738.196 51.084 759.841 52.2645 781.517C50.9085 781.718 49.6155 782.305 48.6435 783.313C47.3595 784.583 46.803 786.249 46.6215 787.988C46.278 789.266 46.2885 790.624 46.416 791.977C46.557 795.485 46.752 798.989 46.9755 802.491C47.2695 806.355 47.0805 810.29 47.943 814.085C48.438 815.718 49.08 817.327 49.8495 818.867C49.848 822.272 50.82 825.756 53.8755 827.634C55.4055 828.587 57.1215 828.836 58.743 828.551C60.174 829.327 61.725 829.92 63.408 830.268C75.438 834.062 94.854 831.211 95.355 830.572C100.173 828.929 101.385 821.988 97.7385 818.565Z" fill="#DBDBDB"/>
<path d="M81.7304 682.888C77.3654 682.955 73.0079 683.219 68.6399 683.192C67.6664 683.3 64.5209 683.02 62.7209 682.85C62.7359 682.432 62.7554 682.06 62.7824 681.805C63.1829 660.043 60.5684 638.36 60.3824 616.601C60.2654 608.963 60.0419 601.327 59.9429 593.689C59.9219 591.167 59.8769 588.644 59.8859 586.123C59.8169 584.488 60.1919 582.721 59.3774 581.23C57.0764 575.206 47.7284 577.075 47.8049 583.559C48.3224 610.18 48.9404 636.802 49.6514 663.419C50.0324 668.566 50.2439 673.717 49.9274 678.872C49.9424 683.576 48.5459 689.336 52.3844 692.947C53.9144 694.426 55.9139 695.15 57.8774 695.866C58.8584 696.284 59.9414 696.385 60.9944 696.566C65.7674 697.417 70.5989 697.628 75.4379 697.589C79.4264 697.486 83.7689 699.04 87.5654 697.498C90.3764 696.55 92.2199 693.509 92.2049 690.601C91.9694 684.619 87.0224 682.63 81.7274 682.888H81.7304Z" fill="#DBDBDB"/>
<path d="M144.879 682.363C141.819 682.465 138.789 682.997 135.758 683.405C135.335 683.468 134.912 683.539 134.489 683.608C134.22 683.635 133.953 683.662 133.686 683.692C129.105 684.101 124.484 684.869 119.879 684.643C118.112 662.834 116.307 640.973 116.643 619.073C116.621 610.63 116.513 602.186 116.408 593.743C116.129 590.5 117.006 586.975 115.872 583.895C113.58 577.894 104.268 579.757 104.343 586.216C104.492 602.995 104.45 619.762 104.075 636.536C104.042 647.512 105.033 658.459 105.207 669.431C105.441 674.276 105.789 679.118 105.767 683.971C105.359 689.923 106.223 695.633 112.68 697.675C120.272 700.591 128.373 699.031 136.212 698.39C140.078 697.94 144.297 699.106 147.951 697.613C150.92 696.613 152.865 693.401 152.85 690.331C152.843 686.05 149.204 682.294 144.879 682.363Z" fill="#DBDBDB"/>
<path d="M197.748 682.503C193.827 682.68 189.902 682.83 185.978 682.661C181.607 682.316 181.911 682.503 180.398 682.175C180.732 678.098 181.118 674.016 181.037 669.918C180.572 645.621 179.171 621.348 178.109 597.071C177.993 593.981 177.705 590.898 177.675 587.805C177.533 585.938 178.052 583.907 177.146 582.191C174.806 576.068 165.317 577.976 165.393 584.556C164.877 611.81 168.408 639.023 167.816 666.3C167.907 671.759 166.548 682.574 166.61 681.99C166.5 684.974 164.699 690.561 171.12 694.949C177.483 698.553 185.073 698.307 192.165 698.213C195.005 698.022 198.132 698.783 200.774 697.532C203.699 696.546 205.616 693.383 205.601 690.356C205.593 686.136 202.01 682.437 197.748 682.505V682.503Z" fill="#DBDBDB"/>
<path d="M139.188 544.927C135.354 545.188 131.502 545.081 127.668 544.912C126.587 544.838 125.511 544.716 124.434 544.592C123.831 544.484 122.469 544.253 121.601 544.064C121.383 544.028 121.178 543.996 120.983 543.965C120.983 543.965 120.983 543.965 120.983 543.963C121.067 543.974 121.142 543.985 121.233 543.995C121.149 543.983 121.065 543.974 120.983 543.963C120.765 542.654 120.738 542.479 120.342 539.791C117.893 515.342 117.435 490.734 117.42 466.178C117.408 459.639 117.395 453.101 117.186 446.566C117.212 444.001 117.159 441.196 115.131 439.33C111.056 435.074 103.355 438.211 103.488 444.152C104.898 470.729 104.217 497.357 105.05 523.949C105.201 530.348 105.884 536.726 106.169 543.11C105.717 550.325 105.207 555.86 113.28 558.707C117.132 559.714 121.193 559.921 125.121 559.267C124.76 559.453 122.774 559.454 123.371 559.538C127.304 559.325 131.225 559.031 135.168 559.09C138.822 559.027 143.061 560.516 146.495 559.057C149.253 558.127 151.062 555.143 151.047 552.287C150.57 545.348 144.989 544.409 139.19 544.925L139.188 544.927Z" fill="#DBDBDB"/>
<path d="M207.59 544.937C204.857 542.202 201.126 541.716 197.43 542.015C193.602 542.102 189.773 542.343 185.982 542.909C186.789 542.801 187.598 542.691 188.405 542.583C185.1 542.775 181.817 543.209 178.52 543.497C178.457 542.246 178.412 541.133 178.428 540.618C177.632 517.337 175.896 494.093 176.124 470.781C176.081 464.834 175.959 458.886 175.961 452.937C175.781 450.492 176.642 447.824 175.536 445.547C173.072 439.095 163.074 441.108 163.155 448.04C163.287 474.188 164.736 500.33 164.756 526.481C164.604 533.858 164.378 541.232 164.174 548.606C163.328 551.819 164.228 555.197 166.712 557.7C167.762 559.055 169.503 559.629 171.068 560.226C172.961 560.981 175.029 561.266 177.071 561.201C183.021 561.05 188.981 560.429 194.904 561.327C195.188 561.36 195.471 561.399 195.756 561.434C196.418 561.528 197.079 561.615 197.736 561.735C199.941 562.176 202.341 562.379 204.354 561.234C210.899 559.005 212.538 549.582 207.59 544.937Z" fill="#DBDBDB"/>
<path d="M208.526 405.848C207.174 405.04 205.737 404.488 204.228 404.183C204.435 404.209 204.426 404.204 204.144 404.164C203.771 404.09 203.389 404.047 203.007 404.006C202.864 403.987 202.715 403.967 202.547 403.945C200.363 403.625 198.161 403.318 195.993 403.837C195.671 403.879 195.348 403.928 195.026 403.975C188.597 404.762 192.975 404.195 187.079 405.008C184.781 405.431 182.204 405.74 179.688 406.066C179.43 395.719 177.905 385.441 176.904 375.148C175.989 365.188 175.677 355.178 175.694 345.179C175.707 336.539 175.761 327.899 175.916 319.259C175.955 316.69 176.063 314.123 176.138 311.555C176.112 309.913 176.508 308.14 175.679 306.641C173.361 300.569 163.938 302.455 164.016 308.989C163.373 327.649 163.047 346.337 163.556 365.006C163.989 377.162 165.384 389.264 165.705 401.428C166.149 405.923 165.657 411.694 166.268 415.553C169.856 425.17 181.466 419.693 192.012 420.811C193.068 420.977 194.114 421.204 195.122 421.574C196.649 422.15 194.076 421.087 193.547 420.863C196.497 422.261 199.811 422.972 203.048 423.314C212.855 424.412 217.169 410.653 208.526 405.85V405.848Z" fill="#DBDBDB"/>
<path d="M33.7004 563.372C41.3144 563.372 91.8224 565.3 91.8224 565.3C91.8224 565.3 90.6764 450.242 92.7599 427.16C102.358 425.054 141.369 424.355 151.174 425.248C150.895 402.919 151.542 310.043 153.106 287.53C175.774 287.419 204.442 287.308 227.11 287.197" stroke="#151515" stroke-width="6" stroke-linecap="round" stroke-linejoin="round"/>
<path d="M9.88054 556.854L226.658 67.3399C226.658 67.3399 225.479 31.0114 225.686 12.5689C225.686 2.98242 246.744 3.03942 246.744 14.7514C246.606 15.0259 255.744 970.141 255.744 970.141L229.484 969.728L225.692 122.108L32.8545 555.974L32.325 970.141L9.54004 970.967L9.88054 556.853V556.854Z" stroke="#151515" stroke-width="6" stroke-linecap="round" stroke-linejoin="round"/>
<path d="M34.3545 968.399C127.203 968.399 161.392 969.728 229.483 969.728" stroke="#151515" stroke-width="6" stroke-linecap="round" stroke-linejoin="round"/>
<path d="M48.7575 580.991C48.6405 618.619 48.5235 656.246 48.4065 693.874C63.9465 694.21 76.716 694.547 92.256 694.883C92.256 680.591 93.4065 598.691 92.7075 581.645C77.8125 581.744 67.9875 580.991 48.7575 580.991Z" stroke="#151515" stroke-width="6" stroke-linecap="round" stroke-linejoin="round"/>
<path d="M107.001 583.172C106.884 620.8 106.767 658.427 106.65 696.055C122.19 696.391 134.96 696.728 150.5 697.064C150.5 682.772 151.65 600.872 150.951 583.826C136.056 583.925 126.231 583.172 107.001 583.172Z" stroke="#151515" stroke-width="6" stroke-linecap="round" stroke-linejoin="round"/>
<path d="M107.001 441.988C106.884 479.615 106.767 517.243 106.65 554.87C122.19 555.206 134.96 555.544 150.5 555.88C150.5 541.588 151.65 459.688 150.951 442.642C136.056 442.741 126.231 441.988 107.001 441.988Z" stroke="#151515" stroke-width="6" stroke-linecap="round" stroke-linejoin="round"/>
<path d="M165.245 444.17C165.128 481.798 165.011 519.425 164.894 557.053C180.434 557.389 193.203 557.726 208.743 558.062C208.743 543.77 209.894 461.87 209.195 444.824C194.3 444.923 184.475 444.17 165.245 444.17Z" stroke="#151515" stroke-width="6" stroke-linecap="round" stroke-linejoin="round"/>
<path d="M165.245 305.167C165.128 342.794 165.011 380.421 164.894 418.049C180.434 418.385 193.203 418.722 208.743 419.058C208.743 404.766 209.894 322.866 209.195 305.82C194.3 305.919 184.475 305.167 165.245 305.167Z" stroke="#151515" stroke-width="6" stroke-linecap="round" stroke-linejoin="round"/>
<path d="M48.7575 713.726C48.6405 751.354 48.5235 788.981 48.4065 826.609C63.9465 826.945 76.716 827.282 92.256 827.618C92.256 813.326 93.4065 731.426 92.7075 714.38C77.8125 714.479 67.9875 713.726 48.7575 713.726Z" stroke="#151515" stroke-width="6" stroke-linecap="round" stroke-linejoin="round"/>
<path d="M107.001 715.908C106.884 753.536 106.767 791.163 106.65 828.791C122.19 829.127 134.96 829.464 150.5 829.8C150.5 815.508 151.65 733.608 150.951 716.562C136.056 716.661 126.231 715.908 107.001 715.908Z" stroke="#151515" stroke-width="6" stroke-linecap="round" stroke-linejoin="round"/>
<path d="M48.7575 842.099C48.6405 879.726 48.5235 917.354 48.4065 954.982C63.9465 955.318 76.716 955.655 92.256 955.991C92.256 941.699 93.4065 859.799 92.7075 842.753C77.8125 842.852 67.9875 842.099 48.7575 842.099Z" stroke="#151515" stroke-width="6" stroke-linecap="round" stroke-linejoin="round"/>
<path d="M107.001 844.28C106.884 881.908 106.767 919.535 106.65 957.163C122.19 957.499 134.96 957.836 150.5 958.172C150.5 943.88 151.65 861.98 150.951 844.934C136.056 845.033 126.231 844.28 107.001 844.28Z" stroke="#151515" stroke-width="6" stroke-linecap="round" stroke-linejoin="round"/>
<path d="M165.245 583.172C165.128 620.8 165.011 658.427 164.894 696.055C180.434 696.391 193.203 696.728 208.743 697.064C208.743 682.772 209.894 600.872 209.195 583.826C194.3 583.925 184.475 583.172 165.245 583.172Z" stroke="#151515" stroke-width="6" stroke-linecap="round" stroke-linejoin="round"/>
<path d="M165.245 715.908C165.128 753.536 165.011 791.163 164.894 828.791C180.434 829.127 193.203 829.464 208.743 829.8C208.743 815.508 209.894 733.608 209.195 716.562C194.3 716.661 184.475 715.908 165.245 715.908Z" stroke="#151515" stroke-width="6" stroke-linecap="round" stroke-linejoin="round"/>
<path d="M165.245 844.28C165.128 881.908 165.011 919.535 164.894 957.163C180.434 957.499 193.203 957.836 208.743 958.172C208.743 943.88 209.894 861.98 209.195 844.934C194.3 845.033 184.475 844.28 165.245 844.28Z" stroke="#151515" stroke-width="6" stroke-linecap="round" stroke-linejoin="round"/>
</g>
<defs>
<clipPath id="clip0_556_597">
<rect width="259.349" height="980.23" fill="white" transform="translate(0.385498 0.759521)"/>
</clipPath>
</defs>
</svg>
