<svg width="330" height="754" viewBox="0 0 330 754" fill="none" xmlns="http://www.w3.org/2000/svg">
<g clip-path="url(#clip0_556_1063)">
<path d="M323.993 741.715C322.609 517.781 327.34 2.75601 327.34 2.75601L18.4179 2.58801C18.4179 2.58801 12.7314 452.057 12.7314 741.715H323.993Z" fill="white"/>
<path d="M59.0918 743.505C59.1833 743.286 59.2943 743.076 59.4053 742.866C53.4053 743.172 46.9312 743.489 40.5938 743.874C44.0992 743.972 47.6033 744.071 51.1088 744.168C51.8288 743.919 52.6073 743.736 53.4968 743.705L59.0918 743.504V743.505Z" fill="#C1C1C1"/>
<path d="M1.65348 742.696C5.15448 742.769 8.65398 742.885 12.152 743.009C10.364 707.563 12.5735 636.31 12.6815 589.702C12.0695 516.247 15.5615 442.87 18.2765 369.487C19.5665 338.77 18.9665 308.037 18.761 277.307C19.352 236.303 18.11 195.324 16.5365 154.358C16.0625 129.098 17.177 103.856 18.2195 78.623C18.8585 62.054 18.788 45.458 19.853 28.907C19.9925 26.8385 20.1665 24.773 20.351 22.709C20.552 20.477 20.7485 18.245 20.9855 16.016C21.008 15.7955 21.041 15.575 21.0695 15.3545C21.143 14.9045 21.209 14.453 21.2975 14.006C21.578 12.536 21.899 11.0705 22.3295 9.63798C22.676 8.60448 23.087 7.50648 22.7915 6.41598C22.64 3.87798 20.15 1.86048 17.6465 1.87398C15.3545 1.83798 13.184 3.51348 12.596 5.71998C10.034 13.8305 9.98598 22.4855 9.25698 30.8975C8.32698 46.4975 8.36748 62.132 7.77498 77.7455C6.30198 111.603 5.02248 145.515 6.97098 179.384C8.40498 213.602 8.51298 247.847 8.29548 282.087C8.64348 312.659 8.99148 343.237 7.63548 373.79C5.24448 441.065 1.84248 508.33 2.21748 575.666C2.54148 613.972 1.00698 652.252 1.04748 690.556C1.04898 705.665 0.786484 720.782 1.44498 735.883C1.68648 738.058 1.63848 740.378 1.65348 742.696Z" fill="#C1C1C1"/>
<path d="M327.415 742.078C325.442 740.17 322.478 740.171 319.919 739.747C315.346 739.126 310.742 738.776 306.142 738.421C289.717 736.784 273.397 738.692 257.06 740.38C230.783 740.395 203.509 740.498 178.766 740.386C172.784 740.108 166.802 739.864 160.816 739.715C150.529 739.535 140.243 739.748 129.958 740.012C126.659 739.999 123.359 739.999 120.061 740.038C116.18 740.125 112.304 740.302 108.428 740.515C107.162 740.536 105.896 740.561 104.632 740.576C89.0122 740.62 73.3971 740.072 57.7761 740.029C47.3781 739.922 36.9351 739.705 26.6076 741.136C22.5231 741.647 18.4641 742.337 14.3856 742.895C13.8006 742.961 13.2126 742.996 12.6246 742.973C12.5676 742.76 12.5301 742.543 12.4881 742.325C12.3486 740.891 12.0141 739.463 10.9071 738.442C8.62865 736.028 4.32365 736.618 2.69915 739.499C1.55165 741.326 2.13515 743.512 2.47865 745.495C2.49665 745.568 2.52365 745.633 2.54315 745.705C-0.269354 747.709 0.410146 752.944 4.86515 753.1C6.21065 752.959 7.57265 752.836 8.94965 752.726C11.4981 753.595 14.4816 753.608 17.4366 752.945C19.4406 752.675 21.4371 752.368 23.4366 752.062C40.0311 751.747 58.0356 752.657 75.7911 752.659C86.7201 752.452 97.6206 751.561 108.533 750.968C115.141 750.857 121.747 750.68 128.353 750.508C145.301 750.614 162.25 750.788 179.2 750.857C192.29 751.468 205.375 752.26 218.474 752.647C231.205 753.356 243.868 752.176 256.523 750.863C265.18 750.859 273.835 750.863 282.491 750.823C296.657 750.803 310.88 751.426 325.018 750.866C328.789 749.945 330.293 744.79 327.413 742.081L327.415 742.078Z" fill="#C1C1C1"/>
<path d="M33.4674 284.603C34.2759 250.702 32.5254 216.818 31.6929 182.933C31.4874 135.631 29.5104 88.3745 28.3674 41.093C28.1244 32.9015 28.0209 24.7085 27.9039 16.5155C27.6054 13.409 28.5279 10.0925 27.4149 7.15404C26.4639 4.43904 23.1969 2.96454 20.4474 3.73404C17.9529 4.39104 16.0809 6.84954 16.1109 9.42954C16.7649 30.437 17.0004 51.4445 16.5639 72.4625C16.7229 103.019 16.3119 133.568 16.0374 164.123C15.7689 191.882 17.4564 219.619 17.1159 247.382C17.0949 272.26 16.5609 297.134 16.9779 322.012C16.8369 335.854 15.7809 349.673 15.7584 363.521C15.9819 397.079 16.5549 430.643 17.1984 464.197C17.7909 480.614 15.5079 496.945 14.9484 513.334C14.1444 529.876 15.4359 546.442 14.2644 562.972C13.4214 577.462 11.5209 591.898 11.7669 606.437C11.8404 629.08 13.9059 651.656 15.1194 674.254C15.6954 690.761 13.3779 707.225 13.5444 723.739C13.7439 727.654 12.2034 731.86 13.9479 735.526C16.0584 741.689 25.0044 743.321 29.4114 738.595C32.3289 735.746 32.4669 731.68 31.9359 727.88C31.6134 723.998 31.7124 720.103 31.7229 716.212C31.9149 701.972 33.0474 687.728 32.2284 673.49C30.7749 651.857 28.8774 630.226 28.8444 608.528C28.7049 593.731 30.3399 578.999 30.8799 564.224C31.5969 548.488 30.8634 532.742 31.1544 517.003C31.3014 506.662 32.2524 496.355 32.5434 486.019C32.8284 474.295 32.6004 462.566 32.4984 450.841C32.3739 436.324 32.6004 421.807 32.5674 407.288C32.1009 386.387 31.8429 365.471 32.6589 344.575C33.8199 324.598 33.3984 304.601 33.4674 284.603Z" fill="#DBDBDB"/>
<path d="M316.013 726.479C314.452 725.573 312.769 725.119 310.963 725.113C306.37 725.222 301.78 725.342 297.199 725.698C267.923 728.14 238.526 727.937 209.191 729.229C180.695 729.428 152.197 728.851 123.698 729.458C111.14 729.578 98.5808 729.475 86.0258 729.707C73.5233 730.088 61.0283 730.789 48.5168 730.819C45.1868 730.789 41.8568 730.696 38.5298 730.579C35.4938 730.723 32.2013 729.656 29.3273 730.804C23.3873 733.079 25.1693 742.358 31.6388 742.288C48.7403 743.368 65.8478 742.285 82.9583 742.144C102.433 742.138 121.903 742.805 141.374 743.126C164.056 743.47 186.739 743.627 209.417 744.188C229.852 743.83 250.276 743.905 270.694 744.898C281.08 745.487 291.481 745.391 301.877 745.367C308.332 745.061 317.404 746.57 320.107 738.977C322.285 734.566 320.162 728.93 316.012 726.481L316.013 726.479Z" fill="#DBDBDB"/>
<path d="M158.687 81.5329C150.229 81.6049 141.799 80.8294 133.349 80.6224C122.68 80.3839 112.015 80.8159 101.348 80.9569C93.8544 81.1114 86.3634 80.5699 78.8709 80.8924C74.4354 81.1399 70.0089 81.5869 65.5899 82.0624C65.5164 81.6274 65.4204 81.1714 65.3049 80.7529C65.4204 80.9929 65.4219 80.8459 65.2449 79.8499C65.2449 79.8424 65.2449 79.8394 65.2419 79.8319C64.7814 68.4949 64.5699 57.1429 63.8109 45.8194C63.6534 38.7139 53.1789 38.6779 52.9824 45.8194C53.0559 57.2224 52.7229 68.6299 52.4169 80.0254C52.3614 80.3764 52.2999 80.7664 52.2399 81.1249L52.3704 80.8144C52.0449 81.8674 51.9519 82.9789 51.9009 84.0949C51.4074 87.6244 51.2004 91.7029 53.8674 94.4374C56.1384 96.6964 59.5044 97.0069 62.5584 96.9049C66.3309 96.6514 70.0824 96.1354 73.8489 95.8174C83.2704 94.8829 92.7339 95.7574 102.175 95.5429C112.618 95.3944 123.061 94.9984 133.507 95.2444C141.904 95.4649 150.28 96.2344 158.686 96.1684C168.28 95.9479 168.35 81.8104 158.686 81.5344L158.687 81.5329Z" fill="#DBDBDB"/>
<path d="M286.475 82.4794C283.99 81.0244 280.973 81.5254 278.215 81.2254C273.466 81.0034 268.715 80.8159 263.974 80.4814C251.236 79.2904 238.451 79.4794 225.676 79.7749C214.729 79.8109 203.78 79.4134 192.833 79.6459C192.562 79.6504 192.292 79.6639 192.02 79.6699C192.088 74.2759 191.764 68.8609 191.653 63.4789C191.335 58.4194 190.987 53.3539 190.373 48.3214C189.83 45.7069 190.009 42.6019 188.222 40.4704C183.967 34.6444 174.604 39.3454 176.54 46.2919C177.469 51.3049 177.653 69.8869 177.401 81.0064C177.817 85.2754 174.557 90.9439 182.449 94.2199C186.859 94.8964 191.401 94.0474 195.86 94.2049C211.289 94.2334 226.711 94.4779 242.14 94.1809C253.426 93.9679 264.644 95.3929 275.912 95.7514C279.107 95.6179 282.598 96.8359 285.602 95.4874C291.124 93.5614 291.548 85.2499 286.477 82.4824L286.475 82.4794Z" fill="#DBDBDB"/>
<path d="M281.516 147.665C277.685 145.819 273.073 146.666 268.934 146.612C261.059 147.124 253.19 147.814 245.291 147.821C226.57 147.614 207.79 146.888 189.206 149.582C189.206 149.485 189.211 149.386 189.209 149.288C189.317 139.828 189.197 130.365 189.329 120.906C189.391 118.658 189.53 116.411 189.742 114.172C189.931 112.708 190 111.156 189.247 109.842C186.394 102.501 175.171 104.797 175.211 112.669C174.161 123.149 174.769 133.703 174.574 144.217C174.557 147.578 174.539 150.941 174.49 154.302C174.319 157.32 174.469 160.562 176.699 162.846C179.84 166.331 184.712 164.969 188.777 164.371C190.541 163.979 205.268 162.388 213.524 162.23C222.934 162.044 232.343 162.444 241.753 162.488C253.801 162.906 265.784 160.735 277.816 161.332C285.175 161.377 287.903 151.409 281.518 147.667L281.516 147.665Z" fill="#DBDBDB"/>
<path d="M161.329 154.385C159.506 151.228 155.536 151.778 152.422 151.228C146.758 150.602 141.043 150.773 135.361 150.367C126.236 149.846 117.124 148.763 107.974 148.928C96.2123 149.138 84.5093 150.466 72.7718 151.151C69.6458 151.268 66.5183 151.636 63.3923 151.777C62.6903 141.2 63.1193 130.589 62.8808 119.998C62.5718 116.957 63.3098 112.966 62.3273 110.212C60.3383 104.968 52.2038 106.619 52.2788 112.235C52.5608 124.379 52.2578 136.535 52.7003 148.673C53.0588 158.669 53.2133 163.405 64.9733 162.166C81.3833 161.345 97.7528 159.152 114.2 159.47C125.983 160.129 137.741 161.168 149.543 161.459C150.533 161.507 153.334 161.84 154.679 162.002C156.284 162.328 157.994 162.494 159.445 161.572C161.893 160.207 162.785 156.784 161.329 154.388V154.385Z" fill="#DBDBDB"/>
<path d="M162.451 220.562C159.857 217.862 156.203 218.444 152.831 218.669C149.851 218.807 146.866 218.91 143.881 218.906C133.936 218.775 124.001 218.004 114.049 218.333C100.117 218.894 86.1877 218.783 72.2542 218.421C71.1442 218.385 70.0312 218.391 68.9182 218.4C68.7352 208.158 67.2052 192.608 66.7717 189.74C66.4222 186.972 66.0112 184.212 65.5942 181.455C65.3317 179.733 65.2507 177.831 63.9487 176.534C60.1357 171.149 51.1942 174.233 51.3247 180.818C52.7062 193.188 54.0517 205.595 54.3157 218.048C54.5197 221.504 53.7457 225.201 55.4122 228.387C58.6867 234.284 66.2902 232.758 71.9482 233.028C91.0762 233.892 109.624 232.691 128.603 233.042C135.983 233.327 143.369 233.763 150.755 233.393C153.835 233.043 157.204 233.607 160.096 232.424C164.851 230.802 166.057 223.943 162.451 220.562Z" fill="#DBDBDB"/>
<path d="M278.743 217.16C275.088 215.254 270.684 216.542 266.719 216.244C261.064 216.305 255.409 216.239 249.756 216.059C238.455 215.638 227.151 215.335 215.842 215.225C208.156 215.161 200.448 214.772 192.78 215.413C192.984 206.665 193.267 197.917 193.335 189.167C193.369 186.095 193.344 183.022 193.351 179.95C193.389 178.94 193.179 177.998 192.72 177.124C189.864 169.781 178.647 172.078 178.684 179.95C178.749 192.715 178.372 205.474 178.032 218.233C177.457 222.986 179.091 228.811 184.356 229.969C189.037 230.944 193.753 229.747 198.474 229.745C214.557 229.739 230.646 230.045 246.72 230.632C253.074 230.846 259.429 230.983 265.788 230.917C269.631 230.59 274.321 231.544 277.869 230.195C283.405 228.266 283.825 219.934 278.743 217.16Z" fill="#DBDBDB"/>
<path d="M282.889 284.552C279.089 282.575 274.522 284.055 270.413 283.881C262.94 284.214 255.469 284.591 247.987 284.648C229.378 284.663 210.769 284.369 192.172 285.3C192.005 285.3 191.839 285.288 191.672 285.287C191.783 279.101 191.53 272.912 191.228 266.732C190.832 260.298 190.849 253.8 189.617 247.452C186.827 238.221 173.174 241.961 175.474 251.351C176.207 255.156 177.05 273.762 177.032 284.234C177.109 288.539 175.753 293.57 179.353 296.852C182.095 299.573 186.043 299.742 189.682 299.916C195.118 300.08 200.551 299.561 205.987 299.48C223.37 298.883 240.766 299.732 258.146 299.084C264.155 298.841 270.163 298.536 276.173 298.319C278.122 298.14 280.238 298.542 282.014 297.585C287.549 295.656 287.974 287.324 282.89 284.55L282.889 284.552Z" fill="#DBDBDB"/>
<path d="M164.446 286.181C161.882 283.542 158.2 284.061 154.852 283.901C150.38 283.74 145.91 283.494 141.44 283.295C128.996 282.561 116.557 283.476 104.134 284.154C93.8795 284.673 83.6045 284.615 73.34 284.517C71.2535 284.483 69.164 284.469 67.0775 284.385C66.9215 278.316 66.8675 272.244 66.596 266.178C66.392 261.477 66.2705 256.772 65.789 252.089C65.6285 249.597 65.609 246.86 63.6215 245.045C59.576 240.801 51.9185 243.947 52.055 249.836C52.175 261.009 52.2905 272.184 52.5095 283.356C51.887 296.307 56.621 298.874 68.849 299.031C86.9645 299.63 105.056 298.815 123.139 297.801C134.161 297.288 145.169 298.208 156.181 298.578C159.086 298.787 162.31 298.842 164.444 296.526C167.267 293.823 167.254 288.891 164.444 286.178L164.446 286.181Z" fill="#DBDBDB"/>
<path d="M160.276 356.372C151.817 356.444 143.387 355.669 134.938 355.462C124.268 355.223 113.603 355.655 102.937 355.796C95.4428 355.951 87.9518 355.409 80.4593 355.732C76.0238 355.979 71.5973 356.426 67.1783 356.902C67.1048 356.467 67.0088 356.011 66.8933 355.592C67.0088 355.832 67.0103 355.685 66.8333 354.689C66.8333 354.682 66.8333 354.679 66.8303 354.671C66.3698 343.334 66.1583 331.982 65.3993 320.659C65.2418 313.553 54.7673 313.517 54.5708 320.659C54.6443 332.062 54.3113 343.469 54.0053 354.865C53.9498 355.216 53.8883 355.606 53.8283 355.964L53.9588 355.654C53.6333 356.707 53.5403 357.818 53.4893 358.934C52.9958 362.464 52.7888 366.542 55.4558 369.277C57.7268 371.536 61.0928 371.846 64.1468 371.744C67.9193 371.491 71.6708 370.975 75.4373 370.657C84.8588 369.722 94.3223 370.597 103.763 370.382C114.206 370.234 124.649 369.838 135.095 370.084C143.492 370.304 151.868 371.074 160.274 371.008C169.868 370.787 169.939 356.65 160.274 356.374L160.276 356.372Z" fill="#DBDBDB"/>
<path d="M288.063 357.32C285.578 355.865 282.562 356.366 279.803 356.066C275.054 355.844 270.304 355.657 265.562 355.322C252.824 354.131 240.04 354.32 227.264 354.615C216.317 354.651 205.368 354.254 194.421 354.486C194.15 354.491 193.88 354.505 193.608 354.511C193.676 349.117 193.352 343.701 193.241 338.319C192.923 333.26 192.575 328.194 191.961 323.162C191.418 320.547 191.597 317.442 189.81 315.311C185.555 309.485 176.192 314.186 178.128 321.133C179.057 326.146 179.241 344.727 178.989 355.847C179.405 360.116 176.145 365.784 184.037 369.06C188.447 369.737 192.989 368.888 197.449 369.045C212.878 369.074 228.299 369.318 243.728 369.021C255.014 368.808 266.232 370.233 277.5 370.592C280.695 370.458 284.186 371.676 287.19 370.328C292.712 368.402 293.136 360.091 288.065 357.323L288.063 357.32Z" fill="#DBDBDB"/>
<path d="M283.105 422.504C279.274 420.658 274.661 421.505 270.523 421.451C262.648 421.963 254.779 422.653 246.88 422.66C228.158 422.453 209.378 421.727 190.795 424.421C190.795 424.324 190.799 424.225 190.798 424.127C190.906 414.667 190.786 405.205 190.918 395.746C190.979 393.497 191.119 391.25 191.33 389.011C191.519 387.547 191.588 385.996 190.835 384.682C187.982 377.341 176.759 379.636 176.8 387.508C175.75 397.988 176.357 408.542 176.162 419.056C176.146 422.417 176.128 425.78 176.078 429.142C175.907 432.16 176.057 435.401 178.288 437.686C181.429 441.17 186.301 439.808 190.366 439.21C192.13 438.818 206.857 437.227 215.113 437.069C224.522 436.883 233.932 437.284 243.341 437.327C255.389 437.746 267.373 435.574 279.404 436.171C286.763 436.216 289.492 426.248 283.106 422.506L283.105 422.504Z" fill="#DBDBDB"/>
<path d="M162.917 429.226C161.095 426.068 157.124 426.619 154.01 426.068C148.346 425.443 142.631 425.614 136.949 425.207C127.825 424.687 118.712 423.604 109.562 423.769C97.8007 423.979 86.0977 425.306 74.3602 425.992C71.2342 426.109 68.1067 426.476 64.9807 426.617C64.2787 416.041 64.7077 405.43 64.4692 394.838C64.1602 391.798 64.8982 387.806 63.9157 385.052C61.9267 379.808 53.7922 381.46 53.8672 387.076C54.1492 399.22 53.8462 411.376 54.2887 423.514C54.6472 433.51 54.8017 438.245 66.5617 437.006C82.9717 436.186 99.3412 433.993 115.789 434.311C127.571 434.969 139.33 436.009 151.132 436.3C152.122 436.348 154.922 436.681 156.268 436.843C157.873 437.168 159.583 437.335 161.033 436.412C163.481 435.047 164.374 431.624 162.917 429.229V429.226Z" fill="#DBDBDB"/>
<path d="M162.451 493.553C159.857 490.853 156.203 491.435 152.831 491.66C149.851 491.798 146.866 491.902 143.881 491.897C133.936 491.767 124.001 490.996 114.049 491.324C100.117 491.885 86.1877 491.774 72.2542 491.413C71.1442 491.377 70.0312 491.383 68.9182 491.392C68.7352 481.15 67.2052 465.599 66.7717 462.731C66.4222 459.964 66.0112 457.204 65.5942 454.447C65.3317 452.725 65.2507 450.823 63.9487 449.525C60.1357 444.14 51.1942 447.224 51.3247 453.809C52.7062 466.18 54.0517 478.586 54.3157 491.039C54.5197 494.495 53.7457 498.193 55.4122 501.379C58.6867 507.275 66.2902 505.75 71.9482 506.02C91.0762 506.884 109.624 505.682 128.603 506.033C135.983 506.318 143.369 506.755 150.755 506.384C153.835 506.035 157.204 506.598 160.096 505.415C164.851 503.793 166.057 496.934 162.451 493.553Z" fill="#DBDBDB"/>
<path d="M280.331 492C276.676 490.094 272.272 491.382 268.307 491.084C262.652 491.145 256.997 491.079 251.344 490.899C240.043 490.478 228.739 490.175 217.43 490.065C209.744 490.001 202.036 489.612 194.368 490.253C194.572 481.505 194.855 472.757 194.923 464.007C194.957 460.935 194.932 457.862 194.939 454.79C194.977 453.78 194.767 452.839 194.308 451.964C191.452 444.622 180.235 446.918 180.272 454.79C180.337 467.555 179.96 480.314 179.62 493.073C179.045 497.826 180.679 503.651 185.944 504.809C190.625 505.784 195.341 504.587 200.062 504.585C216.145 504.579 232.234 504.886 248.308 505.472C254.662 505.687 261.017 505.823 267.376 505.757C271.219 505.43 275.909 506.384 279.457 505.035C284.993 503.106 285.415 494.774 280.333 492H280.331Z" fill="#DBDBDB"/>
<path d="M284.477 559.393C280.678 557.416 276.11 558.896 272.002 558.722C264.529 559.055 257.057 559.432 249.575 559.489C230.966 559.504 212.357 559.21 193.76 560.141C193.594 560.141 193.427 560.129 193.261 560.128C193.372 553.942 193.118 547.753 192.817 541.573C192.421 535.139 192.437 528.641 191.206 522.293C188.416 513.062 174.763 516.802 177.062 526.192C177.796 529.997 178.639 548.603 178.621 559.075C178.697 563.38 177.341 568.411 180.941 571.693C183.683 574.414 187.631 574.583 191.27 574.757C196.706 574.921 202.139 574.402 207.575 574.321C224.959 573.724 242.354 574.573 259.735 573.925C265.744 573.682 271.751 573.377 277.762 573.16C279.71 572.981 281.827 573.383 283.603 572.426C289.138 570.497 289.562 562.165 284.479 559.391L284.477 559.393Z" fill="#DBDBDB"/>
<path d="M166.034 561.02C163.471 558.382 159.788 558.901 156.44 558.74C151.969 558.58 147.499 558.334 143.029 558.134C130.585 557.401 118.145 558.316 105.722 558.994C95.4684 559.513 85.1934 559.454 74.9289 559.357C72.8424 559.322 70.7529 559.309 68.6664 559.225C68.5104 553.156 68.4564 547.084 68.1849 541.018C67.9809 536.317 67.8594 531.611 67.3779 526.928C67.2174 524.437 67.1979 521.699 65.2104 519.884C61.1649 515.641 53.5074 518.786 53.6439 524.675C53.7639 535.849 53.8794 547.024 54.0984 558.196C53.4759 571.147 58.2099 573.713 70.4379 573.871C88.5534 574.469 106.645 573.655 124.727 572.641C135.749 572.128 146.758 573.047 157.769 573.418C160.675 573.626 163.898 573.682 166.033 571.366C168.856 568.663 168.842 563.731 166.033 561.017L166.034 561.02Z" fill="#DBDBDB"/>
<path d="M162.728 638.636C160.135 635.936 156.481 636.518 153.109 636.743C150.128 636.881 147.143 636.985 144.158 636.98C134.213 636.85 124.278 636.079 114.326 636.407C100.394 636.968 86.465 636.857 72.5315 636.496C71.4215 636.46 70.3085 636.466 69.1955 636.475C69.0125 626.233 67.4825 610.682 67.049 607.814C66.6995 605.047 66.2885 602.287 65.8715 599.53C65.609 597.808 65.528 595.906 64.226 594.608C60.413 589.223 51.4715 592.307 51.602 598.892C52.9835 611.263 54.329 623.669 54.593 636.122C54.797 639.578 54.023 643.276 55.6895 646.462C58.964 652.358 66.5675 650.833 72.2255 651.103C91.3535 651.967 109.901 650.765 128.881 651.116C136.261 651.401 143.646 651.838 151.032 651.467C154.112 651.118 157.481 651.682 160.373 650.498C165.128 648.877 166.334 642.017 162.728 638.636Z" fill="#DBDBDB"/>
<path d="M280.609 637.084C276.953 635.177 272.549 636.465 268.585 636.167C262.93 636.228 257.275 636.162 251.621 635.982C240.32 635.561 229.016 635.258 217.708 635.148C210.022 635.084 202.313 634.695 194.645 635.336C194.849 626.588 195.133 617.84 195.2 609.09C195.235 606.018 195.209 602.945 195.217 599.873C195.254 598.863 195.044 597.921 194.585 597.047C191.729 589.704 180.512 592.001 180.55 599.873C180.614 612.638 180.238 625.397 179.897 638.156C179.323 642.91 180.956 648.734 186.221 649.892C190.903 650.867 195.619 649.67 200.339 649.668C216.422 649.662 232.511 649.968 248.585 650.555C254.939 650.769 261.295 650.906 267.653 650.84C271.496 650.513 276.187 651.467 279.734 650.119C285.271 648.19 285.692 639.857 280.61 637.084H280.609Z" fill="#DBDBDB"/>
<path d="M284.755 704.476C280.955 702.499 276.388 703.979 272.279 703.805C264.806 704.138 257.335 704.515 249.853 704.572C231.244 704.587 212.635 704.293 194.038 705.224C193.871 705.224 193.705 705.212 193.538 705.211C193.649 699.025 193.396 692.836 193.094 686.656C192.698 680.222 192.715 673.724 191.483 667.376C188.693 658.145 175.04 661.885 177.34 671.275C178.073 675.08 178.916 693.686 178.898 704.158C178.975 708.463 177.619 713.494 181.219 716.776C183.961 719.497 187.909 719.666 191.548 719.84C196.984 720.004 202.417 719.485 207.853 719.404C225.236 718.807 242.632 719.656 260.012 719.008C266.021 718.765 272.029 718.46 278.039 718.243C279.988 718.064 282.104 718.466 283.88 717.509C289.415 715.58 289.84 707.248 284.756 704.474L284.755 704.476Z" fill="#DBDBDB"/>
<path d="M166.312 706.103C163.748 703.464 160.066 703.983 156.718 703.823C152.246 703.662 147.776 703.416 143.306 703.217C130.862 702.483 118.423 703.398 106 704.076C95.7457 704.595 85.4707 704.537 75.2062 704.439C73.1197 704.405 71.0302 704.391 68.9437 704.307C68.7877 698.238 68.7337 692.166 68.4622 686.1C68.2582 681.399 68.1367 676.694 67.6552 672.011C67.4947 669.519 67.4752 666.782 65.4877 664.967C61.4422 660.723 53.7847 663.869 53.9212 669.758C54.0412 680.931 54.1567 692.106 54.3757 703.278C53.7532 716.229 58.4872 718.796 70.7152 718.953C88.8307 719.552 106.922 718.737 125.005 717.723C136.027 717.21 147.035 718.13 158.047 718.5C160.952 718.709 164.176 718.764 166.31 716.448C169.133 713.745 169.12 708.813 166.31 706.1L166.312 706.103Z" fill="#DBDBDB"/>
<path d="M52.9117 93.347C89.7232 93.485 126.533 93.6215 163.345 93.7595C163.673 75.521 164.003 60.536 164.332 42.2975C150.349 42.2975 70.2277 40.9475 53.5507 41.768C53.6467 59.249 52.9102 70.7765 52.9102 93.3455L52.9117 93.347Z" stroke="#151515" stroke-width="6" stroke-linecap="round" stroke-linejoin="round"/>
<path d="M177.301 93.347C214.112 93.485 250.922 93.6215 287.734 93.7595C288.062 75.521 288.392 60.536 288.721 42.2975C274.738 42.2975 194.617 40.9475 177.94 41.768C178.036 59.249 177.299 70.7765 177.299 93.3455L177.301 93.347Z" stroke="#151515" stroke-width="6" stroke-linecap="round" stroke-linejoin="round"/>
<path d="M51.8755 161.104C88.687 161.242 125.497 161.378 162.309 161.516C162.637 143.278 162.967 128.293 163.296 110.054C149.313 110.054 69.1915 108.704 52.5145 109.525C52.6105 127.006 51.874 138.533 51.874 161.102L51.8755 161.104Z" stroke="#151515" stroke-width="6" stroke-linecap="round" stroke-linejoin="round"/>
<path d="M176.263 161.104C213.074 161.242 249.884 161.378 286.696 161.516C287.024 143.278 287.354 128.293 287.683 110.054C273.7 110.054 193.579 108.704 176.902 109.525C176.998 127.006 176.261 138.533 176.261 161.102L176.263 161.104Z" stroke="#151515" stroke-width="6" stroke-linecap="round" stroke-linejoin="round"/>
<path d="M52.9117 228.86C89.7232 228.998 126.533 229.135 163.345 229.273C163.673 211.034 164.003 196.049 164.332 177.811C150.349 177.811 70.2277 176.461 53.5507 177.281C53.6467 194.762 52.9102 206.29 52.9102 228.859L52.9117 228.86Z" stroke="#151515" stroke-width="6" stroke-linecap="round" stroke-linejoin="round"/>
<path d="M177.301 228.86C214.112 228.998 250.922 229.135 287.734 229.273C288.062 211.034 288.392 196.049 288.721 177.811C274.738 177.811 194.617 176.461 177.94 177.281C178.036 194.762 177.299 206.29 177.299 228.859L177.301 228.86Z" stroke="#151515" stroke-width="6" stroke-linecap="round" stroke-linejoin="round"/>
<path d="M51.8755 296.617C88.687 296.755 125.497 296.891 162.309 297.029C162.637 278.791 162.967 263.806 163.296 245.567C149.313 245.567 69.1915 244.217 52.5145 245.038C52.6105 262.519 51.874 274.046 51.874 296.615L51.8755 296.617Z" stroke="#151515" stroke-width="6" stroke-linecap="round" stroke-linejoin="round"/>
<path d="M176.263 296.617C213.074 296.755 249.884 296.891 286.696 297.029C287.024 278.791 287.354 263.806 287.683 245.567C273.7 245.567 193.579 244.217 176.902 245.038C176.998 262.519 176.261 274.046 176.261 296.615L176.263 296.617Z" stroke="#151515" stroke-width="6" stroke-linecap="round" stroke-linejoin="round"/>
<path d="M52.9117 365.156C89.7232 365.294 126.533 365.431 163.345 365.569C163.673 347.33 164.003 332.345 164.332 314.107C150.349 314.107 70.2277 312.757 53.5507 313.577C53.6467 331.058 52.9102 342.586 52.9102 365.155L52.9117 365.156Z" stroke="#151515" stroke-width="6" stroke-linecap="round" stroke-linejoin="round"/>
<path d="M177.301 365.156C214.112 365.294 250.922 365.431 287.734 365.569C288.062 347.33 288.392 332.345 288.721 314.107C274.738 314.107 194.617 312.757 177.94 313.577C178.036 331.058 177.299 342.586 177.299 365.155L177.301 365.156Z" stroke="#151515" stroke-width="6" stroke-linecap="round" stroke-linejoin="round"/>
<path d="M51.8755 432.913C88.687 433.051 125.497 433.187 162.309 433.325C162.637 415.087 162.967 400.102 163.296 381.863C149.313 381.863 69.1915 380.513 52.5145 381.334C52.6105 398.815 51.874 410.342 51.874 432.911L51.8755 432.913Z" stroke="#151515" stroke-width="6" stroke-linecap="round" stroke-linejoin="round"/>
<path d="M176.263 432.913C213.074 433.051 249.884 433.187 286.696 433.325C287.024 415.087 287.354 400.102 287.683 381.863C273.7 381.863 193.579 380.513 176.902 381.334C176.998 398.815 176.261 410.342 176.261 432.911L176.263 432.913Z" stroke="#151515" stroke-width="6" stroke-linecap="round" stroke-linejoin="round"/>
<path d="M52.9117 501.935C89.7232 502.073 126.533 502.21 163.345 502.348C163.673 484.109 164.003 469.124 164.332 450.885C150.349 450.885 70.2277 449.535 53.5507 450.356C53.6467 467.837 52.9102 479.365 52.9102 501.934L52.9117 501.935Z" stroke="#151515" stroke-width="6" stroke-linecap="round" stroke-linejoin="round"/>
<path d="M177.301 501.935C214.112 502.073 250.922 502.21 287.734 502.348C288.062 484.109 288.392 469.124 288.721 450.885C274.738 450.885 194.617 449.535 177.94 450.356C178.036 467.837 177.299 479.365 177.299 501.934L177.301 501.935Z" stroke="#151515" stroke-width="6" stroke-linecap="round" stroke-linejoin="round"/>
<path d="M51.8755 569.692C88.687 569.83 125.497 569.966 162.309 570.104C162.637 551.866 162.967 536.881 163.296 518.642C149.313 518.642 69.1915 517.292 52.5145 518.113C52.6105 535.594 51.874 547.121 51.874 569.69L51.8755 569.692Z" stroke="#151515" stroke-width="6" stroke-linecap="round" stroke-linejoin="round"/>
<path d="M176.263 569.692C213.074 569.83 249.884 569.966 286.696 570.104C287.024 551.866 287.354 536.881 287.683 518.642C273.7 518.642 193.579 517.292 176.902 518.113C176.998 535.594 176.261 547.121 176.261 569.69L176.263 569.692Z" stroke="#151515" stroke-width="6" stroke-linecap="round" stroke-linejoin="round"/>
<path d="M52.9117 647.435C89.7232 647.573 126.533 647.71 163.345 647.848C163.673 629.609 164.003 614.624 164.332 596.385C150.349 596.385 70.2277 595.035 53.5507 595.856C53.6467 613.337 52.9102 624.865 52.9102 647.434L52.9117 647.435Z" stroke="#151515" stroke-width="6" stroke-linecap="round" stroke-linejoin="round"/>
<path d="M177.301 647.435C214.112 647.573 250.922 647.71 287.734 647.848C288.062 629.609 288.392 614.624 288.721 596.385C274.738 596.385 194.617 595.035 177.94 595.856C178.036 613.337 177.299 624.865 177.299 647.434L177.301 647.435Z" stroke="#151515" stroke-width="6" stroke-linecap="round" stroke-linejoin="round"/>
<path d="M51.8755 715.192C88.687 715.33 125.497 715.466 162.309 715.604C162.637 697.366 162.967 682.381 163.296 664.142C149.313 664.142 69.1915 662.792 52.5145 663.613C52.6105 681.094 51.874 692.621 51.874 715.19L51.8755 715.192Z" stroke="#151515" stroke-width="6" stroke-linecap="round" stroke-linejoin="round"/>
<path d="M176.263 715.192C213.074 715.33 249.884 715.466 286.696 715.604C287.024 697.366 287.354 682.381 287.683 664.142C273.7 664.142 193.579 662.792 176.902 663.613C176.998 681.094 176.261 692.621 176.261 715.19L176.263 715.192Z" stroke="#151515" stroke-width="6" stroke-linecap="round" stroke-linejoin="round"/>
<path d="M323.993 741.715C322.609 517.781 327.34 2.75601 327.34 2.75601L18.4179 2.58801C18.4179 2.58801 12.7314 452.057 12.7314 741.715H323.993Z" stroke="#151515" stroke-width="6" stroke-linecap="round" stroke-linejoin="round"/>
</g>
<defs>
<clipPath id="clip0_556_1063">
<rect width="328.728" height="753.073" fill="white" transform="translate(0.863281 0.338013)"/>
</clipPath>
</defs>
</svg>
