<svg width="273" height="1174" viewBox="0 0 273 1174" fill="none" xmlns="http://www.w3.org/2000/svg">
<g clip-path="url(#clip0_556_634)">
<path d="M14.269 1161.36V264.353L57.844 264.928L59.5645 192.112L98.5525 189.818V149.683L117.154 150.46V100.219L166.45 99.2754L167.394 150.46L179.895 151.166L182.017 187.963L222.588 190.793L224.71 264.856L269.526 263.912L269.802 1161.36H14.269Z" fill="white"/>
<path d="M134.71 98.6323C135.955 66.9313 135.292 35.1553 132.722 3.53534C138.617 3.14384 144.512 2.75234 150.157 2.38184C152.855 34.7728 153.674 67.3198 152.503 99.8758C146.524 99.6208 140.543 99.3658 134.71 98.6323Z" fill="white"/>
<path d="M136.629 59.0699C136.326 49.0454 135.795 39.0284 135.425 29.0069C135.078 22.6874 135.146 16.2644 133.851 10.0499C131.861 3.51736 122.124 6.05686 123.749 12.8354C124.899 18.6029 125.061 35.2064 125.652 45.7964C126.5 58.9904 126.323 82.1579 126.711 91.8899C121.829 92.4929 116.423 91.2764 112.064 94.0049C105.732 98.2904 107.79 114.462 107.564 121.543C107.652 128.388 107.958 135.24 108.002 142.084C103.46 141.993 98.8714 141.88 94.4329 142.783C88.9099 144.526 88.8424 151.126 88.7434 155.946C88.6669 161.698 88.7269 167.452 88.7869 173.205C88.7884 175.669 88.8784 178.134 88.9219 180.598C83.5879 181.138 72.1054 181.872 65.3869 182.181C57.1504 182.193 53.9674 183.36 51.5119 191.719C47.5294 213.124 48.7114 235.102 48.5299 256.798C40.9009 255.858 26.2489 255.345 18.3034 256.012C11.4799 256.108 11.3629 266.317 18.3034 266.488C27.2374 265.929 36.2014 266.113 45.1114 266.95C47.9284 266.589 56.0269 271.05 58.7239 263.565C59.4394 243.075 58.3714 213.931 60.8134 198.546C61.5424 194.688 61.5094 194.157 62.2024 192.837C65.8519 192.627 69.5044 192.448 73.1539 192.226C79.1884 191.913 85.2184 191.503 91.2229 190.818C98.5339 190.483 99.9874 186.522 99.3724 179.89C99.2659 172.378 98.9974 157.594 99.3394 152.679C100.394 152.616 101.519 152.553 101.997 152.559C107.868 151.947 116.393 154.954 118.28 147.111C119.145 133.203 116.817 112.275 118.487 103.249C118.533 103.059 118.577 102.865 118.62 102.673C124.976 102.193 134.81 103.834 136.88 96.1709C137.468 83.8409 136.749 71.4224 136.626 59.0684L136.629 59.0699Z" fill="#C1C1C1"/>
<path d="M13.8468 652.038C12.8943 628.438 11.8398 604.843 11.1933 581.232C10.9083 545.128 14.3658 509.118 15.1773 473.035C15.7488 437.182 14.2218 401.322 15.2823 365.475C16.2063 334.878 15.8373 305.68 13.9428 278.317C13.7928 274.162 13.5708 270.01 13.3203 265.86C13.1163 263.838 13.5003 261.525 11.8893 259.995C9.36332 257.341 4.42532 259.296 4.54682 263.035C4.79282 285.612 5.28932 308.188 5.39132 330.769C5.37332 350.38 4.58282 369.978 4.39832 389.586C4.38032 420.226 5.43632 450.888 4.44632 481.521C3.56732 510.046 1.35182 538.516 0.775816 567.049C0.490816 589.134 1.79882 611.211 2.64782 633.273C3.19682 646.947 3.72782 660.621 4.33082 674.293C4.55582 678.898 4.75682 683.505 5.02532 688.107C5.01482 690.153 6.29132 692.205 8.23832 692.883C10.5423 693.993 13.4853 692.931 14.7648 690.744C15.2373 689.929 15.4758 689.049 15.4788 688.105C15.3093 685.209 15.1653 682.311 15.0303 679.411C14.5893 670.287 14.2203 661.159 13.8483 652.032L13.8468 652.038Z" fill="#C1C1C1"/>
<path d="M18.3723 1154.09C18.3453 1142.7 18.2493 1131.31 17.9148 1119.93C17.7093 1106.55 17.0718 1093.18 16.7568 1079.8C16.5768 1065.25 16.7433 1050.69 16.4718 1036.14C16.2708 1018.11 14.6223 1000.11 14.7783 982.069C15.7578 951.178 15.9723 920.283 16.0353 889.378C15.3228 858.412 15.8133 827.442 15.5088 796.474C15.2853 779.494 15.7998 762.504 14.8638 745.537C14.5473 735.532 13.5408 725.56 13.3818 715.551C13.3353 704.116 13.6038 692.691 13.0143 681.27C12.9603 678.909 12.8703 676.552 12.8193 674.19C12.8238 673.26 12.4458 672.376 11.7963 671.721C9.74584 669.586 5.73484 671.139 5.83534 674.19C4.66384 687.273 3.48184 696.895 3.03784 714.681C3.29584 731.787 5.11834 748.851 5.04634 765.975C4.90384 790.539 5.50084 815.097 5.07934 839.659C5.03134 858.337 5.65684 877.012 5.58334 895.689C5.39884 911.829 5.52034 927.97 5.31184 944.109C5.10934 958.753 4.24384 973.387 4.36234 988.035C4.50934 1000.22 5.21884 1012.38 5.76484 1024.55C6.23734 1039.89 6.21634 1055.23 6.23434 1070.58C6.36184 1091.58 7.55134 1112.57 7.76434 1133.58C7.86484 1140.7 7.90984 1147.82 7.92184 1154.95C8.30884 1159.06 6.36784 1164.92 11.1393 1166.89C13.4433 1168 16.3863 1166.95 17.6658 1164.76C19.1448 1161.5 18.0723 1157.59 18.3723 1154.09Z" fill="#C1C1C1"/>
<path d="M263.193 1160.04C257.292 1160.23 251.388 1160.38 245.484 1160.38C231.888 1160.35 218.307 1159.54 204.71 1159.52C191.871 1159.43 179.039 1160.05 166.2 1159.93C130.31 1159.35 94.4329 1160.19 58.6279 1162.78C47.8789 1163.26 37.1179 1163.17 26.3629 1163.01C23.4094 1162.96 20.4574 1162.9 17.5039 1162.82C15.9214 1162.87 14.2144 1162.43 12.7609 1163.2C7.56793 1165.19 9.13693 1173.29 14.7784 1173.23C28.7164 1173.57 42.6694 1173.85 56.6059 1173.34C72.7054 1172.54 88.7794 1171.22 104.898 1170.8C127.43 1169.92 149.973 1170.42 172.515 1170.4C192.963 1170.02 213.408 1169.78 233.849 1170.68C241.733 1170.91 249.62 1170.91 257.504 1170.69C261.153 1170.37 266.369 1171.59 267.983 1167.3C269.576 1164.07 266.781 1159.92 263.195 1160.04L263.193 1160.04Z" fill="#C1C1C1"/>
<path d="M135.386 134.748C135.63 122.956 135.678 119.406 135.212 111.934C134.64 107.32 135.825 102.396 134.322 97.9738C131.073 89.5378 117.969 92.1643 118.083 101.242C117.125 115.122 116.769 116.208 116.145 128.085C115.899 132.792 115.688 137.502 115.475 142.21C115.256 142.993 115.118 143.802 115.053 144.627C114.21 144.877 113.357 145.093 112.499 145.285C108.429 146.394 99.2134 145.018 95.7049 157.77C93.6754 166.486 93.8434 175.497 93.8554 184.42C88.1764 186.718 73.7224 190.978 64.5484 193.092C62.7724 193.567 60.9859 194.125 59.3764 194.991C52.6069 197.092 50.1724 206.395 55.3144 211.395C54.5149 225.132 54.3694 238.984 54.3679 252.75C54.3574 254.332 54.3919 255.918 54.4294 257.502C45.8119 259.417 37.1689 261.246 28.5034 262.924C23.0059 264.24 17.0719 264.205 11.9614 266.782C8.4844 268.812 6.1399 273.108 7.0039 277.128C7.4539 283.722 15.1909 287.827 21.0754 285.403C21.3289 285.349 21.5854 285.303 21.8419 285.262C31.2379 283.68 40.5949 281.854 49.8994 279.798C59.2654 277.294 75.1024 277.51 75.3544 264.513C75.0964 252.67 75.0004 240.817 75.3724 228.975C75.6259 222.286 75.8599 216.483 75.8134 211.788C81.1774 210.424 86.4829 208.747 91.7674 207.187C99.4354 204.409 108.671 202.39 113.127 194.898C115.58 190.141 114.419 184.639 114.681 179.493C114.878 171.888 114.821 168.813 115.299 165.765C122.102 164.497 129.26 162 133.031 155.863C134.567 153.247 135.215 150.195 135.411 147.177C135.51 145.819 135.548 144.36 135.326 142.969C135.183 140.235 135.387 137.487 135.386 134.748Z" fill="#DBDBDB"/>
<path d="M33.5823 1135.81C33.1488 1120.75 31.3098 1105.78 30.5508 1090.75C29.9868 1076.09 31.1808 1061.44 31.3548 1046.78C31.1163 1016.53 29.7618 986.277 31.3368 956.031C31.7658 945.649 32.4993 935.271 33.8748 924.969C35.9883 910.308 38.2518 895.608 37.8588 880.75C37.8243 861.669 35.2803 842.722 33.8448 823.719C31.4598 797.103 29.7798 770.376 30.4698 743.641C31.0953 722.922 30.5103 702.204 30.5478 681.484C30.8343 661.489 31.8273 641.494 31.1793 621.496C31.0203 606.616 28.0383 591.964 27.0363 577.152C26.1618 562.818 27.0438 548.451 28.2033 534.159C29.6808 517.3 31.2378 500.436 31.4958 483.504C31.8993 468.796 31.2228 454.089 31.2258 439.38C31.1223 412.177 31.8138 384.973 31.3368 357.771C30.2298 332.974 27.5298 308.26 27.1548 283.422C26.7363 279.082 28.0458 274.054 24.6633 270.682C19.9533 265.999 11.2563 269.19 11.3403 276.201C11.0388 302.286 12.6108 328.321 13.2468 354.384C14.2083 380.805 13.5228 407.242 13.6908 433.672C13.6158 455.149 14.4003 476.634 13.6788 498.103C12.9168 516.31 10.4373 534.397 9.57929 552.6C8.59529 574.542 12.6678 596.289 12.7623 618.211C13.1913 638.272 12.1533 658.326 11.9943 678.385C11.8878 696.868 12.4278 715.353 11.8353 733.833C10.7358 762.388 11.9628 790.962 14.2458 819.433C15.7503 841.924 18.6648 864.366 18.3153 886.939C17.8818 911.925 11.7063 930.459 11.2893 959.518C10.2948 984.076 10.5948 1008.65 11.4048 1033.21C11.7738 1047.87 10.9068 1062.52 10.4613 1077.18C9.78329 1090.15 10.9623 1103.11 11.7933 1116.05C12.2448 1123.8 12.4728 1131.56 12.9273 1139.31C13.4028 1142.92 12.8148 1146.82 14.3223 1150.17C17.0568 1157.94 28.8858 1158.69 32.8188 1151.41C35.5518 1146.67 33.3918 1140.97 33.5823 1135.81Z" fill="#DBDBDB"/>
<path d="M251.847 1138.77C247.389 1138.46 242.925 1138.24 238.458 1138.08C226.637 1137.66 214.805 1137.61 202.977 1137.64C186.687 1137.62 170.396 1137.87 154.107 1137.64C136.742 1137.22 119.381 1136.43 102.005 1136.76C81.6468 1136.8 61.4253 1139.49 41.1333 1140.81C38.1438 1141.06 35.1408 1141.07 32.1483 1140.83C29.5938 1140.74 26.8383 1139.92 24.4863 1141.26C15.5163 1144.75 18.2913 1158.47 27.9453 1158.43C35.3433 1159.43 42.7563 1158.77 50.1558 1158.17C64.1658 1157.19 78.1563 1155.55 92.2188 1155.71C112.304 1155.75 132.335 1157.3 152.384 1158.28C173.01 1158.7 193.646 1158.35 214.275 1158.53C223.271 1158.61 232.268 1158.77 241.257 1159.14C243.908 1159.25 246.557 1159.38 249.203 1159.55C251.456 1159.72 253.854 1159.99 255.882 1158.81C259.785 1157.5 262.343 1153.28 262.322 1149.24C262.305 1143.61 257.534 1138.67 251.846 1138.76L251.847 1138.77Z" fill="#DBDBDB"/>
<path d="M209.369 332.815C208.371 332.682 207.369 332.565 206.364 332.476C207.117 332.556 207.872 332.635 208.625 332.715C200.88 331.947 193.082 331.555 185.294 331.167C170.553 330.549 155.798 331.428 141.054 331.104C129.393 330.838 117.842 329.283 106.175 329.134C99.329 329.127 92.5085 329.589 85.7315 330.318C75.0395 331.242 75.4715 331.489 71.3885 331.674C71.1305 327.765 70.931 326.161 70.463 319.96C70.2215 312.999 70.4525 306.031 70.1435 299.07C69.545 295.728 70.9895 291.633 67.7645 288.972C63.6815 285.612 55.9115 288.097 56.0555 292.771C56.4755 303.699 56.0855 314.638 55.787 325.566C55.6295 329.926 55.136 334.348 55.8755 338.685C56.72 341.949 60.5 344.343 64.6445 344.746C70.2245 345.528 75.8825 345.319 81.4625 344.659C97.0535 343.308 90.8825 342.957 107.45 342.238C119.525 342.229 131.456 343.956 143.514 344.194C155.765 344.353 168.021 344.185 180.269 344.535C188.801 344.725 197.288 345.505 205.815 345.783C206.879 345.841 207.942 345.783 209 345.687C208.817 345.706 208.632 345.726 208.449 345.745C209.09 345.72 209.733 345.652 210.366 345.546C210.461 345.535 210.557 345.525 210.652 345.514C210.566 345.523 210.479 345.532 210.393 345.541C211.913 345.282 213.353 344.764 214.44 343.854C219.357 340.104 216.077 333.219 209.373 332.818L209.369 332.815Z" fill="#DBDBDB"/>
<path d="M212.085 404.601C210.159 403.132 207.663 402.708 205.05 402.795C202.743 402.775 200.433 402.774 198.125 402.795C189.806 402.996 181.481 403.12 173.172 403.537C146.513 404.592 119.84 406.227 93.1355 406.08C85.0715 405.966 74.888 405.672 70.1045 404.887C71.342 394.372 71.5205 383.823 70.2905 373.297C69.9065 370.071 69.4715 366.849 68.9705 363.633C68.9765 362.241 68.249 360.877 66.995 359.896C62.9765 356.592 55.3385 359.037 55.4795 363.633C56.939 373.779 57.896 384.015 57.458 394.228C57.2585 397.297 56.951 400.362 56.5865 403.422C56.153 406.104 55.46 408.982 57.3005 411.444C61.9355 416.988 73.2665 416.808 80.8865 417.28C89.378 417.556 97.88 417.54 106.376 417.366C123.633 416.904 140.901 416.76 158.162 416.403C171.659 416.079 185.154 415.753 198.648 415.362C201.345 415.204 204.054 415.114 206.741 414.867C206.69 414.874 206.657 414.882 206.646 414.888C207.281 414.891 207.9 414.808 208.509 414.688C208.232 414.732 207.707 414.774 207.278 414.811C207.698 414.769 208.119 414.733 208.539 414.681C209.87 414.412 211.109 413.884 212.087 413.122C215.054 410.896 215.042 406.834 212.087 404.599L212.085 404.601Z" fill="#DBDBDB"/>
<path d="M208.592 414.676C208.574 414.678 208.556 414.679 208.536 414.682C208.526 414.684 208.517 414.687 208.506 414.69C208.533 414.685 208.569 414.681 208.59 414.678L208.592 414.676Z" fill="#DBDBDB"/>
<path d="M207.048 477.483C203.844 476.011 199.965 476.793 196.436 476.689C187.917 477.019 179.399 477.358 170.885 477.756C159.42 478.306 147.918 478.408 136.481 479.287C121.463 480.346 106.521 482.137 91.4493 482.694C84.8388 482.872 78.1923 482.892 71.5893 482.55C71.5818 482.419 71.5728 482.289 71.5653 482.16C70.3638 465.897 71.6388 449.299 68.2578 433.234C65.6763 428.01 55.4358 429.625 55.4763 435.25C57.1623 448.086 57.1743 461.001 57.5913 473.887C58.1988 484.666 54.9003 493.221 73.0803 493.87C98.9283 495.529 124.482 491.179 150.279 490.798C164.699 490.465 179.12 490.146 193.544 489.915C196.211 489.9 198.872 489.771 201.533 489.634C204.114 489.558 206.88 489.234 208.724 487.669C212.477 484.807 211.631 479.509 207.048 477.483Z" fill="#DBDBDB"/>
<path d="M208.631 561.436C207.15 560.764 205.538 560.427 203.823 560.442C203.897 560.449 203.97 560.457 204.044 560.464C201.824 560.307 199.592 560.355 197.355 560.434C187.287 560.673 177.222 560.968 167.151 561.121C152.634 561.457 138.101 561.121 123.594 561.745C108.573 562.3 93.5748 563.518 78.5208 563.175C74.7708 563.094 73.8018 563.047 73.0173 562.903C71.9598 555.042 72.6753 534.063 70.9368 521.037C70.6728 518.472 70.2693 515.916 69.7413 513.376C69.3453 511.864 69.4008 510.13 67.9428 508.96C63.5133 504.205 53.7213 508.03 55.7463 513.721C57.4698 521.089 57.6573 538.129 57.7068 550.323C57.7098 555.361 57.8808 560.4 58.2693 565.426C58.2903 565.888 58.3458 565.768 58.4088 565.465C58.3653 566.238 58.4748 567.013 58.6773 567.783C59.4693 571.522 63.8433 573.912 68.1603 575.049C79.1493 577.549 105.614 576.57 124.014 575.922C136.178 575.557 148.344 576.045 160.511 575.994C169.616 575.955 178.718 575.698 187.82 575.505C193.208 575.286 198.644 575.476 204.006 575.017C203.975 575.023 203.939 575.029 203.927 575.037C213.309 575.029 216.753 565.236 208.629 561.436H208.631Z" fill="#DBDBDB"/>
<path d="M204.756 626.994C202.479 625.867 199.799 626.041 197.225 626.086C193.943 626.146 190.665 626.299 187.386 626.419C175.556 626.92 163.712 627.267 151.902 628.029C130.004 629.83 107.978 629.968 86.0404 631.335C81.1489 631.603 76.2229 631.69 71.3269 631.419C70.1914 619.5 70.8784 607.527 70.2619 595.59C70.1374 592.302 69.9784 589.017 69.7384 585.733C69.6049 584.619 69.8254 583.419 69.1024 582.414C66.7279 577.512 57.0109 579.048 57.0994 584.307C58.1284 600.949 55.7569 617.646 57.4234 634.257C57.8359 640.146 64.2424 642.789 71.0899 643.039C76.4959 643.596 81.9604 643.758 87.4084 643.69C99.8989 643.345 112.4 643.351 124.892 643.137C134.672 642.756 144.39 641.745 154.167 641.349C169.539 640.728 184.938 640.567 200.306 639.871C209.186 639.867 212.45 630.591 204.758 626.995L204.756 626.994Z" fill="#DBDBDB"/>
<path d="M209.378 705.552C207.879 704.814 206.138 704.826 204.429 704.796C201.59 704.718 198.75 704.653 195.909 704.61C183.209 704.5 170.568 705.726 157.881 705.921C145.187 706.156 132.503 705.598 119.816 705.378C107.667 705.361 95.5203 705.657 83.3703 705.619C79.8858 705.691 77.1063 705.726 74.8908 705.717C74.9043 704.716 74.9283 703.716 74.9148 702.717C74.4948 696.292 74.1603 689.866 74.1438 683.433C74.0703 678.622 73.9608 673.813 73.6593 669.007C73.1598 665.847 74.3478 662.035 71.1738 659.575C66.7788 655.96 58.4253 658.635 58.5798 663.661C58.8948 677.074 59.1723 690.495 58.5048 703.9C58.6593 706.782 58.1868 709.672 58.9488 712.521C62.7228 721.629 77.2218 718.662 86.5893 718.819C97.8558 718.587 109.1 717.918 120.365 717.685C134.15 717.552 147.944 717.856 161.717 717.243C174.111 717.004 186.486 716.418 198.843 715.659C202.794 715.134 207.6 716.095 210.726 713.739C213.785 711.441 213.059 707.188 209.379 705.55L209.378 705.552Z" fill="#DBDBDB"/>
<path d="M215.187 791.589C214.059 791.076 212.813 790.822 211.505 790.852C211.97 790.887 212.442 790.951 212.829 790.995C212.108 790.909 211.382 790.833 210.654 790.795C207.852 790.641 205.056 790.446 202.248 790.356C190.964 789.721 179.666 789.63 168.363 790.038C143.342 790.398 118.365 791.442 93.3829 792.546C85.4809 792.864 84.2704 793.284 79.3384 793.35C79.3774 785.401 78.8659 777.46 78.5404 769.516C78.2614 764.704 77.9809 759.894 77.7649 755.08C77.2234 751.882 78.6514 747.97 75.5404 745.429C71.6074 742.194 64.1149 744.585 64.2559 749.091C64.4959 762.252 65.1784 775.404 65.7319 788.559C66.0889 791.982 65.7349 796.395 66.2929 799.497C67.4509 802.767 71.6164 804.43 75.7024 804.631C81.7669 805.299 88.0339 804.766 94.1284 804.601C114.626 804.292 135.05 802.696 155.562 802.789C168.971 802.579 182.39 801.631 195.797 802.327C200.543 802.53 205.305 802.309 210.018 801.855C210.486 801.814 211.223 801.744 211.85 801.679C213.618 801.64 215.337 801.09 216.587 800.109C219.771 797.719 219.014 793.291 215.184 791.587L215.187 791.589Z" fill="#DBDBDB"/>
<path d="M212.642 865.095C209.636 859.308 205.087 861.034 198.365 860.58C196.297 860.562 194.227 860.716 192.155 860.728C192.043 860.742 192.176 860.767 192.41 860.796C189.709 860.628 186.95 860.929 184.24 860.874C158.105 861.046 131.948 861.649 105.973 864.052C93.0395 865.024 85.5305 865.827 80.2685 863.244C80.252 863.224 80.2445 863.214 80.2265 863.193C80.201 863.157 80.183 863.118 80.1575 863.082C80.144 863.047 80.1365 863.028 80.12 862.987C80.0585 862.159 79.8755 860.25 79.8815 859.519C79.3685 850.221 78.815 840.921 77.9195 831.639C77.3255 827.938 77.651 823.863 76.427 820.306C74.195 815.688 65.027 817.134 65.114 822.09C65.8685 831.489 66.218 840.904 66.3665 850.321C66.4175 853.72 66.3935 857.121 66.3575 860.521C66.1925 864.313 66.9335 868.381 70.3685 871.257C79.559 878.65 94.8515 877.245 113.434 876.126C132.019 875.11 150.655 874.824 169.28 874.834C184.045 875.07 196.259 874.423 200.569 873.631C202.483 873.256 204.463 873.033 206.36 872.613C210.724 872.124 213.908 868.54 212.644 865.099L212.642 865.095Z" fill="#DBDBDB"/>
<path d="M215.733 933.357C211.562 931.657 206.525 932.502 201.984 932.274C191.97 932.248 181.97 932.782 171.978 933.265C155.73 934.179 139.518 935.412 123.332 936.852C110.232 937.966 97.0279 939.402 83.8309 938.772C83.5984 938.74 83.3659 938.709 83.1334 938.679C83.0869 930.205 83.6479 921.697 82.7839 913.225C82.3399 907.636 81.5104 902.07 80.6599 896.511C80.3239 894.399 79.9534 892.29 79.3444 890.214C79.0564 889.104 78.7864 887.919 77.7364 887.086C73.2754 882.298 63.4234 886.152 65.4604 891.877C67.4029 899.845 68.6974 914.395 68.2699 926.811C68.0764 933.691 67.8394 936.571 67.3579 940.189C66.7324 945.634 70.6984 948.207 71.6164 949.095C72.2674 949.557 72.9709 949.974 73.6849 950.374C74.1094 950.643 74.2174 950.682 74.1304 950.584C78.0544 952.621 83.1109 952.852 87.7309 953.074C95.5324 953.305 103.34 952.989 111.122 952.56C130.515 951.207 149.942 950.182 169.337 948.84C184.032 947.71 198.83 947.508 213.495 946.182C213.026 946.281 211.367 946.359 211.212 946.429C220.229 946.423 223.544 937.006 215.732 933.355L215.733 933.357Z" fill="#DBDBDB"/>
<path d="M217.512 1013.58C215.601 1012.63 213.345 1012.75 211.179 1012.72C207.668 1012.67 204.158 1012.84 200.651 1012.96C190.343 1013.48 180.027 1014.09 169.692 1013.66C153.812 1013.29 138.05 1011.51 122.189 1010.94C111.23 1010.55 100.269 1011.21 89.3104 1011.31C82.4329 1011.21 82.4119 1011.4 79.5874 1010.8C79.7569 1003.19 79.7824 995.569 79.6069 987.952C79.3924 982.453 79.2784 976.951 79.3009 971.448C79.0594 969.073 80.0704 966.477 78.8449 964.243C76.2469 958.983 65.9374 960.61 65.9779 966.273C65.4664 975.636 65.8444 985.017 65.0884 994.375C64.7929 1001.52 64.2679 1002.5 64.1689 1007.07C64.0759 1009.86 63.8314 1012.66 64.4764 1015.42C64.7134 1016.25 65.1514 1017.05 65.6224 1017.82C65.7169 1018 65.8264 1018.17 65.9419 1018.34C66.0079 1018.45 66.0739 1018.55 66.1384 1018.66C66.1144 1018.61 66.0904 1018.57 66.0664 1018.53C66.2389 1018.76 66.4264 1018.99 66.6289 1019.22C66.5119 1019.1 66.3949 1018.98 66.2779 1018.86C67.5664 1020.41 69.1654 1021.87 71.2969 1022.72C76.1809 1024.54 81.7639 1024.64 87.0814 1024.66C94.4674 1024.55 101.847 1024.23 109.22 1023.87C123.918 1022.86 138.551 1024.64 153.191 1025.45C171.165 1026.82 189.189 1026.33 207.146 1025.07C211.16 1024.67 215.958 1025.45 219.062 1022.99C222.579 1020.35 221.741 1015.46 217.514 1013.58L217.512 1013.58Z" fill="#DBDBDB"/>
<path d="M211.476 1088.21C207.945 1086.97 208.548 1087.76 202.481 1087.27C201.678 1087.26 203.706 1087.41 204.045 1087.47C197.507 1086.89 190.899 1086.76 184.323 1086.63C153.077 1086.04 121.931 1088.33 90.7399 1089.27C84.1744 1089.29 80.6074 1089.3 77.6569 1088.84C77.2234 1081 78.3574 1073.12 78.5164 1065.28C78.7204 1060.89 78.7249 1056.5 78.4534 1052.11C78.0094 1049.35 79.0939 1046.01 76.3384 1043.85C72.6049 1040.78 65.4994 1043.05 65.6314 1047.32C66.3619 1058.58 65.1799 1069.82 64.2289 1081.04C63.9019 1084.45 63.5494 1087.86 63.4279 1091.27C63.4174 1091.75 63.4714 1091.6 63.5374 1091.28C63.4639 1092.24 63.5989 1093.26 63.8614 1094.17C66.4459 1100.59 76.2709 1101.64 83.7049 1101.92C90.9979 1102.26 98.3045 1102 105.599 1101.83C123.072 1101.37 140.525 1100.59 157.988 1099.95C176.018 1099.42 195.843 1099.53 208.83 1097.56C214.8 1097.18 216.909 1090.7 211.478 1088.21H211.476Z" fill="#DBDBDB"/>
<path d="M14.2683 1161.36V264.352L57.8433 264.927L59.5638 192.111L98.5518 189.817V149.682L117.153 150.459V100.218L166.449 99.2743L167.393 150.459L179.894 151.165L182.016 187.962L222.587 190.792L224.709 264.855L269.525 263.911L269.801 1161.36H14.2683Z" stroke="#151515" stroke-width="6" stroke-linecap="round" stroke-linejoin="round"/>
<path d="M58.1748 285.747C58.9308 301.827 58.1868 325.492 58.9428 341.572C124.962 341.572 152.784 341.875 214.169 341.875C214.649 327.457 215.342 313.701 214.317 286.173C161.963 285.348 122.22 285.747 58.1748 285.747Z" stroke="#151515" stroke-width="6" stroke-linecap="round" stroke-linejoin="round"/>
<path d="M59.4093 358.563C60.1653 374.643 59.4213 398.308 60.1773 414.388C126.197 414.388 154.019 414.691 215.403 414.691C215.883 400.273 216.576 386.517 215.552 358.989C163.197 358.164 123.455 358.564 59.4093 358.564V358.563Z" stroke="#151515" stroke-width="6" stroke-linecap="round" stroke-linejoin="round"/>
<path d="M59.4093 431.379C60.1653 447.459 59.4213 471.124 60.1773 487.204C126.197 487.204 154.019 487.507 215.403 487.507C215.883 473.089 216.576 459.333 215.552 431.805C163.197 430.98 123.455 431.38 59.4093 431.38V431.379Z" stroke="#151515" stroke-width="6" stroke-linecap="round" stroke-linejoin="round"/>
<path d="M58.1748 507.468C58.9308 523.548 58.1868 547.213 58.9428 563.293C124.962 563.293 152.784 563.596 214.169 563.596C214.649 549.178 215.342 535.422 214.317 507.894C161.963 507.069 122.22 507.469 58.1748 507.469V507.468Z" stroke="#151515" stroke-width="6" stroke-linecap="round" stroke-linejoin="round"/>
<path d="M58.1748 583.557C58.9308 599.637 58.1868 623.302 58.9428 639.382C124.962 639.382 152.784 639.685 214.169 639.685C214.649 625.267 215.342 611.511 214.317 583.983C161.963 583.158 122.22 583.557 58.1748 583.557Z" stroke="#151515" stroke-width="6" stroke-linecap="round" stroke-linejoin="round"/>
<path d="M58.1748 664.978C58.9308 681.058 58.1868 704.724 58.9428 720.804C124.962 720.804 152.784 721.107 214.169 721.107C214.649 706.689 215.342 692.932 214.317 665.404C161.963 664.579 122.22 664.98 58.1748 664.98V664.978Z" stroke="#151515" stroke-width="6" stroke-linecap="round" stroke-linejoin="round"/>
<path d="M63.0813 746.433C63.8373 762.513 63.0933 786.178 63.8493 802.258C129.869 802.258 157.691 802.561 219.075 802.561C219.555 788.143 220.248 774.387 219.224 746.859C166.869 746.034 127.127 746.434 63.0813 746.434V746.433Z" stroke="#151515" stroke-width="6" stroke-linecap="round" stroke-linejoin="round"/>
<path d="M64.3158 819.249C65.0718 835.329 64.3278 858.994 65.0838 875.074C131.103 875.074 158.925 875.377 220.31 875.377C220.79 860.959 221.483 847.203 220.458 819.675C168.104 818.85 128.361 819.249 64.3158 819.249Z" stroke="#151515" stroke-width="6" stroke-linecap="round" stroke-linejoin="round"/>
<path d="M64.3158 892.066C65.0718 908.146 64.3278 931.812 65.0838 947.892C131.103 947.892 158.925 948.195 220.31 948.195C220.79 933.777 221.483 920.02 220.458 892.492C168.104 891.667 128.361 892.068 64.3158 892.068V892.066Z" stroke="#151515" stroke-width="6" stroke-linecap="round" stroke-linejoin="round"/>
<path d="M63.0813 968.155C63.8373 984.235 63.0933 1007.9 63.8493 1023.98C129.869 1023.98 157.691 1024.28 219.075 1024.28C219.555 1009.87 220.248 996.109 219.224 968.581C166.869 967.756 127.127 968.155 63.0813 968.155Z" stroke="#151515" stroke-width="6" stroke-linecap="round" stroke-linejoin="round"/>
<path d="M63.0813 1044.24C63.8373 1060.32 63.0933 1083.99 63.8493 1100.07C129.869 1100.07 157.691 1100.37 219.075 1100.37C219.555 1085.95 220.248 1072.2 219.224 1044.67C166.869 1043.85 127.127 1044.24 63.0813 1044.24Z" stroke="#151515" stroke-width="6" stroke-linecap="round" stroke-linejoin="round"/>
<path d="M134.709 98.6323C135.954 66.9313 135.291 35.1553 132.722 3.53534C138.617 3.14384 144.512 2.75234 150.156 2.38184C152.855 34.7728 153.674 67.3198 152.502 99.8758C146.523 99.6208 140.543 99.3658 134.709 98.6323Z" stroke="#151515" stroke-width="6" stroke-linecap="round" stroke-linejoin="round"/>
</g>
<defs>
<clipPath id="clip0_556_634">
<rect width="271.317" height="1173.49" fill="white" transform="translate(0.733887 0.131836)"/>
</clipPath>
</defs>
</svg>
