<svg width="330" height="964" viewBox="0 0 330 964" fill="none" xmlns="http://www.w3.org/2000/svg">
<g clip-path="url(#clip0_556_935)">
<path d="M45.844 340.696C44.872 231.075 45.253 118.99 47.8735 2.46582C146.499 2.46582 221.044 2.62182 311.202 4.50432C305.056 117.103 306.272 230.545 308.855 343.282" fill="white"/>
<path d="M17.1599 341.047C120.168 342.851 224.53 342.194 327.538 344L325.72 951.88L12.0479 948.772L17.1599 341.048V341.047Z" fill="white"/>
<path d="M50.4715 7.11283C49.951 1.65583 41.707 0.929826 40.276 6.41683C36.5905 18.2983 36.8815 30.9808 36.553 43.2988C36.574 61.5568 37.075 79.8148 36.7 98.0743C36.4045 151.959 35.5135 205.836 35.557 259.722C35.5495 281.59 34.663 303.465 35.656 325.326C35.7745 327.936 35.881 330.546 35.995 333.156C31.798 332.442 27.448 332.547 23.1865 332.68C20.785 332.73 18.388 332.902 15.997 333.123C14.0515 333.295 11.899 333.268 10.477 334.83C8.06045 337.111 8.64696 341.43 11.5375 343.057C14.062 344.499 17.065 343.237 19.7995 343.299C23.7235 343.105 27.661 342.994 31.5895 343.123C34.8235 343.452 33.184 342.948 37.723 344.445C40.114 345.571 43.2445 346.024 45.2305 343.897C46.27 342.751 46.8625 341.427 46.7635 339.865C46.6345 336.691 46.498 333.517 46.36 330.343C45.7735 319.575 45.736 308.79 45.6295 298.009C46.081 269.908 46.0525 241.803 46.132 213.697C46.2115 190.626 46.9195 167.562 46.8325 144.49C46.8115 121.053 47.335 97.6168 47.314 74.1793C47.2915 55.4938 46.1905 36.7063 48.334 18.0988C48.4555 17.2618 48.6355 16.0753 48.754 15.5368C49.06 13.9123 49.402 12.2908 49.882 10.7083C50.2585 9.54433 50.8045 8.34733 50.4745 7.11283H50.4715Z" fill="#C1C1C1"/>
<path d="M17.3964 349.383C17.1069 345.555 17.7309 341.496 16.6674 337.816C14.7099 332.766 6.58437 334.069 6.64137 339.835C7.43037 353.92 6.33837 367.999 6.05937 382.081C5.48937 397.566 5.86287 413.058 6.02637 428.547C6.82587 454.329 3.71337 480.015 3.86487 505.779C4.05237 527.926 5.17587 550.072 4.63887 572.223C3.92187 598.321 1.64937 624.373 1.78887 650.496C1.88787 691.243 4.58187 731.938 4.02237 772.689C4.14237 794.28 3.55437 815.856 2.97687 837.436C2.87337 856.584 3.15537 875.739 3.74937 894.877C4.26537 908.691 4.39137 922.513 4.38087 936.334C4.38537 939.945 4.38537 943.555 4.38537 947.166C4.37937 948.561 4.94637 949.884 5.91987 950.869C8.22687 953.232 12.5019 952.738 14.1474 949.809C14.6214 948.993 14.8599 948.111 14.8629 947.166C14.8629 943.386 14.8629 939.606 14.8569 935.826C14.8494 929.032 14.8314 922.237 14.7459 915.444C14.1819 890.305 13.2624 865.17 13.4259 840.019C14.1774 812.391 14.6424 784.764 14.5614 757.123C14.4969 713.983 11.1789 670.86 12.6639 627.712C13.4379 603.55 15.5769 579.424 15.2304 555.235C15.1434 535.953 14.2224 516.681 14.3319 497.395C14.5374 484.963 15.6039 472.561 16.0704 460.138C17.3469 433.932 15.5604 407.698 16.5504 381.486C16.7349 370.782 17.5059 360.091 17.3964 349.383Z" fill="#C1C1C1"/>
<path d="M315.687 950.068C313.803 948.925 311.542 949.509 309.459 949.401C306.033 949.39 302.607 949.338 299.182 949.353C288.753 949.221 278.464 951.106 268.093 951.904C253.696 952.843 239.248 953.166 224.823 952.966C206.247 952.636 187.726 950.913 169.152 950.497C150.882 950.326 132.607 950.907 114.334 950.979C99.904 951.31 85.528 949.81 71.137 948.985C56.1565 948.207 41.143 947.868 26.143 948.144C20.611 948.276 15.0805 948.477 9.54702 948.576C7.03452 948.699 4.15002 948.144 2.24652 950.167C-1.00098 953.244 1.40502 959.257 5.95002 959.11C25.3585 958.591 44.7745 958.182 64.18 959.124C80.377 959.725 96.523 961.74 112.747 961.468C132.825 961.444 152.908 960.622 172.981 961.078C195.475 961.825 217.932 964.024 240.456 963.433C257.214 963.448 273.87 961.939 290.505 960.102C296.355 959.725 302.217 959.829 308.076 959.869C310.384 959.718 312.891 960.276 315.06 959.377C318.987 958.002 319.335 952.047 315.685 950.067L315.687 950.068Z" fill="#C1C1C1"/>
<path d="M280.997 326.263C279.827 325.585 278.566 325.243 277.213 325.239C270.863 325 264.511 324.936 258.158 324.888C246.557 324.798 234.946 324.657 223.357 325.296C197.069 326.859 170.744 327.483 144.433 328.458C126.719 329.22 108.997 331.174 91.2564 330.154C78.3369 329.2 73.8009 329.338 63.6279 326.754C63.8739 325.894 64.0119 324.975 64.0029 324.004C66.7479 280.821 64.8879 237.477 61.8564 194.352C60.2289 169.83 58.6974 145.278 58.4799 120.697C58.5459 94.0199 58.6494 67.3289 59.8044 40.6739C61.4664 29.8829 45.6864 27.6464 44.8794 38.8904C43.6059 71.1359 43.1529 103.443 43.7394 135.709C44.6064 164.385 46.9449 192.979 48.5439 221.616C49.6569 238.545 50.1699 255.495 50.2539 272.449C46.3614 271.59 42.0129 273.811 40.9779 277.9C40.0704 280.981 40.9509 284.287 41.1954 287.424C42.4224 296.559 44.1159 305.635 45.9084 314.679C46.0809 318.034 46.2504 321.39 46.4319 324.744C46.4589 330.441 48.8409 336.247 53.9334 339.186C61.6644 342.831 70.4259 343.119 78.7734 344.271C92.7729 345.705 106.861 345.712 120.895 344.791C144.307 343.164 167.768 342.774 191.212 341.839C213.949 340.872 236.662 339.279 259.433 339.903C263.47 339.936 267.508 339.972 271.544 340.071C274.384 339.927 277.46 340.861 280.105 339.597C285.731 337.609 286.223 329.113 281 326.266L280.997 326.263Z" fill="#DBDBDB"/>
<path d="M36.0264 591.502C36.0714 563.815 35.5779 536.134 34.7379 508.459C34.0659 488.575 34.8084 468.676 34.2669 448.791C33.7479 425.338 31.8714 401.949 30.5334 378.535C30.1524 371.242 29.7204 363.951 29.4189 356.655C29.3109 353.035 29.1864 349.417 29.0544 345.798C29.0919 344.814 28.8864 343.896 28.4394 343.044C25.7289 336.099 14.7444 337.924 14.7579 345.798C15.1644 386.041 16.1349 426.282 16.1664 466.528C15.4374 499.242 16.7529 531.946 16.4334 564.661C16.0584 593.067 18.3489 621.444 17.7384 649.842C16.9914 688.107 18.2199 726.436 15.8019 764.659C14.0139 789.555 15.7464 814.563 13.7739 839.437C12.6879 852.954 11.4204 866.455 10.0419 879.945C8.94087 892.221 7.08087 904.585 8.65587 916.9C9.25287 922.237 10.1904 927.54 11.6844 932.703C12.3399 934.738 12.6309 937.021 14.1579 938.611C16.7124 942.405 22.2294 943.239 26.1009 940.995C28.2609 939.778 29.5719 937.759 30.3549 935.463C31.2474 932.631 30.1404 929.886 29.3769 927.172C25.7379 915.127 26.1849 902.497 28.0704 885.046C29.5239 870.321 30.9834 855.594 32.1489 840.843C33.7104 825.21 33.0579 809.509 32.8434 793.833C32.5329 778.957 33.3129 764.097 34.0629 749.245C34.4319 712.981 35.5644 676.74 36.6459 640.489C36.8664 624.159 36.0654 607.834 36.0279 591.504L36.0264 591.502Z" fill="#DBDBDB"/>
<path d="M45.844 340.696C44.872 231.075 45.253 118.99 47.8735 2.46582C146.499 2.46582 221.044 2.62182 311.202 4.50432C305.056 117.103 306.272 230.545 308.855 343.282" stroke="#151515" stroke-width="6" stroke-linecap="round" stroke-linejoin="round"/>
<path d="M47.9155 32.8228C126.178 33.7633 205.939 34.4248 284.236 34.7278C282.564 134.758 283.89 240.789 282.217 340.819" stroke="#151515" stroke-width="6" stroke-linecap="round" stroke-linejoin="round"/>
<path d="M17.1594 341.047C120.167 342.852 224.53 342.195 327.538 344.001L325.72 951.88L12.0474 948.772L17.1594 341.049V341.047Z" stroke="#151515" stroke-width="6" stroke-linecap="round" stroke-linejoin="round"/>
<path d="M70.9806 443.696C69.5579 442.867 67.8347 443.08 66.25 442.888C51.1908 441.97 51.25 442.888 46.2386 442.888C46.2396 442.648 46.2527 442.408 46.249 442.169C46.2141 437.435 46.2301 413.75 45.7647 408.167C45.4463 404.748 45.4783 405.493 45.2588 403.554C45.0402 402.473 45.2098 401.283 44.7104 400.283C43.2369 396.473 37.2636 397.684 37.3145 401.75C37.7554 405.615 37.6245 433.521 37.3918 437.399C37.3673 437.873 37.3409 438.346 37.3145 438.821C37.3154 438.817 37.3164 438.812 37.3183 438.809C37.2419 439.732 37.3013 440.675 37.2203 441.628C37.2325 443.843 36.7473 446.103 37.1798 448.288C38.2633 451.738 41.7464 452.178 44.9375 451.95C60.5119 451.351 53.5 452.75 66.5835 451.966C68.4499 452.203 70.5274 452.296 71.9114 450.806C74.0275 448.812 73.5187 445.118 70.9806 443.696Z" fill="#DBDBDB"/>
<path d="M70.9806 515.696C69.5579 514.867 67.8347 515.08 66.25 514.888C51.1908 513.97 51.25 514.888 46.2386 514.888C46.2396 514.648 46.2527 514.408 46.249 514.169C46.2141 509.435 46.2301 485.75 45.7647 480.167C45.4463 476.748 45.4783 477.493 45.2588 475.554C45.0402 474.473 45.2098 473.283 44.7104 472.283C43.2369 468.473 37.2636 469.684 37.3145 473.75C37.7554 477.615 37.6245 505.521 37.3918 509.399C37.3673 509.873 37.3409 510.346 37.3145 510.821C37.3154 510.817 37.3164 510.812 37.3183 510.809C37.2419 511.732 37.3013 512.675 37.2203 513.628C37.2325 515.843 36.7473 518.103 37.1798 520.288C38.2633 523.738 41.7464 524.178 44.9375 523.95C60.5119 523.351 53.5 524.75 66.5835 523.966C68.4499 524.203 70.5274 524.296 71.9114 522.806C74.0275 520.812 73.5187 517.118 70.9806 515.696Z" fill="#DBDBDB"/>
<path d="M70.9806 592.196C69.5579 591.367 67.8347 591.58 66.25 591.388C51.1908 590.47 51.25 591.388 46.2386 591.388C46.2396 591.148 46.2527 590.908 46.249 590.669C46.2141 585.935 46.2301 562.25 45.7647 556.667C45.4463 553.248 45.4783 553.993 45.2588 552.054C45.0402 550.973 45.2098 549.783 44.7104 548.783C43.2369 544.973 37.2636 546.184 37.3145 550.25C37.7554 554.115 37.6245 582.021 37.3918 585.899C37.3673 586.373 37.3409 586.846 37.3145 587.321C37.3154 587.317 37.3164 587.312 37.3183 587.309C37.2419 588.232 37.3013 589.175 37.2203 590.128C37.2325 592.343 36.7473 594.603 37.1798 596.788C38.2633 600.238 41.7464 600.678 44.9375 600.45C60.5119 599.851 53.5 601.25 66.5835 600.466C68.4499 600.703 70.5274 600.796 71.9114 599.306C74.0275 597.312 73.5187 593.618 70.9806 592.196Z" fill="#DBDBDB"/>
<path d="M70.9806 668.696C69.5579 667.867 67.8347 668.08 66.25 667.888C51.1908 666.97 51.25 667.888 46.2386 667.888C46.2396 667.648 46.2527 667.408 46.249 667.169C46.2141 662.435 46.2301 638.75 45.7647 633.167C45.4463 629.748 45.4783 630.493 45.2588 628.554C45.0402 627.473 45.2098 626.283 44.7104 625.283C43.2369 621.473 37.2636 622.684 37.3145 626.75C37.7554 630.615 37.6245 658.521 37.3918 662.399C37.3673 662.873 37.3409 663.346 37.3145 663.821C37.3154 663.817 37.3164 663.812 37.3183 663.809C37.2419 664.732 37.3013 665.675 37.2203 666.628C37.2325 668.843 36.7473 671.103 37.1798 673.288C38.2633 676.738 41.7464 677.178 44.9375 676.95C60.5119 676.351 53.5 677.75 66.5835 676.966C68.4499 677.203 70.5274 677.296 71.9114 675.806C74.0275 673.812 73.5187 670.118 70.9806 668.696Z" fill="#DBDBDB"/>
<path d="M70.9806 745.196C69.5579 744.367 67.8347 744.58 66.25 744.388C51.1908 743.47 51.25 744.388 46.2386 744.388C46.2396 744.148 46.2527 743.908 46.249 743.669C46.2141 738.935 46.2301 715.25 45.7647 709.667C45.4463 706.248 45.4783 706.993 45.2588 705.054C45.0402 703.973 45.2098 702.783 44.7104 701.783C43.2369 697.973 37.2636 699.184 37.3145 703.25C37.7554 707.115 37.6245 735.021 37.3918 738.899C37.3673 739.373 37.3409 739.846 37.3145 740.321C37.3154 740.317 37.3164 740.312 37.3183 740.309C37.2419 741.232 37.3013 742.175 37.2203 743.128C37.2325 745.343 36.7473 747.603 37.1798 749.788C38.2633 753.238 41.7464 753.678 44.9375 753.45C60.5119 752.851 53.5 754.25 66.5835 753.466C68.4499 753.703 70.5274 753.796 71.9114 752.306C74.0275 750.312 73.5187 746.618 70.9806 745.196Z" fill="#DBDBDB"/>
<path d="M70.9806 823.196C69.5579 822.367 67.8347 822.58 66.25 822.388C51.1908 821.47 51.25 822.388 46.2386 822.388C46.2396 822.148 46.2527 821.908 46.249 821.669C46.2141 816.935 46.2301 793.25 45.7647 787.667C45.4463 784.248 45.4783 784.993 45.2588 783.054C45.0402 781.973 45.2098 780.783 44.7104 779.783C43.2369 775.973 37.2636 777.184 37.3145 781.25C37.7554 785.115 37.6245 813.021 37.3918 816.899C37.3673 817.373 37.3409 817.846 37.3145 818.321C37.3154 818.317 37.3164 818.312 37.3183 818.309C37.2419 819.232 37.3013 820.175 37.2203 821.128C37.2325 823.343 36.7473 825.603 37.1798 827.788C38.2633 831.238 41.7464 831.678 44.9375 831.45C60.5119 830.851 53.5 832.25 66.5835 831.466C68.4499 831.703 70.5274 831.796 71.9114 830.306C74.0275 828.312 73.5187 824.618 70.9806 823.196Z" fill="#DBDBDB"/>
<path d="M70.9806 901.196C69.5579 900.367 67.8347 900.58 66.25 900.388C51.1908 899.47 51.25 900.388 46.2386 900.388C46.2396 900.148 46.2527 899.908 46.249 899.669C46.2141 894.935 46.2301 871.25 45.7647 865.667C45.4463 862.248 45.4783 862.993 45.2588 861.053C45.0402 859.973 45.2098 858.783 44.7104 857.783C43.2369 853.973 37.2636 855.184 37.3145 859.25C37.7554 863.115 37.6245 891.021 37.3918 894.899C37.3673 895.373 37.3409 895.846 37.3145 896.321C37.3154 896.317 37.3164 896.312 37.3183 896.308C37.2419 897.232 37.3013 898.175 37.2203 899.128C37.2325 901.343 36.7473 903.603 37.1798 905.788C38.2633 909.238 41.7464 909.678 44.9375 909.45C60.5119 908.851 53.5 910.25 66.5835 909.466C68.4499 909.703 70.5274 909.796 71.9114 908.306C74.0275 906.312 73.5187 902.618 70.9806 901.196Z" fill="#DBDBDB"/>
<path d="M114.481 443.696C113.058 442.867 111.335 443.08 109.75 442.888C94.6908 441.97 94.75 442.888 89.7386 442.888C89.7396 442.648 89.7527 442.408 89.749 442.169C89.7141 437.435 89.7301 413.75 89.2647 408.167C88.9463 404.748 88.9783 405.493 88.7588 403.554C88.5402 402.473 88.7098 401.283 88.2104 400.283C86.7369 396.473 80.7636 397.684 80.8145 401.75C81.2554 405.615 81.1245 433.521 80.8918 437.399C80.8673 437.873 80.8409 438.346 80.8145 438.821C80.8154 438.817 80.8164 438.812 80.8183 438.809C80.7419 439.732 80.8013 440.675 80.7203 441.628C80.7325 443.843 80.2473 446.103 80.6798 448.288C81.7633 451.738 85.2464 452.178 88.4375 451.95C104.012 451.351 97 452.75 110.083 451.966C111.95 452.203 114.027 452.296 115.411 450.806C117.528 448.812 117.019 445.118 114.481 443.696Z" fill="#DBDBDB"/>
<path d="M114.481 515.696C113.058 514.867 111.335 515.08 109.75 514.888C94.6908 513.97 94.75 514.888 89.7386 514.888C89.7396 514.648 89.7527 514.408 89.749 514.169C89.7141 509.435 89.7301 485.75 89.2647 480.167C88.9463 476.748 88.9783 477.493 88.7588 475.554C88.5402 474.473 88.7098 473.283 88.2104 472.283C86.7369 468.473 80.7636 469.684 80.8145 473.75C81.2554 477.615 81.1245 505.521 80.8918 509.399C80.8673 509.873 80.8409 510.346 80.8145 510.821C80.8154 510.817 80.8164 510.812 80.8183 510.809C80.7419 511.732 80.8013 512.675 80.7203 513.628C80.7325 515.843 80.2473 518.103 80.6798 520.288C81.7633 523.738 85.2464 524.178 88.4375 523.95C104.012 523.351 97 524.75 110.083 523.966C111.95 524.203 114.027 524.296 115.411 522.806C117.528 520.812 117.019 517.118 114.481 515.696Z" fill="#DBDBDB"/>
<path d="M114.481 592.196C113.058 591.367 111.335 591.58 109.75 591.388C94.6908 590.47 94.75 591.388 89.7386 591.388C89.7396 591.148 89.7527 590.908 89.749 590.669C89.7141 585.935 89.7301 562.25 89.2647 556.667C88.9463 553.248 88.9783 553.993 88.7588 552.054C88.5402 550.973 88.7098 549.783 88.2104 548.783C86.7369 544.973 80.7636 546.184 80.8145 550.25C81.2554 554.115 81.1245 582.021 80.8918 585.899C80.8673 586.373 80.8409 586.846 80.8145 587.321C80.8154 587.317 80.8164 587.312 80.8183 587.309C80.7419 588.232 80.8013 589.175 80.7203 590.128C80.7325 592.343 80.2473 594.603 80.6798 596.788C81.7633 600.238 85.2464 600.678 88.4375 600.45C104.012 599.851 97 601.25 110.083 600.466C111.95 600.703 114.027 600.796 115.411 599.306C117.528 597.312 117.019 593.618 114.481 592.196Z" fill="#DBDBDB"/>
<path d="M114.481 668.696C113.058 667.867 111.335 668.08 109.75 667.888C94.6908 666.97 94.75 667.888 89.7386 667.888C89.7396 667.648 89.7527 667.408 89.749 667.169C89.7141 662.435 89.7301 638.75 89.2647 633.167C88.9463 629.748 88.9783 630.493 88.7588 628.554C88.5402 627.473 88.7098 626.283 88.2104 625.283C86.7369 621.473 80.7636 622.684 80.8145 626.75C81.2554 630.615 81.1245 658.521 80.8918 662.399C80.8673 662.873 80.8409 663.346 80.8145 663.821C80.8154 663.817 80.8164 663.812 80.8183 663.809C80.7419 664.732 80.8013 665.675 80.7203 666.628C80.7325 668.843 80.2473 671.103 80.6798 673.288C81.7633 676.738 85.2464 677.178 88.4375 676.95C104.012 676.351 97 677.75 110.083 676.966C111.95 677.203 114.027 677.296 115.411 675.806C117.528 673.812 117.019 670.118 114.481 668.696Z" fill="#DBDBDB"/>
<path d="M114.481 745.196C113.058 744.367 111.335 744.58 109.75 744.388C94.6908 743.47 94.75 744.388 89.7386 744.388C89.7396 744.148 89.7527 743.908 89.749 743.669C89.7141 738.935 89.7301 715.25 89.2647 709.667C88.9463 706.248 88.9783 706.993 88.7588 705.054C88.5402 703.973 88.7098 702.783 88.2104 701.783C86.7369 697.973 80.7636 699.184 80.8145 703.25C81.2554 707.115 81.1245 735.021 80.8918 738.899C80.8673 739.373 80.8409 739.846 80.8145 740.321C80.8154 740.317 80.8164 740.312 80.8183 740.309C80.7419 741.232 80.8013 742.175 80.7203 743.128C80.7325 745.343 80.2473 747.603 80.6798 749.788C81.7633 753.238 85.2464 753.678 88.4375 753.45C104.012 752.851 97 754.25 110.083 753.466C111.95 753.703 114.027 753.796 115.411 752.306C117.528 750.312 117.019 746.618 114.481 745.196Z" fill="#DBDBDB"/>
<path d="M114.481 823.196C113.058 822.367 111.335 822.58 109.75 822.388C94.6908 821.47 94.75 822.388 89.7386 822.388C89.7396 822.148 89.7527 821.908 89.749 821.669C89.7141 816.935 89.7301 793.25 89.2647 787.667C88.9463 784.248 88.9783 784.993 88.7588 783.054C88.5402 781.973 88.7098 780.783 88.2104 779.783C86.7369 775.973 80.7636 777.184 80.8145 781.25C81.2554 785.115 81.1245 813.021 80.8918 816.899C80.8673 817.373 80.8409 817.846 80.8145 818.321C80.8154 818.317 80.8164 818.312 80.8183 818.309C80.7419 819.232 80.8013 820.175 80.7203 821.128C80.7325 823.343 80.2473 825.603 80.6798 827.788C81.7633 831.238 85.2464 831.678 88.4375 831.45C104.012 830.851 97 832.25 110.083 831.466C111.95 831.703 114.027 831.796 115.411 830.306C117.528 828.312 117.019 824.618 114.481 823.196Z" fill="#DBDBDB"/>
<path d="M114.481 901.196C113.058 900.367 111.335 900.58 109.75 900.388C94.6908 899.47 94.75 900.388 89.7386 900.388C89.7396 900.148 89.7527 899.908 89.749 899.669C89.7141 894.935 89.7301 871.25 89.2647 865.667C88.9463 862.248 88.9783 862.993 88.7588 861.053C88.5402 859.973 88.7098 858.783 88.2104 857.783C86.7369 853.973 80.7636 855.184 80.8145 859.25C81.2554 863.115 81.1245 891.021 80.8918 894.899C80.8673 895.373 80.8409 895.846 80.8145 896.321C80.8154 896.317 80.8164 896.312 80.8183 896.308C80.7419 897.232 80.8013 898.175 80.7203 899.128C80.7325 901.343 80.2473 903.603 80.6798 905.788C81.7633 909.238 85.2464 909.678 88.4375 909.45C104.012 908.851 97 910.25 110.083 909.466C111.95 909.703 114.027 909.796 115.411 908.306C117.528 906.312 117.019 902.618 114.481 901.196Z" fill="#DBDBDB"/>
<path d="M159.481 443.696C158.058 442.867 156.335 443.08 154.75 442.888C139.691 441.97 139.75 442.888 134.739 442.888C134.74 442.648 134.753 442.408 134.749 442.169C134.714 437.435 134.73 413.75 134.265 408.167C133.946 404.748 133.978 405.493 133.759 403.554C133.54 402.473 133.71 401.283 133.21 400.283C131.737 396.473 125.764 397.684 125.814 401.75C126.255 405.615 126.124 433.521 125.892 437.399C125.867 437.873 125.841 438.346 125.814 438.821C125.815 438.817 125.816 438.812 125.818 438.809C125.742 439.732 125.801 440.675 125.72 441.628C125.733 443.843 125.247 446.103 125.68 448.288C126.763 451.738 130.246 452.178 133.437 451.95C149.012 451.351 142 452.75 155.083 451.966C156.95 452.203 159.027 452.296 160.411 450.806C162.528 448.812 162.019 445.118 159.481 443.696Z" fill="#DBDBDB"/>
<path d="M159.481 515.696C158.058 514.867 156.335 515.08 154.75 514.888C139.691 513.97 139.75 514.888 134.739 514.888C134.74 514.648 134.753 514.408 134.749 514.169C134.714 509.435 134.73 485.75 134.265 480.167C133.946 476.748 133.978 477.493 133.759 475.554C133.54 474.473 133.71 473.283 133.21 472.283C131.737 468.473 125.764 469.684 125.814 473.75C126.255 477.615 126.124 505.521 125.892 509.399C125.867 509.873 125.841 510.346 125.814 510.821C125.815 510.817 125.816 510.812 125.818 510.809C125.742 511.732 125.801 512.675 125.72 513.628C125.733 515.843 125.247 518.103 125.68 520.288C126.763 523.738 130.246 524.178 133.437 523.95C149.012 523.351 142 524.75 155.083 523.966C156.95 524.203 159.027 524.296 160.411 522.806C162.528 520.812 162.019 517.118 159.481 515.696Z" fill="#DBDBDB"/>
<path d="M159.481 592.196C158.058 591.367 156.335 591.58 154.75 591.388C139.691 590.47 139.75 591.388 134.739 591.388C134.74 591.148 134.753 590.908 134.749 590.669C134.714 585.935 134.73 562.25 134.265 556.667C133.946 553.248 133.978 553.993 133.759 552.054C133.54 550.973 133.71 549.783 133.21 548.783C131.737 544.973 125.764 546.184 125.814 550.25C126.255 554.115 126.124 582.021 125.892 585.899C125.867 586.373 125.841 586.846 125.814 587.321C125.815 587.317 125.816 587.312 125.818 587.309C125.742 588.232 125.801 589.175 125.72 590.128C125.733 592.343 125.247 594.603 125.68 596.788C126.763 600.238 130.246 600.678 133.437 600.45C149.012 599.851 142 601.25 155.083 600.466C156.95 600.703 159.027 600.796 160.411 599.306C162.528 597.312 162.019 593.618 159.481 592.196Z" fill="#DBDBDB"/>
<path d="M159.481 668.696C158.058 667.867 156.335 668.08 154.75 667.888C139.691 666.97 139.75 667.888 134.739 667.888C134.74 667.648 134.753 667.408 134.749 667.169C134.714 662.435 134.73 638.75 134.265 633.167C133.946 629.748 133.978 630.493 133.759 628.554C133.54 627.473 133.71 626.283 133.21 625.283C131.737 621.473 125.764 622.684 125.814 626.75C126.255 630.615 126.124 658.521 125.892 662.399C125.867 662.873 125.841 663.346 125.814 663.821C125.815 663.817 125.816 663.812 125.818 663.809C125.742 664.732 125.801 665.675 125.72 666.628C125.733 668.843 125.247 671.103 125.68 673.288C126.763 676.738 130.246 677.178 133.437 676.95C149.012 676.351 142 677.75 155.083 676.966C156.95 677.203 159.027 677.296 160.411 675.806C162.528 673.812 162.019 670.118 159.481 668.696Z" fill="#DBDBDB"/>
<path d="M159.481 745.196C158.058 744.367 156.335 744.58 154.75 744.388C139.691 743.47 139.75 744.388 134.739 744.388C134.74 744.148 134.753 743.908 134.749 743.669C134.714 738.935 134.73 715.25 134.265 709.667C133.946 706.248 133.978 706.993 133.759 705.054C133.54 703.973 133.71 702.783 133.21 701.783C131.737 697.973 125.764 699.184 125.814 703.25C126.255 707.115 126.124 735.021 125.892 738.899C125.867 739.373 125.841 739.846 125.814 740.321C125.815 740.317 125.816 740.312 125.818 740.309C125.742 741.232 125.801 742.175 125.72 743.128C125.733 745.343 125.247 747.603 125.68 749.788C126.763 753.238 130.246 753.678 133.437 753.45C149.012 752.851 142 754.25 155.083 753.466C156.95 753.703 159.027 753.796 160.411 752.306C162.528 750.312 162.019 746.618 159.481 745.196Z" fill="#DBDBDB"/>
<path d="M159.481 823.196C158.058 822.367 156.335 822.58 154.75 822.388C139.691 821.47 139.75 822.388 134.739 822.388C134.74 822.148 134.753 821.908 134.749 821.669C134.714 816.935 134.73 793.25 134.265 787.667C133.946 784.248 133.978 784.993 133.759 783.054C133.54 781.973 133.71 780.783 133.21 779.783C131.737 775.973 125.764 777.184 125.814 781.25C126.255 785.115 126.124 813.021 125.892 816.899C125.867 817.373 125.841 817.846 125.814 818.321C125.815 818.317 125.816 818.312 125.818 818.309C125.742 819.232 125.801 820.175 125.72 821.128C125.733 823.343 125.247 825.603 125.68 827.788C126.763 831.238 130.246 831.678 133.437 831.45C149.012 830.851 142 832.25 155.083 831.466C156.95 831.703 159.027 831.796 160.411 830.306C162.528 828.312 162.019 824.618 159.481 823.196Z" fill="#DBDBDB"/>
<path d="M159.481 901.196C158.058 900.367 156.335 900.58 154.75 900.388C139.691 899.47 139.75 900.388 134.739 900.388C134.74 900.148 134.753 899.908 134.749 899.669C134.714 894.935 134.73 871.25 134.265 865.667C133.946 862.248 133.978 862.993 133.759 861.053C133.54 859.973 133.71 858.783 133.21 857.783C131.737 853.973 125.764 855.184 125.814 859.25C126.255 863.115 126.124 891.021 125.892 894.899C125.867 895.373 125.841 895.846 125.814 896.321C125.815 896.317 125.816 896.312 125.818 896.308C125.742 897.232 125.801 898.175 125.72 899.128C125.733 901.343 125.247 903.603 125.68 905.788C126.763 909.238 130.246 909.678 133.437 909.45C149.012 908.851 142 910.25 155.083 909.466C156.95 909.703 159.027 909.796 160.411 908.306C162.528 906.312 162.019 902.618 159.481 901.196Z" fill="#DBDBDB"/>
<path d="M205.981 443.696C204.558 442.867 202.835 443.08 201.25 442.888C186.191 441.97 186.25 442.888 181.239 442.888C181.24 442.648 181.253 442.408 181.249 442.169C181.214 437.435 181.23 413.75 180.765 408.167C180.446 404.748 180.478 405.493 180.259 403.554C180.04 402.473 180.21 401.283 179.71 400.283C178.237 396.473 172.264 397.684 172.314 401.75C172.755 405.615 172.624 433.521 172.392 437.399C172.367 437.873 172.341 438.346 172.314 438.821C172.315 438.817 172.316 438.812 172.318 438.809C172.242 439.732 172.301 440.675 172.22 441.628C172.233 443.843 171.747 446.103 172.18 448.288C173.263 451.738 176.746 452.178 179.937 451.95C195.512 451.351 188.5 452.75 201.583 451.966C203.45 452.203 205.527 452.296 206.911 450.806C209.028 448.812 208.519 445.118 205.981 443.696Z" fill="#DBDBDB"/>
<path d="M205.981 515.696C204.558 514.867 202.835 515.08 201.25 514.888C186.191 513.97 186.25 514.888 181.239 514.888C181.24 514.648 181.253 514.408 181.249 514.169C181.214 509.435 181.23 485.75 180.765 480.167C180.446 476.748 180.478 477.493 180.259 475.554C180.04 474.473 180.21 473.283 179.71 472.283C178.237 468.473 172.264 469.684 172.314 473.75C172.755 477.615 172.624 505.521 172.392 509.399C172.367 509.873 172.341 510.346 172.314 510.821C172.315 510.817 172.316 510.812 172.318 510.809C172.242 511.732 172.301 512.675 172.22 513.628C172.233 515.843 171.747 518.103 172.18 520.288C173.263 523.738 176.746 524.178 179.937 523.95C195.512 523.351 188.5 524.75 201.583 523.966C203.45 524.203 205.527 524.296 206.911 522.806C209.028 520.812 208.519 517.118 205.981 515.696Z" fill="#DBDBDB"/>
<path d="M205.981 592.196C204.558 591.367 202.835 591.58 201.25 591.388C186.191 590.47 186.25 591.388 181.239 591.388C181.24 591.148 181.253 590.908 181.249 590.669C181.214 585.935 181.23 562.25 180.765 556.667C180.446 553.248 180.478 553.993 180.259 552.054C180.04 550.973 180.21 549.783 179.71 548.783C178.237 544.973 172.264 546.184 172.314 550.25C172.755 554.115 172.624 582.021 172.392 585.899C172.367 586.373 172.341 586.846 172.314 587.321C172.315 587.317 172.316 587.312 172.318 587.309C172.242 588.232 172.301 589.175 172.22 590.128C172.233 592.343 171.747 594.603 172.18 596.788C173.263 600.238 176.746 600.678 179.937 600.45C195.512 599.851 188.5 601.25 201.583 600.466C203.45 600.703 205.527 600.796 206.911 599.306C209.028 597.312 208.519 593.618 205.981 592.196Z" fill="#DBDBDB"/>
<path d="M205.981 668.696C204.558 667.867 202.835 668.08 201.25 667.888C186.191 666.97 186.25 667.888 181.239 667.888C181.24 667.648 181.253 667.408 181.249 667.169C181.214 662.435 181.23 638.75 180.765 633.167C180.446 629.748 180.478 630.493 180.259 628.554C180.04 627.473 180.21 626.283 179.71 625.283C178.237 621.473 172.264 622.684 172.314 626.75C172.755 630.615 172.624 658.521 172.392 662.399C172.367 662.873 172.341 663.346 172.314 663.821C172.315 663.817 172.316 663.812 172.318 663.809C172.242 664.732 172.301 665.675 172.22 666.628C172.233 668.843 171.747 671.103 172.18 673.288C173.263 676.738 176.746 677.178 179.937 676.95C195.512 676.351 188.5 677.75 201.583 676.966C203.45 677.203 205.527 677.296 206.911 675.806C209.028 673.812 208.519 670.118 205.981 668.696Z" fill="#DBDBDB"/>
<path d="M205.981 745.196C204.558 744.367 202.835 744.58 201.25 744.388C186.191 743.47 186.25 744.388 181.239 744.388C181.24 744.148 181.253 743.908 181.249 743.669C181.214 738.935 181.23 715.25 180.765 709.667C180.446 706.248 180.478 706.993 180.259 705.054C180.04 703.973 180.21 702.783 179.71 701.783C178.237 697.973 172.264 699.184 172.314 703.25C172.755 707.115 172.624 735.021 172.392 738.899C172.367 739.373 172.341 739.846 172.314 740.321C172.315 740.317 172.316 740.312 172.318 740.309C172.242 741.232 172.301 742.175 172.22 743.128C172.233 745.343 171.747 747.603 172.18 749.788C173.263 753.238 176.746 753.678 179.937 753.45C195.512 752.851 188.5 754.25 201.583 753.466C203.45 753.703 205.527 753.796 206.911 752.306C209.028 750.312 208.519 746.618 205.981 745.196Z" fill="#DBDBDB"/>
<path d="M205.981 823.196C204.558 822.367 202.835 822.58 201.25 822.388C186.191 821.47 186.25 822.388 181.239 822.388C181.24 822.148 181.253 821.908 181.249 821.669C181.214 816.935 181.23 793.25 180.765 787.667C180.446 784.248 180.478 784.993 180.259 783.054C180.04 781.973 180.21 780.783 179.71 779.783C178.237 775.973 172.264 777.184 172.314 781.25C172.755 785.115 172.624 813.021 172.392 816.899C172.367 817.373 172.341 817.846 172.314 818.321C172.315 818.317 172.316 818.312 172.318 818.309C172.242 819.232 172.301 820.175 172.22 821.128C172.233 823.343 171.747 825.603 172.18 827.788C173.263 831.238 176.746 831.678 179.937 831.45C195.512 830.851 188.5 832.25 201.583 831.466C203.45 831.703 205.527 831.796 206.911 830.306C209.028 828.312 208.519 824.618 205.981 823.196Z" fill="#DBDBDB"/>
<path d="M205.981 901.196C204.558 900.367 202.835 900.58 201.25 900.388C186.191 899.47 186.25 900.388 181.239 900.388C181.24 900.148 181.253 899.908 181.249 899.669C181.214 894.935 181.23 871.25 180.765 865.667C180.446 862.248 180.478 862.993 180.259 861.053C180.04 859.973 180.21 858.783 179.71 857.783C178.237 853.973 172.264 855.184 172.314 859.25C172.755 863.115 172.624 891.021 172.392 894.899C172.367 895.373 172.341 895.846 172.314 896.321C172.315 896.317 172.316 896.312 172.318 896.308C172.242 897.232 172.301 898.175 172.22 899.128C172.233 901.343 171.747 903.603 172.18 905.788C173.263 909.238 176.746 909.678 179.937 909.45C195.512 908.851 188.5 910.25 201.583 909.466C203.45 909.703 205.527 909.796 206.911 908.306C209.028 906.312 208.519 902.618 205.981 901.196Z" fill="#DBDBDB"/>
<path d="M253.981 445.196C252.558 444.367 250.835 444.58 249.25 444.388C234.191 443.47 234.25 444.388 229.239 444.388C229.24 444.148 229.253 443.908 229.249 443.669C229.214 438.935 229.23 415.25 228.765 409.667C228.446 406.248 228.478 406.993 228.259 405.054C228.04 403.973 228.21 402.783 227.71 401.783C226.237 397.973 220.264 399.184 220.314 403.25C220.755 407.115 220.624 435.021 220.392 438.899C220.367 439.373 220.341 439.846 220.314 440.321C220.315 440.317 220.316 440.312 220.318 440.309C220.242 441.232 220.301 442.175 220.22 443.128C220.233 445.343 219.747 447.603 220.18 449.788C221.263 453.238 224.746 453.678 227.937 453.45C243.512 452.851 236.5 454.25 249.583 453.466C251.45 453.703 253.527 453.796 254.911 452.306C257.028 450.312 256.519 446.618 253.981 445.196Z" fill="#DBDBDB"/>
<path d="M253.981 517.196C252.558 516.367 250.835 516.58 249.25 516.388C234.191 515.47 234.25 516.388 229.239 516.388C229.24 516.148 229.253 515.908 229.249 515.669C229.214 510.935 229.23 487.25 228.765 481.667C228.446 478.248 228.478 478.993 228.259 477.054C228.04 475.973 228.21 474.783 227.71 473.783C226.237 469.973 220.264 471.184 220.314 475.25C220.755 479.115 220.624 507.021 220.392 510.899C220.367 511.373 220.341 511.846 220.314 512.321C220.315 512.317 220.316 512.312 220.318 512.309C220.242 513.232 220.301 514.175 220.22 515.128C220.233 517.343 219.747 519.603 220.18 521.788C221.263 525.238 224.746 525.678 227.937 525.45C243.512 524.851 236.5 526.25 249.583 525.466C251.45 525.703 253.527 525.796 254.911 524.306C257.028 522.312 256.519 518.618 253.981 517.196Z" fill="#DBDBDB"/>
<path d="M253.981 593.696C252.558 592.867 250.835 593.08 249.25 592.888C234.191 591.97 234.25 592.888 229.239 592.888C229.24 592.648 229.253 592.408 229.249 592.169C229.214 587.435 229.23 563.75 228.765 558.167C228.446 554.748 228.478 555.493 228.259 553.554C228.04 552.473 228.21 551.283 227.71 550.283C226.237 546.473 220.264 547.684 220.314 551.75C220.755 555.615 220.624 583.521 220.392 587.399C220.367 587.873 220.341 588.346 220.314 588.821C220.315 588.817 220.316 588.812 220.318 588.809C220.242 589.732 220.301 590.675 220.22 591.628C220.233 593.843 219.747 596.103 220.18 598.288C221.263 601.738 224.746 602.178 227.937 601.95C243.512 601.351 236.5 602.75 249.583 601.966C251.45 602.203 253.527 602.296 254.911 600.806C257.028 598.812 256.519 595.118 253.981 593.696Z" fill="#DBDBDB"/>
<path d="M253.981 670.196C252.558 669.367 250.835 669.58 249.25 669.388C234.191 668.47 234.25 669.388 229.239 669.388C229.24 669.148 229.253 668.908 229.249 668.669C229.214 663.935 229.23 640.25 228.765 634.667C228.446 631.248 228.478 631.993 228.259 630.054C228.04 628.973 228.21 627.783 227.71 626.783C226.237 622.973 220.264 624.184 220.314 628.25C220.755 632.115 220.624 660.021 220.392 663.899C220.367 664.373 220.341 664.846 220.314 665.321C220.315 665.317 220.316 665.312 220.318 665.309C220.242 666.232 220.301 667.175 220.22 668.128C220.233 670.343 219.747 672.603 220.18 674.788C221.263 678.238 224.746 678.678 227.937 678.45C243.512 677.851 236.5 679.25 249.583 678.466C251.45 678.703 253.527 678.796 254.911 677.306C257.028 675.312 256.519 671.618 253.981 670.196Z" fill="#DBDBDB"/>
<path d="M253.981 746.696C252.558 745.867 250.835 746.08 249.25 745.888C234.191 744.97 234.25 745.888 229.239 745.888C229.24 745.648 229.253 745.408 229.249 745.169C229.214 740.435 229.23 716.75 228.765 711.167C228.446 707.748 228.478 708.493 228.259 706.554C228.04 705.473 228.21 704.283 227.71 703.283C226.237 699.473 220.264 700.684 220.314 704.75C220.755 708.615 220.624 736.521 220.392 740.399C220.367 740.873 220.341 741.346 220.314 741.821C220.315 741.817 220.316 741.812 220.318 741.809C220.242 742.732 220.301 743.675 220.22 744.628C220.233 746.843 219.747 749.103 220.18 751.288C221.263 754.738 224.746 755.178 227.937 754.95C243.512 754.351 236.5 755.75 249.583 754.966C251.45 755.203 253.527 755.296 254.911 753.806C257.028 751.812 256.519 748.118 253.981 746.696Z" fill="#DBDBDB"/>
<path d="M253.981 824.696C252.558 823.867 250.835 824.08 249.25 823.888C234.191 822.97 234.25 823.888 229.239 823.888C229.24 823.648 229.253 823.408 229.249 823.169C229.214 818.435 229.23 794.75 228.765 789.167C228.446 785.748 228.478 786.493 228.259 784.554C228.04 783.473 228.21 782.283 227.71 781.283C226.237 777.473 220.264 778.684 220.314 782.75C220.755 786.615 220.624 814.521 220.392 818.399C220.367 818.873 220.341 819.346 220.314 819.821C220.315 819.817 220.316 819.812 220.318 819.809C220.242 820.732 220.301 821.675 220.22 822.628C220.233 824.843 219.747 827.103 220.18 829.288C221.263 832.738 224.746 833.178 227.937 832.95C243.512 832.351 236.5 833.75 249.583 832.966C251.45 833.203 253.527 833.296 254.911 831.806C257.028 829.812 256.519 826.118 253.981 824.696Z" fill="#DBDBDB"/>
<path d="M253.981 902.696C252.558 901.867 250.835 902.08 249.25 901.888C234.191 900.97 234.25 901.888 229.239 901.888C229.24 901.648 229.253 901.408 229.249 901.169C229.214 896.435 229.23 872.75 228.765 867.167C228.446 863.748 228.478 864.493 228.259 862.553C228.04 861.473 228.21 860.283 227.71 859.283C226.237 855.473 220.264 856.684 220.314 860.75C220.755 864.615 220.624 892.521 220.392 896.399C220.367 896.873 220.341 897.346 220.314 897.821C220.315 897.817 220.316 897.812 220.318 897.808C220.242 898.732 220.301 899.675 220.22 900.628C220.233 902.843 219.747 905.103 220.18 907.288C221.263 910.738 224.746 911.178 227.937 910.95C243.512 910.351 236.5 911.75 249.583 910.966C251.45 911.203 253.527 911.296 254.911 909.806C257.028 907.812 256.519 904.118 253.981 902.696Z" fill="#DBDBDB"/>
<path d="M301.981 446.696C300.558 445.867 298.835 446.08 297.25 445.888C282.191 444.97 282.25 445.888 277.239 445.888C277.24 445.648 277.253 445.408 277.249 445.169C277.214 440.435 277.23 416.75 276.765 411.167C276.446 407.748 276.478 408.493 276.259 406.554C276.04 405.473 276.21 404.283 275.71 403.283C274.237 399.473 268.264 400.684 268.314 404.75C268.755 408.615 268.624 436.521 268.392 440.399C268.367 440.873 268.341 441.346 268.314 441.821C268.315 441.817 268.316 441.812 268.318 441.809C268.242 442.732 268.301 443.675 268.22 444.628C268.233 446.843 267.747 449.103 268.18 451.288C269.263 454.738 272.746 455.178 275.937 454.95C291.512 454.351 284.5 455.75 297.583 454.966C299.45 455.203 301.527 455.296 302.911 453.806C305.028 451.812 304.519 448.118 301.981 446.696Z" fill="#DBDBDB"/>
<path d="M301.981 518.696C300.558 517.867 298.835 518.08 297.25 517.888C282.191 516.97 282.25 517.888 277.239 517.888C277.24 517.648 277.253 517.408 277.249 517.169C277.214 512.435 277.23 488.75 276.765 483.167C276.446 479.748 276.478 480.493 276.259 478.554C276.04 477.473 276.21 476.283 275.71 475.283C274.237 471.473 268.264 472.684 268.314 476.75C268.755 480.615 268.624 508.521 268.392 512.399C268.367 512.873 268.341 513.346 268.314 513.821C268.315 513.817 268.316 513.812 268.318 513.809C268.242 514.732 268.301 515.675 268.22 516.628C268.233 518.843 267.747 521.103 268.18 523.288C269.263 526.738 272.746 527.178 275.937 526.95C291.512 526.351 284.5 527.75 297.583 526.966C299.45 527.203 301.527 527.296 302.911 525.806C305.028 523.812 304.519 520.118 301.981 518.696Z" fill="#DBDBDB"/>
<path d="M301.981 595.196C300.558 594.367 298.835 594.58 297.25 594.388C282.191 593.47 282.25 594.388 277.239 594.388C277.24 594.148 277.253 593.908 277.249 593.669C277.214 588.935 277.23 565.25 276.765 559.667C276.446 556.248 276.478 556.993 276.259 555.054C276.04 553.973 276.21 552.783 275.71 551.783C274.237 547.973 268.264 549.184 268.314 553.25C268.755 557.115 268.624 585.021 268.392 588.899C268.367 589.373 268.341 589.846 268.314 590.321C268.315 590.317 268.316 590.312 268.318 590.309C268.242 591.232 268.301 592.175 268.22 593.128C268.233 595.343 267.747 597.603 268.18 599.788C269.263 603.238 272.746 603.678 275.937 603.45C291.512 602.851 284.5 604.25 297.583 603.466C299.45 603.703 301.527 603.796 302.911 602.306C305.028 600.312 304.519 596.618 301.981 595.196Z" fill="#DBDBDB"/>
<path d="M301.981 671.696C300.558 670.867 298.835 671.08 297.25 670.888C282.191 669.97 282.25 670.888 277.239 670.888C277.24 670.648 277.253 670.408 277.249 670.169C277.214 665.435 277.23 641.75 276.765 636.167C276.446 632.748 276.478 633.493 276.259 631.554C276.04 630.473 276.21 629.283 275.71 628.283C274.237 624.473 268.264 625.684 268.314 629.75C268.755 633.615 268.624 661.521 268.392 665.399C268.367 665.873 268.341 666.346 268.314 666.821C268.315 666.817 268.316 666.812 268.318 666.809C268.242 667.732 268.301 668.675 268.22 669.628C268.233 671.843 267.747 674.103 268.18 676.288C269.263 679.738 272.746 680.178 275.937 679.95C291.512 679.351 284.5 680.75 297.583 679.966C299.45 680.203 301.527 680.296 302.911 678.806C305.028 676.812 304.519 673.118 301.981 671.696Z" fill="#DBDBDB"/>
<path d="M301.981 748.196C300.558 747.367 298.835 747.58 297.25 747.388C282.191 746.47 282.25 747.388 277.239 747.388C277.24 747.148 277.253 746.908 277.249 746.669C277.214 741.935 277.23 718.25 276.765 712.667C276.446 709.248 276.478 709.993 276.259 708.054C276.04 706.973 276.21 705.783 275.71 704.783C274.237 700.973 268.264 702.184 268.314 706.25C268.755 710.115 268.624 738.021 268.392 741.899C268.367 742.373 268.341 742.846 268.314 743.321C268.315 743.317 268.316 743.312 268.318 743.309C268.242 744.232 268.301 745.175 268.22 746.128C268.233 748.343 267.747 750.603 268.18 752.788C269.263 756.238 272.746 756.678 275.937 756.45C291.512 755.851 284.5 757.25 297.583 756.466C299.45 756.703 301.527 756.796 302.911 755.306C305.028 753.312 304.519 749.618 301.981 748.196Z" fill="#DBDBDB"/>
<path d="M301.981 826.196C300.558 825.367 298.835 825.58 297.25 825.388C282.191 824.47 282.25 825.388 277.239 825.388C277.24 825.148 277.253 824.908 277.249 824.669C277.214 819.935 277.23 796.25 276.765 790.667C276.446 787.248 276.478 787.993 276.259 786.054C276.04 784.973 276.21 783.783 275.71 782.783C274.237 778.973 268.264 780.184 268.314 784.25C268.755 788.115 268.624 816.021 268.392 819.899C268.367 820.373 268.341 820.846 268.314 821.321C268.315 821.317 268.316 821.312 268.318 821.309C268.242 822.232 268.301 823.175 268.22 824.128C268.233 826.343 267.747 828.603 268.18 830.788C269.263 834.238 272.746 834.678 275.937 834.45C291.512 833.851 284.5 835.25 297.583 834.466C299.45 834.703 301.527 834.796 302.911 833.306C305.028 831.312 304.519 827.618 301.981 826.196Z" fill="#DBDBDB"/>
<path d="M301.981 904.196C300.558 903.367 298.835 903.58 297.25 903.388C282.191 902.47 282.25 903.388 277.239 903.388C277.24 903.148 277.253 902.908 277.249 902.669C277.214 897.935 277.23 874.25 276.765 868.667C276.446 865.248 276.478 865.993 276.259 864.053C276.04 862.973 276.21 861.783 275.71 860.783C274.237 856.973 268.264 858.184 268.314 862.25C268.755 866.115 268.624 894.021 268.392 897.899C268.367 898.373 268.341 898.846 268.314 899.321C268.315 899.317 268.316 899.312 268.318 899.308C268.242 900.232 268.301 901.175 268.22 902.128C268.233 904.343 267.747 906.603 268.18 908.788C269.263 912.238 272.746 912.678 275.937 912.45C291.512 911.851 284.5 913.25 297.583 912.466C299.45 912.703 301.527 912.796 302.911 911.306C305.028 909.312 304.519 905.618 301.981 904.196Z" fill="#DBDBDB"/>
<path d="M36.3445 396.157C36.253 415.359 36.1615 434.559 36.0715 453.76C48.154 453.931 58.0825 454.104 70.165 454.275C70.165 446.982 71.059 405.189 70.516 396.49C58.9345 396.54 51.298 396.156 36.346 396.156L36.3445 396.157Z" stroke="#151515" stroke-width="6" stroke-linecap="round" stroke-linejoin="round"/>
<path d="M81.0926 396.157C81.0011 415.359 80.9096 434.559 80.8196 453.76C92.9021 453.931 102.831 454.104 114.913 454.275C114.913 446.982 115.807 405.189 115.264 396.49C103.683 396.54 96.0461 396.156 81.0941 396.156L81.0926 396.157Z" stroke="#151515" stroke-width="6" stroke-linecap="round" stroke-linejoin="round"/>
<path d="M126.278 396.157C126.187 415.359 126.095 434.559 126.005 453.76C138.088 453.931 148.016 454.104 160.099 454.275C160.099 446.982 160.993 405.189 160.45 396.49C148.868 396.54 141.232 396.156 126.28 396.156L126.278 396.157Z" stroke="#151515" stroke-width="6" stroke-linecap="round" stroke-linejoin="round"/>
<path d="M173.92 396.157C173.828 415.359 173.737 434.559 173.647 453.76C185.729 453.931 195.658 454.104 207.74 454.275C207.74 446.982 208.634 405.189 208.091 396.49C196.51 396.54 188.873 396.156 173.921 396.156L173.92 396.157Z" stroke="#151515" stroke-width="6" stroke-linecap="round" stroke-linejoin="round"/>
<path d="M36.3445 468.385C36.253 487.587 36.1615 506.787 36.0715 525.988C48.154 526.159 58.0825 526.332 70.165 526.503C70.165 519.21 71.059 477.417 70.516 468.718C58.9345 468.768 51.298 468.384 36.346 468.384L36.3445 468.385Z" stroke="#151515" stroke-width="6" stroke-linecap="round" stroke-linejoin="round"/>
<path d="M81.0926 468.385C81.0011 487.587 80.9096 506.787 80.8196 525.988C92.9021 526.159 102.831 526.332 114.913 526.503C114.913 519.21 115.807 477.417 115.264 468.718C103.683 468.768 96.0461 468.384 81.0941 468.384L81.0926 468.385Z" stroke="#151515" stroke-width="6" stroke-linecap="round" stroke-linejoin="round"/>
<path d="M126.278 468.385C126.187 487.587 126.095 506.787 126.005 525.988C138.088 526.159 148.016 526.332 160.099 526.503C160.099 519.21 160.993 477.417 160.45 468.718C148.868 468.768 141.232 468.384 126.28 468.384L126.278 468.385Z" stroke="#151515" stroke-width="6" stroke-linecap="round" stroke-linejoin="round"/>
<path d="M173.92 468.385C173.828 487.587 173.737 506.787 173.647 525.988C185.729 526.159 195.658 526.332 207.74 526.503C207.74 519.21 208.634 477.417 208.091 468.718C196.51 468.768 188.873 468.384 173.921 468.384L173.92 468.385Z" stroke="#151515" stroke-width="6" stroke-linecap="round" stroke-linejoin="round"/>
<path d="M36.3445 468.385C36.253 487.587 36.1615 506.787 36.0715 525.988C48.154 526.159 58.0825 526.332 70.165 526.503C70.165 519.21 71.059 477.417 70.516 468.718C58.9345 468.768 51.298 468.384 36.346 468.384L36.3445 468.385Z" stroke="#151515" stroke-width="6" stroke-linecap="round" stroke-linejoin="round"/>
<path d="M81.0926 468.385C81.0011 487.587 80.9096 506.787 80.8196 525.988C92.9021 526.159 102.831 526.332 114.913 526.503C114.913 519.21 115.807 477.417 115.264 468.718C103.683 468.768 96.0461 468.384 81.0941 468.384L81.0926 468.385Z" stroke="#151515" stroke-width="6" stroke-linecap="round" stroke-linejoin="round"/>
<path d="M98.7401 309.634C97.1831 308.101 94.9894 308.432 92.965 308.56C91.1756 308.638 89.3835 308.697 87.5915 308.694C81.6209 308.62 75.6566 308.182 69.6816 308.369C70.2359 264.696 70.2359 258.335 70.9428 207.562C70.733 205.991 70.4862 204.424 70.2359 202.859C70.0783 201.881 70.0296 200.801 69.248 200.064C66.9588 197.007 61.5907 198.758 61.6691 202.497C62.4984 209.52 60.8523 301.137 61.0108 308.207C61.1333 310.169 60.6686 312.268 61.6691 314.077C63.635 317.425 68.1998 316.559 71.5967 316.712C83.0803 317.203 67.025 316.521 78.4195 316.72C82.8501 316.882 87.2844 317.129 91.7186 316.919C93.5674 316.721 95.59 317.041 97.3263 316.369C100.181 315.448 100.905 311.554 98.7401 309.634Z" fill="#DBDBDB"/>
<path d="M126.278 468.385C126.187 487.587 126.095 506.787 126.005 525.988C138.088 526.159 148.016 526.332 160.099 526.503C160.099 519.21 160.993 477.417 160.45 468.718C148.868 468.768 141.232 468.384 126.28 468.384L126.278 468.385Z" stroke="#151515" stroke-width="6" stroke-linecap="round" stroke-linejoin="round"/>
<path d="M149.74 309.634C148.183 308.101 145.989 308.432 143.965 308.56C142.176 308.638 140.384 308.697 138.591 308.694C132.621 308.62 126.657 308.182 120.682 308.369C121.236 264.696 121.236 258.335 121.943 207.562C121.733 205.991 121.486 204.424 121.236 202.859C121.078 201.881 121.03 200.801 120.248 200.064C117.959 197.007 112.591 198.758 112.669 202.497C113.498 209.52 111.852 301.137 112.011 308.207C112.133 310.169 111.669 312.268 112.669 314.077C114.635 317.425 119.2 316.559 122.597 316.712C134.08 317.203 118.025 316.521 129.419 316.72C133.85 316.882 138.284 317.129 142.719 316.919C144.567 316.721 146.59 317.041 148.326 316.369C151.181 315.448 151.905 311.554 149.74 309.634Z" fill="#DBDBDB"/>
<path d="M173.92 468.385C173.828 487.587 173.737 506.787 173.647 525.988C185.729 526.159 195.658 526.332 207.74 526.503C207.74 519.21 208.634 477.417 208.091 468.718C196.51 468.768 188.873 468.384 173.921 468.384L173.92 468.385Z" stroke="#151515" stroke-width="6" stroke-linecap="round" stroke-linejoin="round"/>
<path d="M203.74 309.634C202.183 308.101 199.989 308.432 197.965 308.56C196.176 308.638 194.384 308.697 192.591 308.694C186.621 308.62 180.657 308.182 174.682 308.369C175.236 264.696 175.236 258.335 175.943 207.562C175.733 205.991 175.486 204.424 175.236 202.859C175.078 201.881 175.03 200.801 174.248 200.064C171.959 197.007 166.591 198.758 166.669 202.497C167.498 209.52 165.852 301.137 166.011 308.207C166.133 310.169 165.669 312.268 166.669 314.077C168.635 317.425 173.2 316.559 176.597 316.712C188.08 317.203 172.025 316.521 183.419 316.72C187.85 316.882 192.284 317.129 196.719 316.919C198.567 316.721 200.59 317.041 202.326 316.369C205.181 315.448 205.905 311.554 203.74 309.634Z" fill="#DBDBDB"/>
<path d="M62.6753 196.263C62.5748 236.979 62.4743 277.695 62.3723 318.411C75.7328 318.775 86.7113 319.138 100.073 319.503C100.073 304.038 101.062 215.416 100.462 196.971C87.6548 197.077 79.2098 196.263 62.6753 196.263Z" stroke="#151515" stroke-width="6" stroke-linecap="round" stroke-linejoin="round"/>
<path d="M257.789 309.634C256.291 308.101 254.182 308.432 252.236 308.56C250.515 308.638 248.792 308.697 247.069 308.694C241.328 308.62 235.593 308.182 229.848 308.369C230.381 264.696 230.381 258.335 231.06 207.562C230.859 205.991 230.621 204.424 230.381 202.859C230.229 201.881 230.182 200.801 229.431 200.064C227.23 197.007 222.068 198.758 222.143 202.497C222.941 209.52 221.358 301.137 221.51 308.207C221.628 310.169 221.181 312.268 222.143 314.077C224.034 317.425 228.423 316.559 231.689 316.712C242.731 317.203 227.293 316.521 238.25 316.72C242.51 316.882 246.773 317.129 251.037 316.919C252.815 316.721 254.76 317.041 256.429 316.369C259.174 315.448 259.87 311.554 257.789 309.634Z" fill="#DBDBDB"/>
<path d="M112.643 196.263C112.543 236.979 112.442 277.695 112.34 318.411C125.701 318.775 136.679 319.138 150.041 319.503C150.041 304.038 151.03 215.416 150.43 196.971C137.623 197.077 129.178 196.263 112.643 196.263Z" stroke="#151515" stroke-width="6" stroke-linecap="round" stroke-linejoin="round"/>
<path d="M165.326 196.263C165.226 236.979 165.125 277.695 165.023 318.411C178.384 318.775 189.362 319.138 202.724 319.503C202.724 304.038 203.713 215.416 203.113 196.971C190.306 197.077 181.861 196.263 165.326 196.263Z" stroke="#151515" stroke-width="6" stroke-linecap="round" stroke-linejoin="round"/>
<path d="M220.894 196.263C220.793 236.979 220.693 277.695 220.591 318.411C233.951 318.775 244.93 319.138 258.292 319.503C258.292 304.038 259.28 215.416 258.68 196.971C245.873 197.077 237.428 196.263 220.894 196.263Z" stroke="#151515" stroke-width="6" stroke-linecap="round" stroke-linejoin="round"/>
<path d="M98.749 165.184C97.2028 163.558 95.0245 163.908 93.0143 164.044C91.2374 164.127 89.4579 164.189 87.6784 164.187C81.7497 164.108 75.8272 163.643 69.894 163.841C70.4444 117.5 70.4444 110.75 71.1463 56.8749C70.938 55.2077 70.693 53.545 70.4444 51.884C70.2879 50.8466 70.2396 49.7008 69.4634 48.9191C67.1903 45.675 61.8598 47.5329 61.9376 51.5C62.7611 58.9525 61.1266 156.167 61.284 163.67C61.4056 165.752 60.9441 167.979 61.9376 169.899C63.8897 173.451 68.4226 172.532 71.7956 172.694C83.1988 173.215 67.256 172.491 78.5707 172.703C82.9703 172.874 87.3735 173.137 91.7767 172.914C93.6125 172.704 95.6209 173.043 97.345 172.33C100.18 171.353 100.899 167.221 98.749 165.184Z" fill="#DBDBDB"/>
<path d="M149.476 165.184C147.93 163.558 145.751 163.908 143.741 164.044C141.964 164.127 140.185 164.189 138.405 164.187C132.476 164.108 126.554 163.643 120.621 163.841C121.171 117.5 121.171 110.75 121.873 56.8749C121.665 55.2077 121.42 53.545 121.171 51.884C121.015 50.8466 120.966 49.7008 120.19 48.9191C117.917 45.675 112.587 47.5329 112.664 51.5C113.488 58.9525 111.853 156.167 112.011 163.67C112.132 165.752 111.671 167.979 112.664 169.899C114.617 173.451 119.149 172.532 122.522 172.694C133.926 173.215 117.983 172.491 129.297 172.703C133.697 172.874 138.1 173.137 142.503 172.914C144.339 172.704 146.348 173.043 148.072 172.33C150.907 171.353 151.625 167.221 149.476 165.184Z" fill="#DBDBDB"/>
<path d="M203.203 165.184C201.656 163.558 199.478 163.908 197.468 164.044C195.691 164.127 193.912 164.189 192.132 164.187C186.203 164.108 180.281 163.643 174.348 163.841C174.898 117.5 174.898 110.75 175.6 56.8749C175.392 55.2077 175.147 53.545 174.898 51.884C174.741 50.8466 174.693 49.7008 173.917 48.9191C171.644 45.675 166.313 47.5329 166.391 51.5C167.215 58.9525 165.58 156.167 165.738 163.67C165.859 165.752 165.398 167.979 166.391 169.899C168.343 173.451 172.876 172.532 176.249 172.694C187.652 173.215 171.71 172.491 183.024 172.703C187.424 172.874 191.827 173.137 196.23 172.914C198.066 172.704 200.075 173.043 201.799 172.33C204.633 171.353 205.352 167.221 203.203 165.184Z" fill="#DBDBDB"/>
<path d="M258.429 165.184C256.883 163.558 254.705 163.908 252.695 164.044C250.918 164.127 249.138 164.189 247.359 164.187C241.43 164.108 235.508 163.643 229.574 163.841C230.125 117.5 230.125 110.75 230.827 56.8749C230.618 55.2077 230.373 53.545 230.125 51.884C229.968 50.8466 229.92 49.7008 229.144 48.9191C226.871 45.675 221.54 47.5329 221.618 51.5C222.442 58.9525 220.807 156.167 220.964 163.67C221.086 165.752 220.625 167.979 221.618 169.899C223.57 173.451 228.103 172.532 231.476 172.694C242.879 173.215 226.936 172.491 238.251 172.703C242.651 172.874 247.054 173.137 251.457 172.914C253.293 172.704 255.301 173.043 257.025 172.33C259.86 171.353 260.579 167.221 258.429 165.184Z" fill="#DBDBDB"/>
<path d="M62.6753 48.0028C62.5748 89.2573 62.4743 130.512 62.3723 171.766C75.7328 172.135 86.7113 172.504 100.073 172.873C100.073 157.203 101.062 67.4098 100.462 48.7198C87.6548 48.8278 79.2098 48.0028 62.6753 48.0028Z" stroke="#151515" stroke-width="6" stroke-linecap="round" stroke-linejoin="round"/>
<path d="M112.643 48.0028C112.543 89.2573 112.442 130.512 112.34 171.766C125.701 172.135 136.679 172.504 150.041 172.873C150.041 157.203 151.03 67.4098 150.43 48.7198C137.623 48.8278 129.178 48.0028 112.643 48.0028Z" stroke="#151515" stroke-width="6" stroke-linecap="round" stroke-linejoin="round"/>
<path d="M165.326 48.0028C165.226 89.2573 165.125 130.512 165.023 171.766C178.384 172.135 189.362 172.504 202.724 172.873C202.724 157.203 203.713 67.4098 203.113 48.7198C190.306 48.8278 181.861 48.0028 165.326 48.0028Z" stroke="#151515" stroke-width="6" stroke-linecap="round" stroke-linejoin="round"/>
<path d="M220.894 48.0028C220.793 89.2573 220.693 130.512 220.591 171.766C233.951 172.135 244.93 172.504 258.292 172.873C258.292 157.203 259.28 67.4098 258.68 48.7198C245.873 48.8278 237.428 48.0028 220.894 48.0028Z" stroke="#151515" stroke-width="6" stroke-linecap="round" stroke-linejoin="round"/>
<path d="M81.0926 543.175C81.0011 562.377 80.9096 581.577 80.8196 600.778C92.9021 600.949 102.831 601.122 114.913 601.293C114.913 594 115.807 552.207 115.264 543.508C103.683 543.558 96.0461 543.174 81.0941 543.174L81.0926 543.175Z" stroke="#151515" stroke-width="6" stroke-linecap="round" stroke-linejoin="round"/>
<path d="M81.0926 619.675C81.0011 638.877 80.9096 658.077 80.8196 677.278C92.9021 677.449 102.831 677.622 114.913 677.793C114.913 670.5 115.807 628.707 115.264 620.008C103.683 620.058 96.0461 619.674 81.0941 619.674L81.0926 619.675Z" stroke="#151515" stroke-width="6" stroke-linecap="round" stroke-linejoin="round"/>
<path d="M81.0926 697.675C81.0011 716.877 80.9096 736.077 80.8196 755.278C92.9021 755.449 102.831 755.622 114.913 755.793C114.913 748.5 115.807 706.707 115.264 698.008C103.683 698.058 96.0461 697.674 81.0941 697.674L81.0926 697.675Z" stroke="#151515" stroke-width="6" stroke-linecap="round" stroke-linejoin="round"/>
<path d="M81.0926 775.675C81.0011 794.877 80.9096 814.077 80.8196 833.278C92.9021 833.449 102.831 833.622 114.913 833.793C114.913 826.5 115.807 784.707 115.264 776.008C103.683 776.058 96.0461 775.674 81.0941 775.674L81.0926 775.675Z" stroke="#151515" stroke-width="6" stroke-linecap="round" stroke-linejoin="round"/>
<path d="M81.0926 852.175C81.0011 871.377 80.9096 890.577 80.8196 909.778C92.9021 909.949 102.831 910.122 114.913 910.293C114.913 903 115.807 861.207 115.264 852.508C103.683 852.558 96.0461 852.174 81.0941 852.174L81.0926 852.175Z" stroke="#151515" stroke-width="6" stroke-linecap="round" stroke-linejoin="round"/>
<path d="M36.0926 543.175C36.0011 562.377 35.9096 581.577 35.8196 600.778C47.9021 600.949 57.8306 601.122 69.9131 601.293C69.9131 594 70.8071 552.207 70.2641 543.508C58.6826 543.558 51.0461 543.174 36.0941 543.174L36.0926 543.175Z" stroke="#151515" stroke-width="6" stroke-linecap="round" stroke-linejoin="round"/>
<path d="M36.0926 619.675C36.0011 638.877 35.9096 658.077 35.8196 677.278C47.9021 677.449 57.8306 677.622 69.9131 677.793C69.9131 670.5 70.8071 628.707 70.2641 620.008C58.6826 620.058 51.0461 619.674 36.0941 619.674L36.0926 619.675Z" stroke="#151515" stroke-width="6" stroke-linecap="round" stroke-linejoin="round"/>
<path d="M36.0926 697.675C36.0011 716.877 35.9096 736.077 35.8196 755.278C47.9021 755.449 57.8306 755.622 69.9131 755.793C69.9131 748.5 70.8071 706.707 70.2641 698.008C58.6826 698.058 51.0461 697.674 36.0941 697.674L36.0926 697.675Z" stroke="#151515" stroke-width="6" stroke-linecap="round" stroke-linejoin="round"/>
<path d="M36.0926 775.675C36.0011 794.877 35.9096 814.077 35.8196 833.278C47.9021 833.449 57.8306 833.622 69.9131 833.793C69.9131 826.5 70.8071 784.707 70.2641 776.008C58.6826 776.058 51.0461 775.674 36.0941 775.674L36.0926 775.675Z" stroke="#151515" stroke-width="6" stroke-linecap="round" stroke-linejoin="round"/>
<path d="M36.0926 852.175C36.0011 871.377 35.9096 890.577 35.8196 909.778C47.9021 909.949 57.8306 910.122 69.9131 910.293C69.9131 903 70.8071 861.207 70.2641 852.508C58.6826 852.558 51.0461 852.174 36.0941 852.174L36.0926 852.175Z" stroke="#151515" stroke-width="6" stroke-linecap="round" stroke-linejoin="round"/>
<path d="M126.278 543.175C126.187 562.377 126.095 581.577 126.005 600.778C138.088 600.949 148.016 601.122 160.099 601.293C160.099 594 160.993 552.207 160.45 543.508C148.868 543.558 141.232 543.174 126.28 543.174L126.278 543.175Z" stroke="#151515" stroke-width="6" stroke-linecap="round" stroke-linejoin="round"/>
<path d="M173.92 543.175C173.828 562.377 173.737 581.577 173.647 600.778C185.729 600.949 195.658 601.122 207.74 601.293C207.74 594 208.634 552.207 208.091 543.508C196.51 543.558 188.873 543.174 173.921 543.174L173.92 543.175Z" stroke="#151515" stroke-width="6" stroke-linecap="round" stroke-linejoin="round"/>
<path d="M126.278 620.496C126.187 639.697 126.095 658.897 126.005 678.099C138.088 678.27 148.016 678.442 160.099 678.613C160.099 671.32 160.993 629.527 160.45 620.829C148.868 620.878 141.232 620.494 126.28 620.494L126.278 620.496Z" stroke="#151515" stroke-width="6" stroke-linecap="round" stroke-linejoin="round"/>
<path d="M173.92 620.496C173.828 639.697 173.737 658.897 173.647 678.099C185.729 678.27 195.658 678.442 207.74 678.613C207.74 671.32 208.634 629.527 208.091 620.829C196.51 620.878 188.873 620.494 173.921 620.494L173.92 620.496Z" stroke="#151515" stroke-width="6" stroke-linecap="round" stroke-linejoin="round"/>
<path d="M126.278 697.816C126.187 717.018 126.095 736.218 126.005 755.419C138.088 755.59 148.016 755.763 160.099 755.934C160.099 748.641 160.993 706.848 160.45 698.149C148.868 698.199 141.232 697.815 126.28 697.815L126.278 697.816Z" stroke="#151515" stroke-width="6" stroke-linecap="round" stroke-linejoin="round"/>
<path d="M173.92 697.816C173.828 717.018 173.737 736.218 173.647 755.419C185.729 755.59 195.658 755.763 207.74 755.934C207.74 748.641 208.634 706.848 208.091 698.149C196.51 698.199 188.873 697.815 173.921 697.815L173.92 697.816Z" stroke="#151515" stroke-width="6" stroke-linecap="round" stroke-linejoin="round"/>
<path d="M221.527 396.837C221.435 416.038 221.344 435.238 221.254 454.44C233.336 454.611 243.265 454.783 255.347 454.954C255.347 447.661 256.241 405.868 255.698 397.17C244.117 397.219 236.48 396.835 221.528 396.835L221.527 396.837Z" stroke="#151515" stroke-width="6" stroke-linecap="round" stroke-linejoin="round"/>
<path d="M269.17 396.837C269.078 416.038 268.987 435.238 268.897 454.44C280.979 454.611 290.908 454.783 302.99 454.954C302.99 447.661 303.884 405.868 303.341 397.17C291.76 397.219 284.123 396.835 269.171 396.835L269.17 396.837Z" stroke="#151515" stroke-width="6" stroke-linecap="round" stroke-linejoin="round"/>
<path d="M221.527 469.063C221.435 488.265 221.344 507.465 221.254 526.666C233.336 526.837 243.265 527.01 255.347 527.181C255.347 519.888 256.241 478.095 255.698 469.396C244.117 469.446 236.48 469.062 221.528 469.062L221.527 469.063Z" stroke="#151515" stroke-width="6" stroke-linecap="round" stroke-linejoin="round"/>
<path d="M269.17 469.063C269.078 488.265 268.987 507.465 268.897 526.666C280.979 526.837 290.908 527.01 302.99 527.181C302.99 519.888 303.884 478.095 303.341 469.396C291.76 469.446 284.123 469.062 269.171 469.062L269.17 469.063Z" stroke="#151515" stroke-width="6" stroke-linecap="round" stroke-linejoin="round"/>
<path d="M221.527 469.063C221.435 488.265 221.344 507.465 221.254 526.666C233.336 526.837 243.265 527.01 255.347 527.181C255.347 519.888 256.241 478.095 255.698 469.396C244.117 469.446 236.48 469.062 221.528 469.062L221.527 469.063Z" stroke="#151515" stroke-width="6" stroke-linecap="round" stroke-linejoin="round"/>
<path d="M269.17 469.063C269.078 488.265 268.987 507.465 268.897 526.666C280.979 526.837 290.908 527.01 302.99 527.181C302.99 519.888 303.884 478.095 303.341 469.396C291.76 469.446 284.123 469.062 269.171 469.062L269.17 469.063Z" stroke="#151515" stroke-width="6" stroke-linecap="round" stroke-linejoin="round"/>
<path d="M221.527 543.855C221.435 563.056 221.344 582.256 221.254 601.458C233.336 601.629 243.265 601.801 255.347 601.972C255.347 594.679 256.241 552.886 255.698 544.188C244.117 544.237 236.48 543.853 221.528 543.853L221.527 543.855Z" stroke="#151515" stroke-width="6" stroke-linecap="round" stroke-linejoin="round"/>
<path d="M269.17 543.855C269.078 563.056 268.987 582.256 268.897 601.458C280.979 601.629 290.908 601.801 302.99 601.972C302.99 594.679 303.884 552.886 303.341 544.188C291.76 544.237 284.123 543.853 269.171 543.853L269.17 543.855Z" stroke="#151515" stroke-width="6" stroke-linecap="round" stroke-linejoin="round"/>
<path d="M221.527 621.175C221.435 640.377 221.344 659.577 221.254 678.778C233.336 678.949 243.265 679.122 255.347 679.293C255.347 672 256.241 630.207 255.698 621.508C244.117 621.558 236.48 621.174 221.528 621.174L221.527 621.175Z" stroke="#151515" stroke-width="6" stroke-linecap="round" stroke-linejoin="round"/>
<path d="M269.17 621.175C269.078 640.377 268.987 659.577 268.897 678.778C280.979 678.949 290.908 679.122 302.99 679.293C302.99 672 303.884 630.207 303.341 621.508C291.76 621.558 284.123 621.174 269.171 621.174L269.17 621.175Z" stroke="#151515" stroke-width="6" stroke-linecap="round" stroke-linejoin="round"/>
<path d="M221.527 698.496C221.435 717.697 221.344 736.897 221.254 756.099C233.336 756.27 243.265 756.442 255.347 756.613C255.347 749.32 256.241 707.527 255.698 698.829C244.117 698.878 236.48 698.494 221.528 698.494L221.527 698.496Z" stroke="#151515" stroke-width="6" stroke-linecap="round" stroke-linejoin="round"/>
<path d="M269.17 698.496C269.078 717.697 268.987 736.897 268.897 756.099C280.979 756.27 290.908 756.442 302.99 756.613C302.99 749.32 303.884 707.527 303.341 698.829C291.76 698.878 284.123 698.494 269.171 698.494L269.17 698.496Z" stroke="#151515" stroke-width="6" stroke-linecap="round" stroke-linejoin="round"/>
<path d="M126.278 775.816C126.187 795.018 126.095 814.218 126.005 833.419C138.088 833.59 148.016 833.763 160.099 833.934C160.099 826.641 160.993 784.848 160.45 776.149C148.868 776.199 141.232 775.815 126.28 775.815L126.278 775.816Z" stroke="#151515" stroke-width="6" stroke-linecap="round" stroke-linejoin="round"/>
<path d="M173.92 775.816C173.828 795.018 173.737 814.218 173.647 833.419C185.729 833.59 195.658 833.763 207.74 833.934C207.74 826.641 208.634 784.848 208.091 776.149C196.51 776.199 188.873 775.815 173.921 775.815L173.92 775.816Z" stroke="#151515" stroke-width="6" stroke-linecap="round" stroke-linejoin="round"/>
<path d="M126.278 853.137C126.187 872.338 126.095 891.538 126.005 910.74C138.088 910.911 148.016 911.083 160.099 911.254C160.099 903.961 160.993 862.168 160.45 853.47C148.868 853.519 141.232 853.135 126.28 853.135L126.278 853.137Z" stroke="#151515" stroke-width="6" stroke-linecap="round" stroke-linejoin="round"/>
<path d="M173.92 853.137C173.828 872.338 173.737 891.538 173.647 910.74C185.729 910.911 195.658 911.083 207.74 911.254C207.74 903.961 208.634 862.168 208.091 853.47C196.51 853.519 188.873 853.135 173.921 853.135L173.92 853.137Z" stroke="#151515" stroke-width="6" stroke-linecap="round" stroke-linejoin="round"/>
<path d="M221.527 776.494C221.435 795.696 221.344 814.896 221.254 834.097C233.336 834.268 243.265 834.441 255.347 834.612C255.347 827.319 256.241 785.526 255.698 776.827C244.117 776.877 236.48 776.493 221.528 776.493L221.527 776.494Z" stroke="#151515" stroke-width="6" stroke-linecap="round" stroke-linejoin="round"/>
<path d="M269.17 776.494C269.078 795.696 268.987 814.896 268.897 834.097C280.979 834.268 290.908 834.441 302.99 834.612C302.99 827.319 303.884 785.526 303.341 776.827C291.76 776.877 284.123 776.493 269.171 776.493L269.17 776.494Z" stroke="#151515" stroke-width="6" stroke-linecap="round" stroke-linejoin="round"/>
<path d="M221.527 853.815C221.435 873.016 221.344 892.216 221.254 911.418C233.336 911.589 243.265 911.761 255.347 911.932C255.347 904.639 256.241 862.846 255.698 854.148C244.117 854.197 236.48 853.813 221.528 853.813L221.527 853.815Z" stroke="#151515" stroke-width="6" stroke-linecap="round" stroke-linejoin="round"/>
<path d="M269.17 853.815C269.078 873.016 268.987 892.216 268.897 911.418C280.979 911.589 290.908 911.761 302.99 911.932C302.99 904.639 303.884 862.846 303.341 854.148C291.76 854.197 284.123 853.813 269.171 853.813L269.17 853.815Z" stroke="#151515" stroke-width="6" stroke-linecap="round" stroke-linejoin="round"/>
</g>
<defs>
<clipPath id="clip0_556_935">
<rect width="329.035" height="963.318" fill="white" transform="translate(0.752441 0.21582)"/>
</clipPath>
</defs>
</svg>
