<svg width="207" height="1410" viewBox="0 0 207 1410" fill="none" xmlns="http://www.w3.org/2000/svg">
<g clip-path="url(#clip0_556_1111)">
<path d="M82.8962 389.145C85.7942 661.071 74.8322 1128.04 70.7852 1399.89C89.7812 1400.51 108.777 1401.13 125.777 1401.89C123.27 1339.06 134.739 389.758 134.739 389.758L82.8962 389.145Z" fill="white"/>
<path d="M82.7704 399.531C81.4594 398.345 79.5979 398.344 77.9479 398.023C65.6434 395.976 50.6119 396.798 41.0104 394.492C38.3494 393.778 33.9754 390.532 31.0159 387.879C29.5339 386.779 28.4479 385.118 26.9899 384.021C26.5339 381.218 26.2204 378.382 25.8094 375.577C22.8634 358.111 21.6634 342.427 18.7894 323.709C16.2559 306.36 12.7939 289.162 9.8539 271.881C8.2519 262.888 6.7039 257.56 6.5269 249.4C6.0634 240.967 9.6364 235.066 14.1109 231.324C18.3769 228.57 20.0704 228.702 25.1059 226.344C26.9179 225.508 28.8994 224.245 29.4184 222.202C29.7424 218.115 29.8999 213.495 30.3349 211.692C30.5854 210.326 30.8284 208.941 31.3174 207.637C31.5424 207.586 31.7689 207.54 31.9939 207.484C35.0029 206.674 38.1874 205.846 40.6684 203.88C42.0739 202.774 42.1744 200.878 42.2839 199.231C42.6454 194.442 42.9619 189.648 43.4539 184.869C43.8664 181.488 43.9219 179.617 45.1114 175.359C47.4244 175.155 49.7344 174.927 52.0339 174.607C53.5039 174.409 55.1209 173.997 56.0299 172.731C56.8894 171.73 56.8819 170.299 56.7469 169.051C56.5804 166.773 56.3194 164.502 55.9654 162.244C55.4554 157.831 53.9044 156.46 49.1899 156.757C48.1669 156.757 47.1424 156.741 46.1194 156.699C45.8059 152.329 45.5749 148.507 45.3679 142.588C45.2689 139.96 45.1444 137.332 45.0304 134.704C45.0334 133.999 44.7469 133.327 44.2534 132.829C42.6934 131.205 39.6544 132.39 39.7279 134.704C39.7759 140.67 39.6679 146.637 39.7699 152.604C39.9559 155.296 39.5974 158.233 40.5709 160.782C41.1679 161.806 42.3034 162.426 43.4359 162.673C45.5239 163.048 47.6464 162.96 49.7569 163.012C50.2144 165.063 50.2024 166.03 50.4124 168.552C43.1584 169.623 39.1759 167.155 37.7704 179.986C37.0354 185.205 36.6619 190.468 36.2734 195.723C36.2584 196.252 36.0889 198.219 35.9884 199.444C34.5469 200.179 33.8284 200.581 30.8854 201.3C29.8609 201.597 28.7719 201.676 27.8104 202.158C26.6689 202.729 26.0734 203.922 25.6294 205.063C23.7784 209.845 23.5804 215.11 23.3224 220.201C20.2234 221.868 16.6684 222.761 12.0739 225.192C6.3154 228.893 2.1319 235.107 0.8419 241.83C-1.0841 253.207 2.3209 264.534 4.1974 275.691C7.8469 296.818 12.0004 317.862 14.6824 339.144C15.7084 347.202 17.6299 365.066 19.6174 376.256C20.5669 382.329 20.8729 388.576 23.1739 394.342C26.5819 405.357 40.1209 405.886 49.7614 405.049C57.2584 404.503 64.7734 403.653 72.2974 404.163C74.6959 404.313 77.0869 404.553 79.4779 404.787C80.7559 405.039 82.2604 404.829 83.0194 403.659C84.0394 402.508 83.8549 400.577 82.7704 399.531Z" fill="#C1C1C1"/>
<path d="M69.536 458.405C70.7915 458.226 72.0411 458.009 73.2876 457.773C72.8031 463.568 72.6065 469.386 72.494 475.197C72.017 496.053 73.8651 516.858 74.6961 537.683C77.1456 572.825 73.7916 607.955 72.8301 643.091C71.7306 696.386 72.6845 749.697 71.0645 802.986C71.003 839.869 67.0715 876.635 67.595 913.523C68.729 964.868 70.5486 1016.24 68.1516 1067.58C67.5576 1093.86 66.8916 1120.13 65.9976 1146.4C66.9951 1147.28 67.6385 1148.59 67.586 1150.35C66.5375 1186.08 66.0185 1221.96 63.302 1257.61C63.2405 1258.42 63.002 1259.1 62.66 1259.68C62.8835 1270.86 63.0381 1282.04 63.0261 1293.22C62.9976 1317.97 63.0036 1342.72 62.9871 1367.47C62.9841 1371.75 62.984 1376.03 62.9825 1380.3C63.176 1383.19 63.413 1386.07 63.7235 1388.95C64.2575 1392.65 64.3175 1396.67 65.4935 1400.22C65.5865 1401.26 65.672 1402.3 65.7755 1403.34C65.864 1404.2 65.9436 1405.07 66.0291 1405.94C85.3881 1405.84 104.977 1406.9 124.196 1409.75C124.859 1409.63 125.485 1409.4 126.007 1408.93C127.696 1407.77 128.129 1405.25 127.082 1403.52C126.302 1402.22 124.864 1401.47 123.37 1401.43C120.728 1401.29 118.082 1401.19 115.448 1400.93C108.188 1400.13 100.9 1399.05 93.5765 1399.47C90.437 1399.74 87.2691 1400.07 84.1326 1400.57C81.2991 1400.48 78.4656 1400.39 75.6336 1400.32C74.8236 1400.27 74.168 1399.34 73.625 1397.75C72.5 1383.8 72.7505 1369.77 71.96 1355.78C70.016 1324.63 69.5076 1293.4 70.4031 1262.2C71.8236 1235.48 72.4011 1208.75 72.9951 1182C74.6001 1147.5 75.5195 1112.98 76.2545 1078.45C76.634 1059.19 77.7276 1039.94 77.7561 1020.66C77.8521 986.072 76.8276 951.491 76.0281 916.91C75.3576 889.005 77.5685 861.16 78.752 833.302C79.685 792.996 80.7951 752.685 80.5611 712.364C80.6271 688.793 80.6375 665.216 81.251 641.651C82.064 616.43 83.6435 591.231 84.1385 566.003C83.6165 530.273 78.6456 487.152 81.9546 455.261C85.2381 452.349 82.2216 446.06 76.6326 448.506C75.5931 448.746 74.5461 448.955 73.5081 449.19C72.4371 449.408 71.3661 449.631 70.2906 449.838C69.1221 445.262 67.7765 440.732 66.7025 436.131C66.167 433.88 65.7006 431.612 65.3421 429.326C65.3166 429.167 65.294 429.008 65.2715 428.849C65.141 427.821 65.0361 426.791 64.9851 425.757C64.9431 425.469 64.9461 424.934 64.9566 424.431C65.1396 424.421 65.3105 424.415 65.4485 424.415C67.6685 424.293 69.8886 424.16 72.1116 424.059C74.3766 423.851 76.8215 424.148 78.911 423.102C80.6495 422.22 81.4595 420.009 80.918 418.154C80.858 417.872 80.819 417.585 80.7725 417.3C80.342 412.713 80.6721 408.089 80.5686 403.487C80.5611 401.255 78.6575 399.27 76.3775 399.296C74.141 399.285 72.1416 401.229 72.1866 403.487C72.2901 407.537 72.017 411.636 72.2645 415.688C69.8195 415.803 67.373 415.92 64.9295 416.064C62.873 416.135 60.638 416.288 59.0555 417.756C57.3845 419.205 56.657 421.413 56.5865 423.575C56.7485 434.58 60.446 445.253 63.3065 455.769C64.499 457.982 67.1795 458.775 69.533 458.411L69.536 458.405Z" fill="#C1C1C1"/>
<path d="M115.056 1386.09C111.992 1384.23 108.293 1384.74 104.873 1384.24C100.761 1383.6 96.6275 1383.59 92.5385 1384.07C92.0765 1373.46 91.4585 1362.85 91.262 1352.24C91.8005 1337.15 92.5565 1322.07 92.4275 1306.96C92.762 1281.95 92.135 1256.93 93.185 1231.94C93.398 1210.03 93.923 1188.14 95.4245 1166.27C95.804 1138.27 95.009 1110.24 94.94 1082.23C94.8935 1066.65 96.242 1051.11 96.8915 1035.55C97.394 1018.2 97.76 1000.82 97.472 983.46C97.0565 966.087 95.7785 948.735 96.2525 931.347C96.584 889.835 99.5405 848.406 100.179 806.898C100.724 787.574 100.097 768.251 99.635 748.934C99.3695 729.263 99.359 709.586 98.5385 689.927C97.4915 665.82 96.917 641.682 97.307 617.555C97.691 598.758 99.197 580.007 99.4745 561.206C100.035 532.793 97.595 504.441 96.38 476.076C95.9705 465.674 95.366 455.276 95.177 444.866C95.2235 433.841 95.7635 422.823 96.065 411.804C96.1595 406.71 96.317 401.615 96.287 396.519C96.1805 394.721 96.6065 392.781 95.732 391.133C94.721 388.269 91.247 386.658 88.322 387.497C85.6685 388.194 83.678 390.812 83.711 393.554C83.714 408.786 82.688 423.99 82.292 439.214C81.9695 451.763 82.4495 464.315 82.4615 476.865C82.982 503.664 83.8025 530.453 83.498 557.261C83.4605 575.186 82.175 593.069 81.7055 610.982C80.8865 648.627 83.165 686.249 83.57 723.887C83.9975 750.146 84.9245 776.406 83.684 802.661C82.997 819.069 83.1665 835.508 82.232 851.906C80.1695 881.123 78.8465 910.38 78.7625 939.674C78.584 952.028 79.4795 964.358 79.601 976.707C79.4195 995.538 79.661 1014.37 79.4465 1033.2C78.3035 1055.68 76.841 1078.14 77.435 1100.66C77.372 1122.53 77.8955 1144.4 77.936 1166.27C77.666 1178.6 76.4675 1190.88 76.052 1203.2C76.016 1219.39 74.537 1235.53 74.114 1251.7C74.156 1274.72 74.6855 1297.73 74.0525 1320.74C73.928 1331.51 72.9065 1342.25 72.4865 1353.01C72.4775 1365.31 72.8525 1377.61 72.9215 1389.91C72.911 1391.74 73.0085 1393.56 73.055 1395.38C73.0805 1396.27 73.445 1398.26 73.4135 1398.09C74.4095 1401.53 77.3195 1404.42 80.8505 1405.22C84.3095 1405.92 88.028 1405.25 91.4165 1404.28C91.703 1404.21 91.994 1404.15 92.2835 1404.1C92.9015 1404.05 93.521 1404.02 94.142 1404.01C99.0635 1404.33 96.9245 1404.01 106.035 1405.06C108.63 1405.33 111.438 1405.91 113.816 1404.54C117.684 1403.24 120.219 1399.06 120.198 1395.06C120.119 1391.33 118.227 1388.03 115.056 1386.09V1386.09Z" fill="#DBDBDB"/>
<path d="M25.6414 285.927C25.5754 285.771 25.5229 285.646 25.4824 285.553C25.5184 285.646 25.5574 285.735 25.5949 285.826C25.6099 285.858 25.6264 285.894 25.6414 285.927Z" fill="#DBDBDB"/>
<path d="M82.8965 389.143C85.7945 661.069 74.8325 1128.04 70.7855 1399.89C89.7815 1400.51 108.778 1401.13 125.777 1401.89C123.271 1339.05 134.74 389.757 134.74 389.757L82.8965 389.143Z" stroke="#151515" stroke-width="6" stroke-linecap="round" stroke-linejoin="round"/>
<path d="M65.1309 423.144C65.7759 429.454 68.1099 440.827 68.7549 447.138C95.4564 447.139 120.188 447.703 146.89 447.706C148.639 439.093 149.062 435.817 151.565 423.484C123.935 423.217 101.641 423.144 65.1309 423.144Z" fill="white"/>
<path d="M139.983 437.364C136.833 435.822 132.815 436.182 125.385 435.142C116.636 434.098 107.819 434.601 99.0485 433.969C89.6225 433.204 91.001 433.032 88.586 432.873C83.219 431.91 81.8465 431.694 80.687 431.49C80.651 431.326 80.6195 431.163 80.585 430.999C80.519 430.336 80.4395 429.675 80.399 429.01C80.324 425.871 80.561 422.365 78.0155 420.055C73.3235 415.131 64.4555 418.789 64.6115 425.607C64.514 428.731 64.8935 431.835 65.0495 434.95C65.3 438.354 66.092 441.924 68.5865 444.417C80.1575 453.159 100.002 450.502 113.819 450.312C120.747 450.112 127.67 450.67 134.6 450.655C136.13 450.675 137.757 450.859 139.13 450.069C144.533 448.189 144.933 440.065 139.983 437.364Z" fill="#DBDBDB"/>
<path d="M65.1305 423.142C65.7755 429.453 68.1095 440.826 68.7545 447.136C95.456 447.138 120.188 447.702 146.889 447.705C148.638 439.092 149.061 435.816 151.565 423.483C123.935 423.216 101.64 423.142 65.1305 423.142Z" stroke="#151515" stroke-width="6" stroke-linecap="round" stroke-linejoin="round"/>
<path d="M55.5859 158.285H155.511V176.039H55.5859V158.285Z" fill="#F5F5F5"/>
<path d="M8.75229 252.979C15.4123 294.146 22.0738 335.314 28.7338 376.481C30.5083 387.446 27.5668 396.622 47.9563 396.803C86.9608 397.153 120.339 396.376 159.342 396.725C166.194 396.787 173.526 396.71 179.188 392.852C187.216 387.385 189.01 369.76 190.102 360.109C194.685 319.583 199.269 279.056 203.851 238.531C204.283 234.712 204.562 230.377 201.997 227.513C199.407 224.621 195.015 224.452 191.133 224.495C150.018 224.95 108.904 225.404 67.7893 225.859C52.8658 226.024 37.9423 226.189 23.0188 226.354C16.2388 226.429 4.15929 231.358 8.75079 252.979H8.75229Z" fill="white"/>
<path d="M30.7028 225.395C30.4733 219.244 30.8558 213.068 31.8458 206.992C35.2328 206.746 38.6213 206.498 42.0083 206.252C42.5273 196.376 43.0448 186.5 44.3588 174.721C86.4938 175.315 128.629 175.907 170.131 176.429L170.35 207.434C174.911 207.439 179.471 207.442 184.033 207.446C184.099 212.974 184.165 218.501 184.231 224.029" fill="white"/>
<path d="M45.918 134.876C46.1865 141.635 46.4535 148.394 46.722 155.155C86.3085 155.546 125.895 155.938 165.481 156.329C165.075 148.979 164.667 141.629 164.26 134.279C124.878 134.398 85.4955 134.516 45.918 134.876Z" fill="white"/>
<path d="M99.521 133.466C100.506 97.993 101.492 62.521 102.225 27.091C105.576 27.091 108.927 27.091 112.481 27.085C113.45 62.623 114.418 98.161 115.493 133.609C109.057 134.476 102.476 134.263 99.5225 133.465L99.521 133.466Z" fill="white"/>
<path d="M87.2544 4.35964C87.6474 10.6761 88.0404 19.8066 88.4334 26.1246C99.9639 26.2551 111.494 26.3871 123.025 26.5176C123.766 26.5266 124.58 26.5086 125.137 26.0211C125.869 25.3806 125.824 24.2496 125.719 23.2821C125.053 17.1141 124.387 10.9446 124.231 4.72864C107.915 3.93214 99.0594 3.73414 87.2529 4.36114L87.2544 4.35964Z" fill="white"/>
<path d="M101.625 30.5757C100.506 27.9927 97.766 28.7307 97.5545 28.7442C95.249 28.9587 92.927 28.9902 90.6155 28.8717C89.057 28.7382 88.6895 28.7607 88.3415 28.7082C88.337 28.6812 88.334 28.6572 88.3295 28.6317C88.3145 28.3197 88.2725 28.0092 88.1405 27.7257C88.166 27.7872 88.193 27.8487 88.217 27.9012C88.1915 27.7167 88.163 27.5337 88.136 27.3507C88.136 27.3312 88.136 27.3012 88.133 27.2517C87.7415 24.2982 87.8375 14.9922 88.025 8.30975C87.8105 6.26975 88.826 3.33425 87.4895 1.70525C86.1695 0.302751 83.5835 1.34975 83.648 3.29675C83.4815 11.2452 83.603 22.3752 83.1755 26.9787C83.1125 27.2337 83.0225 27.6972 83.0345 27.8142C82.9865 27.9777 82.9505 28.1442 82.9295 28.3137C82.862 28.5027 82.73 29.0502 82.7585 29.1042C82.484 29.9202 82.5845 30.8292 82.7495 31.6692C83.4545 34.0977 86.1095 34.7322 88.3415 34.8957C90.767 35.1507 93.2135 35.2137 95.6495 35.1057C95.5805 39.4092 95.3315 43.7172 95.126 48.0132C93.0215 74.6157 93.32 101.317 92.309 127.969C92.423 129.855 91.982 131.887 92.5895 133.686C93.284 135.72 96.233 136.252 97.685 134.697C99.332 132.862 98.318 130.126 98.597 127.884C98.675 122.994 98.8595 118.105 99.026 113.218C99.7775 93.2772 99.446 73.2972 101.048 53.3907C101.457 48.0147 101.727 42.6297 101.867 37.2402C101.822 35.0382 102.335 32.6922 101.624 30.5727L101.625 30.5757Z" fill="#C1C1C1"/>
<path d="M123.684 15.7717C121.771 13.7227 118.909 13.4422 116.295 12.9952C110.908 12.0937 105.451 12.0112 100.015 11.6272C99.9282 10.3387 99.7212 8.05866 99.6012 7.19766C98.9817 -3.69534 83.0157 -1.55634 85.3302 9.12966C86.3487 14.5192 86.3127 12.9082 86.7627 15.7192C86.7627 15.7897 86.7672 15.9022 86.7747 16.0687C86.7537 24.5467 94.4757 27.9862 101.859 28.5607C102.204 28.6072 102.55 28.6537 102.897 28.7002C102.486 28.6492 103.24 28.7572 104.77 28.9537C109.192 29.4202 113.625 29.5822 118.066 29.3347C121.848 29.4097 125.614 26.2747 125.869 22.4452C126.379 20.0032 125.335 17.5642 123.684 15.7717Z" fill="#DBDBDB"/>
<path d="M166.837 149.93C165.92 146.407 162.397 144.437 158.903 144.581C158.704 144.551 158.861 144.581 159.146 144.628C155.822 144.26 152.441 144.548 149.102 144.517C135.991 144.877 122.945 146.695 109.81 146.404C99.6578 146.396 89.5013 146.534 79.3553 146.135C72.8873 145.889 62.0588 144.857 58.1273 144.487C57.7463 142.474 57.9293 143.06 57.6428 139.222C57.4238 136.538 57.5798 133.609 55.5038 131.581C50.9858 126.967 43.0268 131.569 44.8103 137.806C45.9818 143.836 45.7253 141.619 46.2263 147.521C46.9133 147.742 44.8163 151.699 51.0338 155.96C59.4443 159.416 68.8883 159.227 77.8313 159.986C92.3618 160.487 106.915 160.394 121.448 160.124C130.535 160.057 139.57 158.797 148.654 158.866C152.611 158.767 156.616 159.452 160.535 158.791C160.319 158.891 157.811 159.076 159.07 159.038C161.24 159.118 163.454 158.503 164.992 156.91C166.855 155.107 167.432 152.413 166.835 149.932L166.837 149.93Z" fill="#DBDBDB"/>
<path d="M57.2973 173.186C54.6468 166.262 43.9803 168.465 44.0643 175.85C43.5213 179.954 43.1043 184.073 42.9078 188.21C42.1338 192.968 41.8203 197.768 41.5938 202.575C39.8898 203.388 38.3328 204.455 36.8988 205.718C32.6373 209.555 28.0248 214.902 28.6488 221C28.9548 225.596 34.1433 228.858 38.4768 227.547C40.4148 226.878 42.1698 225.767 43.1838 223.928C44.1153 222.714 42.6738 224.582 42.3333 225.023C45.9963 220.25 44.8803 221.117 46.5663 219.051C46.8273 218.658 47.0568 218.322 47.2488 218.046C50.2533 214.556 48.4008 216.765 51.8673 213.81C53.5728 212.117 54.9513 209.936 55.3398 207.537C56.1183 200.955 57.1023 194.396 56.7153 187.757C56.8908 184.527 57.1833 181.305 57.6078 178.098C57.8358 176.456 58.1838 174.692 57.2973 173.186Z" fill="#DBDBDB"/>
<path d="M198.505 240.17C196.42 238.872 193.963 238.907 191.591 238.953C189.898 239.082 188.153 238.935 186.475 239.207C179.872 239.874 173.239 239.942 166.616 240.326C146.507 241.493 126.35 241.335 106.216 241.799C83.9078 242.096 61.6463 239.298 39.3383 241.034C33.8828 241.182 28.4033 241.259 22.9523 240.93C24.4658 238.574 24.8093 238.352 26.5193 236.276C27.7133 234.71 29.4998 233.469 30.1613 231.575C33.1328 225.054 24.4568 219.296 19.4468 224.355C9.42225 234.719 1.75725 248.061 16.2923 253.568C23.2733 255.203 30.5873 254.739 37.7138 254.771C54.2798 254.267 70.8488 254.078 87.4148 254.723C114.037 255.312 140.665 252.558 167.275 254.328C178.943 255.09 173.938 254.627 180.658 255.486C185.198 255.77 198.733 259.952 202.1 251.148C204.013 247.274 202.15 242.325 198.505 240.173V240.17Z" fill="#DBDBDB"/>
<path d="M200.406 292.701C197.528 284.494 190.683 285.027 183.984 285.364C178.604 285.687 180.14 285.742 171.168 286.167C148.34 287.349 125.58 289.702 102.752 290.862C87.2942 291.339 71.8307 290.592 56.3672 290.739C44.6852 290.752 37.6877 289.731 29.9222 288.441C28.9727 288.222 27.9977 288.069 27.0527 287.821C26.8022 287.59 26.5487 287.367 26.2757 287.169C26.0297 286.737 25.8062 286.284 25.6397 285.927C25.7162 286.108 25.8032 286.317 25.9157 286.593C25.8017 286.344 25.6967 286.086 25.5932 285.826C25.3622 285.321 25.2812 285.091 25.4807 285.553C24.5927 283.291 23.8877 280.825 21.6062 279.613C16.6337 276.535 10.0262 281.571 11.7257 287.209C12.5357 289.425 13.3592 291.637 14.3117 293.796C14.0822 293.253 13.8542 292.71 13.6247 292.167C13.6667 292.294 13.6937 292.428 13.7252 292.558C14.4752 296.232 16.8332 299.476 20.2517 301.081C25.4237 303.312 31.3172 303.057 36.8447 303.655C46.7387 304.336 56.6627 304.326 66.5762 304.263C80.5352 303.898 94.4417 305.232 108.392 305.254C129.59 304.743 150.777 303.72 171.99 304.282C179.933 304.516 179.054 304.752 182.774 304.96C185.517 305.343 188.268 305.512 191.007 305.244C197.322 305.283 202.154 298.767 200.406 292.701Z" fill="#DBDBDB"/>
<path d="M182.13 336.25C177.323 335.564 172.44 335.638 167.589 335.642C129.428 336.512 91.2904 339.158 53.1019 338.032C43.5544 337.948 39.5809 337.814 34.0984 337.531C33.9439 337.51 33.7909 337.475 33.6349 337.457C33.5104 337.106 33.3844 336.742 33.2884 336.428C32.4769 333.814 31.8454 330.815 29.2114 329.423C24.1099 326.269 17.3524 331.429 19.0894 337.205C19.6894 339.326 20.3059 341.447 21.1339 343.489C22.0789 346.697 24.0004 349.591 26.9464 351.271C30.6694 353.341 35.0404 353.339 39.1819 353.662C38.4769 353.567 37.7704 353.473 37.0639 353.377C43.5589 354.179 50.1799 353.585 56.7154 353.641C72.0499 353.437 87.3769 352.967 102.689 352.097C114.417 351.809 126.152 351.887 137.882 351.68C148.913 351.538 159.953 351.379 170.976 351.938C174.575 352.109 178.176 352.399 181.776 352.172C183.245 352.087 184.782 352.186 186.087 351.425C189.012 350.44 190.929 347.276 190.914 344.249C190.04 336.89 185.177 336.545 182.129 336.245L182.13 336.25Z" fill="#DBDBDB"/>
<path d="M184.506 386.659C183.585 383.335 180.221 381.121 176.859 381.499C175.647 381.487 174.431 381.562 173.217 381.556C165.545 381.46 157.878 381.745 150.201 381.613C137.547 382.044 124.935 380.89 112.296 380.548C98.0493 380.43 83.8083 381.261 69.5583 381.076C64.5468 380.952 59.5218 380.989 54.5238 380.55C54.4533 380.541 54.4128 380.536 54.3513 380.529C53.6073 380.419 52.8648 380.307 52.1238 380.19C47.9103 379.582 43.7808 378.478 39.7578 377.103C37.1688 375.915 34.5453 374.554 31.6653 375.471C25.0068 377.149 23.7183 386.722 29.7558 390.078C51.1773 401.898 59.5023 401.541 85.1403 401.674C94.5168 401.608 103.896 401.329 113.273 401.427C123.195 401.58 133.098 402.373 143.024 402.403C154.235 402.336 166.127 402.546 176.295 397.197C177.689 396.469 179.148 395.833 180.507 395.04C183.62 393.681 185.495 389.982 184.506 386.659Z" fill="#DBDBDB"/>
<path d="M172.251 212.035C162.062 212.611 151.868 213.165 141.663 213.384C116.18 213.58 90.7021 214.122 65.2186 214.131C58.5976 214.3 51.9646 214.177 45.3556 214.642C42.0886 215.125 38.1946 214.372 35.6776 216.946C31.6531 220.803 34.6216 228.073 40.2346 227.949C65.5756 228.537 90.9076 229.591 116.261 229.675C136.053 230.874 155.862 231.772 175.694 232.024C178.881 232.108 182.072 232.149 185.255 231.921C186.879 231.843 188.516 231.808 189.942 230.98C193.715 229.71 196.185 225.63 196.166 221.727C195.185 208.53 181.542 211.743 172.251 212.032V212.035Z" fill="#DBDBDB"/>
<path d="M162.97 164.821C161.174 163.71 159.028 163.891 157.007 163.647C153.008 163.296 148.987 163.363 144.977 163.287C130.772 163.207 116.566 163.162 102.361 163.177C91.636 163.182 80.911 163.266 70.1875 163.302C67.8235 163.285 65.4595 163.261 63.094 163.215C61.3285 163.225 59.428 162.891 57.8305 163.798C50.5135 166.654 52.7935 177.825 60.6475 177.793C79.9045 178.603 99.184 178.042 118.45 177.972C128.938 177.87 139.426 177.783 149.915 177.702C155.212 177.177 163.319 179.788 165.8 173.455C167.312 170.407 165.832 166.513 162.97 164.821Z" fill="#DBDBDB"/>
<path d="M8.75229 252.979C15.4123 294.146 22.0738 335.314 28.7338 376.481C30.5083 387.446 27.5668 396.622 47.9563 396.803C86.9608 397.153 120.339 396.376 159.342 396.725C166.194 396.787 173.526 396.71 179.188 392.852C187.216 387.385 189.01 369.76 190.102 360.109C194.685 319.583 199.269 279.056 203.851 238.531C204.283 234.712 204.562 230.377 201.997 227.513C199.407 224.621 195.015 224.452 191.133 224.495C150.018 224.95 108.904 225.404 67.7893 225.859C52.8658 226.024 37.9423 226.189 23.0188 226.354C16.2388 226.429 4.15929 231.358 8.75079 252.979H8.75229Z" stroke="#151515" stroke-width="6" stroke-linecap="round" stroke-linejoin="round"/>
<path d="M30.7028 225.395C30.4733 219.244 30.8558 213.068 31.8458 206.992C35.2328 206.746 38.6213 206.498 42.0083 206.252C42.5273 196.376 43.0448 186.5 44.3588 174.721C86.4938 175.315 128.629 175.907 170.131 176.429L170.35 207.434C174.911 207.439 179.471 207.442 184.033 207.446C184.099 212.974 184.165 218.501 184.231 224.029" stroke="#151515" stroke-width="6" stroke-linecap="round" stroke-linejoin="round"/>
<path d="M45.918 134.876C46.1865 141.635 46.4535 148.394 46.722 155.155C86.3085 155.546 125.895 155.938 165.481 156.329C165.075 148.979 164.667 141.629 164.26 134.279C124.878 134.398 85.4955 134.516 45.918 134.876Z" stroke="#151515" stroke-width="6" stroke-linecap="round" stroke-linejoin="round"/>
<path d="M57.2354 155.947C57.4214 162.321 57.6058 168.693 57.7918 175.066" stroke="#151515" stroke-width="6" stroke-linecap="round" stroke-linejoin="round"/>
<path d="M155.511 158.285C155.358 164.773 155.203 171.26 155.05 177.748C155.283 177.178 155.515 176.609 155.748 176.039" stroke="#151515" stroke-width="6" stroke-linecap="round" stroke-linejoin="round"/>
<path d="M99.521 133.466C100.506 97.993 101.492 62.521 102.225 27.091C105.576 27.091 108.927 27.091 112.481 27.085C113.45 62.623 114.418 98.161 115.493 133.609C109.057 134.476 102.476 134.263 99.5225 133.465L99.521 133.466Z" stroke="#151515" stroke-width="6" stroke-linecap="round" stroke-linejoin="round"/>
<path d="M87.2544 4.35964C87.6474 10.6761 88.0404 19.8066 88.4334 26.1246C99.9639 26.2551 111.494 26.3871 123.025 26.5176C123.766 26.5266 124.58 26.5086 125.137 26.0211C125.869 25.3806 125.824 24.2496 125.719 23.2821C125.053 17.1141 124.387 10.9446 124.231 4.72864C107.915 3.93214 99.0594 3.73414 87.2529 4.36114L87.2544 4.35964Z" stroke="#151515" stroke-width="6" stroke-linecap="round" stroke-linejoin="round"/>
<path d="M9.07715 249.055C73.4062 248.002 137.756 248.218 202.076 249.703" stroke="#151515" stroke-width="6" stroke-linecap="round" stroke-linejoin="round"/>
<path d="M15.5723 281.987C76.5353 281.447 137.5 280.905 198.463 280.365" stroke="#151515" stroke-width="6" stroke-linecap="round" stroke-linejoin="round"/>
<path d="M19.1655 301.212C77.658 299.203 136.205 298.735 194.721 299.805" stroke="#151515" stroke-width="6" stroke-linecap="round" stroke-linejoin="round"/>
<path d="M21.7861 334.133C89.4871 334.133 124.683 333.993 193.058 333.993" stroke="#151515" stroke-width="6" stroke-linecap="round" stroke-linejoin="round"/>
<path d="M25.9829 349.138C80.5679 348.61 135.16 348.766 189.742 349.607" stroke="#151515" stroke-width="6" stroke-linecap="round" stroke-linejoin="round"/>
<path d="M30.9546 378.257C82.3971 377.175 133.856 376.821 185.309 377.195" stroke="#151515" stroke-width="6" stroke-linecap="round" stroke-linejoin="round"/>
</g>
<defs>
<clipPath id="clip0_556_1111">
<rect width="206.115" height="1409.75" fill="white" transform="translate(0.270508)"/>
</clipPath>
</defs>
</svg>
