<svg width="1387" height="553" viewBox="0 0 1387 553" fill="none" xmlns="http://www.w3.org/2000/svg">
<g clip-path="url(#clip0_556_555)">
<path d="M917.02 186.523C836.784 100.9 732.672 37.8879 619.077 5.04541C619.876 92.4926 626.349 179.888 638.438 266.5L604.251 299.225C593.885 285.088 582.68 271.568 570.691 258.774C515.541 199.92 443.977 156.607 365.898 134.034C366.46 195.594 371.113 257.115 379.815 318.06V331C375.627 339.863 364.701 357.481 354.501 357.045C339.859 344.894 324.236 333.929 307.807 324.328C252.538 292.03 188.297 275.267 123.791 275.756C138.145 322.46 155.6 368.212 176.006 412.607L179.751 422.532C124.208 466.816 63.587 504.591 3.21246 542.185C510.116 542.185 491.672 533.221 1253.94 535.405L1253.97 535.387L1255.25 534.595C1257.85 532.773 1259.75 530.035 1261.56 527.382C1303.62 465.641 1344.45 403.064 1384.02 339.701C1318.53 349.721 1258.45 374.908 1206.47 411.527V409C1226.44 338.65 1239.53 266.349 1245.44 193.459C1159.76 211.042 1081.3 258.915 1025.99 326.191L1020.07 333.25C992.733 279.878 958.025 230.281 917.02 186.523Z" fill="white"/>
<path d="M614.847 9.47241C754.599 140.898 852.069 316.611 889.584 504.75Z" fill="#F5F5F5"/>
<path d="M614.847 9.47241C754.599 140.898 852.069 316.611 889.584 504.75L822.501 494.5C822.501 408.25 770.001 314.5 726.5 256C691.7 209.2 652.5 243 637.25 265.75L614.847 9.47241Z" fill="#F5F5F5"/>
<path d="M122.267 278.728C215.78 325.723 294.068 402.451 342.938 494.998C317.488 498.997 291.542 468.832 281.75 453.25C252.35 410.65 220 400 207.5 400L179 421L122.267 278.728Z" fill="#F5F5F5"/>
<path d="M362.988 137.075C459.048 227.412 526.045 348.189 551.83 477.509Z" fill="#F5F5F5"/>
<path d="M362.988 137.075C459.048 227.412 526.045 348.189 551.83 477.509L497 471.25C498.5 431.5 462.5 349 438.5 319.75C419.3 296.35 392 317 380.75 330.25L362.988 137.075Z" fill="#F5F5F5"/>
<path d="M174.24 417.929C171.009 410.474 170.396 409.575 167.642 402.185C164.865 394.685 162.086 387.186 159.312 379.686C156.075 368.7 152.747 357.714 148.272 347.157C146.477 343.856 145.635 338.712 141.647 337.463C141.444 337.404 141.243 337.37 141.044 337.337C138.774 330.126 136.547 322.902 134.289 315.69C131.72 307.052 129.608 298.274 127.952 289.416C127.326 286.119 126.672 282.827 126.128 279.515C125.786 277.908 125.973 276.042 124.757 274.785C121.473 270.233 114.036 273.911 115.592 279.351C118.523 300.473 124.701 320.88 131.261 341.108C137.79 361.533 144.414 382.071 153.447 401.547C154.439 403.479 155.444 405.404 156.446 407.33C156.516 407.573 156.587 407.816 156.657 408.059C156.992 409.131 157.164 410.324 157.977 411.152C158.264 411.576 158.604 411.929 158.981 412.217C159.921 414.024 160.863 415.83 161.793 417.644C163.707 420.795 164.654 425.256 168.513 426.545C173.79 427.694 176.672 422.372 174.243 417.927L174.24 417.929Z" fill="#C1C1C1"/>
<path d="M165.345 419.532C146.768 436.616 130.029 448.739 106.688 464.88C98.0749 470.88 89.8414 477.401 81.2779 483.468C69.4729 491.789 57.2764 499.535 45.1444 507.363C37.4419 512.25 29.9884 517.514 22.2889 522.404C16.4434 526.289 9.81639 529.347 4.54539 533.943C1.77789 537.104 4.47789 542.489 8.65989 542.355C10.4614 542.421 11.8459 541.277 13.2709 540.347C15.8974 538.622 18.5524 536.937 21.2419 535.313C30.1444 530.093 38.5519 524.102 47.2024 518.489C58.7839 510.998 70.4299 503.603 81.8149 495.813C96.8044 485.295 111.245 474.017 126.441 463.784C142.782 451.967 159.65 439.946 172.563 424.397C174.59 420.092 168.657 416.082 165.345 419.532Z" fill="#C1C1C1"/>
<path d="M378.075 311.012C376.082 291.653 373.593 272.355 371.334 253.028C368.021 227.945 368.547 202.592 366.597 177.401C365.922 166.766 365.946 156.104 365.909 145.452C365.942 142.508 365.945 139.563 366.027 136.62C366.018 135.161 366.408 133.595 365.669 132.26C363.684 127.07 355.58 128.633 355.643 134.277C354.842 155.525 356.043 176.75 357.317 197.951C358.067 215.843 358.353 233.777 360.69 251.558C363.782 276.057 366.206 300.641 369.45 325.119C366.963 329.577 363.924 333.711 360.893 337.812C359.375 339.732 357.738 341.561 355.94 343.221C353.256 345.89 348.137 348.291 350.276 352.835C351.839 356.838 357.05 356.868 359.658 353.805C364.394 350.157 368.285 345.599 371.708 340.725C374.607 336.264 378.543 332.04 379.967 326.843C379.436 319.097 378.759 318.558 378.075 311.012Z" fill="#C1C1C1"/>
<path d="M633.671 237.414C631.218 220.632 628.625 203.585 626.894 180.795C625.788 162.213 624.069 143.669 623.412 125.063C622.661 108.59 622.875 92.0852 621.782 75.6257C620.463 59.1887 619.536 42.7172 620.204 26.2247C620.306 21.5942 620.639 16.9742 620.931 12.3527C620.868 10.1267 621.779 7.73275 620.807 5.64325C618.83 0.483247 610.718 1.99075 610.781 7.66075C609.624 22.2182 609.255 36.8327 609.723 51.4292C610.175 62.3942 611.34 73.3172 611.762 84.2837C612.578 108.921 612.759 133.59 614.892 158.168C616.277 184.113 619.337 212.678 622.641 234.11C624.378 246.288 626.723 258.665 625.877 260.777C624.107 265.086 618.363 273.419 612.185 279.242C606.449 284.528 604.773 284.988 599.898 289.364C597.5 292.037 599.178 296.769 602.619 297.59C604.893 298.233 606.95 297.084 608.598 295.593C610.218 294.356 611.832 293.111 613.434 291.849C619.124 287.57 624.075 282.432 628.265 276.683C631.677 271.883 635.786 266.889 636.456 260.846C636.633 253.584 634.907 247.278 633.672 237.414H633.671Z" fill="#C1C1C1"/>
<path d="M1241.89 187.803C1235.56 189.984 1228.92 191.054 1222.46 192.725C1211.52 195.446 1200.63 198.372 1189.84 201.633C1169.74 207.734 1150.08 215.558 1131.44 225.267C1120.86 231.528 1110.77 238.598 1100.34 245.099C1089.84 252.164 1074.27 263.979 1068 268.889C1052.65 280.536 1037.19 292.422 1025.05 307.539C1021.32 312.044 1017.78 316.704 1014.34 321.434C1011.39 324.411 1011.92 329.423 1016.28 330.737C1020.98 332.039 1022.98 326.894 1025.4 323.939C1025.82 323.387 1027.19 321.56 1027.84 320.691C1033.54 313.377 1039.56 306.267 1046.39 299.969C1062.73 285.182 1073.84 277.491 1089.58 265.581C1099.21 258.233 1109.33 251.582 1119.6 245.169C1126.99 240.366 1134.2 235.223 1142.19 231.438C1162.2 221.615 1183.33 213.879 1207.63 207.374C1215.54 205.244 1223.44 203.055 1231.42 201.171C1236.37 199.809 1241.75 199.053 1246.24 196.538C1250.55 193.439 1247.1 186.308 1241.89 187.803Z" fill="#C1C1C1"/>
<path d="M1377.24 333.272C1355 331.586 1332.7 337.031 1312.12 345.179C1297.5 350.717 1283.08 356.768 1269.2 363.977C1250.07 374.238 1229.46 381.915 1211.73 394.656C1207.98 397.365 1204.32 400.188 1200.78 403.164C1197.2 405.41 1196.35 410.304 1200.27 412.749C1203.15 414.503 1206.11 412.734 1208.16 410.591C1209.66 409.328 1211.19 408.104 1212.74 406.898C1214.25 405.74 1215.77 404.6 1217.32 403.488C1220.49 401.201 1223.77 399.081 1227.15 397.113C1238.86 390.033 1251.42 384.591 1263.68 378.57C1283.71 368.006 1298.44 361.32 1318.47 353.925C1337.7 346.674 1352.49 343.553 1371.18 343.344C1373.85 343.11 1376.73 344.376 1379.26 343.301C1384.47 341.319 1382.87 333.204 1377.25 333.275L1377.24 333.272Z" fill="#C1C1C1"/>
<path d="M367.496 539.111C364.214 537.593 360.116 538.862 356.577 538.68C350.828 538.914 345.08 539.216 339.341 539.654C313.346 542.354 287.237 541.901 261.147 541.782C229.085 542.184 197.009 542.846 164.948 542.078C146.918 541.598 129.015 539.141 111.005 538.4C92.2759 538.253 73.5949 540.176 54.8644 540.35C39.0469 540.65 23.2294 541.518 7.4329 541.958C2.0254 543.42 2.9794 551.829 8.7634 551.787C31.7254 551.7 54.6889 550.689 77.6434 550.011C95.1709 548.915 112.731 548.063 130.229 550.115C167.952 553.961 205.929 552.854 243.783 552.452C271.431 551.682 299.141 553.376 326.741 551.123C336.746 550.266 346.76 549.492 356.796 549.126C361.116 548.448 367.604 550.554 369.633 545.639C370.751 543.335 369.677 540.39 367.494 539.112L367.496 539.111Z" fill="#C1C1C1"/>
<path d="M781.772 535.695C780.165 534.035 777.837 534.09 775.694 534.164C760.386 533.937 745.109 535.058 729.816 535.514C711.959 535.898 694.089 535.725 676.238 536.475C662.355 537.086 648.458 537.212 634.58 537.915C617.349 539.024 600.114 539.955 582.848 540.276C548.403 540.801 514.053 536.394 479.592 537.816C459.309 537.885 439.104 540.41 418.82 540.012C389.111 538.796 363.126 539.432 335.972 542.241C333.432 542.444 330.888 542.597 328.344 542.726C327.375 542.721 326.451 543.116 325.767 543.794C323.535 545.933 325.163 550.119 328.344 550.016C348.213 549.996 368.085 550.119 387.959 549.843C401.472 549.711 414.969 550.655 428.48 550.484C450.261 549.671 472.01 547.95 493.826 548.058C528.093 547.799 562.278 552.24 596.558 550.322C613.25 550.025 629.873 548.321 646.559 547.868C661.545 547.541 676.521 546.828 691.506 546.48C706.281 546.107 721.067 546.357 735.836 545.765C745.677 545.376 755.514 544.805 765.363 544.641C768.735 544.593 772.107 544.593 775.479 544.614C777.026 544.535 778.673 544.908 780.089 544.167C783.455 543.011 784.37 538.109 781.772 535.695Z" fill="#C1C1C1"/>
<path d="M1249.96 528.702C1247.39 527.238 1244.55 528.587 1241.84 528.831C1239.11 529.262 1236.38 529.68 1233.64 530.073C1207.13 534.5 1168.26 532.574 1136.63 532.973C1113.68 533.079 1090.74 532.568 1067.8 532.908C1055.73 533.267 1043.69 534.27 1031.62 534.632C1019.13 535.022 1006.64 534.722 994.155 534.641C967.839 533.984 941.522 535.211 915.209 534.447C879.287 533.301 843.261 531.936 807.467 536.025C798.009 536.829 788.538 537.68 779.039 537.671C769.893 537.381 760.755 536.793 751.622 536.321C749.091 536.162 746.186 534.929 744.173 537.048C741.881 539.291 742.914 543.548 746.096 544.334C756.344 545.657 767.945 548.208 783.395 547.983C804.519 547.452 825.467 543.99 846.614 543.836C872.28 543.063 897.936 544.625 923.595 545.043C944.076 545.471 964.557 544.509 985.038 544.961C1009.54 545.409 1034.04 545.477 1058.5 543.722C1078.48 542.729 1098.5 543.465 1118.49 543.384C1141.43 543.432 1164.37 543.432 1187.31 543.419C1202.22 543.266 1217.14 543.203 1231.89 540.777C1236.62 540.149 1241.33 539.435 1246.04 538.683C1247.58 538.376 1249.29 538.46 1250.49 537.32C1253.43 535.332 1253.09 530.387 1249.96 528.702H1249.96Z" fill="#C1C1C1"/>
<path d="M350.471 485.253C350.199 484.634 349.914 484.017 349.631 483.401C349.328 482.666 349.014 481.935 348.71 481.202C348.225 479.552 347.519 477.959 346.824 476.363C346.782 476.279 346.737 476.198 346.688 476.117C347.1 477.093 347.511 478.07 347.924 479.046C346.241 474.815 344.021 470.871 341.981 466.814C337.349 457.821 332.831 448.748 327.456 440.168C319.499 427.884 310.43 416.373 301.734 404.612C289.518 388.338 277.587 371.745 263.508 357.002C247.26 340.304 229.455 325.089 210.158 312.018C198.221 304.292 185.387 298.065 173.294 290.588C165.675 286.119 158.501 280.896 150.71 276.729C141.546 272.511 144.641 274.139 138.444 271.359C124.673 263.912 113.121 283.386 126.435 291.905C140.052 297.831 151.826 307.04 164.598 314.487C178.928 323.222 194.198 330.432 207.512 340.76C216.452 347.126 235.989 363.924 249.762 379.013C264.678 395.828 268.886 402.498 283.463 421.811C293.175 434.942 303.447 447.776 311.274 462.165C318.449 474.678 322.245 485.681 328.497 492.222C329.654 493.746 330.933 495.182 332.153 496.653C332.234 496.76 332.33 496.85 332.415 496.95C338.433 504.699 351.627 500.733 351.723 490.251C351.717 488.483 351.285 486.8 350.471 485.253Z" fill="#DBDBDB"/>
<path d="M566.297 459.137C564.848 453.797 563.468 448.437 562.098 443.076C556.47 419.171 551.12 395.178 542.967 371.97C538.616 359.01 534.348 345.861 527.435 333.996C519.6 320.592 510.246 308.154 501.935 295.052C492.324 279.84 483.425 264.194 474.188 248.756C467.079 237.125 459.68 225.638 451.232 214.925C441.845 203.45 432.546 191.882 422.796 180.713C408.206 164.933 388.026 144.941 379.758 134.081C371.762 126.317 359.024 135.89 364.556 145.811C375.293 161.964 386.792 172.91 403.28 190.194C414.897 202.77 425.525 216.231 436.341 229.494C451.554 249.732 463.482 272.147 476.624 293.729C486.951 311.559 499.704 327.849 510.053 345.657C517.757 359.169 522.909 377.892 529.577 398.789C536.72 423.596 541.392 449.043 548.622 473.835C551.372 483.87 565.887 484.038 568.781 473.835C570.051 468.846 567.231 463.976 566.295 459.137H566.297Z" fill="#DBDBDB"/>
<path d="M893.859 433.515C891.306 424.238 888.846 414.935 886.196 405.684C880.977 387.873 875.519 370.089 868.806 352.778C861.624 334.941 852.963 317.751 845.129 300.201C831.611 270.05 819.555 239.087 802.686 210.585C792.435 192.284 779.738 175.566 767.139 158.85C744.623 128.328 720.323 99.1787 695.84 70.2287C687.336 60.2432 677.39 51.6587 668.465 42.0767C657.536 29.5652 646.916 16.6277 634.028 6.04072C631.007 3.64972 628.052 0.651222 623.901 0.844722C614.795 0.751722 609.905 12.2867 616.493 18.7292C631.176 29.9522 642.66 44.5652 654.906 58.2467C661.026 64.8302 667.818 70.7462 673.964 77.3042C683.028 86.9402 691.406 97.1912 699.758 107.442C716.69 127.937 729.23 142.782 741.909 159.917C758.735 182.211 775.896 204.372 789.117 229.074C804.476 256.736 815.913 286.338 828.978 315.104C837.792 334.403 845.859 350.565 851.012 364.586C861.791 394.025 873.578 437.826 878.784 458.766C882.71 468.891 898.391 465.971 898.386 454.82C898.208 447.486 895.775 440.528 893.856 433.515H893.859Z" fill="#DBDBDB"/>
<path d="M824.315 467.225C824.072 449.781 821.493 432.483 818.414 415.343C815.115 397.422 811.166 379.514 805.025 362.331C795.996 337.667 782.571 314.879 769.254 292.332C755.115 270.279 735.831 231.809 710.603 222.617C699.842 217.733 687.333 218.036 676.235 221.639C665.363 225.66 656.088 233.132 647.798 241.077C636.357 252.626 630.705 261.486 623.351 270.641C622.169 271.733 621.002 272.843 619.871 273.993C615.803 278.03 611.966 282.285 608.201 286.602C608.141 286.652 608.078 286.698 608.018 286.748C608.072 286.71 608.12 286.674 608.166 286.644C608.133 286.682 608.1 286.721 608.067 286.758C607.932 286.859 607.764 286.982 607.536 287.145C607.475 287.184 607.422 287.228 607.361 287.267C607.092 287.478 606.827 287.693 606.557 287.903C606.686 287.78 606.849 287.642 607.022 287.502C604.701 289.113 603.341 291.143 602.762 293.277C601.727 295.164 601.194 297.225 601.67 299.529C602.183 306.689 611.205 310.965 617.213 307.166C619.034 306.102 620.393 304.521 621.711 302.9C629.322 295.023 637.401 287.606 645.684 280.445C654.039 273.366 652.365 274.5 659.393 270.168C666.311 266.192 668.837 264.905 680.925 262.542C681.558 262.436 682.193 262.331 682.826 262.224C684.633 261.998 686.447 261.825 688.263 261.693C696.387 263.853 692.433 262.202 700.104 266.645C707.238 271.577 709.623 273.59 719.109 282.291C730.751 293.462 735.204 301.44 745.829 318.077C755.291 333.576 764.714 349.122 773.012 365.285C783.027 385.04 787.851 394.746 793.478 418.232C799.37 444.527 800.181 458.012 803.808 482.327C806.084 491.135 818.546 492.753 822.993 484.727C825.63 479.346 824.078 473.021 824.313 467.222L824.315 467.225ZM704.736 245.237C704.051 244.922 703.346 244.641 702.645 244.352C701.889 243.408 700.961 242.591 699.863 241.967C697.172 240.285 693.963 240.476 690.917 240.611C690.387 240.638 689.874 240.672 689.355 240.704C688.452 240.581 687.548 240.479 686.64 240.41C686.664 240.405 686.687 240.396 686.709 240.392C687.009 240.324 687.312 240.273 687.615 240.224C690.62 239.87 693.656 239.73 696.669 239.984C697.755 240.234 698.822 240.575 699.888 240.891C701.255 241.332 702.605 241.827 703.941 242.351C705.026 242.843 706.098 243.357 707.139 243.936C711.458 246.699 715.575 250.562 719.619 255.239C714.905 251.538 710.168 247.802 704.732 245.237H704.736Z" fill="#DBDBDB"/>
<path d="M608.019 286.748C607.737 286.949 607.359 287.229 607.023 287.502C607.136 287.424 607.245 287.345 607.362 287.268C607.581 287.096 607.802 286.922 608.019 286.748Z" fill="#DBDBDB"/>
<path d="M509.772 449.786C508.505 435.494 505.346 421.49 500.298 408.057C493.416 387.705 485.156 367.826 474.662 349.058C463.185 327.927 446.013 301.431 419.792 299.216C409.08 298.412 399.57 304.757 392.513 312.258C390.117 314.73 387.81 317.291 385.725 320.031C385.025 320.93 384.33 321.833 383.636 322.736C383.228 323.316 382.859 323.921 382.542 324.555C382.658 324.279 382.775 324.003 382.892 323.729C375.521 333.686 378.197 331.557 370.001 340.868C364.892 346.17 365.286 345.768 362.937 347.585C360.866 349.245 358.017 350.057 356.487 352.299C351.096 358.955 359.306 368.226 366.677 363.905C374.24 359.586 373.751 359.316 378.566 355.929C378.92 355.686 379.242 355.407 379.566 355.128C380.543 354.381 381.516 353.631 382.472 352.86C384.581 353.016 386.676 352.686 388.538 351.527C391.448 349.298 394.398 347.111 397.491 345.138C406.608 339.746 404.294 340.404 412.157 338.561C412.965 338.492 413.775 338.432 414.585 338.414C415.877 338.396 417.17 338.442 418.46 338.538C419.151 338.714 419.834 338.934 420.516 339.138C420.672 339.189 420.828 339.242 420.984 339.294C422.712 340.187 424.356 341.244 425.931 342.39H425.933C430.398 346.178 434.343 350.54 438.036 355.074C441.296 359.418 444.254 363.981 446.984 368.676C449.952 373.758 452.618 379.017 454.953 384.42C461.103 399.576 468.449 414.195 475.1 429.128C478.404 437.234 480.912 445.635 483.938 453.846C486.912 461.684 490.544 474.11 501.092 472.674C505.62 472.299 509.171 468.69 510.318 464.409C511.203 459.566 510.122 454.646 509.774 449.787L509.772 449.786Z" fill="#DBDBDB"/>
<path d="M383.636 322.733C384.02 322.236 384.404 321.738 384.788 321.242C384.372 321.723 383.994 322.223 383.636 322.733Z" fill="#DBDBDB"/>
<path d="M290.772 455.331C289.331 450.59 284.768 447.74 281.655 444.114C275.541 437.948 269.325 431.868 262.67 426.282C251.246 416.934 239.327 408.078 226.622 400.538C222.011 398.121 217.266 395.279 212.121 394.308C208.146 393.548 204.039 395.645 201.671 398.798C201.839 398.58 202.005 398.364 202.173 398.147C202.071 398.277 201.966 398.403 201.854 398.525C197.555 402.777 193.083 406.863 188.429 410.726C183.101 415.052 175.433 420.744 164.957 428.45C146.166 442.398 127.317 456.293 107.843 469.277C83.9284 484.845 53.135 505.344 36.272 517.352C31.826 520.308 27.2975 523.148 22.7 525.86C20.4005 527.328 17.387 527.984 15.8225 530.351C10.376 537.044 18.644 546.54 26.1635 542.129C50.501 531.816 72.455 516.884 94.5949 502.628C118.025 488.024 140.69 472.244 162.882 455.828C178.296 444.095 194.472 433.283 209.022 420.461C210.305 419.252 211.635 418.079 212.939 416.88C220.22 420.683 226.97 425.429 233.672 430.161C243.762 437.379 246.881 439.818 258.396 450.525C262.337 454.313 266.201 458.18 270.012 462.098C273.641 466.467 278.865 470.574 284.723 467.663C289.578 465.956 292.08 460.194 290.775 455.331H290.772Z" fill="#DBDBDB"/>
<path d="M1235.37 194.345C1221.97 198.402 1215.18 200.33 1206.2 202.862C1187.77 208.674 1182.56 210.956 1166.59 218.256C1129.65 236.217 1093.05 256.674 1063.4 285.474C1050.34 298.001 1038.55 311.727 1026.13 324.851C1025.2 325.773 1024.45 326.843 1023.66 327.881C1022.41 330.168 1022.29 331.436 1022.07 333.644C1022.1 342.543 1028.76 349.092 1032.31 356.757C1038.18 368.043 1039.82 375.174 1045.14 391.356C1055.39 420.969 1069.17 467.849 1071.58 488.901C1072.47 493.77 1071.5 499.491 1075.41 503.204C1079.27 507.234 1086.31 507.219 1090.19 503.204C1093.27 500.109 1093.63 495.984 1092.84 491.891C1092.45 488.423 1091.98 484.962 1091.49 481.506C1089.65 468.041 1086.09 454.916 1082.5 441.833C1078.51 427.301 1074.39 412.796 1069.58 398.508C1063.18 380.726 1058.95 362.07 1049.92 345.341C1048.27 342.084 1046.34 338.993 1044.42 335.892C1055.25 324.276 1065.72 312.315 1077.14 301.269C1101.66 276.749 1132.26 259.085 1167.9 240.722C1185.96 231.549 1194.56 228.594 1209.99 221.763C1211.29 221.208 1210.76 221.424 1210.02 221.73C1212.62 220.604 1215.11 219.245 1217.68 218.058C1218.28 217.772 1218.31 217.751 1218.08 217.848C1218.42 217.674 1218.75 217.482 1219.07 217.275C1218.96 217.359 1218.85 217.443 1218.74 217.526C1219.81 216.972 1220.87 216.417 1221.94 215.864C1221.89 215.886 1221.84 215.907 1221.78 215.928C1221.99 215.835 1222.2 215.757 1222.39 215.643C1227.38 213.219 1228.25 212.922 1229.84 212.097C1234.13 210.155 1236.45 209.178 1237.08 209.034C1239.57 208.272 1242.24 207.432 1243.55 204.983C1246.82 199.644 1241.48 192.504 1235.37 194.343L1235.37 194.345Z" fill="#DBDBDB"/>
<path d="M1373.65 337.209C1351.97 343.394 1338 351.69 1322.01 357.488C1308.15 362.885 1293.71 366.648 1279.99 372.44C1258.79 381.141 1238.36 391.599 1218.08 402.258C1213.42 405.236 1207.03 407.016 1204.02 411.87C1202.84 414.405 1202.04 417.08 1201.4 419.798C1195.64 447.507 1184.48 473.58 1173.9 499.706C1171.69 505.194 1169.47 510.684 1167.29 516.185C1166.27 518.93 1164.58 521.72 1165.37 524.723C1165.82 531.914 1174.91 536.138 1180.91 532.359C1185.99 529.313 1186.69 522.509 1189.16 517.437C1191.93 510.528 1194.72 503.627 1197.51 496.725C1204.84 478.506 1212.48 460.329 1217.62 441.338C1219.31 435.626 1220.38 429.752 1221.92 424.002C1222 423.959 1222.08 423.912 1222.15 423.869C1233.01 417.759 1244.16 412.185 1255.29 406.608C1278 395.346 1288.68 390.479 1312.89 382.757C1331.78 376.734 1349.69 368.216 1367.44 359.504L1365.11 360.488C1366.4 359.957 1367.68 359.411 1368.93 358.797C1375.41 355.758 1370.9 357.836 1378.27 354.72L1376.08 355.646C1377.93 354.842 1380.09 354.56 1381.58 353.123C1389.49 347.348 1383.14 334.572 1373.65 337.212V337.209Z" fill="#DBDBDB"/>
<path d="M669.567 221.945C668.031 217.631 666.515 213.306 665.112 208.947C661.04 196.142 657.891 183.044 655.497 169.824C650.397 140.018 648.449 123.501 644.916 92.6612C644.534 88.9577 644.138 85.2512 643.776 81.5402C643.688 79.3052 643.599 77.0702 643.511 74.8352C643.314 70.6292 643.265 66.4097 642.759 62.2247C642.504 59.1977 641.913 56.0942 639.572 53.9432C638.321 52.7087 636.923 51.8912 635.475 51.4082C634.733 42.1052 634.016 32.7362 633.186 21.8822C633.297 22.7087 633.408 23.5337 633.519 24.3602C633.15 20.3882 633.71 15.8312 630.51 12.8597C625.062 7.17174 614.768 11.3612 614.946 19.3067C614.145 44.7227 615.959 66.3857 618.641 96.3287C620.16 114.23 621.686 132.141 624.053 149.954C626.253 166.991 629.186 183.924 631.466 200.951C633.024 212.958 634.529 224.973 635.874 237.006C636.561 241.184 635.834 245.73 637.415 249.683C641.675 260.207 657.399 257.046 657.495 245.531C657.533 243.239 657.524 240.95 657.48 238.659C661.98 240.131 667.596 238.446 669.971 234.072C672.296 230.144 671.291 225.878 669.569 221.945H669.567Z" fill="#DBDBDB"/>
<path d="M411.119 297.426C394.41 256.295 389.166 207.834 388.112 176.42C387.726 172.803 388.251 168.785 386.276 165.591C384.66 162.87 382.221 161.376 379.64 160.911C379.607 160.098 379.565 159.287 379.536 158.474C379.301 155.549 379.866 152.42 378.692 149.667C375.422 141.276 362.481 143.852 362.543 152.918C361.67 173.837 361.334 187.268 362.69 203.159C365.148 237.509 375.786 290.501 380.346 313.956C380.495 324.564 394.355 328.548 399.885 319.368C401.493 316.719 401.513 313.649 401.322 310.611C407.553 310.347 413.085 304.248 411.117 297.428L411.119 297.426Z" fill="#DBDBDB"/>
<path d="M198.335 408.18C198.362 408.246 198.396 408.327 198.42 408.384C198.387 408.293 198.351 408.203 198.318 408.111C197.856 406.163 197.096 404.231 196.368 402.378C194.765 398.034 192.923 393.149 190.931 387.873C189.74 384.348 188.364 380.87 186.983 377.406C179.262 356.88 170.294 332.496 164.075 311.055C162.857 307.514 162.302 303.251 158.874 301.112C154.41 297.765 149.511 298.437 146.189 301.218C145.238 299.237 144.303 297.224 142.535 295.943C136.02 290.646 126.881 298.71 131.135 305.951C139.77 323.577 149.958 349.988 156.659 364.79C165.339 385.712 171.657 397.154 178.143 413.222C178.223 413.472 178.296 413.724 178.379 413.973L178.433 413.951C178.764 414.777 179.096 415.605 179.427 416.459C183.162 423.222 193.656 423.224 197.399 416.459C199.008 413.783 198.984 410.963 198.335 408.176V408.18Z" fill="#DBDBDB"/>
<path d="M425.171 406.212C424.421 405.258 423.65 404.321 422.892 403.373C415.95 391.904 408.86 380.505 402.783 368.544C398.702 359.997 399.356 362.768 396.536 352.164C396.5 351.972 396.467 351.795 396.437 351.633C396.351 350.375 396.318 349.113 396.338 347.852C396.819 345.957 397.547 344.127 398.267 342.314C399.078 340.365 397.935 343.088 397.607 343.86C398.871 340.092 401.661 336.75 402.161 332.793C403.905 321.92 388.905 316.805 383.343 326.292C380.609 331.862 377.681 337.467 376.088 343.488C375.614 346.092 375.492 348.681 375.624 351.251C373.586 350.666 371.418 350.721 369.194 351.852C364.32 353.562 361.848 359.318 363.141 364.184C364.14 368.19 367.86 370.416 370.487 373.307C377.685 380.496 383.859 388.605 390.323 396.44C396.138 403.722 401.03 409.272 405.29 414.471C409.164 420.767 412.529 427.443 417.126 433.22C423.863 439.838 435.125 435.227 435.282 425.673C435.171 417.966 429.474 412.089 425.171 406.212Z" fill="#DBDBDB"/>
<path d="M687.116 431.823C684.873 422.295 681.438 413.081 678.21 403.85C674.022 392.154 669.795 380.442 664.671 369.122C662.694 362.801 660.777 356.459 658.788 350.144C654.753 336.777 649.739 323.736 645.623 310.398C643.487 301.371 643.877 305.154 643.868 297.633C645.155 292.386 644.699 295.119 646.889 290.13C646.727 290.547 646.682 290.705 646.973 290.091C654.875 276.815 651.689 281.708 660.897 271.077C663.131 268.329 666.408 266.171 667.79 262.859C671.469 254.27 660.474 246.791 653.771 253.412C649.665 257.682 645.072 261.437 640.883 265.614C637.319 269.325 634.157 273.396 631.13 277.553C630.369 278.712 626.079 284.448 623.822 292.215C623.765 292.467 623.724 292.722 623.675 292.974C621.531 290.235 619.728 286.86 616.319 285.717C605.961 281.087 596.91 294.633 604.901 302.661C606.579 304.691 610.673 309.689 614.951 317.636C618.918 326.15 622.722 334.737 627.348 342.93C633.209 353.843 639.426 364.598 644.789 375.767C649.218 390.125 654.86 404.045 660.231 418.073C662.169 423.348 664.016 428.657 665.789 433.989C667.053 438.983 669.864 444.53 675.648 444.867C682.721 446.277 689.259 438.65 687.117 431.822L687.116 431.823Z" fill="#DBDBDB"/>
<path d="M1226.24 513.374C1222.84 511.398 1218.67 511.974 1214.9 511.274C1204.97 510.152 1195.02 509.226 1185.05 508.604C1156.65 507.087 1128.18 507.098 1099.79 505.277C1074.87 503.522 1049.85 503.333 1024.93 505.34C994.305 507.752 963.756 511.856 932.966 511.175C897.954 511.029 862.961 509.07 827.945 509.544C801.107 509.871 774.393 512.967 747.558 513.515C720.968 514.692 694.392 513.168 667.806 513.044C655.508 513.197 643.25 514.341 630.96 514.728C616.925 515.241 602.877 515.154 588.836 515.012C547.113 514.215 505.439 516.89 463.745 517.959C441.08 518.805 418.466 520.998 395.771 520.92C370.037 520.917 344.342 519.281 318.627 518.498C299.393 518.142 280.158 518.705 260.936 519.332C260.549 519.342 260.162 519.345 259.776 519.356C245.502 517.395 231.224 515.462 216.879 514.229C216.059 512.276 214.67 510.552 212.667 509.429C211.05 508.391 209.243 508.086 207.392 508.037V508.001C207.129 508.013 206.865 508.02 206.603 508.028C206.313 508.029 206.025 508.037 205.734 508.047C180.479 507.971 155.195 505.833 129.971 507.986C117.834 508.833 105.738 510.305 93.5674 510.597C71.5339 511.571 61.8319 511.211 39.0829 516.608C34.5064 517.892 28.7464 517.229 26.1109 521.918C24.9109 524.162 24.5359 526.901 25.6984 529.218C26.7409 532.241 30.0439 534.276 33.1954 534.261C35.6689 534.092 37.8229 533.918 39.7774 533.744C40.3159 536.61 41.9674 539.27 44.6749 540.759C48.6709 543.218 53.3569 541.709 57.7159 541.449C63.2119 540.896 68.7109 540.369 74.2099 539.828C78.3934 539.624 82.5784 539.498 86.7679 539.528C106.128 539.664 125.498 540.417 144.848 539.337C149.523 539.091 154.188 538.712 158.847 538.272C161.222 540.524 164.706 541.671 168.195 541.755C173.153 542.277 178.133 542.531 183.11 542.783C199.364 543.635 215.648 543.789 231.92 543.56C250.461 543.381 269.046 542.744 287.567 543.896C288.536 544.016 289.505 544.149 290.475 544.262C293.63 544.716 296.954 545.04 299.774 543.242C301.494 542.294 302.777 540.899 303.635 539.294C308.633 539.277 313.631 539.294 318.629 539.385C343.716 540.15 368.783 541.719 393.888 541.805C415.512 541.986 437.064 540.018 458.652 539.066C484.904 538.095 511.163 537.338 537.413 536.289C565.974 535.169 594.549 536.354 623.117 535.835C643.763 535.404 664.356 533.16 685.025 534.117C711.899 535.136 738.8 535.04 765.662 533.694C786.581 532.677 807.45 530.57 828.407 530.411C859.076 529.953 889.748 531.524 920.414 531.945C921.188 532.949 922.131 533.817 923.207 534.461C925.746 536.061 928.802 535.781 931.668 536.115C938.883 536.72 946.103 537.255 953.327 537.731C971.085 538.961 988.895 539.444 1006.69 538.7C1026.82 537.702 1046.93 535.755 1067.11 535.968C1111.38 535.875 1155.74 540.156 1199.88 535.013C1205.76 534.41 1211.63 533.723 1217.51 533.066C1220.02 532.692 1222.72 533.187 1225 531.915C1228.89 530.606 1231.43 526.403 1231.41 522.381C1231.34 518.679 1229.42 515.291 1226.25 513.374H1226.24Z" fill="#DBDBDB"/>
<path d="M1077.35 494.997C1053.38 380.129 997.256 272.147 917.019 186.524C836.783 100.901 732.671 37.8886 619.076 5.04614C619.895 94.6051 626.664 184.11 639.323 272.774" stroke="#151515" stroke-width="6" stroke-linecap="round" stroke-linejoin="round"/>
<path d="M614.847 9.47119C754.599 140.897 852.069 316.61 889.584 504.749" stroke="#151515" stroke-width="6" stroke-linecap="round" stroke-linejoin="round"/>
<path d="M680.894 470.807C664.418 391.851 625.841 317.628 570.69 258.774C515.54 199.92 443.976 156.608 365.897 134.034C366.459 195.594 371.112 257.115 379.814 318.06" stroke="#151515" stroke-width="6" stroke-linecap="round" stroke-linejoin="round"/>
<path d="M362.988 137.076C459.048 227.414 526.046 348.191 551.831 477.51" stroke="#151515" stroke-width="6" stroke-linecap="round" stroke-linejoin="round"/>
<path d="M439.607 460.703C409.212 404.364 363.075 356.625 307.806 324.327C252.537 292.029 188.297 275.267 123.791 275.756C138.144 322.46 155.6 368.211 176.006 412.607" stroke="#151515" stroke-width="6" stroke-linecap="round" stroke-linejoin="round"/>
<path d="M122.267 278.727C215.78 325.722 294.068 402.45 342.938 494.997" stroke="#151515" stroke-width="6" stroke-linecap="round" stroke-linejoin="round"/>
<path d="M606.014 297.365C622.209 287.861 632.76 271.374 645.264 257.366C657.768 243.357 675.123 230.747 693.702 233.477C709.728 235.832 721.832 248.864 731.792 261.636C783.44 327.876 815.099 409.499 821.622 493.241" stroke="#151515" stroke-width="6" stroke-linecap="round" stroke-linejoin="round"/>
<path d="M356.969 356.09C369.003 348.932 376.562 336.372 385.806 325.857C395.052 315.341 408.485 306.066 422.132 309.203C432.686 311.628 440.201 320.769 446.339 329.691C474.801 371.063 491.825 420.221 495.044 470.333" stroke="#151515" stroke-width="6" stroke-linecap="round" stroke-linejoin="round"/>
<path d="M1025.99 326.192C1081.3 258.915 1159.76 211.043 1245.44 193.46C1236.63 302.091 1211.87 409.415 1172.18 510.92" stroke="#151515" stroke-width="6" stroke-linecap="round" stroke-linejoin="round"/>
<path d="M1199.35 416.649C1252.94 377.256 1315.52 350.183 1384.02 339.702C1344.45 403.065 1303.62 465.642 1261.56 527.384C1259.46 530.465 1257.23 533.661 1253.94 535.404C1250.64 537.149 1245.96 536.882 1243.84 533.814" stroke="#151515" stroke-width="6" stroke-linecap="round" stroke-linejoin="round"/>
<path d="M1253.94 535.406C491.672 533.222 510.116 542.186 3.21191 542.186C73.7404 498.269 144.605 454.106 207.318 399.608C218.879 397.489 250.7 406.15 285.5 457.75" stroke="#151515" stroke-width="6" stroke-linecap="round" stroke-linejoin="round"/>
</g>
<defs>
<clipPath id="clip0_556_555">
<rect width="1385.31" height="552.078" fill="white" transform="translate(0.961914 0.835693)"/>
</clipPath>
</defs>
</svg>
