<svg width="310" height="1102" viewBox="0 0 310 1102" fill="none" xmlns="http://www.w3.org/2000/svg">
<g clip-path="url(#clip0_556_993)">
<path d="M22.8485 125.158L13.229 1089.99H298.547L307.613 122.572L277.02 120.888L277.607 3.33252L48.068 3.62652V124.405L22.8485 125.158Z" fill="white"/>
<path d="M49.8707 22.1606C49.6982 15.8306 49.9337 9.2546 48.5717 3.0836C46.7252 -1.7359 39.2507 -0.244897 39.3077 4.9481C40.2092 25.7576 38.9207 46.6256 38.4197 67.4381C37.6727 83.3936 36.5102 99.3806 37.7087 115.336C36.7817 115.449 35.8562 115.573 34.9382 115.662C29.7167 116.106 24.4532 115.935 19.2212 115.714C14.6792 115.587 12.2477 121.503 15.5252 124.636C17.6282 126.732 20.7497 126.123 23.4512 126.327C27.9377 126.402 32.4512 126.489 36.9077 125.886C38.4527 125.701 40.0037 125.497 41.5622 125.52C42.1007 125.641 42.6407 125.751 43.1927 125.748C45.5357 125.85 47.6852 124.024 48.3062 121.825C48.6272 120.37 48.4097 118.911 48.3122 117.444C47.9612 112.362 47.6147 107.274 47.5832 102.177C47.5247 86.1641 49.0367 70.1951 49.2737 54.1871C49.6667 43.5146 49.8437 32.8376 49.8692 22.1591L49.8707 22.1606Z" fill="#C1C1C1"/>
<path d="M22.1871 221.35C20.8926 193.642 23.2386 165.957 23.3526 138.25C23.3076 133.983 23.1246 129.717 23.2536 125.449C23.2206 123.936 23.6166 122.322 22.8696 120.936C22.0281 118.522 19.1256 117.223 16.6896 117.903C14.4771 118.485 12.8166 120.667 12.8436 122.953C13.1016 148.62 11.8161 174.265 11.2491 199.923C12.5811 247.155 12.3531 294.403 12.3366 341.649C12.5796 372.528 11.1501 403.378 10.3566 434.239C8.97062 476.851 7.95812 519.477 7.19762 562.105C6.31412 592.26 8.36912 622.398 7.83512 652.551C7.38812 694.992 7.70612 737.43 7.88762 779.869C7.62362 811.903 7.53662 843.946 7.06712 875.976C6.57212 891.736 6.62912 907.509 6.10862 923.268C5.57612 939.468 4.40012 955.635 3.52712 971.817C2.40212 995.475 2.84912 1019.17 1.87112 1042.83C1.50812 1056.65 0.413117 1070.47 0.918617 1084.3C1.05662 1087.62 1.29662 1090.94 1.58612 1094.25C1.49612 1097.57 4.99862 1100.28 8.21762 1099.3C9.56762 1098.96 10.5936 1098.04 11.3481 1096.9C12.3711 1095.31 11.9781 1093.42 11.8491 1091.66C11.5611 1088.02 11.3586 1084.38 11.2821 1080.73C11.1486 1065.89 12.1821 1051.06 12.5976 1036.22C13.2531 1014.11 12.9741 991.971 14.1051 969.871C16.2486 939.628 17.0736 909.333 17.4591 879.022C18.1611 854.035 17.6976 829.03 18.2196 804.039C18.6726 772.24 18.0021 740.442 18.0441 708.643C18.0531 672.295 18.8871 635.947 17.6706 599.61C17.0616 569.227 18.1911 538.84 18.7581 508.464C19.8006 466.341 21.1071 424.227 22.3941 382.113C23.0406 358.269 22.6806 334.417 22.8351 310.567C22.7991 280.827 22.9896 251.085 22.1871 221.35Z" fill="#C1C1C1"/>
<path d="M291.471 1089.71C287.036 1090.14 282.582 1090.35 278.127 1090.42C266.196 1090.5 254.271 1089.86 242.339 1089.95C229.215 1090.04 216.092 1090.5 202.97 1090C166.104 1088.8 129.228 1087.08 92.3539 1089.03C67.6054 1090.14 42.8749 1091.85 18.0874 1091.24C15.5104 1091.23 12.9349 1091.18 10.3624 1091.03C8.21441 1090.83 5.78741 1090.63 4.18241 1092.36C1.03391 1095.39 3.34841 1101.27 7.81241 1101.13C47.9479 1103.41 88.0324 1098.54 128.177 1098.54C155.576 1098.3 182.942 1100.17 210.332 1100.62C222.236 1100.91 234.138 1100.3 246.044 1100.4C257.975 1100.39 269.904 1101.14 281.834 1100.78C286.214 1100.63 290.585 1100.3 294.939 1099.81C296.577 1099.5 298.37 1099.72 299.892 1099.02C301.839 1098.36 303.114 1096.26 303.105 1094.25C302.388 1087.35 296.34 1089.28 291.476 1089.71H291.471Z" fill="#C1C1C1"/>
<path d="M60.6604 4.56717C57.7294 -2.94183 46.2724 -0.594326 46.3069 7.45617C44.9644 37.8057 42.1984 68.1267 43.0684 98.5377C43.2109 105.901 43.3954 113.265 43.5154 120.628C43.0114 125.7 45.4264 130.555 51.0544 130.657C55.0819 130.647 58.6189 127.228 58.5544 123.157C58.4479 115.902 58.2754 108.646 58.1239 101.392C57.7414 86.2767 58.0069 71.1507 58.6564 56.0457C59.1379 45.0312 59.8204 34.0272 60.6004 23.0292C60.8734 18.8952 61.0084 14.7552 61.1779 10.6152C61.1839 8.59617 61.6909 6.40767 60.6604 4.56417V4.56717Z" fill="#DBDBDB"/>
<path d="M33.8841 605.566C33.4611 587.004 36.0636 568.524 36.0861 549.969C35.9301 534.907 34.0926 519.919 33.7386 504.865C33.6126 491.839 34.8771 478.845 35.2296 465.829C36.4146 415.104 38.3721 364.354 36.1806 313.627C35.1591 287.094 35.5311 260.544 35.6721 233.998C35.5206 212.263 34.4586 190.543 33.8826 168.816C33.5931 158.068 32.9706 147.331 32.0946 136.615C31.5426 133.239 32.4636 129.325 29.9286 126.675C28.4676 125.212 26.2836 124.662 24.2736 125.181C21.8181 125.827 19.9761 128.247 20.0061 130.785C22.7766 171.876 22.4511 213.112 22.6056 254.277C22.8051 284.541 23.6631 314.796 24.0351 345.058C23.8566 384.145 21.4851 423.196 21.6426 462.297C21.1461 480.675 18.8826 499.053 20.6571 517.429C21.7866 532.564 22.8486 547.74 22.1901 562.923C21.4836 579.408 19.5021 595.866 20.3871 612.385C21.0681 628.177 22.4751 643.978 21.4551 659.788C20.8101 670.507 19.6116 681.187 18.9891 691.906C18.4221 705.006 18.4956 718.123 18.5901 731.232C18.8766 764.244 17.5116 797.244 17.1111 830.25C17.0571 857.161 17.8101 884.067 18.0111 910.975C17.6076 930.204 15.6456 949.374 15.9231 968.622C15.4761 994.657 16.7016 1020.72 15.1881 1046.73C14.8311 1053.76 14.5926 1060.79 14.1786 1067.82C13.9296 1071.76 13.9521 1075.7 14.2941 1079.63C14.4936 1081.28 14.3406 1083.04 15.1986 1084.52C17.1186 1090.1 25.2501 1091.63 29.2551 1087.31C30.7746 1085.61 31.8621 1083.51 31.7946 1081.18C31.6581 1080.07 31.5291 1078.96 31.3521 1077.86C31.4556 1078.63 31.5576 1079.4 31.6611 1080.16C31.5366 1079.13 31.4316 1078.1 31.3596 1077.06C30.5991 1059.56 31.8411 1042 32.5131 1024.51C32.8341 1002.92 32.0151 981.325 32.5476 959.734C32.9736 941.17 34.8561 922.644 34.5786 904.06C33.2916 855.612 33.5436 807.165 34.3236 758.712C35.0406 732.757 32.8086 706.759 34.7151 680.841C35.5641 668.383 36.5361 655.912 36.0891 643.417C35.7441 630.78 34.0416 618.213 33.8841 605.566Z" fill="#DBDBDB"/>
<path d="M288.974 1073.87C287.645 1073.09 286.205 1072.73 284.686 1072.65C283.724 1072.51 282.758 1072.37 281.72 1072.25C253.436 1069.7 224.947 1069.27 196.567 1069.88C180.688 1070.69 164.827 1071.93 148.925 1072.28C133.892 1072.72 118.853 1072.38 103.817 1072.42C85.5607 1072.37 67.2668 1071.72 49.0373 1072.99C42.1583 1073.53 35.3198 1074.52 28.4408 1075.03C24.7958 1075.48 20.6948 1074.57 17.2568 1075.78C10.9718 1078.18 12.8888 1087.97 19.6943 1087.89C32.7683 1088.41 45.7433 1086.12 58.8188 1086.35C83.7143 1086.72 108.574 1088.71 133.489 1088.55C155.543 1088.78 177.541 1086.84 199.585 1086.66C226.946 1086.94 254.272 1088.93 281.564 1090.75C284.858 1090.98 288.427 1090.67 290.81 1088.12C294.977 1084.12 293.992 1076.72 288.974 1073.87Z" fill="#DBDBDB"/>
<path d="M152.433 181.866C150.983 180.58 149.253 179.676 147.272 179.728C144.161 179.503 141.044 179.397 137.927 179.32C131.468 179.146 125.006 179.109 118.545 178.98C99.0305 178.117 79.58 179.514 60.107 180.598C57.2 180.739 54.2825 180.954 51.3725 180.913C51.368 176.34 51.3785 171.766 51.3215 167.193C51.248 162.772 51.176 158.353 51.1025 153.934C51.1115 152.092 50.351 150.279 49.0505 148.981C44.8685 144.592 36.95 147.847 37.091 153.934C36.9305 162.633 36.7955 171.33 36.827 180.031C36.809 184.225 36.2705 189.019 39.707 192.121C45.8195 197.08 54.3545 195.235 61.6325 195.136C74.303 194.695 86.9345 193.345 99.617 193.329C112.338 193.441 125.058 193.693 137.777 193.923C139.901 193.98 142.026 194.031 144.149 194.142C146.132 194.179 148.269 194.73 150.084 193.702C154.827 192.085 156.033 185.238 152.433 181.866Z" fill="#DBDBDB"/>
<path d="M283.951 183.414C280.319 179.926 274.078 181.558 269.395 181.084C263.147 181.048 256.9 181.086 250.654 181.089C230.807 181.089 210.962 181.359 191.129 182.079C189.055 182.145 186.98 182.116 184.907 182.032C184.697 176.754 184.481 171.474 184.204 166.198C184.027 162.198 183.742 158.2 183.296 154.219C183.074 151.804 183.002 149.169 181.076 147.414C176.999 143.137 169.289 146.31 169.426 152.239C169.859 161.031 169.885 169.839 170.233 178.635C170.464 182.068 170.101 185.637 171.035 188.973C172.502 194.137 177.782 196.441 182.782 196.521C187.609 196.881 192.446 196.612 197.278 196.474C210.343 196.017 223.417 195.811 236.489 195.753C247.403 195.708 258.317 195.67 269.231 195.711C272.414 195.742 275.597 195.819 278.779 195.904C279.787 195.942 280.726 195.732 281.597 195.274C286.349 193.654 287.56 186.793 283.952 183.414H283.951Z" fill="#DBDBDB"/>
<path d="M285.287 241.027C283.83 239.736 282.093 238.827 280.101 238.879C276.915 238.735 273.729 238.573 270.545 238.39C264.9 238.078 259.263 237.658 253.623 237.285C233.292 236.398 212.903 235.888 192.579 237.16C190.083 237.256 187.581 237.406 185.081 237.442C185.36 232.27 185.252 227.077 185.117 221.902C184.961 218.449 184.824 214.995 184.715 211.539C184.725 209.61 183.927 207.712 182.567 206.353C178.187 201.757 169.901 205.167 170.048 211.539C170.31 219.22 170.744 226.902 170.532 234.591C170.642 238.053 169.674 241.521 170.217 244.945C171.894 251.593 179.561 252.405 185.342 252.115C190.887 251.967 196.422 251.604 201.965 251.373C214.019 250.699 226.092 251.214 238.154 251.388C248.994 251.5 259.796 252.415 270.611 253.06C272.735 253.182 274.859 253.294 276.983 253.399C278.967 253.425 281.114 253.927 282.929 252.915C287.693 251.29 288.905 244.414 285.288 241.027H285.287Z" fill="#DBDBDB"/>
<path d="M288.48 302.664C284.55 299.046 278.682 300.883 273.833 300.592C267.204 300.739 260.573 300.834 253.943 300.783C235.478 300.486 217.053 298.785 198.573 299.409C194.019 299.449 188.909 299.514 185.189 299.322C185.492 292.164 185.559 284.992 185.153 277.839C184.685 274.285 185.376 270.064 182.565 267.349C178.187 262.755 169.898 266.163 170.046 272.535C170.852 280.411 170.885 288.343 170.651 296.25C170.714 299.856 169.878 303.531 170.631 307.083C172.01 312.12 177.447 313.414 182.04 313.758C187.596 314.335 193.203 314.049 198.782 314.071C211.235 313.8 223.683 314.097 236.114 314.866C248.648 315.559 261.207 315.571 273.753 315.259C276.933 315.171 280.115 315.112 283.296 315.181C284.306 315.219 285.248 315.009 286.122 314.55C290.886 312.925 292.098 306.049 288.482 302.662L288.48 302.664Z" fill="#DBDBDB"/>
<path d="M286.951 368.682C284.285 365.979 280.393 366.57 276.937 366.156C269.17 365.566 261.415 364.8 253.634 364.39C233.516 364.228 213.406 363.745 193.297 363.081C188.479 362.97 185.375 363.099 182.942 362.866C182.996 355.656 184.067 348.48 184.541 341.289C184.514 338.001 185.368 334.371 184.084 331.27C181.226 323.925 170.009 326.227 170.048 334.096C170.219 342.787 168.713 351.391 168.328 360.057C167.921 367.497 168.124 374.088 176.47 376.563C184.186 378.301 192.184 377.499 200.03 377.88C214.978 378.447 229.928 379.017 244.891 378.879C257.221 378.823 269.482 380.361 281.767 381.204C288.16 381.316 291.556 373.167 286.952 368.685L286.951 368.682Z" fill="#DBDBDB"/>
<path d="M155.72 361.866C151.778 358.155 145.934 360.33 141.083 360.112C134.389 360.412 127.696 360.76 121.001 361.071C101.137 362.502 81.236 362.371 61.334 362.313C58.544 362.316 55.7495 362.391 52.961 362.295C52.6445 356.878 52.802 351.444 52.781 346.011C52.7435 342.412 52.577 338.818 52.4105 335.224C52.4195 333.334 51.6395 331.474 50.306 330.142C46.016 325.641 37.8935 328.98 38.039 335.224C38.6705 344.497 37.814 353.796 38.402 363.058C38.7455 369.165 39.0365 374.206 45.89 376.107C52.451 377.578 59.2715 376.768 65.942 376.939C81.9395 376.935 97.9475 377.218 113.918 376.083C125.128 375.478 136.342 374.961 147.557 374.463C150.422 374.365 153.617 374.448 155.72 372.169C158.531 369.478 158.518 364.567 155.72 361.866Z" fill="#DBDBDB"/>
<path d="M151.408 300.94C147.427 298.933 142.652 300.466 138.355 300.195C131.761 300.363 125.165 300.43 118.573 300.673C98.8765 301.554 79.1665 302.047 59.4505 302.152C57.733 302.151 56.014 302.194 54.295 302.23C54.514 297.573 54.6625 292.912 54.6205 288.249C54.5935 284.503 54.5485 280.756 54.412 277.012C54.253 273.864 54.6445 270.259 52.105 267.915C47.7265 263.32 39.4375 266.728 39.586 273.1C40.0885 284.22 40.12 295.368 39.4105 306.478C38.5 312.295 42.1045 316.978 48.121 316.911C53.2645 316.992 58.4125 316.785 63.5575 316.773C79.414 316.695 95.266 316.287 111.109 315.651C123.299 315.048 135.508 315.004 147.706 314.605C155.06 314.652 157.796 304.683 151.406 300.939L151.408 300.94Z" fill="#DBDBDB"/>
<path d="M156.914 240.481C152.992 236.77 147.173 238.962 142.333 238.645C137.509 238.785 132.682 238.897 127.855 238.906C107.036 238.78 86.2176 239.344 65.4021 239.043C60.7146 238.954 56.5686 238.711 53.7621 238.374C53.5461 231.745 53.5746 225.109 53.3721 218.481C53.0271 215.266 53.7276 211.74 52.4931 208.716C49.6371 201.372 38.4186 203.673 38.4576 211.542C38.7981 219.295 38.8791 227.056 38.9811 234.816C39.2166 240.396 38.3136 247.375 43.8411 250.728C46.6626 252.357 49.9776 252.601 53.1471 252.975C58.1451 253.566 63.1776 253.689 68.2041 253.759C81.7686 254.001 95.3346 253.531 108.901 253.629C122.183 253.561 135.469 253.66 148.744 253.11C151.619 253.06 154.81 253.147 156.917 250.854C159.746 248.145 159.734 243.202 156.917 240.483L156.914 240.481Z" fill="#DBDBDB"/>
<path d="M149.17 428.986C147.719 427.701 145.99 426.796 144.008 426.849C140.897 426.624 137.78 426.517 134.663 426.441C128.204 426.267 121.742 426.229 115.282 426.1C95.7668 425.238 76.3163 426.634 56.8433 427.719C53.9363 427.86 51.0188 428.074 48.1088 428.034C48.1043 423.46 48.1148 418.887 48.0578 414.313C47.9843 409.893 47.9123 405.474 47.8388 401.055C47.8478 399.213 47.0873 397.399 45.7868 396.102C41.6048 391.713 33.6863 394.968 33.8273 401.055C33.6668 409.753 33.5318 418.45 33.5633 427.152C33.5453 431.346 33.0068 436.14 36.4433 439.242C42.5558 444.201 51.0908 442.356 58.3688 442.257C71.0393 441.816 83.6708 440.466 96.3533 440.449C109.075 440.562 121.795 440.814 134.513 441.043C136.637 441.1 138.763 441.151 140.885 441.262C142.868 441.3 145.006 441.85 146.821 440.823C151.564 439.206 152.77 432.36 149.17 428.988V428.986Z" fill="#DBDBDB"/>
<path d="M280.686 430.533C277.055 427.045 270.813 428.677 266.13 428.203C259.883 428.167 253.635 428.205 247.389 428.208C227.543 428.208 207.698 428.478 187.865 429.198C185.79 429.264 183.716 429.235 181.643 429.151C181.433 423.873 181.217 418.593 180.939 413.317C180.762 409.317 180.477 405.319 180.032 401.338C179.81 398.923 179.738 396.288 177.812 394.533C173.735 390.256 166.025 393.429 166.161 399.358C166.595 408.15 166.62 416.958 166.968 425.754C167.199 429.187 166.836 432.756 167.771 436.092C169.238 441.256 174.518 443.56 179.517 443.64C184.344 444 189.182 443.731 194.013 443.593C207.078 443.136 220.152 442.93 233.225 442.872C244.139 442.827 255.053 442.789 265.967 442.83C269.15 442.861 272.333 442.938 275.514 443.023C276.522 443.061 277.461 442.851 278.333 442.393C283.085 440.773 284.295 433.912 280.688 430.533H280.686Z" fill="#DBDBDB"/>
<path d="M282.021 488.148C280.565 486.856 278.828 485.947 276.836 486C273.65 485.856 270.464 485.694 267.279 485.511C261.635 485.199 255.998 484.779 250.358 484.405C230.027 483.519 209.637 483.009 189.314 484.281C186.818 484.377 184.316 484.527 181.815 484.563C182.094 479.391 181.986 474.198 181.851 469.023C181.695 465.57 181.559 462.115 181.449 458.659C181.46 456.73 180.662 454.833 179.301 453.474C174.921 448.878 166.635 452.287 166.782 458.659C167.045 466.341 167.478 474.022 167.267 481.711C167.376 485.173 166.409 488.641 166.952 492.066C168.629 498.714 176.295 499.525 182.076 499.236C187.622 499.087 193.157 498.724 198.699 498.493C210.753 497.82 222.827 498.334 234.888 498.508C245.729 498.621 256.53 499.536 267.345 500.181C269.469 500.302 271.593 500.415 273.717 500.52C275.702 500.545 277.848 501.048 279.663 500.035C284.427 498.411 285.639 491.535 282.023 488.148H282.021Z" fill="#DBDBDB"/>
<path d="M285.216 549.783C281.286 546.165 275.418 548.002 270.569 547.711C263.94 547.858 257.309 547.953 250.679 547.902C232.214 547.605 213.789 545.904 195.309 546.528C190.755 546.568 185.645 546.633 181.925 546.441C182.228 539.283 182.295 532.111 181.889 524.958C181.421 521.404 182.112 517.183 179.301 514.468C174.923 509.874 166.634 513.282 166.782 519.654C167.588 527.53 167.621 535.462 167.387 543.369C167.45 546.975 166.614 550.65 167.367 554.202C168.746 559.239 174.183 560.533 178.776 560.877C184.332 561.454 189.939 561.168 195.518 561.19C207.971 560.919 220.419 561.216 232.85 561.985C245.384 562.678 257.943 562.69 270.489 562.378C273.669 562.29 276.851 562.231 280.032 562.3C281.042 562.338 281.984 562.128 282.858 561.669C287.622 560.044 288.834 553.168 285.218 549.781L285.216 549.783Z" fill="#DBDBDB"/>
<path d="M283.685 615.801C281.019 613.098 277.127 613.689 273.671 613.275C265.904 612.685 258.149 611.919 250.368 611.509C230.25 611.347 210.14 610.864 190.031 610.2C185.213 610.089 182.109 610.218 179.676 609.985C179.73 602.775 180.801 595.599 181.275 588.408C181.248 585.12 182.102 581.49 180.818 578.389C177.96 571.044 166.743 573.346 166.782 581.215C166.953 589.906 165.447 598.51 165.062 607.176C164.655 614.616 164.858 621.207 173.204 623.682C180.92 625.42 188.918 624.618 196.764 624.999C211.712 625.566 226.662 626.136 241.625 625.998C253.955 625.942 266.216 627.48 278.501 628.323C284.894 628.435 288.29 620.286 283.686 615.804L283.685 615.801Z" fill="#DBDBDB"/>
<path d="M152.456 608.986C148.514 605.275 142.67 607.45 137.819 607.233C131.125 607.533 124.432 607.881 117.737 608.191C97.8729 609.622 77.9724 609.492 58.0704 609.433C55.2804 609.436 52.4859 609.511 49.6974 609.415C49.3809 603.999 49.5384 598.564 49.5174 593.131C49.4799 589.533 49.3134 585.939 49.1469 582.345C49.1559 580.455 48.3759 578.595 47.0424 577.263C42.7524 572.761 34.6299 576.1 34.7754 582.345C35.4069 591.618 34.5504 600.916 35.1384 610.179C35.4819 616.285 35.7729 621.327 42.6264 623.227C49.1874 624.699 56.0079 623.889 62.6784 624.06C78.6759 624.055 94.6839 624.339 110.654 623.203C121.864 622.599 133.078 622.081 144.293 621.583C147.158 621.486 150.353 621.568 152.456 619.29C155.267 616.599 155.254 611.689 152.456 608.988V608.986Z" fill="#DBDBDB"/>
<path d="M148.144 548.059C144.163 546.052 139.388 547.585 135.091 547.314C128.497 547.482 121.901 547.549 115.309 547.792C95.6123 548.673 75.9023 549.166 56.1863 549.271C54.4688 549.27 52.7498 549.313 51.0308 549.349C51.2498 544.692 51.3983 540.031 51.3563 535.368C51.3293 531.622 51.2843 527.875 51.1478 524.131C50.9888 520.983 51.3803 517.378 48.8408 515.034C44.4623 510.439 36.1733 513.847 36.3218 520.219C36.8243 531.339 36.8558 542.487 36.1463 553.597C35.2358 559.414 38.8403 564.097 44.8568 564.03C50.0003 564.111 55.1483 563.904 60.2933 563.892C76.1498 563.814 92.0018 563.406 107.845 562.77C120.035 562.167 132.244 562.123 144.442 561.724C151.796 561.771 154.532 551.802 148.142 548.058L148.144 548.059Z" fill="#DBDBDB"/>
<path d="M153.65 487.6C149.727 483.889 143.909 486.081 139.068 485.764C134.244 485.904 129.417 486.016 124.59 486.025C103.772 485.899 82.9535 486.463 62.138 486.162C57.4505 486.073 53.3045 485.83 50.498 485.493C50.282 478.864 50.3105 472.228 50.108 465.6C49.763 462.385 50.4635 458.859 49.229 455.835C46.373 448.491 35.1545 450.792 35.1935 458.661C35.534 466.414 35.615 474.175 35.717 481.935C35.9525 487.515 35.0495 494.494 40.577 497.847C43.3985 499.476 46.7135 499.72 49.883 500.094C54.881 500.685 59.9135 500.808 64.94 500.878C78.5045 501.12 92.0705 500.65 105.636 500.748C118.919 500.68 132.204 500.779 145.479 500.229C148.355 500.179 151.545 500.266 153.653 497.973C156.482 495.264 156.47 490.321 153.653 487.602L153.65 487.6Z" fill="#DBDBDB"/>
<path d="M149.17 668.206C147.719 666.921 145.99 666.016 144.008 666.069C140.897 665.844 137.78 665.737 134.663 665.661C128.204 665.487 121.742 665.449 115.282 665.32C95.7668 664.458 76.3163 665.854 56.8433 666.939C53.9363 667.08 51.0188 667.294 48.1088 667.254C48.1043 662.68 48.1148 658.107 48.0578 653.533C47.9843 649.113 47.9123 644.694 47.8388 640.275C47.8478 638.433 47.0873 636.619 45.7868 635.322C41.6048 630.933 33.6863 634.188 33.8273 640.275C33.6668 648.973 33.5318 657.67 33.5633 666.372C33.5453 670.566 33.0068 675.36 36.4433 678.462C42.5558 683.421 51.0908 681.576 58.3688 681.477C71.0393 681.036 83.6708 679.686 96.3533 679.669C109.075 679.782 121.795 680.034 134.513 680.263C136.637 680.32 138.763 680.371 140.885 680.482C142.868 680.52 145.006 681.07 146.821 680.043C151.564 678.426 152.77 671.58 149.17 668.208V668.206Z" fill="#DBDBDB"/>
<path d="M280.686 669.754C277.055 666.267 270.813 667.899 266.13 667.425C259.883 667.389 253.635 667.426 247.389 667.429C227.543 667.429 207.698 667.699 187.865 668.419C185.79 668.485 183.716 668.457 181.643 668.373C181.433 663.094 181.217 657.814 180.939 652.539C180.762 648.538 180.477 644.541 180.032 640.56C179.81 638.145 179.738 635.509 177.812 633.754C173.735 629.478 166.025 632.65 166.161 638.58C166.595 647.371 166.62 656.179 166.968 664.975C167.199 668.409 166.836 671.977 167.771 675.313C169.238 680.478 174.518 682.782 179.517 682.861C184.344 683.221 189.182 682.953 194.013 682.815C207.078 682.357 220.152 682.152 233.225 682.093C244.139 682.048 255.053 682.011 265.967 682.051C269.15 682.083 272.333 682.159 275.514 682.245C276.522 682.282 277.461 682.072 278.333 681.615C283.085 679.995 284.295 673.134 280.688 669.754H280.686Z" fill="#DBDBDB"/>
<path d="M282.021 727.369C280.565 726.078 278.828 725.169 276.836 725.221C273.65 725.077 270.464 724.915 267.279 724.732C261.635 724.42 255.998 724 250.358 723.627C230.027 722.74 209.637 722.23 189.314 723.502C186.818 723.598 184.316 723.748 181.815 723.784C182.094 718.612 181.986 713.419 181.851 708.244C181.695 704.791 181.559 701.337 181.449 697.881C181.46 695.952 180.662 694.054 179.301 692.695C174.921 688.099 166.635 691.509 166.782 697.881C167.045 705.562 167.478 713.244 167.267 720.933C167.376 724.395 166.409 727.863 166.952 731.287C168.629 737.935 176.295 738.747 182.076 738.457C187.622 738.309 193.157 737.946 198.699 737.715C210.753 737.041 222.827 737.556 234.888 737.73C245.729 737.842 256.53 738.757 267.345 739.402C269.469 739.524 271.593 739.636 273.717 739.741C275.702 739.767 277.848 740.269 279.663 739.257C284.427 737.632 285.639 730.756 282.023 727.369H282.021Z" fill="#DBDBDB"/>
<path d="M285.216 789.004C281.286 785.386 275.418 787.224 270.569 786.933C263.94 787.08 257.309 787.174 250.679 787.123C232.214 786.826 213.789 785.125 195.309 785.749C190.755 785.79 185.645 785.854 181.925 785.662C182.228 778.504 182.295 771.333 181.889 764.179C181.421 760.626 182.112 756.405 179.301 753.69C174.923 749.095 166.634 752.503 166.782 758.875C167.588 766.752 167.621 774.684 167.387 782.59C167.45 786.196 166.614 789.871 167.367 793.423C168.746 798.46 174.183 799.755 178.776 800.098C184.332 800.676 189.939 800.389 195.518 800.412C207.971 800.14 220.419 800.437 232.85 801.207C245.384 801.9 257.943 801.912 270.489 801.6C273.669 801.511 276.851 801.453 280.032 801.522C281.042 801.559 281.984 801.349 282.858 800.89C287.622 799.266 288.834 792.39 285.218 789.003L285.216 789.004Z" fill="#DBDBDB"/>
<path d="M283.685 855.022C281.019 852.319 277.127 852.91 273.671 852.496C265.904 851.907 258.149 851.14 250.368 850.731C230.25 850.569 210.14 850.086 190.031 849.421C185.213 849.31 182.109 849.439 179.676 849.207C179.73 841.996 180.801 834.82 181.275 827.629C181.248 824.341 182.102 820.711 180.818 817.611C177.96 810.265 166.743 812.568 166.782 820.437C166.953 829.128 165.447 837.732 165.062 846.397C164.655 853.837 164.858 860.428 173.204 862.903C180.92 864.642 188.918 863.839 196.764 864.22C211.712 864.787 226.662 865.357 241.625 865.219C253.955 865.164 266.216 866.701 278.501 867.544C284.894 867.657 288.29 859.507 283.686 855.025L283.685 855.022Z" fill="#DBDBDB"/>
<path d="M152.456 848.206C148.514 844.495 142.67 846.67 137.819 846.453C131.125 846.753 124.432 847.101 117.737 847.411C97.8729 848.842 77.9724 848.712 58.0704 848.653C55.2804 848.656 52.4859 848.731 49.6974 848.635C49.3809 843.219 49.5384 837.784 49.5174 832.351C49.4799 828.753 49.3134 825.159 49.1469 821.565C49.1559 819.675 48.3759 817.815 47.0424 816.483C42.7524 811.981 34.6299 815.32 34.7754 821.565C35.4069 830.838 34.5504 840.136 35.1384 849.399C35.4819 855.505 35.7729 860.547 42.6264 862.447C49.1874 863.919 56.0079 863.109 62.6784 863.28C78.6759 863.275 94.6839 863.559 110.654 862.423C121.864 861.819 133.078 861.301 144.293 860.803C147.158 860.706 150.353 860.788 152.456 858.51C155.267 855.819 155.254 850.909 152.456 848.208V848.206Z" fill="#DBDBDB"/>
<path d="M148.144 787.281C144.163 785.274 139.388 786.807 135.091 786.535C128.497 786.703 121.901 786.771 115.309 787.014C95.6123 787.894 75.9023 788.388 56.1863 788.493C54.4688 788.491 52.7498 788.535 51.0308 788.571C51.2498 783.913 51.3983 779.253 51.3563 774.589C51.3293 770.844 51.2843 767.097 51.1478 763.353C50.9888 760.204 51.3803 756.6 48.8408 754.255C44.4623 749.661 36.1733 753.069 36.3218 759.441C36.8243 770.56 36.8558 781.708 36.1463 792.819C35.2358 798.636 38.8403 803.319 44.8568 803.251C50.0003 803.332 55.1483 803.125 60.2933 803.113C76.1498 803.035 92.0018 802.627 107.845 801.991C120.035 801.388 132.244 801.345 144.442 800.946C151.796 800.992 154.532 791.023 148.142 787.279L148.144 787.281Z" fill="#DBDBDB"/>
<path d="M153.65 726.822C149.727 723.111 143.909 725.302 139.068 724.986C134.244 725.125 129.417 725.238 124.59 725.247C103.772 725.121 82.9535 725.685 62.138 725.383C57.4505 725.295 53.3045 725.052 50.498 724.714C50.282 718.086 50.3105 711.45 50.108 704.821C49.763 701.607 50.4635 698.08 49.229 695.056C46.373 687.712 35.1545 690.013 35.1935 697.882C35.534 705.636 35.615 713.397 35.717 721.156C35.9525 726.736 35.0495 733.716 40.577 737.068C43.3985 738.697 46.7135 738.942 49.883 739.315C54.881 739.906 59.9135 740.029 64.94 740.1C78.5045 740.341 92.0705 739.872 105.636 739.969C118.919 739.902 132.204 740.001 145.479 739.45C148.355 739.401 151.545 739.488 153.653 737.194C156.482 734.485 156.47 729.543 153.653 726.823L153.65 726.822Z" fill="#DBDBDB"/>
<path d="M153.694 914.899C152.243 913.614 150.514 912.709 148.532 912.762C145.421 912.537 142.304 912.43 139.187 912.354C132.728 912.18 126.266 912.142 119.806 912.013C100.291 911.151 80.8403 912.547 61.3673 913.632C58.4603 913.773 55.5427 913.987 52.6327 913.947C52.6282 909.373 52.6387 904.8 52.5817 900.226C52.5082 895.806 52.4362 891.387 52.3627 886.968C52.3717 885.126 51.6112 883.312 50.3107 882.015C46.1287 877.626 38.2102 880.881 38.3512 886.968C38.1907 895.666 38.0557 904.363 38.0872 913.065C38.0692 917.259 37.5307 922.053 40.9672 925.155C47.0797 930.114 55.6147 928.269 62.8927 928.17C75.5632 927.729 88.1947 926.379 100.877 926.362C113.599 926.475 126.319 926.727 139.037 926.956C141.161 927.013 143.287 927.064 145.409 927.175C147.392 927.213 149.53 927.763 151.345 926.736C156.088 925.119 157.294 918.271 153.694 914.899Z" fill="#DBDBDB"/>
<path d="M285.209 916.446C281.577 912.958 275.336 914.59 270.653 914.116C264.405 914.08 258.158 914.118 251.912 914.121C232.065 914.121 212.22 914.391 192.387 915.111C190.313 915.177 188.238 915.148 186.165 915.064C185.955 909.786 185.739 904.506 185.462 899.23C185.285 895.23 185 891.232 184.554 887.251C184.332 884.836 184.26 882.201 182.334 880.446C178.257 876.169 170.547 879.342 170.684 885.271C171.117 894.063 171.143 902.871 171.491 911.667C171.722 915.1 171.359 918.669 172.293 922.005C173.76 927.169 179.04 929.473 184.04 929.553C188.867 929.913 193.704 929.644 198.536 929.506C211.601 929.049 224.675 928.843 237.747 928.785C248.661 928.74 259.575 928.702 270.489 928.743C273.672 928.774 276.855 928.851 280.037 928.936C281.045 928.974 281.984 928.764 282.855 928.306C287.607 926.686 288.818 919.825 285.21 916.446H285.209Z" fill="#DBDBDB"/>
<path d="M286.546 974.061C285.089 972.769 283.352 971.86 281.36 971.913C278.174 971.769 274.988 971.607 271.804 971.424C266.159 971.112 260.522 970.692 254.882 970.318C234.551 969.432 214.162 968.922 193.838 970.194C191.342 970.29 188.84 970.44 186.34 970.476C186.619 965.304 186.511 960.111 186.376 954.936C186.22 951.483 186.083 948.028 185.974 944.572C185.984 942.643 185.186 940.746 183.826 939.387C179.446 934.791 171.16 938.2 171.307 944.572C171.569 952.254 172.003 959.935 171.791 967.624C171.901 971.086 170.933 974.554 171.476 977.979C173.153 984.627 180.82 985.438 186.601 985.149C192.146 985 197.681 984.637 203.224 984.406C215.278 983.733 227.351 984.247 239.413 984.421C250.253 984.534 261.055 985.449 271.87 986.094C273.994 986.215 276.118 986.328 278.242 986.433C280.226 986.458 282.373 986.961 284.188 985.948C288.952 984.324 290.162 977.448 286.546 974.061Z" fill="#DBDBDB"/>
<path d="M289.741 1035.7C285.811 1032.08 279.943 1033.92 275.093 1033.62C268.465 1033.77 261.833 1033.87 255.203 1033.81C236.738 1033.52 218.314 1031.82 199.834 1032.44C195.28 1032.48 190.169 1032.55 186.449 1032.35C186.752 1025.2 186.82 1018.02 186.413 1010.87C185.945 1007.32 186.637 1003.1 183.826 1000.38C179.447 995.787 171.158 999.195 171.307 1005.57C172.112 1013.44 172.145 1021.38 171.911 1029.28C171.974 1032.89 171.139 1036.56 171.892 1040.11C173.27 1045.15 178.708 1046.45 183.301 1046.79C188.857 1047.37 194.464 1047.08 200.042 1047.1C212.495 1046.83 224.944 1047.13 237.374 1047.9C249.908 1048.59 262.468 1048.6 275.014 1048.29C278.194 1048.2 281.375 1048.14 284.557 1048.21C285.566 1048.25 286.508 1048.04 287.383 1047.58C292.147 1045.96 293.359 1039.08 289.742 1035.69L289.741 1035.7Z" fill="#DBDBDB"/>
<path d="M152.666 1033.97C148.685 1031.97 143.91 1033.5 139.613 1033.23C133.019 1033.39 126.423 1033.46 119.831 1033.71C100.134 1034.59 80.4243 1035.08 60.7083 1035.18C58.9908 1035.18 57.2718 1035.23 55.5528 1035.26C55.7718 1030.6 55.9203 1025.94 55.8783 1021.28C55.8513 1017.54 55.8063 1013.79 55.6698 1010.04C55.5108 1006.9 55.9023 1003.29 53.3628 1000.95C48.9843 996.352 40.6953 999.76 40.8438 1006.13C41.3463 1017.25 41.3778 1028.4 40.6683 1039.51C39.7578 1045.33 43.3623 1050.01 49.3788 1049.94C54.5223 1050.02 59.6703 1049.82 64.8153 1049.8C80.6718 1049.73 96.5238 1049.32 112.367 1048.68C124.557 1048.08 136.766 1048.04 148.964 1047.64C156.318 1047.68 159.054 1037.71 152.664 1033.97L152.666 1033.97Z" fill="#DBDBDB"/>
<path d="M158.172 973.513C154.25 969.802 148.431 971.994 143.591 971.677C138.767 971.817 133.94 971.929 129.113 971.938C108.294 971.812 87.4759 972.376 66.6604 972.075C61.9729 971.986 57.8269 971.743 55.0204 971.406C54.8044 964.777 54.8329 958.141 54.6304 951.513C54.2854 948.298 54.9859 944.772 53.7514 941.748C50.8954 934.404 39.6769 936.705 39.7159 944.574C40.0564 952.327 40.1374 960.088 40.2394 967.848C40.4749 973.428 39.5719 980.407 45.0994 983.76C47.9209 985.389 51.2359 985.633 54.4054 986.007C59.4034 986.598 64.4359 986.721 69.4624 986.791C83.0269 987.033 96.5929 986.563 110.159 986.661C123.441 986.593 136.727 986.692 150.002 986.142C152.877 986.092 156.068 986.179 158.175 983.886C161.004 981.177 160.992 976.234 158.175 973.515L158.172 973.513Z" fill="#DBDBDB"/>
<path d="M38.3647 194.062C76.9477 194.178 115.531 194.293 154.112 194.409C154.457 179.113 154.802 166.546 155.147 151.251C140.492 151.251 56.5147 150.118 39.0352 150.807C39.1357 165.468 38.3647 175.135 38.3647 194.064V194.062Z" stroke="#151515" stroke-width="6" stroke-linecap="round" stroke-linejoin="round"/>
<path d="M170.582 194.062C209.165 194.178 247.748 194.293 286.33 194.409C286.675 179.113 287.02 166.546 287.365 151.251C272.71 151.251 188.732 150.118 171.253 150.807C171.353 165.468 170.582 175.135 170.582 194.064V194.062Z" stroke="#151515" stroke-width="6" stroke-linecap="round" stroke-linejoin="round"/>
<path d="M38.3647 251.812C76.9477 251.928 115.531 252.043 154.112 252.159C154.457 236.863 154.802 224.296 155.147 209.001C140.492 209.001 56.5147 207.868 39.0352 208.557C39.1357 223.218 38.3647 232.885 38.3647 251.814V251.812Z" stroke="#151515" stroke-width="6" stroke-linecap="round" stroke-linejoin="round"/>
<path d="M170.582 251.812C209.165 251.928 247.748 252.043 286.33 252.159C286.675 236.863 287.02 224.296 287.365 209.001C272.71 209.001 188.732 207.868 171.253 208.557C171.353 223.218 170.582 232.885 170.582 251.814V251.812Z" stroke="#151515" stroke-width="6" stroke-linecap="round" stroke-linejoin="round"/>
<path d="M38.3647 313.144C76.9477 313.26 115.531 313.375 154.112 313.491C154.457 298.195 154.802 285.628 155.147 270.333C140.492 270.333 56.5147 269.2 39.0352 269.889C39.1357 284.55 38.3647 294.217 38.3647 313.146V313.144Z" stroke="#151515" stroke-width="6" stroke-linecap="round" stroke-linejoin="round"/>
<path d="M170.582 313.144C209.165 313.26 247.748 313.375 286.33 313.491C286.675 298.195 287.02 285.628 287.365 270.333C272.71 270.333 188.732 269.2 171.253 269.889C171.353 284.55 170.582 294.217 170.582 313.146V313.144Z" stroke="#151515" stroke-width="6" stroke-linecap="round" stroke-linejoin="round"/>
<path d="M38.3647 375.385C76.9477 375.501 115.531 375.616 154.112 375.732C154.457 360.436 154.802 347.869 155.147 332.574C140.492 332.574 56.5147 331.441 39.0352 332.13C39.1357 346.791 38.3647 356.457 38.3647 375.385Z" stroke="#151515" stroke-width="6" stroke-linecap="round" stroke-linejoin="round"/>
<path d="M170.582 375.385C209.165 375.501 247.748 375.616 286.33 375.732C286.675 360.436 287.02 347.869 287.365 332.574C272.71 332.574 188.732 331.441 171.253 332.13C171.353 346.791 170.582 356.457 170.582 375.385Z" stroke="#151515" stroke-width="6" stroke-linecap="round" stroke-linejoin="round"/>
<path d="M38.3647 440.095C76.9477 440.211 115.531 440.326 154.112 440.442C154.457 425.146 154.802 412.579 155.147 397.284C140.492 397.284 56.5147 396.151 39.0352 396.84C39.1357 411.501 38.3647 421.168 38.3647 440.097V440.095Z" stroke="#151515" stroke-width="6" stroke-linecap="round" stroke-linejoin="round"/>
<path d="M170.582 440.095C209.165 440.211 247.748 440.326 286.33 440.442C286.675 425.146 287.02 412.579 287.365 397.284C272.71 397.284 188.732 396.151 171.253 396.84C171.353 411.501 170.582 421.168 170.582 440.097V440.095Z" stroke="#151515" stroke-width="6" stroke-linecap="round" stroke-linejoin="round"/>
<path d="M38.3647 497.845C76.9477 497.961 115.531 498.076 154.112 498.192C154.457 482.896 154.802 470.329 155.147 455.034C140.492 455.034 56.5147 453.901 39.0352 454.59C39.1357 469.251 38.3647 478.918 38.3647 497.847V497.845Z" stroke="#151515" stroke-width="6" stroke-linecap="round" stroke-linejoin="round"/>
<path d="M170.582 497.845C209.165 497.961 247.748 498.076 286.33 498.192C286.675 482.896 287.02 470.329 287.365 455.034C272.71 455.034 188.732 453.901 171.253 454.59C171.353 469.251 170.582 478.918 170.582 497.847V497.845Z" stroke="#151515" stroke-width="6" stroke-linecap="round" stroke-linejoin="round"/>
<path d="M38.3647 559.177C76.9477 559.293 115.531 559.408 154.112 559.524C154.457 544.228 154.802 531.661 155.147 516.366C140.492 516.366 56.5147 515.233 39.0352 515.922C39.1357 530.583 38.3647 540.25 38.3647 559.179V559.177Z" stroke="#151515" stroke-width="6" stroke-linecap="round" stroke-linejoin="round"/>
<path d="M170.582 559.177C209.165 559.293 247.748 559.408 286.33 559.524C286.675 544.228 287.02 531.661 287.365 516.366C272.71 516.366 188.732 515.233 171.253 515.922C171.353 530.583 170.582 540.25 170.582 559.179V559.177Z" stroke="#151515" stroke-width="6" stroke-linecap="round" stroke-linejoin="round"/>
<path d="M38.3647 621.418C76.9477 621.534 115.531 621.649 154.112 621.765C154.457 606.469 154.802 593.902 155.147 578.607C140.492 578.607 56.5147 577.474 39.0352 578.163C39.1357 592.824 38.3647 602.491 38.3647 621.42V621.418Z" stroke="#151515" stroke-width="6" stroke-linecap="round" stroke-linejoin="round"/>
<path d="M170.582 621.418C209.165 621.534 247.748 621.649 286.33 621.765C286.675 606.469 287.02 593.902 287.365 578.607C272.71 578.607 188.732 577.474 171.253 578.163C171.353 592.824 170.582 602.491 170.582 621.42V621.418Z" stroke="#151515" stroke-width="6" stroke-linecap="round" stroke-linejoin="round"/>
<path d="M38.3647 681.858C76.9477 681.973 115.531 682.089 154.112 682.204C154.457 666.909 154.802 654.342 155.147 639.046C140.492 639.046 56.5147 637.914 39.0352 638.602C39.1357 653.263 38.3647 662.931 38.3647 681.859V681.858Z" stroke="#151515" stroke-width="6" stroke-linecap="round" stroke-linejoin="round"/>
<path d="M170.582 681.858C209.165 681.973 247.748 682.089 286.33 682.204C286.675 666.909 287.02 654.342 287.365 639.046C272.71 639.046 188.732 637.914 171.253 638.602C171.353 653.263 170.582 662.931 170.582 681.859V681.858Z" stroke="#151515" stroke-width="6" stroke-linecap="round" stroke-linejoin="round"/>
<path d="M38.3647 739.608C76.9477 739.723 115.531 739.839 154.112 739.954C154.457 724.659 154.802 712.092 155.147 696.796C140.492 696.796 56.5147 695.664 39.0352 696.352C39.1357 711.013 38.3647 720.681 38.3647 739.609V739.608Z" stroke="#151515" stroke-width="6" stroke-linecap="round" stroke-linejoin="round"/>
<path d="M170.582 739.608C209.165 739.723 247.748 739.839 286.33 739.954C286.675 724.659 287.02 712.092 287.365 696.796C272.71 696.796 188.732 695.664 171.253 696.352C171.353 711.013 170.582 720.681 170.582 739.609V739.608Z" stroke="#151515" stroke-width="6" stroke-linecap="round" stroke-linejoin="round"/>
<path d="M38.3647 800.938C76.9477 801.054 115.531 801.169 154.112 801.285C154.457 785.989 154.802 773.422 155.147 758.127C140.492 758.127 56.5147 756.994 39.0352 757.683C39.1357 772.344 38.3647 782.01 38.3647 800.938Z" stroke="#151515" stroke-width="6" stroke-linecap="round" stroke-linejoin="round"/>
<path d="M170.582 800.938C209.165 801.054 247.748 801.169 286.33 801.285C286.675 785.989 287.02 773.422 287.365 758.127C272.71 758.127 188.732 756.994 171.253 757.683C171.353 772.344 170.582 782.01 170.582 800.938Z" stroke="#151515" stroke-width="6" stroke-linecap="round" stroke-linejoin="round"/>
<path d="M38.3647 863.179C76.9477 863.295 115.531 863.41 154.112 863.526C154.457 848.23 154.802 835.663 155.147 820.368C140.492 820.368 56.5147 819.235 39.0352 819.924C39.1357 834.585 38.3647 844.252 38.3647 863.181V863.179Z" stroke="#151515" stroke-width="6" stroke-linecap="round" stroke-linejoin="round"/>
<path d="M170.582 863.179C209.165 863.295 247.748 863.41 286.33 863.526C286.675 848.23 287.02 835.663 287.365 820.368C272.71 820.368 188.732 819.235 171.253 819.924C171.353 834.585 170.582 844.252 170.582 863.181V863.179Z" stroke="#151515" stroke-width="6" stroke-linecap="round" stroke-linejoin="round"/>
<path d="M38.3647 926.88C76.9477 926.995 115.531 927.111 154.112 927.226C154.457 911.931 154.802 899.364 155.147 884.068C140.492 884.068 56.5147 882.936 39.0352 883.624C39.1357 898.285 38.3647 907.951 38.3647 926.88Z" stroke="#151515" stroke-width="6" stroke-linecap="round" stroke-linejoin="round"/>
<path d="M170.582 926.88C209.165 926.995 247.748 927.111 286.33 927.226C286.675 911.931 287.02 899.364 287.365 884.068C272.71 884.068 188.732 882.936 171.253 883.624C171.353 898.285 170.582 907.951 170.582 926.88Z" stroke="#151515" stroke-width="6" stroke-linecap="round" stroke-linejoin="round"/>
<path d="M38.3647 984.63C76.9477 984.745 115.531 984.861 154.112 984.976C154.457 969.681 154.802 957.114 155.147 941.818C140.492 941.818 56.5147 940.686 39.0352 941.374C39.1357 956.035 38.3647 965.701 38.3647 984.63Z" stroke="#151515" stroke-width="6" stroke-linecap="round" stroke-linejoin="round"/>
<path d="M170.582 984.63C209.165 984.745 247.748 984.861 286.33 984.976C286.675 969.681 287.02 957.114 287.365 941.818C272.71 941.818 188.732 940.686 171.253 941.374C171.353 956.035 170.582 965.701 170.582 984.63Z" stroke="#151515" stroke-width="6" stroke-linecap="round" stroke-linejoin="round"/>
<path d="M38.3647 1045.96C76.9477 1046.08 115.531 1046.19 154.112 1046.31C154.457 1031.01 154.802 1018.45 155.147 1003.15C140.492 1003.15 56.5147 1002.02 39.0352 1002.71C39.1357 1017.37 38.3647 1027.03 38.3647 1045.96Z" stroke="#151515" stroke-width="6" stroke-linecap="round" stroke-linejoin="round"/>
<path d="M170.582 1045.96C209.165 1046.08 247.748 1046.19 286.33 1046.31C286.675 1031.01 287.02 1018.45 287.365 1003.15C272.71 1003.15 188.732 1002.02 171.253 1002.71C171.353 1017.37 170.582 1027.03 170.582 1045.96Z" stroke="#151515" stroke-width="6" stroke-linecap="round" stroke-linejoin="round"/>
<path d="M22.8485 125.157L13.229 1089.99H298.547L307.613 122.571L277.02 120.886L277.607 3.33118L48.068 3.62518V124.404L22.8485 125.157Z" stroke="#151515" stroke-width="6" stroke-linecap="round" stroke-linejoin="round"/>
<path d="M71.4663 33.0146L73.0578 116.584L256.025 116.301L255.753 33.1646L71.4663 33.0146Z" stroke="#151515" stroke-width="6" stroke-linecap="round" stroke-linejoin="round"/>
</g>
<defs>
<clipPath id="clip0_556_993">
<rect width="309.075" height="1101.72" fill="white" transform="translate(0.788086 0.0131836)"/>
</clipPath>
</defs>
</svg>
