<svg width="268" height="650" viewBox="0 0 268 650" fill="none" xmlns="http://www.w3.org/2000/svg">
<g clip-path="url(#clip0_556_669)">
<path d="M12.931 2.35229C12.931 255.225 13.4965 415.175 10.4995 635.163C109.267 635.163 262.884 640.244 262.884 640.244L265.5 5.64329L12.931 2.35229Z" fill="white"/>
<path d="M14.3295 269.724C12.984 245.429 13.665 221.114 14.0595 196.803C14.5485 170.627 14.3265 144.443 13.4865 118.277C13.191 90.8688 13.1985 63.4563 12.618 36.0513C12.5445 29.6193 12.441 23.1858 12.6825 16.7553C12.618 12.7368 13.2705 8.54729 12.4575 4.63229C11.877 2.97779 9.87895 2.06729 8.19895 2.54279C6.67495 2.94329 5.53045 4.44629 5.54845 6.02279C4.16695 42.7653 3.93295 79.5408 3.21595 116.303C3.67795 143.237 4.17595 170.177 3.60145 197.115C3.48145 212.463 2.87845 227.808 3.05845 243.158C3.10645 255.014 3.88795 266.852 4.15795 278.703C5.04745 311.955 5.96995 345.209 6.61495 378.465C6.69595 412.536 5.11645 446.561 3.86695 480.597C3.37945 498.797 3.49045 517.004 3.25345 535.206C2.33695 562.89 1.71595 590.585 0.652454 618.263C0.403454 624.024 0.241454 629.79 0.149954 635.556C0.274454 637.652 -0.352546 639.872 0.533954 641.823C1.69195 645.173 6.59245 646.115 9.00595 643.505C9.92095 642.479 10.578 641.216 10.5375 639.809C10.5855 636.285 10.6485 632.762 10.7325 629.24C11.898 597.21 12.804 565.173 13.752 533.136C13.944 507.855 13.8765 482.558 15.1605 457.301C18.6705 394.805 16.0515 332.231 14.328 269.721L14.3295 269.724Z" fill="#C1C1C1"/>
<path d="M236.901 638.411C228.439 638.367 219.97 638.546 211.515 638.135C201.072 637.512 190.662 636.393 180.208 635.948C166.788 635.348 153.39 636.59 139.984 637.058C135.39 637.233 130.795 637.389 126.199 637.497C124.921 637.619 123.52 637.299 122.337 637.872C121.687 638.094 121.161 638.52 120.775 639.051C105.934 638.561 91.0889 638.162 76.2509 637.569C54.1919 636.485 32.1419 637.211 10.1039 638.249C4.75642 637.469 3.44692 645.296 9.15892 645.749C19.5104 645.68 29.8349 644.654 40.1894 644.562C55.0109 644.334 69.8294 644.813 84.6389 645.372C106.237 646.302 127.887 646.224 149.425 648.213C169.576 649.377 189.783 648.33 209.94 649.553C221.346 649.877 232.738 649.302 244.131 648.834C249.136 648.362 254.715 649.355 259.45 647.64C260.76 646.871 261.28 645.671 261.367 644.262C261.655 637.337 241.842 638.727 236.902 638.412L236.901 638.411Z" fill="#C1C1C1"/>
<path d="M33.2503 546.687C33.1483 524.85 32.1418 502.992 32.8948 481.163C36.1543 436.767 29.7688 392.388 31.7128 347.982C32.4808 325.079 33.0208 302.139 32.0743 279.233C30.5998 250.644 30.5293 221.991 32.6338 193.433C34.0273 175.451 33.2488 157.418 32.7523 139.416C32.0713 113.45 30.6568 87.5148 29.5243 61.5678C29.0773 50.0433 28.2763 38.5323 27.7903 27.0093C27.6793 22.4133 27.5668 17.8173 27.3673 13.2243C27.1423 11.1063 27.5788 8.81878 26.5858 6.87628C23.8018 -0.269724 12.6598 1.75228 12.6793 9.67528C13.5133 31.5858 12.3988 53.5098 13.0138 75.4248C13.9888 99.4413 16.0348 123.413 15.6673 147.473C16.0078 166.371 14.2318 185.177 12.8203 203.997C11.8138 219.624 11.6848 235.29 12.0208 250.941C12.8428 274.38 12.9673 297.822 12.4603 321.269C12.1753 339.165 10.8883 357.048 11.1418 374.952C11.8498 405.825 13.9138 436.686 13.1338 467.577C12.0643 520.772 12.8488 573.999 12.5908 627.206C12.9178 640.671 32.8528 641.264 33.4513 627.206C33.3853 600.366 33.6208 573.524 33.2518 546.687H33.2503Z" fill="#DBDBDB"/>
<path d="M257.571 622.341C241.672 619.824 225.64 617.999 209.658 616.026C202.453 615.05 195.238 614.115 188.013 613.304C177.207 611.559 164.811 609.722 156.298 609.411C131.092 608.402 118.177 609.435 95.7449 610.653C82.1654 611.45 71.1899 613.974 62.7824 615.191C52.5119 616.811 42.9794 617.285 28.3064 619.997C24.9044 620.837 20.6639 621.089 18.7499 624.452C15.7004 629.459 20.6804 636.012 26.3459 634.334C34.9064 631.901 46.0034 632.466 61.9229 630.987C62.7104 633.098 64.1549 634.971 66.2999 636.168C69.9479 638.373 74.3519 637.421 78.3914 637.386C84.7739 637.095 91.1054 636.18 97.4384 635.375C110.979 633.528 121.716 631.925 140.598 631.662C155.082 631.424 169.561 632.228 183.967 633.728C197.056 635.859 210.195 637.635 223.363 639.218C222.439 639.093 221.514 638.969 220.59 638.846C231.936 640.173 243.151 643.007 254.622 642.948C266.847 642.915 269.508 625.941 257.572 622.346L257.571 622.341Z" fill="#DBDBDB"/>
<path d="M78.0807 604.323C77.0457 600.284 72.7302 598.823 68.9697 599.588C61.0572 600.141 53.0967 600.131 45.2517 601.434C44.9607 601.475 44.6682 601.515 44.3772 601.556C44.3787 600.944 44.3817 600.332 44.3712 599.72C42.9342 577.256 42.6912 554.72 41.2617 532.244C41.1147 527.262 41.0142 522.281 40.8057 517.301C40.7322 515.526 40.8822 513.533 39.4587 512.222C36.9372 509.538 31.9962 511.545 32.1207 515.261C32.6052 538.584 33.3057 561.908 33.4587 585.237C33.6432 590.372 33.6777 595.521 33.0732 600.63C33.0342 600.89 32.9982 601.149 32.9802 601.413C32.3907 605.217 31.7592 609.807 35.3217 612.207C39.9957 615.813 46.1817 613.097 51.5292 613.05C56.5467 612.71 61.5807 612.678 66.6072 612.569C69.1287 612.507 71.8227 613.265 74.2062 612.219C77.3757 611.154 78.8352 607.421 78.0822 604.322L78.0807 604.323Z" fill="#DBDBDB"/>
<path d="M126.928 602.649C125.04 601.464 122.787 601.673 120.655 601.505C116.586 601.263 112.512 601.149 108.438 601.014C105.678 600.929 102.916 600.89 100.156 600.884C99.6582 596.553 99.5277 595.28 99.1677 589.37C98.6082 580.107 98.7102 570.824 98.6307 561.549C98.5707 546.119 97.9272 530.69 98.0637 515.262C97.9917 509.754 89.7087 509.673 89.5977 515.262C89.0697 528.728 89.6967 542.208 89.5212 555.68C89.1222 571.626 89.0427 587.573 89.0112 603.519C89.0082 603.737 89.0022 603.938 88.9947 604.125C88.7997 604.538 88.6587 604.973 88.5642 605.424C88.5582 605.448 88.5567 605.451 88.5492 605.486C88.3872 606.113 88.3077 606.746 88.3122 607.385C89.3712 616.515 97.4322 615.027 106.275 615.495C110.937 615.689 115.599 615.887 120.262 616.077C123.99 616.658 128.568 615.764 129.91 611.748C131.506 608.534 129.943 604.439 126.93 602.652L126.928 602.649Z" fill="#DBDBDB"/>
<path d="M182.098 601.748C180.45 600.824 178.408 600.564 176.544 600.788C176.788 600.758 177.033 600.723 177.213 600.687C175.539 600.732 173.866 600.747 172.191 600.735C166.681 600.738 161.163 600.548 155.679 601.095C155.791 592.032 154.935 582.99 154.552 573.941C154.161 563.633 154.027 553.317 153.919 543.003C153.82 534.993 153.757 526.982 153.442 518.975C153.201 516.404 154.063 513.344 151.999 511.347C149.227 508.395 143.797 510.605 143.934 514.688C144.495 541.542 144.862 568.41 145.083 595.271C145.027 597.761 144.996 600.252 144.897 602.742C144.868 602.853 144.846 602.964 144.823 603.077C144.823 603.069 144.825 603.062 144.826 603.054C144.703 603.369 144.637 603.56 144.609 603.674C144.495 604.014 144.412 604.361 144.375 604.716C144.403 604.509 144.432 604.299 144.451 604.131C143.098 608.355 144.621 612.719 149.185 613.923C150.784 614.615 156.139 613.872 162.141 613.809C166.557 613.904 170.977 614.106 175.378 614.472C177.364 614.798 179.439 615.143 181.263 614.199C186.562 612.353 186.945 604.4 182.098 601.748Z" fill="#DBDBDB"/>
<path d="M239.313 603.927C238.351 603.066 237.255 602.4 236.046 602.063C236.046 602.063 236.049 602.063 236.05 602.063C236.047 602.063 236.044 602.063 236.041 602.061C235.654 601.953 235.257 601.877 234.847 601.844C232.494 601.434 230.091 601.335 227.715 601.128C222.996 600.767 218.277 600.404 213.559 600.021C213.552 599.969 213.544 599.912 213.537 599.858C213.555 599.972 213.555 599.96 213.525 599.748C212.176 587.667 211.749 565.977 210.975 548.733C210.591 537.47 210.03 526.214 209.209 514.973C209.082 508.991 200.227 508.911 200.055 514.973C201.966 541.052 201.484 567.237 200.79 593.355C200.638 601.542 199.317 601.154 200.026 607.164C202.789 615.768 213.793 614.115 220.956 615.24C224.361 615.525 227.772 615.728 231.178 616.004C234.864 616.673 239.464 615.711 240.795 611.759C242.065 609.239 241.285 605.883 239.313 603.927Z" fill="#DBDBDB"/>
<path d="M235.269 484.611C227.491 483.047 219.538 483.761 211.657 483.474C211.051 477.519 209.925 460.743 209.397 450.768C208.726 436.271 209.919 421.776 210.417 407.292C210.541 404.471 210.66 401.651 210.823 398.831C211.02 396.708 211.149 394.338 209.437 392.766C206.404 389.537 200.467 391.956 200.616 396.42C199.818 414.687 198.573 432.966 198.69 451.257C199.527 465.357 198.76 481.418 199.723 490.589C201.129 495.399 205.855 496.859 210.421 496.547C214.77 496.569 219.105 496.109 223.452 496.097C228.217 496.155 229.569 496.488 230.718 496.622C231.087 496.662 231.547 496.721 231.972 496.776C232.792 497.007 233.611 497.063 234.432 496.872C236.044 496.79 237.652 495.845 238.542 494.502C241.389 491.253 239.422 485.615 235.269 484.61V484.611Z" fill="#DBDBDB"/>
<path d="M175.512 483.207C170.482 482.684 165.406 482.882 160.357 482.82C159.48 482.793 158.602 482.763 157.725 482.726C157.662 478.418 156.858 474.129 156.28 469.863C156.109 468.72 155.521 464.664 155.662 465.749C155.04 462.767 154.138 445.133 154.392 436.667C154.357 427.62 154.179 418.577 153.999 409.533C153.939 406.176 153.825 402.821 153.799 399.465C153.748 398.3 153.958 397.047 153.367 395.994C151.527 391.176 144.043 392.666 144.105 397.859C144.225 417.276 143.874 436.694 143.707 456.107C143.854 466.371 145.662 476.628 144.909 486.891C144.855 487.31 144.81 487.731 144.751 488.148C144.769 490.371 145.47 491.888 146.97 493.41C149.118 495.476 152.061 496.1 154.936 496.41C159.516 497.045 164.154 496.893 168.757 497.195C172.338 497.189 176.232 498.5 179.638 497.054C182.272 496.166 183.999 493.317 183.985 490.592C183.237 483.47 177.792 483.564 175.51 483.212L175.512 483.207Z" fill="#DBDBDB"/>
<path d="M129.147 485.991C127.195 484.775 124.858 485.022 122.661 484.815C119.862 484.635 117.063 484.457 114.261 484.322C110.314 484.106 106.365 483.962 102.415 483.827C102.304 479.322 101.883 474.168 101.616 472.428C99.0974 452.681 99.1844 432.726 98.9864 412.853C98.9849 408.807 99.2759 404.126 99.5009 402.002C99.5534 401.645 99.7694 400.098 99.8714 399.414C100.21 398.181 100.033 396.836 99.3899 395.735C97.4489 392.162 91.6244 392.891 90.6644 396.875C88.0634 406.209 88.4519 415.985 88.2719 425.583C88.0679 438.735 88.0889 451.881 88.4324 465.029C88.4369 471.242 88.4249 477.455 88.3589 483.668C88.3229 485.925 88.0409 488.289 88.4804 490.517C88.5899 491.462 88.7834 492.386 89.3354 493.208C90.7199 495.609 93.2714 496.979 95.9444 497.495C95.8169 497.498 96.2009 497.576 97.2764 497.688C103.465 498.423 104.074 498.299 106.645 498.465C111.472 498.71 116.299 498.936 121.12 499.271C123.489 499.29 126.081 500.106 128.278 498.939C133.788 497.016 134.188 488.751 129.148 485.993L129.147 485.991Z" fill="#DBDBDB"/>
<path d="M74.1059 484.611C71.9219 483.281 69.2864 483.612 66.8384 483.546C63.1754 483.654 59.4674 483.522 55.8389 484.079C56.4824 483.992 57.1259 483.906 57.7694 483.819C50.4179 484.334 49.2359 484.593 45.2339 484.943C45.1169 484.17 45.0134 483.396 44.8754 482.627C44.8619 482.547 44.8559 482.514 44.8469 482.459C44.8319 482.36 44.8244 482.307 44.8214 482.303C44.7794 482.064 44.8154 482.33 44.8649 482.696C44.8904 482.892 44.9249 483.152 44.9759 483.51V483.515C42.9404 471.5 43.7774 459.345 43.6469 447.221C43.6694 438.959 43.2419 430.701 43.2344 422.439C43.2089 415.052 43.3949 407.624 42.3644 400.29C41.9174 397.86 41.7554 394.856 39.3689 393.504C35.9174 391.346 31.2419 394.907 32.4524 398.822C33.5294 402.999 32.8049 414.674 32.7719 422.909C32.9444 438.441 32.4539 453.954 32.1719 469.479C32.2949 474.335 32.7269 479.175 32.9954 484.023C33.2399 487.584 32.3474 491.429 33.9509 494.741C35.0339 496.49 36.7544 497.585 38.6909 498.194C39.3089 498.401 39.5009 498.423 39.4484 498.341C39.5579 498.383 39.6539 498.447 39.7649 498.486C49.9409 499.394 60.2039 497.654 70.4114 498.248C77.7794 498.278 80.4614 488.352 74.1044 484.613L74.1059 484.611Z" fill="#DBDBDB"/>
<path d="M68.9713 364.089C68.8123 364.043 68.6638 363.98 68.4988 363.941C65.1658 363.333 61.7968 364.029 58.4323 364.034C54.8968 364.145 51.3478 364.316 47.8063 364.269C47.2588 355.268 45.9643 346.131 45.1033 334.038C43.9993 319.299 43.7638 304.515 43.5913 289.742C43.5418 286.478 43.4923 283.214 43.4428 279.95C43.4503 278.628 42.9043 277.343 41.9773 276.411C39.0403 273.284 33.2908 275.627 33.4348 279.95C33.0028 302.694 32.7598 325.47 34.4263 348.174C34.7893 354.143 34.9063 360.164 34.2433 366.114C34.2103 366.324 34.1743 366.549 34.1353 366.795C34.0228 367.206 33.9733 367.632 33.9328 368.061C33.8938 368.33 33.8638 368.598 33.8473 368.865C33.8518 368.807 33.8608 368.727 33.8743 368.624C33.8653 368.709 33.8593 368.795 33.8473 368.879C33.7858 369.843 33.8488 370.805 34.0513 371.771C35.4883 377.427 42.1078 378.896 47.2258 378.75C52.0783 378.81 56.9323 378.69 61.7803 378.477C64.0183 378.288 66.1783 378.516 68.4013 378.029C68.7613 377.916 69.1168 377.787 69.4708 377.658C71.5078 377.097 73.3348 375.633 74.0128 373.628C75.9553 369.735 73.0573 364.872 68.9743 364.088L68.9713 364.089Z" fill="#DBDBDB"/>
<path d="M33.8399 368.928C33.8414 368.912 33.8429 368.895 33.8444 368.879C33.8444 368.874 33.8444 368.87 33.8444 368.865C33.8444 368.883 33.8384 368.915 33.8384 368.927L33.8399 368.928Z" fill="#DBDBDB"/>
<path d="M117.202 365.15C115.405 365.136 113.607 365.103 111.811 365.039C105.148 364.61 105.46 364.859 101.92 364.064C101.574 359.054 101.029 354.059 100.549 349.058C98.6938 326.51 100.21 303.906 100.179 281.327C100.477 278.49 99.8413 275.033 96.7843 274.016C93.3553 272.312 88.9513 275.298 89.0803 279.098C88.0678 302.193 86.5723 325.299 87.2473 348.428C87.3718 353.768 87.3508 359.112 87.5263 364.451C87.6013 366.539 87.6493 368.64 88.0933 370.691C88.9738 373.337 91.0348 375.534 93.5983 376.629C99.3598 379.104 105.865 379.266 112.048 379.682C114.678 379.587 117.576 380.331 120.022 379.154C122.748 378.236 124.534 375.287 124.521 372.467C124.513 368.535 121.173 365.087 117.202 365.15Z" fill="#DBDBDB"/>
<path d="M172.881 362.793C167.953 362.559 163.005 362.355 158.092 362.838C157.182 356.747 157.206 341.357 157.03 331.263C156.564 315.486 155.886 299.714 155.01 283.955C154.797 281.588 155.21 278.858 153.296 277.08C150.206 273.786 144.154 276.255 144.304 280.805C144.99 303.198 145.308 325.607 144.949 348.011C144.897 354.087 145.05 360.173 144.568 366.236C144.652 365.607 144.738 364.979 144.822 364.35C144.466 366.957 144.268 369.681 144.696 372.288C145.392 374.862 147.523 377.042 150.099 377.738C151.998 378.29 153.96 377.94 155.89 377.637C159.316 377.217 162.768 377.013 166.219 377.132C169.222 377.22 172.221 377.381 175.221 377.514C176.961 377.57 178.833 377.889 180.408 376.986C183.133 376.068 184.92 373.119 184.906 370.299C184.366 363.105 178.705 362.768 172.881 362.793Z" fill="#DBDBDB"/>
<path d="M231.541 366.789C229.99 366.795 228.438 366.789 226.885 366.755C222.622 366.581 218.347 366.461 214.098 366.047C214.131 364.704 214.165 363.362 214.165 362.019C213.744 333.903 214.257 302.892 210.636 279.474C210.265 272.633 200.341 272.606 200.1 279.525C201.259 289.659 200.799 299.894 200.725 310.071C200.419 324.008 200.212 337.944 200.127 351.884C200.002 357.434 199.626 362.975 199.524 368.525C199.152 372.363 200.628 376.314 204.072 378.297C210.846 381.498 218.76 380.808 226.075 381.323C228.801 381.195 231.807 381.903 234.348 380.729C237.061 379.814 238.84 376.878 238.825 374.072C238.818 370.157 235.494 366.728 231.541 366.789Z" fill="#DBDBDB"/>
<path d="M238.039 241.5C235.582 239.988 232.624 240.653 229.894 240.606C224.638 240.668 219.376 240.99 214.122 240.852C214.123 240.665 214.126 240.48 214.131 240.303C212.08 219.09 211.764 197.774 211.339 176.475C211.227 171.197 211.015 165.923 210.829 160.647C210.691 158.297 211.212 155.571 209.301 153.792C206.373 150.672 200.644 153.011 200.787 157.319C200.869 182.946 198.931 208.616 200.938 234.212C201.15 237.372 201.127 240.543 201.183 243.71C200.533 248.211 202.998 252.842 207.588 254.084C214.296 255.927 221.373 255.207 228.249 255.156C231.189 254.867 234.42 255.624 237.172 254.417C239.88 253.505 241.654 250.575 241.641 247.775C241.57 245.157 240.279 242.868 238.041 241.499L238.039 241.5Z" fill="#DBDBDB"/>
<path d="M175.052 241.476C170.093 241.544 165.147 241.916 160.197 242.19C159.635 242.213 159.072 242.219 158.51 242.213C157.961 237.365 157.544 234.438 156.638 226.433C155.504 214.653 155.603 202.799 155.319 190.979C155.177 182.648 155.022 174.317 154.815 165.987C154.482 162.012 155.126 157.173 154.166 153.437C152.48 148.907 145.328 150.327 145.436 155.195C145.079 178.896 143.963 202.617 144.318 226.317C144.497 231.456 144.737 236.598 144.801 241.74C144.621 246.749 144.693 252.164 149.676 254.873C156.444 258.014 164.148 256.137 171.33 256.187C174.965 255.804 178.941 256.739 182.382 255.419C185.102 254.502 186.884 251.561 186.87 248.747C186.341 241.754 180.849 241.049 175.052 241.479V241.476Z" fill="#DBDBDB"/>
<path d="M126.135 240.66C125.056 239.7 123.807 238.971 122.413 238.715C122.295 238.688 122.179 238.656 122.061 238.628C120.777 238.376 120.109 238.337 119.229 238.346C113.893 238.472 108.619 239.367 103.353 240.218C102.759 229.94 100.749 204.768 100.701 191.141C100.359 181.778 100.147 172.398 99.1739 163.074C98.4809 159.786 99.3539 155.427 96.9854 152.849C93.9824 149.649 88.0994 152.046 88.2464 156.468C90.7574 185.667 89.7134 215.043 90.2534 244.319C90.2459 244.425 90.2429 244.481 90.2384 244.565C89.9519 245.723 89.8754 247.043 89.9249 247.296C89.6309 251.36 93.0164 255.446 97.2689 255.276C101.809 255.273 109.308 253.619 115.761 253.103C117.772 252.915 119.83 252.938 121.819 252.582C122.304 252.536 123.22 252.363 123.886 251.987C128.434 250.437 129.574 243.887 126.135 240.657V240.66Z" fill="#DBDBDB"/>
<path d="M63.052 242.468C58.3255 242.652 53.5825 242.975 48.853 242.754C48.769 241.452 48.634 240.152 48.505 238.854C47.116 216.231 45.751 193.605 44.4235 170.979C44.143 166.823 43.888 162.663 43.7755 158.498C43.582 156.594 44.0875 154.509 43.252 152.739C41.248 147.491 33.106 149.123 33.172 154.769C33.013 177.008 35.0185 199.205 35.47 221.433C35.5315 228.546 36.1135 235.659 35.8885 242.769C35.8135 244.536 35.704 245.087 35.998 242.966C35.5885 245.897 35.2975 249.15 36.7885 251.826C41.9995 258.492 49.807 257.118 57.6085 257.223C61.4635 256.809 66.5245 257.576 70.0255 256.257C72.739 255.342 74.518 252.407 74.503 249.6C74.0755 242.966 68.68 241.743 63.0535 242.469L63.052 242.468Z" fill="#DBDBDB"/>
<path d="M70.4007 119.523C65.2512 119.477 60.1032 119.681 54.9552 119.702C52.0287 119.673 49.0947 119.64 46.1712 119.472C46.4772 109.566 45.4617 99.6663 45.2097 89.7633C44.9877 78.6498 44.9007 67.5318 44.1117 56.4393C43.7337 50.0718 43.3122 43.7058 42.9822 37.3353C42.7782 34.8678 43.2912 31.9953 41.2992 30.1278C38.2182 26.8428 32.1867 29.3073 32.3367 33.8403C33.3462 52.8228 34.6617 71.7828 34.7412 90.8013C34.9722 98.6418 35.6442 106.467 35.7387 114.312C35.9322 117.951 35.2287 121.631 35.6547 125.237C36.4812 128.93 40.7982 129.728 44.0532 129.837C48.0972 130.16 52.1637 130.199 56.2182 130.193C60.0642 130.16 63.9072 130.037 67.7532 130.019C70.5777 130.224 74.1537 129.939 75.1992 126.795C76.8147 123.552 73.9827 119.405 70.4007 119.523Z" fill="#DBDBDB"/>
<path d="M121.599 117.65C115.614 117.629 109.653 118.067 103.702 118.637C104.793 92.1783 102.508 65.7363 101.023 39.3318C100.641 36.4458 101.208 33.0468 98.9113 30.8493C95.3683 27.0693 88.4308 29.9073 88.6048 35.1183C88.9978 65.4198 90.3268 95.7618 88.7098 126.045C88.7368 129.396 91.2943 132.633 94.6093 133.466C99.2788 134.277 104.011 133.029 108.693 132.812C113.487 132.375 118.302 132.333 123.111 132.255C124.95 132.131 126.951 132.39 128.622 131.505C131.329 130.593 133.104 127.664 133.09 124.863C132.625 118.137 127.263 117.117 121.6 117.651L121.599 117.65Z" fill="#DBDBDB"/>
<path d="M173.155 118.7C168.063 118.035 162.906 117.521 157.773 117.977C157.165 103.631 158.373 89.2953 158.26 74.9493C157.938 60.9288 157.809 46.6188 155.425 32.8308C153.16 26.9043 143.983 28.7583 144.058 35.1198C146.2 54.1443 146.316 73.3323 144.853 92.4138C144.265 100.979 143.811 109.556 143.926 118.145C143.068 127.901 145.089 133.82 156.208 132.624C161.259 132.102 166.338 132.438 171.358 133.104C173.97 133.317 176.842 134.172 179.304 132.941C181.956 132.047 183.694 129.179 183.681 126.434C182.776 118.854 177.366 119.409 173.157 118.703L173.155 118.7Z" fill="#DBDBDB"/>
<path d="M245.646 120.275C242.235 111.759 234.868 115.791 230.283 115.856C230.931 115.769 231.579 115.682 232.228 115.595C225.81 116.3 219.4 117.494 212.946 117.818C212.43 100.152 212.011 82.4823 211.099 64.8303C210.729 56.3013 210.439 47.7648 210.423 39.2253C210.429 37.1973 210.48 35.1693 210.564 33.1413C210.559 31.7508 210.948 30.2508 210.244 28.9758C208.384 24.1053 200.826 25.6158 200.887 30.8598C199.569 43.3833 199.707 55.9938 199.195 68.5623C198.294 86.4903 198.391 104.42 199.071 122.352C198.622 132.599 207.823 133.023 215.68 132.15C223.039 131.358 230.391 130.491 237.723 129.47C242.497 130.026 247.131 125.439 245.646 120.275Z" fill="#DBDBDB"/>
<path d="M12.9315 2.35229C12.9315 255.225 13.497 415.175 10.5 635.163C109.268 635.163 262.884 640.244 262.884 640.244L265.5 5.64329L12.9315 2.35229Z" stroke="#151515" stroke-width="6" stroke-linecap="round" stroke-linejoin="round"/>
<path d="M89.0069 512.832C88.9019 546.248 88.7954 579.662 88.6904 613.077C102.667 613.376 114.153 613.674 128.13 613.974C128.13 601.281 129.165 528.552 128.535 513.414C115.137 513.501 106.302 512.834 89.0054 512.834L89.0069 512.832Z" stroke="#151515" stroke-width="6" stroke-linecap="round" stroke-linejoin="round"/>
<path d="M33.4947 512.832C33.3897 546.248 33.2832 579.662 33.1782 613.077C47.1552 613.376 58.6407 613.674 72.6177 613.974C72.6177 601.281 73.6527 528.552 73.0227 513.414C59.6247 513.501 50.7897 512.834 33.4932 512.834L33.4947 512.832Z" stroke="#151515" stroke-width="6" stroke-linecap="round" stroke-linejoin="round"/>
<path d="M200.446 512.832C200.341 546.248 200.235 579.662 200.13 613.077C214.107 613.376 225.592 613.674 239.569 613.974C239.569 601.281 240.604 528.552 239.974 513.414C226.576 513.501 217.741 512.834 200.445 512.834L200.446 512.832Z" stroke="#151515" stroke-width="6" stroke-linecap="round" stroke-linejoin="round"/>
<path d="M144.934 512.832C144.829 546.248 144.723 579.662 144.618 613.077C158.595 613.376 170.08 613.674 184.057 613.974C184.057 601.281 185.092 528.552 184.462 513.414C171.064 513.501 162.229 512.834 144.933 512.834L144.934 512.832Z" stroke="#151515" stroke-width="6" stroke-linecap="round" stroke-linejoin="round"/>
<path d="M89.0069 394.332C88.9019 427.748 88.7954 461.162 88.6904 494.577C102.667 494.876 114.153 495.174 128.13 495.474C128.13 482.781 129.165 410.052 128.535 394.914C115.137 395.001 106.302 394.334 89.0054 394.334L89.0069 394.332Z" stroke="#151515" stroke-width="6" stroke-linecap="round" stroke-linejoin="round"/>
<path d="M33.4947 394.332C33.3897 427.748 33.2832 461.162 33.1782 494.577C47.1552 494.876 58.6407 495.174 72.6177 495.474C72.6177 482.781 73.6527 410.052 73.0227 394.914C59.6247 395.001 50.7897 394.334 33.4932 394.334L33.4947 394.332Z" stroke="#151515" stroke-width="6" stroke-linecap="round" stroke-linejoin="round"/>
<path d="M200.446 394.332C200.341 427.748 200.235 461.162 200.13 494.577C214.107 494.876 225.592 495.174 239.569 495.474C239.569 482.781 240.604 410.052 239.974 394.914C226.576 395.001 217.741 394.334 200.445 394.334L200.446 394.332Z" stroke="#151515" stroke-width="6" stroke-linecap="round" stroke-linejoin="round"/>
<path d="M144.934 394.332C144.829 427.748 144.723 461.162 144.618 494.577C158.595 494.876 170.08 495.174 184.057 495.474C184.057 482.781 185.092 410.052 184.462 394.914C171.064 395.001 162.229 394.334 144.933 394.334L144.934 394.332Z" stroke="#151515" stroke-width="6" stroke-linecap="round" stroke-linejoin="round"/>
<path d="M89.0069 275.832C88.9019 309.248 88.7954 342.662 88.6904 376.077C102.667 376.376 114.153 376.674 128.13 376.974C128.13 364.281 129.165 291.552 128.535 276.414C115.137 276.501 106.302 275.834 89.0054 275.834L89.0069 275.832Z" stroke="#151515" stroke-width="6" stroke-linecap="round" stroke-linejoin="round"/>
<path d="M33.4947 275.832C33.3897 309.248 33.2832 342.662 33.1782 376.077C47.1552 376.376 58.6407 376.674 72.6177 376.974C72.6177 364.281 73.6527 291.552 73.0227 276.414C59.6247 276.501 50.7897 275.834 33.4932 275.834L33.4947 275.832Z" stroke="#151515" stroke-width="6" stroke-linecap="round" stroke-linejoin="round"/>
<path d="M200.446 275.832C200.341 309.248 200.235 342.662 200.13 376.077C214.107 376.376 225.592 376.674 239.569 376.974C239.569 364.281 240.604 291.552 239.974 276.414C226.576 276.501 217.741 275.834 200.445 275.834L200.446 275.832Z" stroke="#151515" stroke-width="6" stroke-linecap="round" stroke-linejoin="round"/>
<path d="M144.934 275.832C144.829 309.248 144.723 342.662 144.618 376.077C158.595 376.376 170.08 376.674 184.057 376.974C184.057 364.281 185.092 291.552 184.462 276.414C171.064 276.501 162.229 275.834 144.933 275.834L144.934 275.832Z" stroke="#151515" stroke-width="6" stroke-linecap="round" stroke-linejoin="round"/>
<path d="M89.0069 152.832C88.9019 186.248 88.7954 219.662 88.6904 253.077C102.667 253.376 114.153 253.674 128.13 253.974C128.13 241.281 129.165 168.552 128.535 153.414C115.137 153.501 106.302 152.834 89.0054 152.834L89.0069 152.832Z" stroke="#151515" stroke-width="6" stroke-linecap="round" stroke-linejoin="round"/>
<path d="M33.4947 152.832C33.3897 186.248 33.2832 219.662 33.1782 253.077C47.1552 253.376 58.6407 253.674 72.6177 253.974C72.6177 241.281 73.6527 168.552 73.0227 153.414C59.6247 153.501 50.7897 152.834 33.4932 152.834L33.4947 152.832Z" stroke="#151515" stroke-width="6" stroke-linecap="round" stroke-linejoin="round"/>
<path d="M200.446 152.832C200.341 186.248 200.235 219.662 200.13 253.077C214.107 253.376 225.592 253.674 239.569 253.974C239.569 241.281 240.604 168.552 239.974 153.414C226.576 153.501 217.741 152.834 200.445 152.834L200.446 152.832Z" stroke="#151515" stroke-width="6" stroke-linecap="round" stroke-linejoin="round"/>
<path d="M144.934 152.832C144.829 186.248 144.723 219.662 144.618 253.077C158.595 253.376 170.08 253.674 184.057 253.974C184.057 241.281 185.092 168.552 184.462 153.414C171.064 153.501 162.229 152.834 144.933 152.834L144.934 152.832Z" stroke="#151515" stroke-width="6" stroke-linecap="round" stroke-linejoin="round"/>
<path d="M89.0069 29.8187C88.9019 63.2342 88.7954 96.6482 88.6904 130.064C102.667 130.362 114.153 130.661 128.13 130.961C128.13 118.268 129.165 45.5387 128.535 30.4007C115.137 30.4877 106.302 29.8202 89.0054 29.8202L89.0069 29.8187Z" stroke="#151515" stroke-width="6" stroke-linecap="round" stroke-linejoin="round"/>
<path d="M33.4947 29.8187C33.3897 63.2342 33.2832 96.6482 33.1782 130.064C47.1552 130.362 58.6407 130.661 72.6177 130.961C72.6177 118.268 73.6527 45.5387 73.0227 30.4007C59.6247 30.4877 50.7897 29.8202 33.4932 29.8202L33.4947 29.8187Z" stroke="#151515" stroke-width="6" stroke-linecap="round" stroke-linejoin="round"/>
<path d="M200.446 29.8187C200.341 63.2342 200.235 96.6482 200.13 130.064C214.107 130.362 225.592 130.661 239.569 130.961C239.569 118.268 240.604 45.5387 239.974 30.4007C226.576 30.4877 217.741 29.8202 200.445 29.8202L200.446 29.8187Z" stroke="#151515" stroke-width="6" stroke-linecap="round" stroke-linejoin="round"/>
<path d="M144.934 29.8187C144.829 63.2342 144.723 96.6482 144.618 130.064C158.595 130.362 170.08 130.661 184.057 130.961C184.057 118.268 185.092 45.5387 184.462 30.4007C171.064 30.4877 162.229 29.8202 144.933 29.8202L144.934 29.8187Z" stroke="#151515" stroke-width="6" stroke-linecap="round" stroke-linejoin="round"/>
</g>
<defs>
<clipPath id="clip0_556_669">
<rect width="267.699" height="649.545" fill="white" transform="translate(0.0507812 0.102295)"/>
</clipPath>
</defs>
</svg>
