<svg width="270" height="1018" viewBox="0 0 270 1018" fill="none" xmlns="http://www.w3.org/2000/svg">
<path d="M13.6815 10.8748C13.6815 406.304 14.247 656.424 11.25 1000.43C110.018 1000.43 263.634 1008.37 263.634 1008.37L266.25 16.021L13.6815 10.8748Z" fill="white"/>
<path d="M14.7362 430.32C13.4183 392.606 14.0853 354.861 14.4717 317.124C14.9507 276.489 14.7332 235.844 13.9105 195.226C13.6211 152.68 13.6284 110.127 13.0598 67.5858C12.9878 57.6013 12.8865 47.6145 13.123 37.6323C13.0598 31.3943 13.6989 24.8909 12.9026 18.8136C12.3341 16.2453 10.3771 14.8319 8.73166 15.57C7.23898 16.1917 6.11801 18.5249 6.13564 20.9721C4.78253 78.008 4.55334 135.095 3.85108 192.161C4.30358 233.971 4.79134 275.791 4.22865 317.608C4.11112 341.433 3.52051 365.253 3.69681 389.08C3.74383 407.485 4.50926 425.861 4.77371 444.258C5.64493 495.876 6.54847 547.496 7.18022 599.12C7.25955 652.009 5.71251 704.826 4.4887 757.661C4.01121 785.913 4.11993 814.176 3.8878 842.432C2.99014 885.406 2.3819 928.397 1.34026 971.361C1.09638 980.305 0.93771 989.256 0.848091 998.206C0.970032 1001.46 0.355918 1004.91 1.2242 1007.93C2.3584 1013.13 7.15818 1014.6 9.52207 1010.55C10.4183 1008.95 11.0618 1006.99 11.0221 1004.81C11.0691 999.338 11.1308 993.868 11.2131 988.401C12.3546 938.681 13.242 888.95 14.1705 839.218C14.3586 799.974 14.2925 760.705 15.5501 721.498C18.9879 624.484 16.4228 527.35 14.7347 430.315L14.7362 430.32Z" fill="#C1C1C1"/>
<path d="M237.6 1006.18C229.139 1006.14 220.67 1006.32 212.214 1005.91C201.771 1005.28 191.361 1004.16 180.908 1003.72C167.487 1003.12 154.089 1004.36 140.684 1004.83C136.089 1005 131.495 1005.16 126.899 1005.27C125.621 1005.39 124.22 1005.07 123.036 1005.64C122.387 1005.87 121.86 1006.29 121.475 1006.82C106.634 1006.33 91.7881 1005.93 76.9501 1005.34C54.8911 1004.26 32.8411 1004.98 10.8031 1006.02C5.45564 1005.24 4.14614 1013.07 9.85814 1013.52C20.2096 1013.45 30.5341 1012.42 40.8886 1012.33C55.7101 1012.11 70.5286 1012.58 85.3381 1013.14C106.937 1014.07 128.586 1014 150.125 1015.98C170.276 1017.15 190.482 1016.1 210.639 1017.32C222.045 1017.65 233.438 1017.07 244.83 1016.61C249.836 1016.13 255.414 1017.13 260.15 1015.41C261.459 1014.64 261.98 1013.44 262.067 1012.03C262.355 1005.11 242.541 1006.5 237.602 1006.18L237.6 1006.18Z" fill="#C1C1C1"/>
<path d="M23.4495 914.459C23.3475 892.622 22.341 870.764 23.094 848.934C23.094 505.874 41.3446 329.577 30.2235 74.7766C29.7765 63.2521 28.9755 51.7411 28.4895 40.2181C28.3785 35.6221 28.266 31.0261 28.0665 26.4331C27.8415 24.3151 28.278 22.0276 27.285 20.0851C24.501 12.9391 13.359 14.9611 13.3785 22.8841C14.2125 44.7946 13.098 66.7186 13.713 88.6336C14.688 112.65 16.734 136.622 16.3665 160.682C16.707 179.58 14.931 552.948 13.5195 571.769C12.513 587.396 12.384 603.062 12.72 618.713C13.542 642.152 13.6665 665.594 13.1595 689.04C12.8745 706.937 11.5875 724.82 11.841 742.724C12.549 773.597 14.613 804.458 13.833 835.349C12.7635 888.543 13.548 941.771 13.29 994.977C13.617 1008.44 23.052 1009.04 23.6505 994.977C23.5845 968.138 23.82 941.295 23.451 914.459H23.4495Z" fill="#DBDBDB"/>
<path d="M258.269 990.113C242.371 987.596 226.339 985.771 210.356 983.798C203.152 982.822 195.937 981.887 188.711 981.076C177.905 979.331 165.509 977.494 156.997 977.183C131.791 976.174 118.876 977.207 96.4434 978.425C82.8639 979.222 71.8884 981.746 63.4809 982.963C53.2104 984.583 43.6779 985.057 29.0049 987.769C25.6029 988.609 21.3624 988.861 19.4484 992.224C16.3989 997.231 21.3789 1003.78 27.0444 1002.11C35.6049 999.673 46.7019 1000.24 62.6214 998.759C63.4089 1000.87 64.8534 1002.74 66.9984 1003.94C70.6464 1006.15 75.0504 1005.19 79.0899 1005.16C85.4724 1004.87 91.8039 1003.95 98.1369 1003.15C111.677 1001.3 122.414 999.697 141.296 999.434C155.78 999.196 170.26 1000 184.666 1001.5C197.755 1003.63 210.893 1005.41 224.062 1006.99C223.138 1006.87 222.212 1006.74 221.288 1006.62C232.634 1007.95 243.85 1010.78 255.32 1010.72C267.545 1010.69 270.206 993.713 258.271 990.118L258.269 990.113Z" fill="#DBDBDB"/>
<path d="M78.7807 972.097C77.7457 968.057 73.4302 966.596 69.6697 967.361C61.7572 967.915 53.7967 967.904 45.9517 969.208C45.6607 969.248 45.3682 969.289 45.0772 969.329C45.0787 968.717 45.0817 968.105 45.0712 967.493C43.6342 945.029 43.3912 922.493 41.9617 900.017C41.8147 895.036 41.7142 890.054 41.5057 885.074C41.4322 883.3 41.5822 881.306 40.1587 879.995C37.6372 877.312 32.6962 879.319 32.8207 883.034C33.3052 906.358 34.0057 929.681 34.1587 953.011C34.3432 958.145 34.3777 963.295 33.7732 968.404C33.7342 968.663 33.6982 968.923 33.6802 969.187C33.0907 972.991 32.4592 977.581 36.0217 979.981C40.6957 983.587 46.8817 980.87 52.2292 980.824C57.2467 980.483 62.2807 980.452 67.3072 980.342C69.8287 980.281 72.5227 981.038 74.9062 979.993C78.0757 978.928 79.5352 975.194 78.7822 972.095L78.7807 972.097Z" fill="#DBDBDB"/>
<path d="M127.627 970.422C125.739 969.237 123.486 969.446 121.354 969.278C117.285 969.036 113.211 968.922 109.137 968.787C106.377 968.702 103.615 968.663 100.855 968.657C100.357 964.326 100.227 963.053 99.8669 957.143C99.3074 947.88 99.4094 938.597 99.3299 929.322C99.2699 913.892 98.6264 898.463 98.7629 883.035C98.6909 877.527 90.4079 877.446 90.2969 883.035C89.7689 896.501 90.3959 909.981 90.2204 923.453C89.8214 939.399 89.7419 955.346 89.7104 971.292C89.7074 971.51 89.7014 971.711 89.6939 971.898C89.4989 972.311 89.3579 972.746 89.2634 973.197C89.2574 973.221 89.2559 973.224 89.2484 973.259C89.0864 973.886 89.0069 974.519 89.0114 975.158C90.0704 984.288 98.1314 982.8 106.974 983.268C111.636 983.462 116.298 983.66 120.961 983.85C124.689 984.431 129.267 983.537 130.609 979.521C132.205 976.307 130.642 972.212 127.629 970.425L127.627 970.422Z" fill="#DBDBDB"/>
<path d="M182.797 969.52C181.148 968.596 179.107 968.337 177.242 968.56C177.487 968.53 177.731 968.496 177.911 968.46C176.237 968.505 174.565 968.52 172.889 968.508C167.38 968.511 161.861 968.32 156.377 968.868C156.49 959.805 155.633 950.763 155.251 941.713C154.859 931.405 154.726 921.09 154.618 910.776C154.519 902.766 154.456 894.754 154.141 886.747C153.899 884.176 154.762 881.116 152.698 879.12C149.926 876.168 144.496 878.377 144.632 882.46C145.193 909.315 145.561 936.183 145.781 963.043C145.726 965.533 145.694 968.025 145.595 970.515C145.567 970.626 145.544 970.737 145.522 970.849C145.522 970.842 145.523 970.834 145.525 970.827C145.402 971.142 145.336 971.332 145.307 971.446C145.193 971.787 145.111 972.133 145.073 972.489C145.102 972.282 145.13 972.072 145.15 971.904C143.797 976.128 145.319 980.491 149.884 981.696C151.483 982.387 156.838 981.645 162.839 981.582C167.255 981.676 171.676 981.879 176.077 982.245C178.063 982.57 180.137 982.915 181.961 981.972C187.261 980.125 187.643 972.172 182.797 969.52Z" fill="#DBDBDB"/>
<path d="M240.012 971.7C239.051 970.839 237.954 970.173 236.745 969.836C236.745 969.836 236.748 969.836 236.75 969.836C236.747 969.836 236.744 969.836 236.741 969.834C236.354 969.726 235.957 969.65 235.547 969.617C233.194 969.207 230.79 969.108 228.414 968.901C223.695 968.54 218.977 968.177 214.259 967.794C214.252 967.742 214.244 967.685 214.237 967.631C214.255 967.745 214.254 967.733 214.224 967.521C212.876 955.44 212.448 933.75 211.674 916.506C211.29 905.243 210.729 893.987 209.909 882.746C209.781 876.764 200.927 876.684 200.754 882.746C202.665 908.825 202.184 935.01 201.49 961.128C201.338 969.315 200.016 968.927 200.726 974.937C203.489 983.541 214.493 981.888 221.656 983.013C225.061 983.298 228.472 983.501 231.878 983.777C235.564 984.446 240.164 983.484 241.494 979.532C242.765 977.012 241.985 973.656 240.012 971.7Z" fill="#DBDBDB"/>
<path d="M235.968 852.384C228.191 850.819 220.238 851.533 212.357 851.247C211.751 845.291 210.624 828.516 210.096 818.541C209.426 804.043 210.618 789.549 211.116 775.065C211.241 772.243 211.359 769.423 211.523 766.603C211.719 764.481 211.848 762.111 210.137 760.539C207.104 757.309 201.167 759.729 201.315 764.193C200.517 782.46 199.272 800.739 199.389 819.03C200.226 833.13 199.46 849.19 200.423 858.361C201.828 863.172 206.555 864.631 211.121 864.319C215.469 864.342 219.804 863.881 224.151 863.869C228.917 863.928 230.268 864.261 231.417 864.394C231.786 864.435 232.247 864.493 232.671 864.549C233.492 864.78 234.311 864.835 235.131 864.645C236.744 864.562 238.352 863.617 239.241 862.275C242.088 859.026 240.122 853.387 235.968 852.382V852.384Z" fill="#DBDBDB"/>
<path d="M176.212 850.978C171.182 850.455 166.106 850.653 161.057 850.591C160.18 850.564 159.302 850.534 158.425 850.497C158.362 846.189 157.558 841.9 156.98 837.634C156.809 836.491 156.221 832.435 156.362 833.52C155.74 830.538 154.838 812.904 155.092 804.438C155.057 795.391 154.879 786.348 154.699 777.304C154.639 773.947 154.525 770.592 154.499 767.236C154.448 766.071 154.658 764.818 154.067 763.765C152.227 758.947 144.743 760.437 144.805 765.63C144.925 785.047 144.574 804.465 144.407 823.878C144.554 834.142 146.362 844.399 145.609 854.662C145.555 855.081 145.51 855.502 145.451 855.919C145.469 858.142 146.17 859.659 147.67 861.181C149.818 863.247 152.761 863.871 155.636 864.181C160.216 864.816 164.854 864.664 169.457 864.966C173.038 864.96 176.932 866.271 180.338 864.825C182.972 863.937 184.699 861.088 184.685 858.363C183.937 851.241 178.492 851.335 176.21 850.983L176.212 850.978Z" fill="#DBDBDB"/>
<path d="M129.846 853.763C127.894 852.547 125.557 852.794 123.36 852.587C120.561 852.407 117.762 852.229 114.96 852.094C111.013 851.878 107.064 851.734 103.114 851.599C103.003 847.094 102.582 841.94 102.315 840.2C99.7961 820.453 99.8831 800.498 99.6851 780.625C99.6836 776.579 99.9746 771.898 100.2 769.774C100.252 769.417 100.468 767.87 100.57 767.186C100.909 765.953 100.732 764.608 100.089 763.507C98.1476 759.934 92.3231 760.663 91.3631 764.647C88.7621 773.981 89.1506 783.757 88.9706 793.355C88.7666 806.507 88.7876 819.653 89.1311 832.801C89.1356 839.014 89.1236 845.227 89.0576 851.44C89.0216 853.697 88.7396 856.061 89.1791 858.289C89.2886 859.234 89.4821 860.158 90.0341 860.98C91.4186 863.381 93.9701 864.751 96.6431 865.267C96.5156 865.27 96.8996 865.348 97.9751 865.46C104.164 866.195 104.773 866.071 107.344 866.237C112.171 866.482 116.998 866.708 121.819 867.043C124.188 867.062 126.78 867.878 128.977 866.711C134.487 864.788 134.887 856.523 129.847 853.765L129.846 853.763Z" fill="#DBDBDB"/>
<path d="M74.8051 852.383C72.6211 851.052 69.9856 851.384 67.5376 851.318C63.8746 851.426 60.1666 851.294 56.5381 851.85C57.1816 851.763 57.8251 851.678 58.4686 851.591C51.1171 852.105 49.9351 852.365 45.9331 852.714C45.8161 851.942 45.7126 851.168 45.5746 850.398C45.5611 850.319 45.5551 850.286 45.5461 850.23C45.5311 850.131 45.5236 850.079 45.5206 850.074C45.4786 849.836 45.5146 850.101 45.5641 850.467C45.5896 850.664 45.6241 850.923 45.6751 851.282V851.286C43.6396 839.271 44.4766 827.117 44.3461 814.992C44.3686 806.73 43.9411 798.473 43.9336 790.211C43.9081 782.823 44.0941 775.395 43.0636 768.062C42.6166 765.632 42.4546 762.627 40.0681 761.276C36.6166 759.117 31.9411 762.678 33.1516 766.593C34.2286 770.771 33.5041 782.445 33.4711 790.68C33.6436 806.213 33.1531 821.726 32.8711 837.251C32.9941 842.106 33.4261 846.947 33.6946 851.795C33.9391 855.356 33.0466 859.2 34.6501 862.512C35.7331 864.261 37.4536 865.356 39.3901 865.965C40.0081 866.172 40.2001 866.195 40.1476 866.112C40.2571 866.154 40.3531 866.219 40.4641 866.258C50.6401 867.165 60.9031 865.425 71.1106 866.019C78.4786 866.049 81.1606 856.124 74.8036 852.384L74.8051 852.383Z" fill="#DBDBDB"/>
<path d="M69.67 731.861C69.511 731.815 69.3625 731.752 69.1975 731.713C65.8645 731.105 62.4955 731.801 59.131 731.806C55.5955 731.917 52.0465 732.088 48.505 732.041C47.9575 723.04 46.663 713.903 45.802 701.81C44.698 687.071 44.4625 672.287 44.29 657.514C44.2405 654.25 44.191 650.986 44.1415 647.722C44.149 646.4 43.603 645.115 42.676 644.183C39.739 641.056 33.9895 643.399 34.1335 647.722C33.7015 670.466 33.4585 693.242 35.125 715.946C35.488 721.915 35.605 727.936 34.942 733.886C34.909 734.096 34.873 734.321 34.834 734.567C34.7215 734.978 34.672 735.404 34.6315 735.833C34.5925 736.102 34.5625 736.37 34.546 736.637C34.5505 736.579 34.5595 736.499 34.573 736.396C34.564 736.481 34.558 736.567 34.546 736.651C34.4845 737.615 34.5475 738.577 34.75 739.543C36.187 745.199 42.8065 746.668 47.9245 746.522C52.777 746.582 57.631 746.462 62.479 746.249C64.717 746.06 66.877 746.288 69.1 745.801C69.46 745.688 69.8155 745.559 70.1695 745.43C72.2065 744.869 74.0335 743.405 74.7115 741.4C76.654 737.507 73.756 732.644 69.673 731.86L69.67 731.861Z" fill="#DBDBDB"/>
<path d="M34.5396 736.7C34.5411 736.684 34.5426 736.667 34.5441 736.651C34.5441 736.646 34.5441 736.642 34.5441 736.637C34.5441 736.655 34.5381 736.687 34.5381 736.699L34.5396 736.7Z" fill="#DBDBDB"/>
<path d="M117.902 732.921C116.105 732.908 114.307 732.875 112.511 732.81C105.848 732.381 106.16 732.63 102.62 731.835C102.274 726.825 101.729 721.83 101.249 716.829C99.3935 694.281 100.91 671.678 100.879 649.098C101.177 646.262 100.541 642.804 97.484 641.787C94.055 640.083 89.651 643.07 89.78 646.869C88.7675 669.965 87.272 693.071 87.947 716.199C88.0715 721.539 88.0505 726.884 88.226 732.222C88.301 734.31 88.349 736.412 88.793 738.462C89.6735 741.108 91.7345 743.306 94.298 744.401C100.06 746.876 106.565 747.038 112.748 747.453C115.378 747.359 118.276 748.103 120.722 746.925C123.448 746.007 125.234 743.058 125.221 740.238C125.213 736.307 121.873 732.858 117.902 732.921Z" fill="#DBDBDB"/>
<path d="M173.58 730.567C168.652 730.333 163.704 730.129 158.791 730.612C157.881 724.521 157.905 709.131 157.729 699.037C157.263 683.26 156.585 667.488 155.709 651.729C155.496 649.362 155.908 646.632 153.994 644.854C150.904 641.56 144.853 644.029 145.003 648.579C145.689 670.972 146.007 693.381 145.648 715.785C145.596 721.861 145.749 727.947 145.267 734.01C145.351 733.381 145.437 732.753 145.521 732.124C145.165 734.731 144.967 737.455 145.395 740.062C146.091 742.636 148.222 744.816 150.798 745.512C152.697 746.064 154.659 745.714 156.589 745.411C160.015 744.991 163.467 744.787 166.918 744.906C169.921 744.994 172.92 745.155 175.92 745.288C177.66 745.344 179.532 745.663 181.107 744.76C183.832 743.842 185.619 740.893 185.605 738.073C185.065 730.879 179.404 730.542 173.58 730.567Z" fill="#DBDBDB"/>
<path d="M232.24 734.561C230.689 734.567 229.137 734.561 227.584 734.526C223.321 734.352 219.046 734.232 214.797 733.818C214.83 732.476 214.864 731.133 214.864 729.791C214.443 701.675 214.956 670.664 211.335 647.246C210.964 640.404 201.04 640.377 200.799 647.297C201.958 657.431 201.498 667.665 201.424 677.843C201.118 691.779 200.911 705.716 200.826 719.655C200.701 725.205 200.325 730.746 200.223 736.296C199.851 740.135 201.327 744.086 204.771 746.069C211.545 749.27 219.459 748.58 226.774 749.094C229.5 748.967 232.506 749.675 235.047 748.5C237.76 747.585 239.539 744.65 239.524 741.843C239.517 737.928 236.193 734.499 232.24 734.561Z" fill="#DBDBDB"/>
<path d="M238.739 609.271C236.282 607.759 233.324 608.424 230.594 608.377C225.338 608.439 220.076 608.761 214.822 608.623C214.823 608.436 214.826 608.251 214.831 608.074C212.78 586.861 212.464 565.545 212.039 544.246C211.927 538.968 211.715 533.694 211.529 528.418C211.391 526.068 211.912 523.342 210.001 521.563C207.073 518.443 201.344 520.782 201.487 525.09C201.569 550.717 199.631 576.387 201.638 601.983C201.85 605.143 201.827 608.314 201.883 611.481C201.233 615.982 203.698 620.613 208.288 621.855C214.996 623.698 222.073 622.978 228.949 622.927C231.889 622.638 235.12 623.395 237.872 622.188C240.58 621.276 242.354 618.346 242.341 615.546C242.27 612.928 240.979 610.639 238.741 609.27L238.739 609.271Z" fill="#DBDBDB"/>
<path d="M175.75 609.248C170.791 609.315 165.846 609.687 160.896 609.962C160.333 609.984 159.771 609.99 159.208 609.984C158.659 605.136 158.242 602.209 157.336 594.204C156.202 582.424 156.301 570.57 156.018 558.75C155.875 550.419 155.721 542.088 155.514 533.759C155.181 529.784 155.824 524.945 154.864 521.208C153.178 516.678 146.026 518.099 146.134 522.966C145.777 546.668 144.661 570.389 145.017 594.089C145.195 599.228 145.435 604.37 145.5 609.512C145.32 614.52 145.392 619.935 150.375 622.644C157.143 625.785 164.847 623.909 172.029 623.958C175.663 623.576 179.64 624.51 183.081 623.19C185.8 622.274 187.582 619.332 187.569 616.518C187.039 609.525 181.548 608.82 175.75 609.251V609.248Z" fill="#DBDBDB"/>
<path d="M126.834 608.433C125.755 607.473 124.506 606.744 123.112 606.487C122.994 606.46 122.878 606.429 122.76 606.4C121.476 606.148 120.808 606.109 119.928 606.118C114.592 606.244 109.318 607.14 104.052 607.99C103.458 597.712 101.448 572.541 101.4 558.913C101.058 549.55 100.846 540.171 99.8726 530.847C99.1796 527.559 100.053 523.2 97.6841 520.621C94.6811 517.422 88.7981 519.819 88.9451 524.241C91.4561 553.44 90.4121 582.816 90.9521 612.091C90.9446 612.198 90.9416 612.253 90.9371 612.337C90.6506 613.495 90.5741 614.815 90.6236 615.069C90.3296 619.132 93.7151 623.218 97.9676 623.049C102.508 623.046 110.007 621.391 116.46 620.875C118.471 620.688 120.529 620.71 122.518 620.355C123.003 620.308 123.919 620.136 124.585 619.759C129.133 618.21 130.273 611.659 126.834 608.43V608.433Z" fill="#DBDBDB"/>
<path d="M63.7517 610.24C59.0252 610.424 54.2822 610.747 49.5527 610.526C49.4687 609.224 49.3337 607.924 49.2047 606.626C47.8157 584.003 46.4507 561.377 45.1232 538.751C44.8427 534.595 44.5877 530.435 44.4752 526.27C44.2817 524.366 44.7872 522.281 43.9517 520.511C41.9477 515.263 33.8057 516.895 33.8717 522.541C33.7127 544.78 35.7182 566.977 36.1697 589.205C36.2312 596.318 36.8132 603.431 36.5882 610.541C36.5132 612.308 36.4037 612.859 36.6977 610.738C36.2882 613.669 35.9972 616.922 37.4882 619.598C42.6992 626.264 50.5067 624.89 58.3082 624.995C62.1632 624.581 67.2242 625.348 70.7252 624.029C73.4387 623.114 75.2177 620.179 75.2027 617.372C74.7752 610.738 69.3797 609.515 63.7532 610.241L63.7517 610.24Z" fill="#DBDBDB"/>
<path d="M71.1004 487.296C65.9509 487.249 60.8029 487.453 55.6549 487.474C52.7284 487.446 49.7944 487.413 46.8709 487.245C47.1769 477.339 46.1614 467.439 45.9094 457.536C45.6874 446.422 45.6004 435.304 44.8114 424.212C44.4334 417.844 44.0119 411.478 43.6819 405.108C43.4779 402.64 43.9909 399.768 41.9989 397.9C38.9179 394.615 32.8864 397.08 33.0364 401.613C34.0459 420.595 35.3614 439.555 35.4409 458.574C35.6719 466.414 36.3439 474.24 36.4384 482.085C36.6319 485.724 35.9284 489.403 36.3544 493.009C37.1809 496.702 41.4979 497.5 44.7529 497.61C48.7969 497.932 52.8634 497.971 56.9179 497.965C60.7639 497.932 64.6069 497.809 68.4529 497.791C71.2774 497.997 74.8534 497.712 75.8989 494.568C77.5144 491.325 74.6824 487.177 71.1004 487.296Z" fill="#DBDBDB"/>
<path d="M122.298 485.423C116.313 485.402 110.352 485.84 104.402 486.41C105.492 459.951 103.208 433.509 101.723 407.105C101.34 404.219 101.907 400.82 99.611 398.622C96.068 394.842 89.1305 397.68 89.3045 402.891C89.6975 433.193 91.0265 463.535 89.4095 493.818C89.4365 497.169 91.994 500.406 95.309 501.239C99.9785 502.05 104.711 500.802 109.392 500.585C114.186 500.148 119.001 500.106 123.81 500.028C125.649 499.904 127.65 500.163 129.321 499.278C132.029 498.366 133.803 495.437 133.79 492.636C133.325 485.91 127.962 484.89 122.3 485.424L122.298 485.423Z" fill="#DBDBDB"/>
<path d="M173.855 486.472C168.763 485.808 163.606 485.293 158.473 485.749C157.865 471.403 159.073 457.068 158.96 442.722C158.638 428.701 158.509 414.391 156.125 400.603C153.86 394.677 144.683 396.531 144.758 402.892C146.9 421.917 147.016 441.105 145.553 460.186C144.965 468.751 144.511 477.328 144.626 485.917C143.768 495.673 145.789 501.592 156.908 500.397C161.959 499.875 167.038 500.211 172.058 500.877C174.67 501.09 177.542 501.945 180.004 500.713C182.656 499.819 184.394 496.951 184.381 494.206C183.476 486.627 178.066 487.182 173.857 486.475L173.855 486.472Z" fill="#DBDBDB"/>
<path d="M246.345 488.046C242.934 479.53 235.567 483.562 230.982 483.627C231.63 483.54 232.278 483.453 232.927 483.366C226.509 484.071 220.099 485.265 213.645 485.589C213.129 467.923 212.71 450.253 211.798 432.601C211.428 424.072 211.138 415.536 211.122 406.996C211.128 404.968 211.179 402.94 211.263 400.912C211.258 399.522 211.647 398.022 210.943 396.747C209.083 391.876 201.525 393.387 201.586 398.631C200.268 411.154 200.406 423.765 199.894 436.333C198.993 454.261 199.09 472.191 199.77 490.123C199.321 500.37 208.522 500.794 216.379 499.921C223.738 499.129 231.09 498.263 238.422 497.241C243.196 497.798 247.83 493.21 246.345 488.046Z" fill="#DBDBDB"/>
<path d="M13.6302 11.3347C13.6302 264.208 14.1957 782.947 11.1987 1002.94C109.966 1002.94 263.583 1008.02 263.583 1008.02L266.199 14.6257L13.6302 11.3347Z" stroke="#151515" stroke-width="6" stroke-linecap="round" stroke-linejoin="round"/>
<path d="M89.7057 880.605C89.6007 914.021 89.4942 947.435 89.3892 980.85C103.366 981.149 114.852 981.447 128.829 981.747C128.829 969.054 129.864 896.325 129.234 881.187C115.836 881.274 107.001 880.607 89.7042 880.607L89.7057 880.605Z" stroke="#151515" stroke-width="6" stroke-linecap="round" stroke-linejoin="round"/>
<path d="M34.1939 880.605C34.0889 914.021 33.9824 947.435 33.8774 980.85C47.8544 981.149 59.3399 981.447 73.3169 981.747C73.3169 969.054 74.3519 896.325 73.7219 881.187C60.3239 881.274 51.4889 880.607 34.1924 880.607L34.1939 880.605Z" stroke="#151515" stroke-width="6" stroke-linecap="round" stroke-linejoin="round"/>
<path d="M201.145 880.605C201.04 914.021 200.934 947.435 200.829 980.85C214.806 981.149 226.291 981.447 240.268 981.747C240.268 969.054 241.303 896.325 240.673 881.187C227.275 881.274 218.44 880.607 201.144 880.607L201.145 880.605Z" stroke="#151515" stroke-width="6" stroke-linecap="round" stroke-linejoin="round"/>
<path d="M145.633 880.605C145.528 914.021 145.422 947.435 145.317 980.85C159.294 981.149 170.779 981.447 184.756 981.747C184.756 969.054 185.791 896.325 185.161 881.187C171.763 881.274 162.928 880.607 145.632 880.607L145.633 880.605Z" stroke="#151515" stroke-width="6" stroke-linecap="round" stroke-linejoin="round"/>
<path d="M89.7057 762.105C89.6007 795.521 89.4942 828.935 89.3892 862.35C103.366 862.649 114.852 862.947 128.829 863.247C128.829 850.554 129.864 777.825 129.234 762.687C115.836 762.774 107.001 762.107 89.7042 762.107L89.7057 762.105Z" stroke="#151515" stroke-width="6" stroke-linecap="round" stroke-linejoin="round"/>
<path d="M34.1939 762.105C34.0889 795.521 33.9824 828.935 33.8774 862.35C47.8544 862.649 59.3399 862.947 73.3169 863.247C73.3169 850.554 74.3519 777.825 73.7219 762.687C60.3239 762.774 51.4889 762.107 34.1924 762.107L34.1939 762.105Z" stroke="#151515" stroke-width="6" stroke-linecap="round" stroke-linejoin="round"/>
<path d="M201.145 762.105C201.04 795.521 200.934 828.935 200.829 862.35C214.806 862.649 226.291 862.947 240.268 863.247C240.268 850.554 241.303 777.825 240.673 762.687C227.275 762.774 218.44 762.107 201.144 762.107L201.145 762.105Z" stroke="#151515" stroke-width="6" stroke-linecap="round" stroke-linejoin="round"/>
<path d="M145.633 762.105C145.528 795.521 145.422 828.935 145.317 862.35C159.294 862.649 170.779 862.947 184.756 863.247C184.756 850.554 185.791 777.825 185.161 762.687C171.763 762.774 162.928 762.107 145.632 762.107L145.633 762.105Z" stroke="#151515" stroke-width="6" stroke-linecap="round" stroke-linejoin="round"/>
<path d="M89.7057 643.605C89.6007 677.021 89.4942 710.435 89.3892 743.85C103.366 744.149 114.852 744.447 128.829 744.747C128.829 732.054 129.864 659.325 129.234 644.187C115.836 644.274 107.001 643.607 89.7042 643.607L89.7057 643.605Z" stroke="#151515" stroke-width="6" stroke-linecap="round" stroke-linejoin="round"/>
<path d="M34.1939 643.605C34.0889 677.021 33.9824 710.435 33.8774 743.85C47.8544 744.149 59.3399 744.447 73.3169 744.747C73.3169 732.054 74.3519 659.325 73.7219 644.187C60.3239 644.274 51.4889 643.607 34.1924 643.607L34.1939 643.605Z" stroke="#151515" stroke-width="6" stroke-linecap="round" stroke-linejoin="round"/>
<path d="M201.145 643.605C201.04 677.021 200.934 710.435 200.829 743.85C214.806 744.149 226.291 744.447 240.268 744.747C240.268 732.054 241.303 659.325 240.673 644.187C227.275 644.274 218.44 643.607 201.144 643.607L201.145 643.605Z" stroke="#151515" stroke-width="6" stroke-linecap="round" stroke-linejoin="round"/>
<path d="M145.633 643.605C145.528 677.021 145.422 710.435 145.317 743.85C159.294 744.149 170.779 744.447 184.756 744.747C184.756 732.054 185.791 659.325 185.161 644.187C171.763 644.274 162.928 643.607 145.632 643.607L145.633 643.605Z" stroke="#151515" stroke-width="6" stroke-linecap="round" stroke-linejoin="round"/>
<path d="M89.7057 520.605C89.6007 554.021 89.4942 587.435 89.3892 620.85C103.366 621.149 114.852 621.447 128.829 621.747C128.829 609.054 129.864 536.325 129.234 521.187C115.836 521.274 107.001 520.607 89.7042 520.607L89.7057 520.605Z" stroke="#151515" stroke-width="6" stroke-linecap="round" stroke-linejoin="round"/>
<path d="M34.1939 520.605C34.0889 554.021 33.9824 587.435 33.8774 620.85C47.8544 621.149 59.3399 621.447 73.3169 621.747C73.3169 609.054 74.3519 536.325 73.7219 521.187C60.3239 521.274 51.4889 520.607 34.1924 520.607L34.1939 520.605Z" stroke="#151515" stroke-width="6" stroke-linecap="round" stroke-linejoin="round"/>
<path d="M201.145 520.605C201.04 554.021 200.934 587.435 200.829 620.85C214.806 621.149 226.291 621.447 240.268 621.747C240.268 609.054 241.303 536.325 240.673 521.187C227.275 521.274 218.44 520.607 201.144 520.607L201.145 520.605Z" stroke="#151515" stroke-width="6" stroke-linecap="round" stroke-linejoin="round"/>
<path d="M145.633 520.605C145.528 554.021 145.422 587.435 145.317 620.85C159.294 621.149 170.779 621.447 184.756 621.747C184.756 609.054 185.791 536.325 185.161 521.187C171.763 521.274 162.928 520.607 145.632 520.607L145.633 520.605Z" stroke="#151515" stroke-width="6" stroke-linecap="round" stroke-linejoin="round"/>
<path d="M89.7057 397.591C89.6007 431.006 89.4942 464.42 89.3892 497.836C103.366 498.134 114.852 498.433 128.829 498.733C128.829 486.04 129.864 413.311 129.234 398.173C115.836 398.26 107.001 397.592 89.7042 397.592L89.7057 397.591Z" stroke="#151515" stroke-width="6" stroke-linecap="round" stroke-linejoin="round"/>
<path d="M34.1939 397.591C34.0889 431.006 33.9824 464.42 33.8774 497.836C47.8544 498.134 59.3399 498.433 73.3169 498.733C73.3169 486.04 74.3519 413.311 73.7219 398.173C60.3239 398.26 51.4889 397.592 34.1924 397.592L34.1939 397.591Z" stroke="#151515" stroke-width="6" stroke-linecap="round" stroke-linejoin="round"/>
<path d="M201.145 397.591C201.04 431.006 200.934 464.42 200.829 497.836C214.806 498.134 226.291 498.433 240.268 498.733C240.268 486.04 241.303 413.311 240.673 398.173C227.275 398.26 218.44 397.592 201.144 397.592L201.145 397.591Z" stroke="#151515" stroke-width="6" stroke-linecap="round" stroke-linejoin="round"/>
<path d="M145.633 397.591C145.528 431.006 145.422 464.42 145.317 497.836C159.294 498.134 170.779 498.433 184.756 498.733C184.756 486.04 185.791 413.311 185.161 398.173C171.763 398.26 162.928 397.592 145.632 397.592L145.633 397.591Z" stroke="#151515" stroke-width="6" stroke-linecap="round" stroke-linejoin="round"/>
<path d="M238.347 361.468C230.569 359.903 222.616 360.617 214.735 360.33C214.129 354.375 213.003 337.6 212.475 327.625C211.804 313.127 212.997 298.632 213.495 284.148C213.619 281.327 213.738 278.507 213.901 275.687C214.098 273.565 214.227 271.195 212.515 269.623C209.482 266.393 203.545 268.813 203.694 273.277C202.896 291.544 201.651 309.822 201.768 328.113C202.605 342.213 201.838 358.274 202.801 367.445C204.207 372.256 208.933 373.715 213.499 373.403C217.848 373.426 222.183 372.965 226.53 372.953C231.295 373.012 232.647 373.345 233.796 373.478C234.165 373.519 234.625 373.577 235.05 373.633C235.87 373.864 236.689 373.919 237.51 373.729C239.122 373.646 240.73 372.701 241.62 371.359C244.467 368.11 242.5 362.471 238.347 361.466V361.468Z" fill="#DBDBDB"/>
<path d="M178.591 360.062C173.561 359.539 168.485 359.737 163.436 359.675C162.559 359.648 161.681 359.618 160.804 359.581C160.741 355.273 159.937 350.984 159.359 346.718C159.188 345.575 158.6 341.519 158.741 342.604C158.119 339.622 157.217 321.988 157.471 313.522C157.436 304.475 157.258 295.432 157.078 286.388C157.018 283.031 156.904 279.676 156.878 276.32C156.827 275.155 157.037 273.902 156.446 272.849C154.606 268.031 147.122 269.521 147.184 274.714C147.304 294.131 146.953 313.549 146.786 332.962C146.933 343.226 148.741 353.483 147.988 363.746C147.934 364.165 147.889 364.586 147.83 365.003C147.848 367.226 148.549 368.743 150.049 370.265C152.197 372.331 155.14 372.955 158.015 373.265C162.595 373.9 167.233 373.748 171.836 374.05C175.417 374.044 179.311 375.355 182.717 373.909C185.351 373.021 187.078 370.172 187.064 367.447C186.316 360.325 180.871 360.419 178.589 360.067L178.591 360.062Z" fill="#DBDBDB"/>
<path d="M132.225 362.847C130.273 361.631 127.936 361.878 125.739 361.671C122.94 361.491 120.141 361.313 117.339 361.178C113.392 360.962 109.443 360.818 105.493 360.683C105.382 356.178 104.961 351.024 104.694 349.284C102.175 329.537 102.262 309.582 102.064 289.709C102.063 285.663 102.354 280.982 102.579 278.858C102.631 278.501 102.847 276.954 102.949 276.27C103.288 275.037 103.111 273.692 102.468 272.591C100.527 269.018 94.702 269.747 93.742 273.731C91.141 283.065 91.5295 292.841 91.3495 302.439C91.1455 315.591 91.1665 328.737 91.51 341.885C91.5145 348.098 91.5025 354.311 91.4365 360.524C91.4005 362.781 91.1185 365.145 91.558 367.373C91.6675 368.318 91.861 369.242 92.413 370.064C93.7975 372.465 96.349 373.835 99.022 374.351C98.8945 374.354 99.2785 374.432 100.354 374.544C106.543 375.279 107.152 375.155 109.723 375.321C114.55 375.566 119.377 375.792 124.198 376.127C126.567 376.146 129.159 376.962 131.356 375.795C136.866 373.872 137.266 365.607 132.226 362.849L132.225 362.847Z" fill="#DBDBDB"/>
<path d="M77.184 361.467C75 360.136 72.3645 360.468 69.9165 360.402C66.2535 360.51 62.5455 360.378 58.917 360.934C59.5605 360.847 60.204 360.762 60.8475 360.675C53.496 361.189 52.314 361.449 48.312 361.798C48.195 361.026 48.0915 360.252 47.9535 359.482C47.94 359.403 47.934 359.37 47.925 359.314C47.91 359.215 47.9025 359.163 47.8995 359.158C47.8575 358.92 47.8935 359.185 47.943 359.551C47.9685 359.748 48.003 360.007 48.054 360.366V360.37C46.0185 348.355 46.8555 336.201 46.725 324.076C46.7475 315.814 46.32 307.557 46.3125 299.295C46.287 291.907 46.473 284.479 45.4425 277.146C44.9955 274.716 44.8335 271.711 42.447 270.36C38.9955 268.201 34.32 271.762 35.5305 275.677C36.6075 279.855 35.883 291.529 35.85 299.764C36.0225 315.297 35.532 330.81 35.25 346.335C35.373 351.19 35.805 356.031 36.0735 360.879C36.318 364.44 35.4255 368.284 37.029 371.596C38.112 373.345 39.8325 374.44 41.769 375.049C42.387 375.256 42.579 375.279 42.5265 375.196C42.636 375.238 42.732 375.303 42.843 375.342C53.019 376.249 63.282 374.509 73.4895 375.103C80.8575 375.133 83.5395 365.208 77.1825 361.468L77.184 361.467Z" fill="#DBDBDB"/>
<path d="M72.0489 240.945C71.8899 240.899 71.7414 240.836 71.5764 240.797C68.2434 240.189 64.8744 240.885 61.5099 240.89C57.9744 241.001 54.4254 241.172 50.8839 241.125C50.3364 232.124 49.0419 222.987 48.1809 210.894C47.0769 196.155 46.8414 181.371 46.6689 166.598C46.6194 163.334 46.5699 160.07 46.5204 156.806C46.5279 155.484 45.9819 154.199 45.0549 153.267C42.1179 150.14 36.3684 152.483 36.5124 156.806C36.0804 179.55 35.8374 202.326 37.5039 225.03C37.8669 230.999 37.9839 237.02 37.3209 242.97C37.2879 243.18 37.2519 243.405 37.2129 243.651C37.1004 244.062 37.0509 244.488 37.0104 244.917C36.9714 245.186 36.9414 245.454 36.9249 245.721C36.9294 245.663 36.9384 245.583 36.9519 245.48C36.9429 245.565 36.9369 245.651 36.9249 245.735C36.8634 246.699 36.9264 247.661 37.1289 248.627C38.5659 254.283 45.1854 255.752 50.3034 255.606C55.1559 255.666 60.0099 255.546 64.8579 255.333C67.0959 255.144 69.2559 255.372 71.4789 254.885C71.8389 254.772 72.1944 254.643 72.5484 254.514C74.5854 253.953 76.4124 252.489 77.0904 250.484C79.0329 246.591 76.1349 241.728 72.0519 240.944L72.0489 240.945Z" fill="#DBDBDB"/>
<path d="M120.281 242.005C118.484 241.992 116.685 241.959 114.89 241.894C108.227 241.465 108.539 241.714 104.999 240.919C104.652 235.909 104.108 230.914 103.628 225.913C101.772 203.365 103.289 180.762 103.257 158.182C103.556 155.346 102.92 151.888 99.8629 150.871C96.4339 149.167 92.0299 152.154 92.1589 155.953C91.1464 179.049 89.6509 202.155 90.3259 225.283C90.4504 230.623 90.4294 235.968 90.6049 241.306C90.6799 243.394 90.7279 245.496 91.1719 247.546C92.0524 250.192 94.1134 252.39 96.6769 253.485C102.438 255.96 108.944 256.122 115.127 256.537C117.756 256.443 120.654 257.187 123.101 256.009C125.826 255.091 127.613 252.142 127.599 249.322C127.592 245.391 124.251 241.942 120.281 242.005Z" fill="#DBDBDB"/>
<path d="M175.959 239.651C171.031 239.417 166.083 239.213 161.17 239.696C160.26 233.605 160.284 218.215 160.108 208.121C159.642 192.344 158.964 176.572 158.088 160.813C157.875 158.446 158.287 155.716 156.373 153.938C153.283 150.644 147.232 153.113 147.382 157.663C148.068 180.056 148.386 202.465 148.027 224.869C147.975 230.945 148.128 237.031 147.646 243.094C147.73 242.465 147.816 241.837 147.9 241.208C147.544 243.815 147.346 246.539 147.774 249.146C148.47 251.72 150.601 253.9 153.177 254.596C155.076 255.148 157.038 254.798 158.968 254.495C162.394 254.075 165.846 253.871 169.297 253.99C172.3 254.078 175.299 254.239 178.299 254.372C180.039 254.428 181.911 254.747 183.486 253.844C186.211 252.926 187.998 249.977 187.984 247.157C187.444 239.963 181.783 239.626 175.959 239.651Z" fill="#DBDBDB"/>
<path d="M234.619 243.645C233.068 243.651 231.515 243.645 229.963 243.61C225.7 243.436 221.425 243.316 217.175 242.902C217.208 241.56 217.243 240.217 217.243 238.875C216.821 210.759 217.334 179.748 213.713 156.33C213.343 149.488 203.419 149.461 203.177 156.381C204.337 166.515 203.876 176.749 203.803 186.927C203.497 200.863 203.29 214.8 203.204 228.739C203.08 234.289 202.703 239.83 202.601 245.38C202.229 249.219 203.705 253.17 207.149 255.153C213.923 258.354 221.837 257.664 229.153 258.178C231.878 258.051 234.884 258.759 237.425 257.584C240.139 256.669 241.918 253.734 241.903 250.927C241.895 247.012 238.571 243.583 234.619 243.645Z" fill="#DBDBDB"/>
<path d="M241.118 118.355C238.661 116.843 235.703 117.508 232.973 117.461C227.717 117.523 222.455 117.845 217.201 117.707C217.202 117.52 217.205 117.335 217.21 117.158C215.159 95.9453 214.843 74.6288 214.418 53.3303C214.306 48.0518 214.094 42.7778 213.908 37.5023C213.77 35.1518 214.291 32.4263 212.38 30.6473C209.452 27.5273 203.723 29.8658 203.866 34.1738C203.948 59.8013 202.01 85.4708 204.017 111.067C204.229 114.227 204.206 117.398 204.262 120.565C203.612 125.066 206.077 129.697 210.667 130.939C217.375 132.782 224.452 132.062 231.328 132.011C234.268 131.722 237.499 132.479 240.251 131.272C242.959 130.36 244.733 127.43 244.72 124.63C244.649 122.012 243.358 119.723 241.12 118.354L241.118 118.355Z" fill="#DBDBDB"/>
<path d="M178.129 118.331C173.17 118.399 168.225 118.771 163.275 119.045C162.712 119.068 162.15 119.074 161.587 119.068C161.038 114.22 160.621 111.293 159.715 103.288C158.581 91.5085 158.68 79.654 158.397 67.834C158.254 59.503 158.1 51.172 157.893 42.8425C157.56 38.8675 158.203 34.0285 157.243 30.292C155.557 25.762 148.405 27.1825 148.513 32.05C148.156 55.7515 147.04 79.4725 147.396 103.172C147.574 108.311 147.814 113.453 147.879 118.595C147.699 123.604 147.771 129.019 152.754 131.728C159.522 134.869 167.226 132.993 174.408 133.042C178.042 132.66 182.019 133.594 185.46 132.274C188.179 131.357 189.961 128.416 189.948 125.602C189.418 118.609 183.927 117.904 178.129 118.334V118.331Z" fill="#DBDBDB"/>
<path d="M129.212 117.517C128.134 116.557 126.884 115.828 125.491 115.571C125.372 115.544 125.257 115.513 125.138 115.484C123.854 115.232 123.187 115.193 122.306 115.202C116.971 115.328 111.697 116.224 106.43 117.074C105.836 106.796 103.826 81.6249 103.778 67.9974C103.436 58.6344 103.225 49.2549 102.251 39.9309C101.558 36.6429 102.431 32.2839 100.063 29.7054C97.06 26.5059 91.177 28.9029 91.324 33.3249C93.835 62.5239 92.791 91.8999 93.331 121.175C93.3235 121.282 93.3205 121.337 93.316 121.421C93.0295 122.579 92.953 123.899 93.0025 124.153C92.7085 128.216 96.094 132.302 100.346 132.133C104.887 132.13 112.385 130.475 118.838 129.959C120.85 129.772 122.908 129.794 124.897 129.439C125.381 129.392 126.298 129.22 126.964 128.843C131.512 127.294 132.652 120.743 129.212 117.514V117.517Z" fill="#DBDBDB"/>
<path d="M66.1307 119.324C61.4042 119.508 56.6612 119.831 51.9317 119.61C51.8477 118.308 51.7127 117.008 51.5837 115.71C50.1947 93.0873 48.8297 70.4613 47.5022 47.8353C47.2217 43.6788 46.9667 39.5193 46.8542 35.3538C46.6607 33.4503 47.1662 31.3653 46.3307 29.5953C44.3267 24.3468 36.1847 25.9788 36.2507 31.6248C36.0917 53.8638 38.0972 76.0608 38.5487 98.2893C38.6102 105.402 39.1922 112.515 38.9672 119.625C38.8922 121.392 38.7827 121.943 39.0767 119.822C38.6672 122.753 38.3762 126.006 39.8672 128.682C45.0782 135.348 52.8857 133.974 60.6872 134.079C64.5422 133.665 69.6032 134.432 73.1042 133.113C75.8177 132.198 77.5966 129.263 77.5816 126.456C77.1541 119.822 71.7587 118.599 66.1322 119.325L66.1307 119.324Z" fill="#DBDBDB"/>
<path d="M92.0846 271.189C91.9796 304.605 91.8731 338.019 91.7681 371.434C105.745 371.733 117.231 372.031 131.208 372.331C131.208 359.638 132.243 286.909 131.613 271.771C118.215 271.858 109.38 271.191 92.0831 271.191L92.0846 271.189Z" stroke="#151515" stroke-width="6" stroke-linecap="round" stroke-linejoin="round"/>
<path d="M36.5728 271.189C36.4678 304.605 36.3613 338.019 36.2563 371.434C50.2333 371.733 61.7188 372.031 75.6958 372.331C75.6958 359.638 76.7309 286.909 76.1009 271.771C62.7028 271.858 53.8679 271.191 36.5713 271.191L36.5728 271.189Z" stroke="#151515" stroke-width="6" stroke-linecap="round" stroke-linejoin="round"/>
<path d="M203.524 271.189C203.419 304.605 203.313 338.019 203.208 371.434C217.185 371.733 228.67 372.031 242.647 372.331C242.647 359.638 243.682 286.909 243.052 271.771C229.654 271.858 220.819 271.191 203.523 271.191L203.524 271.189Z" stroke="#151515" stroke-width="6" stroke-linecap="round" stroke-linejoin="round"/>
<path d="M148.012 271.189C147.907 304.605 147.801 338.019 147.696 371.434C161.673 371.733 173.158 372.031 187.135 372.331C187.135 359.638 188.17 286.909 187.54 271.771C174.142 271.858 165.307 271.191 148.011 271.191L148.012 271.189Z" stroke="#151515" stroke-width="6" stroke-linecap="round" stroke-linejoin="round"/>
<path d="M92.0846 152.689C91.9796 186.105 91.8731 219.519 91.7681 252.934C105.745 253.233 117.231 253.531 131.208 253.831C131.208 241.138 132.243 168.409 131.613 153.271C118.215 153.358 109.38 152.691 92.0831 152.691L92.0846 152.689Z" stroke="#151515" stroke-width="6" stroke-linecap="round" stroke-linejoin="round"/>
<path d="M36.5728 152.689C36.4678 186.105 36.3613 219.519 36.2563 252.934C50.2333 253.233 61.7188 253.531 75.6958 253.831C75.6958 241.138 76.7309 168.409 76.1009 153.271C62.7028 153.358 53.8679 152.691 36.5713 152.691L36.5728 152.689Z" stroke="#151515" stroke-width="6" stroke-linecap="round" stroke-linejoin="round"/>
<path d="M203.524 152.689C203.419 186.105 203.313 219.519 203.208 252.934C217.185 253.233 228.67 253.531 242.647 253.831C242.647 241.138 243.682 168.409 243.052 153.271C229.654 153.358 220.819 152.691 203.523 152.691L203.524 152.689Z" stroke="#151515" stroke-width="6" stroke-linecap="round" stroke-linejoin="round"/>
<path d="M148.012 152.689C147.907 186.105 147.801 219.519 147.696 252.934C161.673 253.233 173.158 253.531 187.135 253.831C187.135 241.138 188.17 168.409 187.54 153.271C174.142 153.358 165.307 152.691 148.011 152.691L148.012 152.689Z" stroke="#151515" stroke-width="6" stroke-linecap="round" stroke-linejoin="round"/>
<path d="M92.0846 29.6892C91.9796 63.1047 91.8731 96.5187 91.7681 129.934C105.745 130.233 117.231 130.531 131.208 130.831C131.208 118.138 132.243 45.4092 131.613 30.2712C118.215 30.3582 109.38 29.6907 92.0831 29.6907L92.0846 29.6892Z" stroke="#151515" stroke-width="6" stroke-linecap="round" stroke-linejoin="round"/>
<path d="M36.5728 29.6892C36.4678 63.1047 36.3613 96.5187 36.2563 129.934C50.2333 130.233 61.7188 130.531 75.6958 130.831C75.6958 118.138 76.7309 45.4092 76.1009 30.2712C62.7028 30.3582 53.8679 29.6907 36.5713 29.6907L36.5728 29.6892Z" stroke="#151515" stroke-width="6" stroke-linecap="round" stroke-linejoin="round"/>
<path d="M203.524 29.6892C203.419 63.1047 203.313 96.5187 203.208 129.934C217.185 130.233 228.67 130.531 242.647 130.831C242.647 118.138 243.682 45.4092 243.052 30.2712C229.654 30.3582 220.819 29.6907 203.523 29.6907L203.524 29.6892Z" stroke="#151515" stroke-width="6" stroke-linecap="round" stroke-linejoin="round"/>
<path d="M148.012 29.6892C147.907 63.1047 147.801 96.5187 147.696 129.934C161.673 130.233 173.158 130.531 187.135 130.831C187.135 118.138 188.17 45.4092 187.54 30.2712C174.142 30.3582 165.307 29.6907 148.011 29.6907L148.012 29.6892Z" stroke="#151515" stroke-width="6" stroke-linecap="round" stroke-linejoin="round"/>
</svg>
