<svg width="389" height="434" viewBox="0 0 389 434" fill="none" xmlns="http://www.w3.org/2000/svg">
<g clip-path="url(#clip0_556_789)">
<path d="M18.1329 3.71191C18.1329 169.097 18.9579 273.709 14.5854 417.589C158.669 417.589 263.089 418.736 382.769 414.044L386.585 5.86591L18.1329 3.71191Z" fill="white"/>
<path d="M19.1594 9.39616C19.3994 7.26166 19.6124 4.87066 17.8949 3.27016C14.9309 0.220659 9.16944 2.42866 9.31344 6.82516C7.17744 26.0042 6.30144 45.2897 6.17244 64.5812C5.92794 76.4687 5.14194 88.3547 5.45094 100.248C6.62094 125.048 8.27994 149.096 7.62294 174.024C7.06944 207.219 5.51844 240.389 5.17194 273.588C4.81794 294.792 6.32094 315.989 5.46744 337.185C4.93644 364.613 -0.868556 391.902 1.18944 419.366C1.14444 425.534 8.63994 428.564 12.0614 422.748C13.8344 419.217 14.1509 415.221 14.6969 411.366C15.5819 404.108 15.8399 396.792 16.1564 389.493C16.2959 385.955 16.4204 382.415 16.5119 378.875C16.4594 377.291 16.9094 375.525 16.1324 374.064C15.6674 372.714 14.6759 371.805 13.4954 371.319C14.6369 358.52 15.8009 345.599 15.9929 334.458C16.6724 314.493 15.2819 294.528 15.6059 274.554C15.9299 242.703 17.3069 210.881 17.9864 179.039C18.5984 154.443 17.6564 129.869 16.0304 105.332C15.3629 90.4337 16.4579 75.5417 16.6829 60.6467C16.8554 43.5407 17.5139 26.4287 19.1594 9.39616Z" fill="#C1C1C1"/>
<path d="M376.374 413.321C356.374 414.993 336.279 414.522 316.254 415.707C299.236 416.817 282.228 417.95 265.174 418.341C247.287 419.165 229.395 420.003 211.483 419.964C173.184 418.964 134.86 418.454 96.5459 418.35C75.7829 418.178 55.0304 417.624 34.2659 418.257C30.4814 418.272 26.6924 418.244 22.9124 418.026C20.3714 417.989 17.5934 417.335 15.2699 418.631C13.7219 419.498 12.7799 421.191 12.6689 422.924C12.3074 423.018 11.9459 423.113 11.5844 423.204C9.86236 423.561 8.06236 424.172 7.17736 425.816C4.99186 429.338 8.59636 434.109 12.6029 432.873C19.7729 431.169 20.1854 431.285 27.3599 430.589C30.3059 430.115 33.8954 430.838 36.3959 428.943C36.5024 428.867 36.5999 428.774 36.7004 428.687C39.2189 428.67 41.7374 428.633 44.2559 428.559C63.5174 427.938 82.7714 428.984 102.033 428.795C117.036 428.673 132.031 429.092 147.03 429.341C166.108 429.47 185.196 429.479 204.258 430.313C224.787 430.779 245.31 429.677 265.813 428.784C283.527 428.421 301.183 427.082 318.862 426.045C338.629 424.946 358.474 425.483 378.196 423.609C386.043 423.17 384.538 411.413 376.375 413.319L376.374 413.321Z" fill="#C1C1C1"/>
<path d="M37.3394 134.832C37.6169 108.434 36.3854 82.0757 34.9859 55.7237C34.4369 44.3072 34.6799 32.8652 33.8354 21.4637C33.5969 18.3317 33.4154 15.1922 33.0239 12.0752C32.6084 9.42022 32.7134 6.43072 30.7109 4.39522C25.5059 -2.81978 13.5779 1.19722 13.6814 10.1747C14.4239 24.7232 13.5689 39.3152 14.0654 53.8772C14.9669 75.1022 16.4639 96.3062 16.4954 117.561C16.8554 140.822 18.1889 164.06 17.6579 187.331C17.2649 204.833 18.7199 222.296 18.6284 239.79C18.5504 270.678 13.4159 301.253 12.3329 332.1C11.6564 352.104 12.6329 372.098 13.7744 392.066C13.9454 396.518 14.1569 400.97 14.1869 405.425C14.2664 408.18 13.5494 411.132 14.9714 413.642C16.6529 418.532 22.4354 420.996 27.3029 419.694C36.0779 417.114 35.2634 408.269 34.9694 400.892C34.7189 393.18 34.2929 385.476 33.7784 377.778C32.9639 362.445 32.3174 347.088 32.4644 331.73C33.1709 310.01 34.7219 288.324 36.0809 266.639C37.4774 246.342 36.7874 226.005 37.6079 205.692C38.2004 182.07 37.8839 158.45 37.3394 134.832Z" fill="#DBDBDB"/>
<path d="M377.292 396.561C372.335 393.872 366.039 395.753 360.594 395.27C345.852 395.258 331.109 395.349 316.37 395.703C300.896 396.032 285.426 396.95 269.946 396.603C252.617 396.308 235.338 394.631 218.007 394.394C198.251 394.572 178.523 395.868 158.772 396.276C135.384 396.548 111.99 396.341 88.6067 397.044C77.5367 397.145 66.4667 397.221 55.3982 397.512C46.7417 397.457 38.0222 397.842 29.6717 400.305C21.2627 402.843 24.5717 415.379 33.2477 413.277C33.7472 413.202 34.2467 413.127 34.7462 413.052C35.2712 413.021 35.7932 412.956 36.3107 412.833C36.6587 412.791 37.0052 412.743 37.3547 412.709C43.2812 412.277 49.1912 413.049 55.1057 413.345C65.4437 413.973 75.8012 414.188 86.1497 414.621C112.53 415.503 138.929 414.78 165.317 415.172C185.559 415.172 205.811 414.573 226.047 415.319C247.482 416.336 268.911 418.203 290.387 417.387C310.154 416.684 329.927 416.15 349.707 416.117C354.771 416.091 359.835 416.105 364.899 416.085C369.87 415.863 375.632 416.901 379.398 412.905C384.17 408.323 383.054 399.83 377.292 396.561Z" fill="#DBDBDB"/>
<path d="M248.487 392.88C246.382 386.267 238.221 389.363 233.079 388.955C225.571 389.076 218.047 388.923 210.555 389.501C196.96 391.316 180.549 391.127 171.013 390.026C167.385 389.654 165.777 389.193 159.925 388.809C158.665 388.598 157.824 388.422 157.228 388.275C156.913 380.924 157.932 373.341 156.421 366.164C154.428 360.914 146.299 362.577 146.373 368.187C146.328 375.524 146.148 382.853 146.458 390.186C146.4 390.569 146.341 390.953 146.29 391.337C146.328 390.708 146.128 391.043 146.11 392.457C146.124 392.579 146.136 392.681 146.148 392.783C146.143 392.766 146.14 392.748 146.136 392.735C146.242 393.386 146.212 394.074 146.428 394.697C146.892 395.99 147.598 397.184 148.596 398.136C149.466 398.829 150.219 399.383 149.992 399.194C150.603 399.63 151.245 399.989 152.073 400.214C154.525 400.952 157.069 400.64 159.568 400.284C159.589 400.289 159.657 400.289 159.846 400.28C164.677 400.026 169.503 400.458 174.33 400.613C183.012 400.842 191.7 401.175 200.386 401.154C208.557 400.839 216.714 400.274 224.893 400.185C230.053 400.019 235.209 400.452 240.37 400.367C241.959 400.172 243.696 400.404 245.152 399.674C247.855 398.747 249.198 395.562 248.487 392.88Z" fill="#DBDBDB"/>
<path d="M355.587 392.226C354.473 391.238 353.144 390.543 351.62 390.582C351.753 390.596 352.527 390.72 353.004 390.774C350.696 390.45 348.377 390.203 346.052 390.03C338.81 389.387 331.55 388.701 324.27 388.949C309.179 389.735 297.791 388.88 285.767 389.973C282.128 390.191 274.818 390.452 270.668 390.563C270.96 384.338 271.184 378.104 270.962 371.877C270.548 368.888 271.331 365.241 269.072 362.886C266.055 359.652 260.124 362.088 260.277 366.528C260.894 373.19 261.38 379.877 261.413 386.57C261.765 390.387 260.226 395.054 263.064 398.157C264.504 399.624 266.757 399.812 268.722 399.663C278.298 399.125 292.178 400.428 296.975 400.704C309.336 401.643 321.714 399.965 334.077 400.601C338.808 400.845 343.521 401.339 348.245 401.687C350.081 401.636 352.085 402.195 353.781 401.321C357.426 400.079 358.353 394.82 355.587 392.226Z" fill="#DBDBDB"/>
<path d="M128.66 392.523C127.277 387.599 122.138 388.097 118.061 388.379C113.981 388.64 109.895 388.814 105.807 388.919C97.7806 389.049 89.7541 388.445 81.7291 388.718C72.9541 389.265 64.1656 390.438 55.3666 389.622C50.5816 389.129 45.7876 389.129 41.0386 389.889C40.8826 384.135 40.5226 378.378 40.0351 372.644C39.5026 369.953 40.0996 366.326 37.3696 364.739C34.6546 363.081 30.8656 365.217 30.9511 368.423C31.4926 371.943 32.0281 379.274 32.0566 385.967C32.1106 388.715 32.0011 391.478 32.4706 394.199L32.3131 393.03C32.3641 394.724 32.6311 396.488 33.8401 397.763C35.2681 399.243 37.4761 399.482 39.4306 399.26C42.6436 398.943 45.8656 398.49 49.1011 398.721C55.6321 399.323 62.1496 400.112 68.7226 400.008C74.3611 399.977 79.9576 399.123 85.5976 399.077C95.2126 399.021 104.811 399.83 114.422 400.047C116.774 400.14 119.123 400.02 121.473 399.957C122.757 399.884 124.133 400.043 125.286 399.395C128.021 398.457 129.38 395.235 128.66 392.523Z" fill="#DBDBDB"/>
<path d="M130.476 337.776C127.184 335.921 123.257 337.523 119.714 337.643C101.747 340.103 70.173 337.629 46.4655 337.764C45.798 337.739 45.1335 337.668 44.466 337.623C44.3685 333.864 44.28 330.104 44.2095 326.343C43.9515 324 44.7525 321.17 42.894 319.34C40.4565 316.722 35.655 318.695 35.7795 322.286C35.9835 330.158 35.3085 338.123 35.517 342.744C36.7335 346.905 41.4915 347.067 45.09 347.523C50.1015 348.156 55.164 348.096 60.1995 348.396C74.6415 349.229 89.115 349.458 103.574 349.892C108.59 350.007 113.598 350.321 118.619 350.204C122.273 349.976 126.174 350.87 129.675 349.674C134.708 347.924 135.099 340.287 130.476 337.776Z" fill="#DBDBDB"/>
<path d="M244.622 338.075C229.992 337.637 215.375 336.651 200.727 336.888C187.713 337.59 174.693 337.61 161.669 337.508C161.397 333.32 161.061 329.136 160.908 324.941C160.821 322.767 160.599 320.604 160.485 318.432C160.503 316.799 160.388 315.035 159.108 313.854C156.438 310.991 151.187 313.148 151.322 317.079C151.272 324.531 151.842 331.98 151.433 339.432C151.427 339.714 151.419 339.995 151.412 340.277C151.019 341.366 151.07 342.369 150.974 342.893C151.208 348.693 156.615 349.635 161.385 349.344C165.369 349.223 169.356 349.238 173.342 349.239C187.547 349.142 201.743 348.257 215.951 348.549C223.772 348.798 231.572 349.394 239.375 349.962C242.243 349.883 245.36 351.167 248.069 349.955C254.805 347.123 251.858 337.214 244.623 338.075H244.622Z" fill="#DBDBDB"/>
<path d="M362.145 339.29C360.684 338.393 359.005 338.24 357.327 338.325C356.439 338.396 357.172 338.349 352.747 338.685C347.469 339 342.183 338.759 336.9 338.648C327.208 338.615 317.542 337.758 307.854 337.686C299.719 337.599 291.616 338.607 283.483 338.433C280.941 338.336 278.406 338.13 275.871 337.907C275.827 336.042 275.758 334.179 275.652 332.318C275.418 327.971 275.268 323.609 274.725 319.287C274.29 317.123 274.489 314.553 273.024 312.774C269.791 308.274 262.479 311.94 264.01 317.265C264.675 320.718 265.108 326.228 265.233 333.048C265.231 336.116 265.191 339.186 264.987 342.246C264.987 342.252 264.993 342.222 265 342.177C264.936 343.391 265.173 344.591 265.762 345.693C266.877 347.565 268.87 348.564 270.945 349.016C272.353 349.376 270.796 348.857 270.25 348.59C273.553 349.97 272.19 349.074 277.488 349.947C291.853 351.815 306.342 349.142 320.752 350.282C333.247 351.324 352.228 352.044 358.536 352.619C365.719 352.661 368.371 342.939 362.146 339.29H362.145Z" fill="#DBDBDB"/>
<path d="M359.957 293.406C359.862 293.351 359.763 293.312 359.667 293.262C359.654 293.256 359.642 293.247 359.628 293.24C359.526 293.181 359.42 293.142 359.318 293.088C359.289 293.076 359.262 293.06 359.234 293.048C356.315 291.548 352.913 291.627 349.725 291.161C347.67 290.834 341.871 289.821 334.554 289.143C323.244 288.371 311.9 289.19 300.578 289.218C293.762 289.491 286.944 288.968 280.134 289.377C278.766 289.556 277.355 289.581 275.943 289.611C275.975 286.416 276.09 283.22 276.167 280.023C276.248 276.651 276.339 273.278 276.23 269.904C276.263 267.944 276.08 265.833 274.556 264.419C271.31 260.937 264.924 263.561 265.089 268.34C265.371 277.277 264.905 288.783 264.197 294.464C263.912 295.332 263.759 296.234 263.996 297.144C265.337 303.839 271.556 303.192 275.12 302.873C280.161 302.499 285.206 302.106 290.262 302.07C299.552 302.091 308.843 302.234 318.134 302.133C326.132 301.98 334.161 301.505 342.132 302.424C341.585 302.351 341.036 302.277 340.488 302.204C346.031 302.714 352.103 305.633 357.636 304.421C363.074 303.861 364.925 296.319 359.958 293.408L359.957 293.406Z" fill="#DBDBDB"/>
<path d="M247.493 290.196C244.677 288.764 241.302 289.389 238.244 289.029C229.575 288.35 220.895 288.272 212.207 288.536C205.046 288.885 197.873 288.731 190.713 289.074C181.22 289.398 171.732 290.364 162.228 290.144C161.568 290.144 160.908 290.133 160.247 290.123C160.008 287.318 159.672 283.094 159.59 279.726C159.5 277.461 159.534 275.193 159.47 272.927C159.501 271.335 159.354 269.624 158.117 268.476C155.486 265.653 150.309 267.78 150.443 271.655C149.924 278.208 150.242 289.808 150.266 293.42C150.266 293.43 150.263 293.445 150.266 293.444C150.266 293.453 150.266 293.463 150.266 293.471C149.448 296.193 150.753 299.271 153.255 300.734C156.018 302.133 159.267 301.926 162.285 302.252C168.609 302.454 174.938 302 181.242 301.548C191.84 300.299 202.473 300.68 213.113 300.443C218.103 300.308 223.097 300.051 228.089 300.174C233.369 300.465 238.631 301.11 243.917 301.271C250.158 301.784 252.936 293.45 247.494 290.198L247.493 290.196Z" fill="#DBDBDB"/>
<path d="M134.46 291.869C132.023 289.454 128.435 290.292 125.339 290.255C118.469 290.304 111.621 290.649 104.771 291.185C98.1646 291.741 91.5465 291.284 84.939 291.015C78.1515 290.88 71.3655 291.269 64.578 291.227C57.864 291.125 51.4485 291.027 44.832 291.128C44.571 285.495 44.3655 279.86 44.166 274.224C43.767 271.227 44.94 267.536 42.687 265.128C40.029 262.277 34.7925 264.425 34.929 268.341C34.7325 275.138 34.6995 281.939 34.608 288.737C34.4055 295.157 33.9195 302.205 42.5355 301.806C50.1465 300.764 57.4561 301.739 65.0281 302.439C75.4081 302.565 85.7806 302.01 96.1426 302.939C103.94 303.284 111.677 301.623 119.484 301.974C126.149 301.916 133.703 303.054 135.629 298.052C136.632 296.063 136.017 293.412 134.46 291.869Z" fill="#DBDBDB"/>
<path d="M132.345 244.412C129.672 241.854 125.675 242.877 122.327 242.898C117.761 243.167 113.204 243.582 108.635 243.773C92.34 243.395 76.038 242.529 59.7465 241.848C54.9435 241.595 50.136 242.04 45.3345 242.066C45.0645 237.924 44.664 233.784 44.601 229.629C44.5395 227.4 44.4 225.174 44.4045 222.944C44.4045 221.844 44.598 220.664 44.0295 219.671C42.2355 214.946 34.92 216.443 34.986 221.492C34.8675 229.368 34.9125 237.254 34.437 245.115C34.5705 256.337 47.8485 252.236 55.1355 252.518C60.258 252.387 65.3355 253.275 70.437 253.622C76.0185 253.989 81.6195 253.86 87.21 253.922C99.21 254.15 111.183 254.883 123.183 254.103C125.607 253.934 128.255 254.493 130.532 253.533C134.187 252.287 135.117 247.011 132.342 244.412H132.345Z" fill="#DBDBDB"/>
<path d="M252.828 247.874C251.743 243.675 247.078 242.759 243.301 243.39C243.007 243.419 242.634 243.453 242.212 243.491C238.723 243.771 235.215 243.738 231.717 243.618C223.449 243.419 215.208 242.607 206.938 242.474C199.53 242.327 192.145 243.129 184.743 243.045C176.815 242.438 168.895 241.784 160.951 241.527C160.561 236.339 160.488 231.131 160.384 225.927C160.107 223.464 160.729 220.773 159.847 218.439C158.007 213.585 150.483 215.12 150.553 220.31C150.48 226.691 150.561 233.075 150.198 239.45C150.022 243.734 148.515 249.45 153.061 251.99C155.155 253.151 157.644 252.975 159.963 252.927C163.473 252.813 166.987 252.69 170.497 252.858C181.335 253.53 192.133 254.714 203.004 253.994C215.428 254.022 227.808 255.452 240.237 255.636C243.787 255.827 254.085 257.7 252.828 247.874Z" fill="#DBDBDB"/>
<path d="M358.629 243.593C351.493 243.774 345.498 244.757 335.178 244.703C327.808 244.472 320.485 243.461 313.113 243.189C300.838 242.895 288.555 244.019 276.279 243.062C275.698 243.029 275.118 243.021 274.537 243.021C274.531 242.721 274.533 242.457 274.548 242.27C274.513 236.691 274.606 231.113 274.731 225.536C274.626 223.491 275.371 221.249 274.482 219.333C272.592 214.347 264.864 215.925 264.936 221.255C264.292 228.885 264.175 236.547 263.733 244.19C263.328 248.363 263.439 248.262 263.728 249.491C264.267 251.163 265.326 252.563 266.805 253.517C268.819 254.642 271.18 254.586 273.42 254.568C276.565 254.54 279.708 254.673 282.852 254.712C291.787 255.042 300.708 254.559 309.636 254.295C315.967 254.259 322.264 255.027 328.546 255.726C336.303 256.8 344.11 255.968 351.894 256.068C352.441 256.086 352.989 256.112 353.536 256.139C354.193 256.247 354.85 256.35 355.506 256.467C357.366 256.814 359.403 257.016 361.167 256.215C367.726 253.701 365.677 243.497 358.626 243.593H358.629Z" fill="#DBDBDB"/>
<path d="M369.59 198.33C367.307 191.744 358.673 194.847 348.746 194.691C333.747 194.964 318.692 195.317 303.707 194.475C297.959 193.973 292.224 192.908 286.436 193.271C282.786 193.508 279.845 193.872 277.469 194.034C276.837 187.158 277.415 180.096 275.57 173.417C273.821 167.598 265.191 169.949 266.646 175.877C267.257 177.357 266.453 187.406 266.61 193.061C266.352 197.295 265.787 202.514 270.014 205.028C271.163 205.92 273.14 205.925 274.602 206.129C279.278 205.971 283.889 204.983 288.569 204.846C294.249 204.615 299.891 205.541 305.555 205.788C312.189 206.042 318.828 205.679 325.464 205.757C337.245 205.952 349.01 205.985 360.776 205.268C364.95 205.202 370.478 205.091 369.587 198.332L369.59 198.33Z" fill="#DBDBDB"/>
<path d="M255.381 199.074C254.254 194.942 250.113 194.4 246.439 194.625C242.769 194.594 239.1 194.364 235.45 193.97C231.274 193.529 229.944 192.999 222.252 192.422C210.72 192.005 199.155 192.027 187.639 192.818C180.43 193.569 173.038 193.034 165.987 194.931C165.646 195.051 165.294 195.179 164.943 195.306C164.827 189.461 164.556 183.62 164.427 177.774C164.322 175.62 164.845 173.103 163.084 171.468C160.453 168.647 155.275 170.772 155.41 174.647C155.569 183.855 155.629 193.053 155.154 202.254C154.434 206.93 159.078 210.63 163.302 208.092C163.386 208.031 163.45 207.983 163.521 207.93C163.887 207.698 164.229 207.428 164.556 207.125C164.877 206.933 165.205 206.753 165.541 206.588C166.875 206.091 168.252 205.739 169.647 205.46C171.736 204.879 187.608 205.62 195.072 205.083C199.81 204.972 204.549 205.304 209.287 205.259C215.044 205.166 220.804 204.716 226.56 205.025C227.719 205.088 241.738 207.413 248.53 206.727C250.417 206.859 256.615 205.746 255.381 199.076V199.074Z" fill="#DBDBDB"/>
<path d="M142.443 197.957C140.519 192.842 136.865 193.341 133.311 193.101C126.825 192.864 120.39 193.886 113.949 194.483C100.874 195.449 87.7651 196.197 74.6566 196.517C67.7521 196.496 60.8941 195.368 53.9806 195.558C51.6631 195.573 49.3396 195.692 47.0191 195.692C46.9861 191.991 46.5436 188.298 46.4041 184.598C46.0186 180.564 46.4071 176.318 45.5011 172.392C44.0341 168.398 37.7341 169.68 37.8391 173.934C38.0041 180.564 38.4421 187.206 38.1331 193.836C37.7641 198.03 36.7381 203.043 41.9521 204.528C47.7451 205.407 53.6491 204.585 59.4811 204.969C71.9686 206.025 84.4951 206.109 97.0201 206.168C102.842 206.054 108.665 206.249 114.485 206.117C119.616 205.974 124.724 205.263 129.863 205.347C134.769 205.451 131.33 205.509 136.43 205.847C140.451 205.943 143.549 201.803 142.442 197.955L142.443 197.957Z" fill="#DBDBDB"/>
<path d="M135.958 151.347C134.778 146.922 130.096 146.763 126.307 147.002C121.276 146.931 116.247 147.008 111.216 147.081C97.05 147.39 82.881 147.359 68.712 147.537C61.7055 147.527 54.6945 147.594 47.6895 147.39C47.3895 147.33 47.2515 147.384 46.8885 147.362C47.1585 141.929 47.5605 136.49 47.3505 131.045C47.079 128.384 47.5395 125.189 45.933 122.927C43.0185 118.871 36.429 122.175 37.809 126.974C38.0145 127.593 38.3895 138.071 37.821 142.944C37.506 146.702 36.564 151.179 39.5565 154.13C40.9485 155.514 42.999 155.936 44.886 156.152C47.6565 156.531 50.457 156.603 53.247 156.723C66.195 157.418 79.1655 156.96 92.1165 157.458C101.791 157.779 111.475 157.773 121.14 158.406C123.346 158.505 125.556 158.568 127.761 158.709C129.358 158.783 131.104 159.011 132.567 158.255C135.316 157.311 136.681 154.074 135.958 151.347Z" fill="#DBDBDB"/>
<path d="M242.329 147.372C236.832 147.875 231.312 147.867 225.798 148.025C211.11 148.703 196.413 148.029 181.72 147.875C176.685 147.863 167.04 147.786 163.345 147.707C163.029 141.711 162.961 135.704 162.756 129.702C162.51 127.314 163.06 124.436 161.211 122.585C158.601 119.784 153.459 121.893 153.592 125.741C153.994 132.831 153.765 139.944 153.993 147.042C153.445 153.858 155.959 157.452 163.128 156.932C172.441 157.127 181.749 156.834 191.056 156.536C199.593 156.429 208.086 157.44 216.612 157.677C222.688 157.884 228.769 157.511 234.829 158.145C238.581 158.48 242.344 158.631 246.097 158.943C250.081 159.66 254.238 157.637 254.277 153.108C253.921 146.432 247.327 146.808 242.326 147.372H242.329Z" fill="#DBDBDB"/>
<path d="M367.273 148.973C364.566 146.18 360.661 147.159 357.232 147.564C353.011 147.948 348.789 148.392 344.552 148.553C338.67 148.652 332.833 147.81 326.971 147.504C313.861 146.973 300.739 146.652 287.62 146.711C284.739 146.532 281.844 146.508 278.963 146.319C279.045 141.32 278.37 136.326 277.941 131.348C277.473 128.943 278.086 126.305 277.201 124.022C275.316 119.051 267.616 120.626 267.687 125.937C267.498 132.026 268.21 138.107 268.03 144.198C268.533 149.835 266.791 153.531 273.219 156.164C280 157.799 287.058 156.609 293.956 156.974C304.827 157.512 323.383 159.279 328.518 159.98C337.923 160.935 347.373 160.841 356.803 160.344C359.562 160.173 362.517 160.814 365.131 159.771C369.444 158.31 370.534 152.027 367.275 148.974L367.273 148.973Z" fill="#DBDBDB"/>
<path d="M367.101 105.366C366.674 103.754 365.307 102.482 363.71 102.06C363.717 102.06 363.729 102.063 363.737 102.063C363.725 102.062 363.713 102.059 363.701 102.057C363.447 101.991 363.191 101.948 362.928 101.927C361.904 101.751 360.875 101.58 359.844 101.492C354.341 101.063 348.821 100.932 343.313 100.584C327.074 99.4502 310.842 98.1137 294.551 98.8862C289.383 98.9717 280.829 99.6212 276.182 99.5672C276.224 93.8747 275.996 88.1852 275.501 82.5122C275.04 79.8977 275.739 76.7267 273.71 74.6837C270.906 71.6762 265.389 73.9427 265.532 78.0707C265.872 83.7692 266.184 89.4797 265.95 95.1887C265.962 98.4437 265.221 101.72 265.713 104.952C267.629 111.62 276.209 110.177 281.592 109.977C288.42 109.383 295.262 109.02 302.114 108.89C315.668 108.162 329.181 109.307 342.666 110.561C348.483 110.99 354.299 111.513 360.135 111.552C361.373 111.534 365.073 110.982 362.546 111.347C363.794 111.356 365.007 110.838 365.886 109.962C367.112 108.774 367.496 107.001 367.101 105.366Z" fill="#DBDBDB"/>
<path d="M246.295 99.2237C240.124 99.8567 219.742 100.436 207.69 99.5462C193.567 98.9507 179.397 98.9057 165.264 99.1022C163.809 99.1532 162.361 99.3737 160.914 99.5357C160.42 95.6057 160.752 88.8737 160.336 83.2247C160.003 80.8832 160.518 78.0512 158.736 76.2227C156.241 73.5452 151.324 75.5612 151.453 79.2392C152.031 85.5407 151.843 91.8902 151.899 98.2112C151.762 99.0317 152.107 102.266 152.188 102.993C152.173 102.863 152.149 102.657 152.109 102.323C152.148 104.759 152.724 107.31 154.989 108.608C158.608 110.573 162.762 108.8 166.629 108.869C173.871 108.963 181.107 109.391 188.353 109.406C201.082 109.248 213.775 110.273 226.5 110.159C238.59 110.462 241.341 111.399 246.271 111.857C256.083 112.343 256.167 98.8472 246.294 99.2237H246.295Z" fill="#DBDBDB"/>
<path d="M135.396 103.502C134.325 99.3213 129.681 99.4308 126.192 99.1788C117.71 98.4768 109.203 98.3313 100.704 98.8248C86.7061 99.4653 72.6841 99.1833 58.7131 100.394C54.1936 100.679 49.6666 100.8 45.1381 100.866C45.2746 95.5188 44.7016 90.1533 44.5576 84.8088C44.2096 82.3638 44.9341 79.7043 44.1076 77.3778C42.5146 73.0533 35.7076 74.4468 35.8171 79.0473C35.3461 85.9263 36.0421 92.8398 35.3371 99.7098C35.4226 101.214 32.8441 108.702 39.4561 110.369C51.2941 111.375 63.1921 110.172 75.0376 109.631C88.2421 109.542 101.448 109.608 114.653 109.487C119.495 109.584 124.31 110.235 129.153 110.289C132.978 110.925 136.497 107.318 135.396 103.502Z" fill="#DBDBDB"/>
<path d="M135.517 56.8757C134.178 52.3877 129.951 52.5482 126.102 52.9007C122.082 53.1167 118.057 53.0087 114.034 52.9982C98.4135 52.9517 82.791 52.8422 67.1715 52.6517C61.3275 52.3742 51.3705 52.5887 46.446 52.3232C46.3215 48.0962 45.5445 45.2132 45.36 42.7322C44.5965 38.2097 44.568 33.4742 43.509 29.0477C41.844 24.5267 34.7265 25.9832 34.842 30.7922C35.1975 36.8342 35.8965 42.8612 36.0405 48.9122C36.1665 53.1032 34.8465 58.7882 39.255 61.2227C44.1435 63.3812 49.761 62.3072 54.9645 62.6057C66.2655 62.9867 77.5695 63.1367 88.8735 63.3407C99.894 63.8417 110.926 63.8612 121.956 63.8042C124.24 63.8852 126.525 63.9152 128.811 63.9632C129.978 63.9992 131.215 64.1207 132.259 63.5147C134.899 62.6087 136.213 59.4962 135.517 56.8757Z" fill="#DBDBDB"/>
<path d="M250.602 54.6363C250.588 54.6333 250.564 54.6318 250.549 54.6288C250.566 54.6318 250.585 54.6333 250.602 54.6363Z" fill="#DBDBDB"/>
<path d="M253.092 56.0582C252.343 55.3952 251.488 54.8867 250.549 54.6287C250.434 54.6077 250.317 54.5987 250.201 54.5807C250.335 54.5972 250.452 54.6137 250.549 54.6287C250.122 54.5117 249.682 54.4337 249.219 54.4427C247.435 54.2462 245.637 54.2777 243.84 54.3392C237.832 54.4937 231.84 54.9692 225.837 55.2212C211.381 55.0097 197.073 52.2062 182.604 51.8717C175.908 51.4667 169.204 51.6932 162.505 51.6977C162.087 46.0697 161.302 40.4672 160.689 34.8587C160.258 32.4077 160.89 29.4677 158.937 27.5747C156.115 24.5462 150.558 26.8277 150.702 30.9857C151.108 37.9637 152.409 44.8877 152.224 51.8957C152.212 52.8167 152.176 53.7392 152.119 54.6587C152.077 54.7877 152.022 55.0037 151.948 55.3547C150.742 62.0132 157.099 63.4787 162.379 62.8547C168.493 62.5127 174.591 63.2672 180.703 63.3362C190.663 63.5882 200.662 63.5852 210.556 64.8827C215.373 65.3762 220.194 65.9432 225.037 66.0347C230.919 66.0092 236.787 65.4602 242.668 65.4752C247.518 65.4842 249.666 65.8802 251.31 65.0192C254.901 63.7952 255.814 58.6112 253.089 56.0567L253.092 56.0582Z" fill="#DBDBDB"/>
<path d="M366.706 57.4458C364.84 52.7928 361.873 53.8428 357.754 53.3043C351.235 53.0478 344.707 53.2008 338.187 52.9833C321.256 52.4838 304.341 51.5598 287.407 51.1218C283.294 50.9433 279.213 51.3768 275.128 51.7458C275.023 46.7028 274.72 41.6658 274.368 36.6348C273.976 33.9423 274.108 30.8238 272.571 28.5003C270.046 24.9123 264.135 27.8733 265.395 32.0763C266.22 35.8263 266.107 44.9478 266.031 52.0578C266.11 53.1798 265.686 56.6388 266.059 53.9328C265.947 54.3858 265.882 54.8463 265.866 55.3173C266.013 56.1078 266.04 56.4843 266.011 56.3958C266.04 56.6043 266.065 56.8113 266.095 57.0198C267.148 63.9333 275.119 61.5993 280.003 61.4133C287.065 60.8433 294.159 61.0833 301.228 61.3863C317.122 62.0328 333.022 62.5728 348.925 62.9313C352.374 63.0798 355.815 63.3423 359.241 63.7728C359.157 63.7608 359.103 63.7533 359.029 63.7443C359.169 63.7623 359.319 63.7803 359.481 63.7998C363.742 64.6668 367.719 62.1588 366.708 57.4473L366.706 57.4458Z" fill="#DBDBDB"/>
<path d="M266.012 56.3958C265.967 56.0583 265.92 55.7208 265.875 55.3833C265.938 56.0148 265.991 56.3298 266.012 56.3958Z" fill="#DBDBDB"/>
<path d="M18.1334 3.71277C18.1334 169.098 18.9584 273.71 14.5859 417.59C158.67 417.59 263.089 418.737 382.77 414.045L386.586 5.86677L18.1334 3.71277Z" stroke="#151515" stroke-width="6" stroke-linecap="round" stroke-linejoin="round"/>
<path d="M37.4939 156.521C70.9094 156.612 104.323 156.702 137.739 156.794C138.037 144.753 138.336 134.859 138.636 122.819C125.943 122.819 53.2139 121.928 38.0759 122.469C38.1629 134.01 37.4954 141.621 37.4954 156.522L37.4939 156.521Z" stroke="#151515" stroke-width="6" stroke-linecap="round" stroke-linejoin="round"/>
<path d="M153.999 156.521C187.415 156.612 220.829 156.702 254.244 156.794C254.543 144.753 254.841 134.859 255.141 122.819C242.448 122.819 169.719 121.928 154.581 122.469C154.668 134.01 154.001 141.621 154.001 156.522L153.999 156.521Z" stroke="#151515" stroke-width="6" stroke-linecap="round" stroke-linejoin="round"/>
<path d="M267.942 156.521C301.358 156.612 334.772 156.702 368.187 156.794C368.486 144.753 368.784 134.859 369.084 122.819C356.391 122.819 283.662 121.928 268.524 122.469C268.611 134.01 267.944 141.621 267.944 156.522L267.942 156.521Z" stroke="#151515" stroke-width="6" stroke-linecap="round" stroke-linejoin="round"/>
<path d="M37.4939 204.339C70.9094 204.431 104.323 204.521 137.739 204.612C138.037 192.572 138.336 182.678 138.636 170.637C125.943 170.637 53.2139 169.746 38.0759 170.288C38.1629 181.829 37.4954 189.44 37.4954 204.341L37.4939 204.339Z" stroke="#151515" stroke-width="6" stroke-linecap="round" stroke-linejoin="round"/>
<path d="M153.999 204.339C187.415 204.431 220.829 204.521 254.244 204.612C254.543 192.572 254.841 182.678 255.141 170.637C242.448 170.637 169.719 169.746 154.581 170.288C154.668 181.829 154.001 189.44 154.001 204.341L153.999 204.339Z" stroke="#151515" stroke-width="6" stroke-linecap="round" stroke-linejoin="round"/>
<path d="M267.942 204.339C301.358 204.431 334.772 204.521 368.187 204.612C368.486 192.572 368.784 182.678 369.084 170.637C356.391 170.637 283.662 169.746 268.524 170.288C268.611 181.829 267.944 189.44 267.944 204.341L267.942 204.339Z" stroke="#151515" stroke-width="6" stroke-linecap="round" stroke-linejoin="round"/>
<path d="M35.7734 60.8838C69.1889 60.9753 102.603 61.0653 136.018 61.1568C136.317 49.1163 136.615 39.2223 136.915 27.1818C124.222 27.1818 51.4934 26.2908 36.3554 26.8323C36.4424 38.3733 35.7749 45.9843 35.7749 60.8853L35.7734 60.8838Z" stroke="#151515" stroke-width="6" stroke-linecap="round" stroke-linejoin="round"/>
<path d="M152.279 60.8838C185.694 60.9753 219.108 61.0653 252.524 61.1568C252.822 49.1163 253.121 39.2223 253.421 27.1818C240.728 27.1818 167.999 26.2908 152.861 26.8323C152.948 38.3733 152.28 45.9843 152.28 60.8853L152.279 60.8838Z" stroke="#151515" stroke-width="6" stroke-linecap="round" stroke-linejoin="round"/>
<path d="M266.223 60.8838C299.638 60.9753 333.052 61.0653 366.468 61.1568C366.766 49.1163 367.065 39.2223 367.365 27.1818C354.672 27.1818 281.943 26.2908 266.805 26.8323C266.892 38.3733 266.224 45.9843 266.224 60.8853L266.223 60.8838Z" stroke="#151515" stroke-width="6" stroke-linecap="round" stroke-linejoin="round"/>
<path d="M35.7734 108.702C69.1889 108.794 102.603 108.884 136.018 108.975C136.317 96.9347 136.615 87.0407 136.915 75.0002C124.222 75.0002 51.4934 74.1092 36.3554 74.6507C36.4424 86.1917 35.7749 93.8027 35.7749 108.704L35.7734 108.702Z" stroke="#151515" stroke-width="6" stroke-linecap="round" stroke-linejoin="round"/>
<path d="M152.279 108.702C185.694 108.794 219.108 108.884 252.524 108.975C252.822 96.9347 253.121 87.0407 253.421 75.0002C240.728 75.0002 167.999 74.1092 152.861 74.6507C152.948 86.1917 152.28 93.8027 152.28 108.704L152.279 108.702Z" stroke="#151515" stroke-width="6" stroke-linecap="round" stroke-linejoin="round"/>
<path d="M266.223 108.702C299.638 108.794 333.052 108.884 366.468 108.975C366.766 96.9347 367.065 87.0407 367.365 75.0002C354.672 75.0002 281.943 74.1092 266.805 74.6507C266.892 86.1917 266.224 93.8027 266.224 108.704L266.223 108.702Z" stroke="#151515" stroke-width="6" stroke-linecap="round" stroke-linejoin="round"/>
<path d="M34.4939 252.158C67.9094 252.249 101.323 252.339 134.739 252.431C135.037 240.39 135.336 230.496 135.636 218.456C122.943 218.456 50.2139 217.565 35.0759 218.106C35.1629 229.647 34.4954 237.258 34.4954 252.159L34.4939 252.158Z" stroke="#151515" stroke-width="6" stroke-linecap="round" stroke-linejoin="round"/>
<path d="M150.999 252.158C184.415 252.249 217.829 252.339 251.244 252.431C251.543 240.39 251.841 230.496 252.141 218.456C239.448 218.456 166.719 217.565 151.581 218.106C151.668 229.647 151.001 237.258 151.001 252.159L150.999 252.158Z" stroke="#151515" stroke-width="6" stroke-linecap="round" stroke-linejoin="round"/>
<path d="M264.942 252.158C298.358 252.249 331.772 252.339 365.187 252.431C365.486 240.39 365.784 230.496 366.084 218.456C353.391 218.456 280.662 217.565 265.524 218.106C265.611 229.647 264.944 237.258 264.944 252.159L264.942 252.158Z" stroke="#151515" stroke-width="6" stroke-linecap="round" stroke-linejoin="round"/>
<path d="M34.4939 299.976C67.9094 300.068 101.323 300.158 134.739 300.249C135.037 288.209 135.336 278.315 135.636 266.274C122.943 266.274 50.2139 265.383 35.0759 265.925C35.1629 277.466 34.4954 285.077 34.4954 299.978L34.4939 299.976Z" stroke="#151515" stroke-width="6" stroke-linecap="round" stroke-linejoin="round"/>
<path d="M150.999 299.976C184.415 300.068 217.829 300.158 251.244 300.249C251.543 288.209 251.841 278.315 252.141 266.274C239.448 266.274 166.719 265.383 151.581 265.925C151.668 277.466 151.001 285.077 151.001 299.978L150.999 299.976Z" stroke="#151515" stroke-width="6" stroke-linecap="round" stroke-linejoin="round"/>
<path d="M264.942 299.976C298.358 300.068 331.772 300.158 365.187 300.249C365.486 288.209 365.784 278.315 366.084 266.274C353.391 266.274 280.662 265.383 265.524 265.925C265.611 277.466 264.944 285.077 264.944 299.978L264.942 299.976Z" stroke="#151515" stroke-width="6" stroke-linecap="round" stroke-linejoin="round"/>
<path d="M34.4939 347.795C67.9094 347.886 101.323 347.976 134.739 348.068C135.037 336.027 135.336 326.133 135.636 314.093C122.943 314.093 50.2139 313.202 35.0759 313.743C35.1629 325.284 34.4954 332.895 34.4954 347.796L34.4939 347.795Z" stroke="#151515" stroke-width="6" stroke-linecap="round" stroke-linejoin="round"/>
<path d="M150.999 347.795C184.415 347.886 217.829 347.976 251.244 348.068C251.543 336.027 251.841 326.133 252.141 314.093C239.448 314.093 166.719 313.202 151.581 313.743C151.668 325.284 151.001 332.895 151.001 347.796L150.999 347.795Z" stroke="#151515" stroke-width="6" stroke-linecap="round" stroke-linejoin="round"/>
<path d="M264.942 347.795C298.358 347.886 331.772 347.976 365.187 348.068C365.486 336.027 365.784 326.133 366.084 314.093C353.391 314.093 280.662 313.202 265.524 313.743C265.611 325.284 264.944 332.895 264.944 347.796L264.942 347.795Z" stroke="#151515" stroke-width="6" stroke-linecap="round" stroke-linejoin="round"/>
<path d="M30.8896 398.795C64.3051 398.886 97.7191 398.976 131.135 399.068C131.433 387.027 131.732 377.133 132.032 365.093C119.339 365.093 46.6096 364.202 31.4716 364.743C31.5586 376.284 30.8911 383.895 30.8911 398.796L30.8896 398.795Z" stroke="#151515" stroke-width="6" stroke-linecap="round" stroke-linejoin="round"/>
<path d="M147.395 398.795C180.81 398.886 214.224 398.976 247.64 399.068C247.938 387.027 248.237 377.133 248.537 365.093C235.844 365.093 163.115 364.202 147.977 364.743C148.064 376.284 147.396 383.895 147.396 398.796L147.395 398.795Z" stroke="#151515" stroke-width="6" stroke-linecap="round" stroke-linejoin="round"/>
<path d="M261.339 398.795C294.754 398.886 328.168 398.976 361.584 399.068C361.882 387.027 362.181 377.133 362.481 365.093C349.788 365.093 277.059 364.202 261.921 364.743C262.008 376.284 261.34 383.895 261.34 398.796L261.339 398.795Z" stroke="#151515" stroke-width="6" stroke-linecap="round" stroke-linejoin="round"/>
</g>
<defs>
<clipPath id="clip0_556_789">
<rect width="388.086" height="432.396" fill="white" transform="translate(0.75 0.676758)"/>
</clipPath>
</defs>
</svg>
