<svg width="326" height="467" viewBox="0 0 326 467" fill="none" xmlns="http://www.w3.org/2000/svg">
<g clip-path="url(#clip0_556_440)">
<path fill-rule="evenodd" clip-rule="evenodd" d="M85.9706 104.103C85.9706 104.103 85.9181 305.556 85.8926 407.061H79.5L81 459L252.75 456V407.448H247.122C246.613 348.364 246.708 289.714 247.407 231C247.908 188.836 248.721 146.64 249.846 104.224C244.596 104.112 241.486 104.311 238.375 104.568C237.573 94.2299 237.982 70.0949 239.554 59.8454C236.82 50.6869 233.923 41.5524 231.026 32.4164L231.025 32.4147L231.001 32.3384C230.791 32.2787 230.803 32.148 230.815 32.0183L230.815 32.0159C231.278 23.7165 231.697 15.4158 232.116 7.11365L232.155 6.35238C188.23 5.47029 144.261 5.52121 100.291 5.57213L100.08 5.57238C101.506 15.2009 102.657 23.7779 103.806 32.3549C101.211 41.3609 98.6141 50.3669 95.8256 59.3789C96.1466 70.2479 96.7916 104.451 96.7916 104.451L85.9706 104.103ZM135.734 217.657C135.782 223.205 135.844 230.385 135.844 240.662L190.802 240.954L191.153 241.305C191.212 236.79 191.3 233.518 191.376 230.65C191.62 221.479 191.754 216.441 190.505 188.114C189.175 157.934 139.126 149.742 136.37 190.008C135.594 201.36 135.632 205.753 135.734 217.657Z" fill="white"/>
<path d="M244.229 230.935C250.76 231.3 257.29 231.663 263.918 232.021C276.001 288.465 285.813 345.654 293.145 403.339" fill="white"/>
<path d="M244.229 230.935C250.76 231.3 257.29 231.663 263.918 232.021C276.001 288.465 285.813 345.654 293.145 403.339H303.75L321 456H244.229V230.935Z" fill="white"/>
<path d="M81 230.935C74.469 231.3 67.9395 231.663 61.311 232.021C49.2285 288.465 39.4155 345.654 32.0835 403.339" fill="white"/>
<path d="M81 230.935C74.469 231.3 67.9395 231.663 61.311 232.021C49.2285 288.465 39.4155 345.654 32.0835 403.339H21.479L4.229 456H81V230.935Z" fill="white"/>
<path d="M105.819 33.8265C106.813 30.7365 105.283 27.702 104.836 24.654C103.681 17.5275 102.438 9.40346 102.061 5.65496C101.979 -0.358537 92.9294 -0.466537 92.8034 5.65496C93.4379 14.9205 96.0479 29.7705 95.8184 31.257C92.8229 40.6905 89.0549 49.9605 86.6384 59.5485C85.8554 69.0225 87.4814 78.525 87.8489 87.996C88.0664 91.188 88.3364 94.3755 88.6154 97.5615C86.0729 97.608 83.3699 97.0065 80.9624 97.9305C76.1954 100.105 76.7639 106.704 76.2749 111.136C76.6034 129.703 78.5594 148.23 78.6134 166.815C78.7004 187.87 77.3279 208.935 78.3224 229.983C78.2024 234.483 84.1109 237.007 87.2639 233.686C88.1834 232.651 88.8374 231.399 88.7984 229.983C88.6874 227.103 88.5764 224.224 88.4864 221.343C88.3469 216.429 88.4699 211.51 88.4894 206.595C88.6454 189.954 89.4509 173.31 88.8824 156.67C88.5239 140.839 86.6339 125.023 86.8589 109.195C86.8739 108.864 86.9144 108.406 86.9579 107.974C91.3784 107.97 97.8524 109.653 99.3404 104.113C99.6884 99.0855 98.5349 93.999 98.3909 88.9455C97.9514 79.545 96.5999 70.1535 96.9719 60.7365C97.8419 58.4115 103.29 41.187 105.816 33.8265H105.819Z" fill="#C1C1C1"/>
<path d="M65.3129 233.814C64.2314 230.821 59.4704 231.088 58.7324 234.232C56.3159 244.771 53.0894 255.117 50.7179 265.677C48.1019 275.508 45.0074 285.237 43.4144 295.308C40.7669 310.398 39.6104 325.68 37.8569 340.884C36.0854 352.882 33.3839 370.954 31.1849 387.192C30.8384 390.01 30.5984 392.841 30.3089 395.665C30.2954 395.745 30.2804 395.824 30.2639 395.904C29.9504 396.084 29.8889 396.124 30.2519 395.971C30.2519 395.973 30.2519 395.976 30.2519 395.979C27.9269 396.994 27.9944 397.029 27.5384 397.203C27.0779 397.383 26.7074 397.549 26.5094 397.645C24.9509 398.269 23.4719 399.057 22.3004 400.299C19.1999 403.428 17.1944 407.413 15.3164 411.348C12.6494 416.92 10.2044 422.605 8.14488 428.431C5.96538 434.782 3.88488 441.174 2.02638 447.627C1.40088 450.966 -0.969117 454.599 0.839883 457.878C2.46288 460.777 6.72888 461.322 9.04938 458.935C10.1654 457.894 10.4639 456.4 10.8329 454.983C11.4944 452.559 12.1784 450.141 12.8864 447.732C17.7404 432.31 20.5814 422.791 27.8534 409.897C28.1699 409.414 28.5089 408.948 28.8479 408.481C29.0729 408.237 29.4434 407.833 29.8049 407.478C29.9039 407.425 30.0329 407.356 30.1814 407.277C30.8909 406.981 31.8809 406.563 32.3489 406.341C41.0024 402.525 40.0634 398.178 41.2034 390.025C42.9809 377.271 46.1144 356.37 48.5504 338.754C50.1524 324.156 51.5489 305.868 53.2364 295.456C56.0039 279.712 59.8934 264.172 63.1199 248.514C63.8804 244.977 64.7069 241.447 65.2499 237.868C65.3354 236.52 65.9609 235.086 65.3129 233.814Z" fill="#C1C1C1"/>
<path d="M318.978 451.065C298.782 452.448 278.58 453.621 258.339 454.149C226.992 455.262 195.629 454.32 164.28 454.488C146.351 454.858 128.451 456.223 110.516 456.309C93.819 456.451 77.1435 455.377 60.45 455.239C43.9125 455.503 27.3855 456.532 10.8885 457.726C8.451 457.879 6.012 458.01 3.57 458.05C2.61 458.044 1.7025 458.437 1.026 459.103C-1.197 461.215 0.444001 465.348 3.57 465.244C16.269 465.457 28.965 464.73 41.664 464.709C65.97 465.291 90.2595 467.049 114.587 466.729C133.508 466.395 152.397 464.979 171.324 464.809C208.14 465.301 244.982 465.51 281.771 463.681C292.029 463.453 302.25 462.588 312.48 461.856C315.287 461.458 318.317 461.982 320.987 461.044C326.108 459.081 324.638 451.002 318.977 451.063L318.978 451.065Z" fill="#C1C1C1"/>
<path d="M189.955 185.5C186.496 174.574 177.61 165.234 166.41 162.267C161.451 161.232 158.097 161.071 150.055 163.803C149.79 163.908 149.535 164.029 149.274 164.143C149.248 164.152 149.169 164.187 149.053 164.236C149.067 164.232 149.077 164.227 149.089 164.223C148.984 164.269 148.878 164.311 148.774 164.359C148.771 164.359 148.767 164.362 148.764 164.364C148.756 164.367 148.749 164.37 148.743 164.373C148.689 164.398 148.632 164.418 148.579 164.445C148.582 164.442 148.593 164.439 148.596 164.436C148.552 164.454 148.509 164.473 148.465 164.491C148.501 164.479 148.543 164.463 148.585 164.448C145.971 165.678 142.962 166.644 140.901 168.666C138.343 171.723 142.296 176.172 145.678 174.108C151.888 170.505 154.564 170.422 157.626 170.749C158.403 170.892 158.383 170.863 158.028 170.718C159.82 171.37 162.469 171.754 163.639 172.182C168.447 173.683 170.065 174.672 174.283 178.834C176.629 181.678 176.623 181.095 178.969 185.839C180.55 189.553 181.314 193.519 181.864 197.503C183.22 207.439 183.376 217.467 182.884 227.47C182.787 230.964 182.667 234.456 182.608 237.951C182.68 239.631 182.178 241.462 182.983 243.013C184.353 246.955 190.3 247.261 192.273 243.637C193.413 241.651 192.898 239.241 193.077 237.049C193.177 232.267 193.336 227.485 193.482 222.705C193.795 210.282 193.242 197.532 189.952 185.502L189.955 185.5Z" fill="#C1C1C1"/>
<path d="M148.774 164.359C148.803 164.346 148.833 164.332 148.861 164.319C148.944 164.281 148.995 164.26 149.052 164.235C148.873 164.295 148.683 164.365 148.594 164.434C148.644 164.413 148.692 164.394 148.741 164.373C148.752 164.368 148.764 164.364 148.774 164.359Z" fill="#C1C1C1"/>
<path d="M245.772 389.644C242.176 385.944 237.034 386.559 232.321 386.431C225.82 386.388 219.319 386.457 212.82 386.569C197.742 386.83 182.668 387.309 167.598 387.829C145.834 387.948 123.976 391.186 102.271 388.881C102.382 381.642 102.451 374.401 102.385 367.161C102.507 350.424 103.216 333.697 103.206 316.956C103.543 297.448 103.395 277.935 103.857 258.427C104.04 243.853 103.267 229.296 102.907 214.731C102.36 191.527 101.613 168.325 100.096 145.164C99.0209 132.633 98.6369 120.901 95.5094 107.382C92.9279 98.7765 80.0114 102.102 82.1744 111.058C84.0644 118.56 83.6489 122.196 83.9789 132.649C84.3464 148.563 83.3144 164.463 83.2904 180.37C83.5004 203.368 83.9504 226.365 84.0044 249.363C83.6654 268.482 82.7789 287.59 82.5524 306.712C82.4399 329.487 81.5294 352.249 81.5699 375.021C81.5744 379.953 81.5009 384.886 81.4139 389.818C81.1859 395.031 80.8334 400.966 85.0769 404.76C89.2049 408.573 95.0429 408.811 100.341 409.521C111.693 411.028 123.159 410.721 134.56 410.053C159.432 408.787 184.33 408.091 209.227 407.533C216.699 407.379 224.173 407.296 231.648 407.326C235.215 407.125 239.106 408.259 242.41 406.588C249.196 404.257 250.93 394.485 245.775 389.644H245.772Z" fill="#DBDBDB"/>
<path d="M253.812 455.062C253.802 450.391 250.296 446.232 245.802 445.379C245.457 445.266 245.121 445.132 244.767 445.044C237.282 444.042 229.602 444.685 222.054 444.108C206.874 443.433 205.317 442.896 191.814 443.27C160.463 443.777 129.104 444.16 97.8466 446.805C96.0811 446.821 94.9861 446.796 94.2451 446.751C93.8971 437.962 94.0621 429.15 93.9676 420.357C93.9046 417 93.8191 413.642 93.6016 410.289C93.5446 407.612 93.4186 404.706 91.3081 402.766C86.8981 398.13 78.5101 401.565 78.6646 408.003C79.4176 415.549 80.5291 430.587 80.4091 432.009C80.4946 444.738 79.0351 451.638 81.3241 455.756C85.8661 463.578 96.6091 462.225 104.387 462.325C112.064 462.033 119.747 461.979 127.428 462.084C151.287 462.454 175.158 462.135 199.013 462.462C206.973 462.967 221.511 464.78 236.391 465.324C239.484 465.345 242.663 465.703 245.657 464.808C245.858 464.763 246.053 464.703 246.249 464.643C250.515 463.608 253.914 459.561 253.812 455.061V455.062Z" fill="#DBDBDB"/>
<path d="M73.0799 453.006C71.2424 446.764 65.5724 445.47 59.7854 446.137C55.1189 446.419 50.4569 446.779 45.7889 447.028C39.0254 447.315 32.2499 447.828 25.4774 447.906C29.6729 436.176 34.7084 421.809 37.3559 416.209C38.3654 413.967 39.8429 411.648 39.0209 409.104C37.7654 403.89 30.1064 402.873 27.5399 407.604C21.0179 419.985 15.3674 432.805 9.87892 445.672C-0.672077 469.02 28.0289 464.892 46.3034 465.048C51.0299 465.016 55.7564 465.277 60.4814 465.268C62.8469 465.003 65.4209 465.39 67.5704 464.23C72.0464 462.699 74.2469 457.437 73.0799 453.004V453.006Z" fill="#DBDBDB"/>
<path d="M71.3266 244.124H71.3086C71.3086 244.124 71.3236 244.131 71.3296 244.133C71.3386 244.133 71.3461 244.131 71.3551 244.13C71.3461 244.128 71.3356 244.125 71.3266 244.124Z" fill="#DBDBDB"/>
<path d="M87.9675 389.319C87.429 378.759 86.934 368.196 86.4855 357.631C85.1745 325.105 86.784 277.921 86.142 252.696C85.413 247.204 85.7385 240.805 82.1895 236.256C79.947 233.643 76.341 232.167 72.93 233.025C72.762 233.058 72.6105 233.121 72.453 233.173C72.3375 233.176 72.0675 233.227 71.6505 233.328C71.2785 233.358 70.716 233.394 70.188 233.386C68.2965 233.455 66.222 232.861 64.47 233.763C58.725 235.993 60.576 244.759 66.6735 244.708C67.371 244.651 68.8155 244.449 69.4305 244.354C70.0575 244.287 70.683 244.213 71.307 244.128C71.295 244.122 71.274 244.119 71.2635 244.113C71.283 244.117 71.304 244.122 71.3235 244.126C71.3655 244.12 71.4075 244.117 71.448 244.111C71.448 244.114 71.448 244.119 71.448 244.119C71.415 244.123 71.3835 244.128 71.3505 244.132C71.385 244.14 71.4195 244.147 71.4555 244.155C71.4555 244.158 71.4555 244.161 71.4555 244.164C71.433 244.161 71.397 244.156 71.3805 244.155C71.3595 244.149 71.3415 244.143 71.3235 244.135C71.082 244.168 70.8405 244.2 70.599 244.233C70.89 244.233 71.181 244.249 71.4735 244.26C71.742 245.709 71.7855 245.644 71.829 247.549C71.853 272.482 69.456 297.376 69.921 322.327C69.819 340.275 70.4835 358.203 71.0115 376.137C71.1045 382.084 71.214 388.033 71.5005 393.973C67.728 393.378 68.19 393.285 61.1565 392.233C57.4845 392.199 48.9975 388.194 44.7825 397.156C42.702 401.329 44.7405 406.695 48.666 409.009C50.8125 410.349 53.3355 410.361 55.7835 410.356C58.8915 410.328 61.9995 410.364 65.103 410.518C73.1025 410.583 85.05 414.442 88.3035 404.272C89.4 399.387 87.975 394.279 87.96 389.32L87.9675 389.319Z" fill="#DBDBDB"/>
<path d="M289.008 402.225C292.286 399.088 291.489 393.307 287.571 391.071C286.439 390.22 283.352 389.97 284.526 390.186C282.99 390.003 281.435 389.97 279.899 389.778C278.654 389.587 278.499 389.584 278.834 389.646C278.756 389.635 278.676 389.626 278.598 389.616C277.938 389.541 277.277 389.482 276.617 389.413C276.221 389.365 275.825 389.316 275.429 389.266C273.084 388.969 267.069 388.233 265.647 388.257C264.396 388.122 263.142 388.09 261.887 388.08C261.818 371.173 262.271 354.262 261.612 337.359C260.931 320.053 259.247 302.802 258.804 285.484C258.291 273.429 258.113 261.363 257.627 249.306C257.451 245.241 257.292 241.168 256.791 237.129C256.26 234.64 256.661 231.679 254.921 229.654C251.547 224.917 243.639 227.589 243.749 233.446C245.777 251.73 244.904 270.229 245.129 288.598C244.955 305.098 245.969 321.576 246.156 338.071C246.267 356.712 246.188 375.382 245.414 394.003C244.634 406.519 258.318 405.109 267.009 405.742C271.232 405.937 275.51 406.077 279.695 405.384C281.576 405.111 283.458 404.766 285.264 404.188C286.671 403.923 287.993 403.248 289.007 402.226L289.008 402.225Z" fill="#DBDBDB"/>
<path d="M318.153 442.575C315.949 442.092 313.743 441.624 311.533 441.177C297.157 438.1 282.466 440.646 267.981 441.448C265.989 430.95 266.01 429.848 264.549 412.293C264.045 408.492 265.719 403.935 262.597 400.956C259.153 397.375 252.601 399.063 251.394 403.914C249.969 414.434 250.056 425.097 249.913 435.693C250.288 443.225 246.807 452.937 253.086 458.739C258.186 463.428 265.624 462.19 271.983 461.922C279.436 461.388 286.893 460.857 294.36 460.569C301.107 460.521 307.818 459.977 314.515 459.188C318.189 458.812 324.34 459.193 325.221 450.72C325.212 446.689 322.089 443.121 318.153 442.575Z" fill="#DBDBDB"/>
<path d="M229.648 95.1359C227.965 89.3024 222.093 90.0164 217.254 90.0854C209.739 90.0989 202.222 90.1244 194.707 90.2384C172.744 91.0529 150.804 88.9679 128.85 90.1919C121.608 90.2999 114.361 90.9704 107.119 90.8024C107.107 90.6269 107.095 90.4529 107.083 90.2774C106.813 87.3869 106.218 80.8424 105.928 73.4624C105.55 69.0944 105.67 64.4804 104.463 60.2774C102.192 54.3014 92.9415 56.1944 93.024 62.5799C94.701 76.6844 93.6225 88.6874 93.6105 94.2959C93.9195 104.757 106.225 104.866 114.052 104.218C122.065 103.821 130.074 103.288 138.1 103.261C149.196 102.96 160.27 103.753 171.357 104.034C182.514 104.199 193.671 103.764 204.829 103.728C210.16 103.669 215.49 103.794 220.821 103.846C226.228 104.518 230.97 100.921 229.648 95.1359Z" fill="#DBDBDB"/>
<path d="M220.006 25.4204C219.064 25.2464 218.118 25.0919 217.168 24.9599C217.933 25.0604 218.473 25.1114 216.828 24.8459C193.449 19.7774 169.465 22.8809 145.788 22.2884C136.704 22.0979 127.555 21.8294 118.539 23.1434C114.546 23.9204 110.014 24.0464 106.815 26.8349C105.433 27.9419 104.686 29.5064 104.307 31.1804C103.851 31.6169 103.44 32.1239 103.108 32.7224C101.086 36.5234 99.4125 40.4879 97.74 44.4509C96.8205 46.8344 95.523 49.1444 95.0415 51.6569C95.091 51.2729 95.067 51.3284 94.818 52.5329C94.8 52.6499 94.785 52.7519 94.767 52.8599C94.77 52.8359 94.7715 52.8239 94.7745 52.7999C94.6035 53.4119 94.5765 54.0539 94.5135 54.6854C94.2435 60.5939 101.574 63.8549 105.747 59.6354C106.215 59.2229 106.564 58.7219 106.849 58.1819C106.927 58.0514 107.005 57.9224 107.08 57.7919C109.003 54.5549 110.277 50.9909 111.666 47.4839C113.146 44.8394 114.676 42.2219 116.146 39.5714C116.413 39.0719 116.65 38.5454 116.866 38.0084C124.578 37.6724 142.408 38.0714 153.336 38.3324C166.665 38.2244 179.992 37.7369 193.324 37.9529C199.597 38.0384 205.857 38.4449 212.118 38.8139C216.141 38.7089 221.026 40.0874 224.202 36.9539C228.285 33.0434 225.51 25.8074 220.008 25.4264L220.006 25.4204Z" fill="#DBDBDB"/>
<path d="M116.79 12.402C115.755 8.64148 114.862 4.29148 111.132 2.28298C104.058 -1.98752 95.0324 4.95148 97.3259 12.897C98.3924 17.532 97.7609 14.5695 98.7344 21.453C99.0944 27.888 104.916 32.889 111.348 31.0845C120.379 28.038 118.983 19.794 116.79 12.402Z" fill="#DBDBDB"/>
<path d="M294.552 403.483C297.457 403.758 300.364 404.032 303.27 404.307C303.279 404.398 303.288 404.491 302.949 404.703C308.985 422.191 315.021 439.678 321.058 457.167L239.556 456.6" stroke="#151515" stroke-width="6" stroke-linecap="round" stroke-linejoin="round"/>
<path d="M85.5735 232.54C79.0425 232.905 72.513 233.268 65.8845 233.626C53.802 290.07 43.989 347.259 36.657 404.944" stroke="#151515" stroke-width="6" stroke-linecap="round" stroke-linejoin="round"/>
<path d="M35.2499 405.087C32.3444 405.361 29.4374 405.636 26.5319 405.91C26.5229 406.002 26.5139 406.095 26.8529 406.306C20.8169 423.795 14.7809 441.282 8.74341 458.77L251.719 457.081L252.724 409.53L80.9309 408.139L80.6804 459.387" stroke="#151515" stroke-width="6" stroke-linecap="round" stroke-linejoin="round"/>
<path d="M244.229 230.935C250.76 231.3 257.289 231.663 263.918 232.021C276 288.465 285.813 345.654 293.145 403.339" stroke="#151515" stroke-width="6" stroke-linecap="round" stroke-linejoin="round"/>
<path d="M37.134 405.178C52.983 405.022 68.832 404.866 84.681 404.71" stroke="#151515" stroke-width="6" stroke-linecap="round" stroke-linejoin="round"/>
<path d="M294.04 403.475C278.898 402.869 263.757 402.262 248.615 401.656" stroke="#151515" stroke-width="6" stroke-linecap="round" stroke-linejoin="round"/>
<path d="M85.8929 407.061C85.9184 305.556 85.9709 104.103 85.9709 104.103L96.7919 104.451C96.7919 104.451 96.1469 70.248 95.8259 59.379C98.6144 50.367 101.211 41.361 103.806 32.355C102.657 23.778 101.506 15.201 100.08 5.5725C144.12 5.5215 188.16 5.469 232.155 6.3525C231.723 14.9085 231.292 23.463 230.815 32.016C230.803 32.1465 230.79 32.2785 231.001 32.3385C233.907 41.5005 236.812 50.661 239.554 59.8455C237.982 70.095 237.573 94.23 238.375 104.568C241.486 104.311 244.596 104.112 249.846 104.225C247.156 205.706 246.247 305.935 247.122 407.448" stroke="#151515" stroke-width="6" stroke-linecap="round" stroke-linejoin="round"/>
<path d="M96.96 103.879C144.492 104.109 192.024 104.337 239.554 104.566" stroke="#151515" stroke-width="6" stroke-linecap="round" stroke-linejoin="round"/>
<path d="M96.6479 60.663C144.841 60.7635 191.149 61.188 239.344 61.29" stroke="#151515" stroke-width="6" stroke-linecap="round" stroke-linejoin="round"/>
<path d="M105.38 34.4909C147.573 34.1519 188.469 34.3334 230.664 33.9944" stroke="#151515" stroke-width="6" stroke-linecap="round" stroke-linejoin="round"/>
<path d="M135.844 240.661C135.844 208.336 135.232 206.65 136.371 190.008C139.126 149.742 189.175 157.933 190.506 188.113C192.145 225.3 191.401 222.352 191.154 241.305L190.803 240.954L135.844 240.661Z" stroke="#151515" stroke-width="6" stroke-linecap="round" stroke-linejoin="round"/>
</g>
<defs>
<clipPath id="clip0_556_440">
<rect width="325.221" height="465.787" fill="white" transform="translate(0 0.980957)"/>
</clipPath>
</defs>
</svg>
